<svg xmlns="http://www.w3.org/2000/svg" viewBox="0 0 254.52 243"><title>blindfold_1</title><path d="M239.5,89.5A89.5,89.5,0,1,1,150,0c40.81,0,73.71,29.8,84.92,61.17A79.45,79.45,0,0,1,239.5,89.5Z" style="fill:#346ace"/><rect x="138.5" y="55" width="101" height="150" rx="23.43" style="fill:#346ace"/><rect x="96.5" y="93" width="101" height="150" rx="8" style="fill:#346ace"/><path d="M230.5,148c3.89.47,5.84-6.67,14-8,4.45-.73,7-1,9-4s.61-5.15,0-7c-10.31-31.24-10.2-49.84-17-50-7.84-.18-16.09,24.4-15,45C222.1,135.25,225.59,147.41,230.5,148Z" style="fill:#346ace"/><path d="M244.5,73.9,251,105.73a6.06,6.06,0,0,1-5.93,7.27H63.28a6.05,6.05,0,0,1-6.05-5.77L55.8,77.28a6.06,6.06,0,0,1,6-6.35c57.91-.62,118.82-1.25,176.72-1.88A6.06,6.06,0,0,1,244.5,73.9Z" style="fill:#2758a8;stroke:#fff;stroke-miterlimit:10;stroke-width:3px"/><path d="M27.5,138a182.8,182.8,0,0,1-5.65,21.13L0,107.5C14.12,85,32.63,75.15,54,73.5A38.75,38.75,0,0,0,52.14,82C38.69,93.73,33.59,104.77,31.5,113,29.69,120.12,30.12,125.14,27.5,138Z" style="fill:#2758a8"/><path d="M76,192.5c-17.67-.33-35.33.33-53,0-.05-1.75-.11-2.51-.16-4.26,2.14-2.65,5.61-7.67,6.66-12.24,6-26,3-29,7-49,1.82-9.1,6.85-23.18,17.1-38.29-.19,9-1.05,21.84,2.9,35.29,5.75,19.57,12.88,33.29,18.5,38.5Q75.5,177.5,76,192.5Z" style="fill:#2758a8"/></svg>