<svg xmlns="http://www.w3.org/2000/svg" viewBox="0 0 342.6 295.99"><title>data-model_1</title><path d="M199,143.26c-.25,17.47-11,33.6-27.62,39.63a42.22,42.22,0,0,1-50.8-61.3c9-15.06,27.15-23.29,44.42-19.75a42.74,42.74,0,0,1,34,41.42c.09,6.17,9.69,6.19,9.6,0a52.53,52.53,0,0,0-34.67-48.89c-20.21-7.24-43.71-.52-57.2,16.1s-15.54,40.75-4.44,59.3a52.39,52.39,0,0,0,53.94,24.41c24.53-4.31,42-26.39,42.37-50.92C208.69,137.08,199.09,137.07,199,143.26Z" style="fill:#346ace"/><path d="M255,262.76c-.31,12.92-10.54,23.7-23.7,23.7a23.7,23.7,0,0,1,0-47.4c13.17,0,23.39,10.75,23.7,23.7.15,6.16,9.75,6.19,9.6,0a33.31,33.31,0,1,0-27.27,32.72c15.87-2.78,26.89-16.93,27.27-32.72C264.75,256.58,255.15,256.58,255,262.76Z" style="fill:#346ace"/><path d="M333,106.76c-.25,13.19-8.3,25.37-20.93,29.84a32.11,32.11,0,0,1-35-9.34c-18.94-22,1.26-57,29.77-51.73A32.11,32.11,0,0,1,333,106.76c.12,6.17,9.72,6.19,9.6,0a41.31,41.31,0,1,0-33.17,40.48c19.32-3.68,32.81-21.17,33.17-40.48C342.72,100.58,333.12,100.58,333,106.76Z" style="fill:#346ace"/><path d="M213.5,28.26c-.29,10.19-8.28,18.7-18.7,18.7a18.87,18.87,0,0,1-18.7-18.7,18.85,18.85,0,0,1,18.7-18.7c10.42,0,18.41,8.5,18.7,18.7.18,6.16,9.78,6.19,9.6,0-.34-11.81-7.29-22.33-18.49-26.52a28.47,28.47,0,0,0-31.54,8.42C156.43,30.25,174.62,60.79,200.15,56c13.43-2.5,22.56-14.42,22.95-27.77C223.28,22.08,213.68,22.08,213.5,28.26Z" style="fill:#346ace"/><path d="M50,58.26c-.3,11-9,20.2-20.2,20.2a20.2,20.2,0,0,1,0-40.4c11.24,0,19.9,9.18,20.2,20.2.17,6.16,9.77,6.19,9.6,0-.33-12.4-7.66-23.48-19.39-27.91A30,30,0,0,0,7,39.08c-17.54,21,1.23,53.22,28.12,48.48,14.26-2.51,24.09-15.12,24.47-29.3C59.77,52.08,50.17,52.08,50,58.26Z" style="fill:#346ace"/><path d="M41,219.76c-.28,8.56-6.92,15.7-15.7,15.7a15.7,15.7,0,0,1-.67-31.38c9-.38,16.08,6.85,16.37,15.68.2,6.16,9.8,6.19,9.6,0-.44-13.76-11.23-25.3-25.3-25.3a25.3,25.3,0,0,0,0,50.6c14.07,0,24.86-11.55,25.3-25.3C50.8,213.58,41.2,213.58,41,219.76Z" style="fill:#346ace"/><path d="M100.29,175.67l-49,25c-3.44,1.75-.41,6.93,3,5.18l49-25c3.44-1.76.41-6.94-3-5.18Z" style="fill:#346ace"/><path d="M181.41,62l-9.5,23.5c-1.45,3.58,4.35,5.13,5.78,1.59l9.5-23.5c1.45-3.57-4.35-5.13-5.78-1.59Z" style="fill:#346ace"/><path d="M248.5,114.86l-31.5,6.5c-3.78.78-2.18,6.57,1.6,5.79l31.5-6.5c3.78-.78,2.18-6.57-1.6-5.79Z" style="fill:#346ace"/><path d="M104.62,98.49l-37-21C64.69,75.83,62,80.35,65,82l37,21c2.93,1.67,5.58-2.86,2.64-4.53Z" style="fill:#346ace"/><path d="M212.89,223.24l-19-28c-2.16-3.17-7.36-.18-5.18,3l19,28c2.16,3.18,7.36.18,5.18-3Z" style="fill:#346ace"/></svg>