<svg xmlns="http://www.w3.org/2000/svg" viewBox="0 0 574 302.5"><title>devices_1</title><rect x="160.5" y="16.5" width="348.48" height="229" rx="12" style="fill:#346ace;stroke:#346ace;stroke-miterlimit:10;stroke-width:22px"/><path d="M557.5,271.5v11.39a15.61,15.61,0,0,1-15.61,15.61H128.11a15.61,15.61,0,0,1-15.61-15.61V271.5H261.08c17,6.68,44,11,74.42,11s57.46-4.32,74.42-11Z" style="fill:#346ace"/><path d="M141.5,73.5h37.31A21.69,21.69,0,0,1,200.5,95.19V279.81a21.69,21.69,0,0,1-21.69,21.69H141.5a0,0,0,0,1,0,0V73.5A0,0,0,0,1,141.5,73.5Z" style="fill:#fff"/><rect x="47.5" y="86" width="141.03" height="204.5" rx="12" style="fill:#346ace;stroke:#346ace;stroke-miterlimit:10;stroke-width:16px"/><path d="M30.65,302.5h34A17.9,17.9,0,0,0,82.5,284.65v-96.3A17.9,17.9,0,0,0,64.65,170.5h-34a1,1,0,0,0-1,1V301.54A1,1,0,0,0,30.65,302.5Z" style="fill:#fff"/><rect x="6.5" y="176" width="69.19" height="120" rx="12" style="fill:#346ace;stroke:#346ace;stroke-miterlimit:10;stroke-width:5.0529115263991145px"/><rect width="574" height="301" style="fill:none"/></svg>