<svg xmlns="http://www.w3.org/2000/svg" viewBox="0 0 828 828"><title>governance</title><path d="M0,414C0,185.35,185.35,0,414,0S828,185.35,828,414,642.65,828,414,828,0,642.65,0,414Z" style="fill:#346ace;fill-rule:evenodd"/><path d="M607.36,330.85H220.64c-11.79,0-17-14.87-7.73-22.19L406.27,155.33a12.44,12.44,0,0,1,15.46,0L615.09,308.66C624.33,316,619.15,330.85,607.36,330.85Z" style="fill:#fff;fill-rule:evenodd"/><rect x="232.82" y="362.64" width="59.56" height="220.06" rx="10.67" style="fill:#fff"/><rect x="333.75" y="362.64" width="59.56" height="220.06" rx="10.67" style="fill:#fff"/><rect x="434.68" y="362.64" width="59.56" height="220.06" rx="10.67" style="fill:#fff"/><rect x="535.61" y="362.64" width="59.56" height="220.06" rx="10.67" style="fill:#fff"/><rect x="208.17" y="615.79" width="411.65" height="59.56" rx="16.27" style="fill:#fff"/></svg>