<svg xmlns="http://www.w3.org/2000/svg" viewBox="0 0 828 828"><title>it</title><path d="M0,414C0,185.35,185.35,0,414,0S828,185.35,828,414,642.65,828,414,828,0,642.65,0,414Z" style="fill:#346ace;fill-rule:evenodd"/><path d="M403.27,309.9,457.12,256A81.51,81.51,0,0,1,572,256h0a81.51,81.51,0,0,1,0,114.89L506.5,436.39a81.51,81.51,0,0,1-114.89,0h0" style="fill:none;stroke:#fff;stroke-linecap:round;stroke-miterlimit:10;stroke-width:40.61207388241361px"/><path d="M424.73,518.1,370.88,572A81.51,81.51,0,0,1,256,572h0a81.51,81.51,0,0,1,0-114.89l65.51-65.51a81.51,81.51,0,0,1,114.89,0h0" style="fill:none;stroke:#fff;stroke-linecap:round;stroke-miterlimit:10;stroke-width:40.61207388241361px"/></svg>