<svg xmlns="http://www.w3.org/2000/svg" viewBox="0 0 828 828"><title>management</title><path d="M0,414C0,185.35,185.35,0,414,0S828,185.35,828,414,642.65,828,414,828,0,642.65,0,414Z" style="fill:#346ace;fill-rule:evenodd"/><circle cx="322.73" cy="322.61" r="34.06" style="fill:none;stroke:#fff;stroke-linecap:round;stroke-linejoin:round;stroke-width:22.72281821155161px"/><path d="M406.83,356.59a18.74,18.74,0,0,0,3.74,20.68l.64.73a22.7,22.7,0,0,1,.33,32.11l-.33.33h0a22.61,22.61,0,0,1-32,.44l-.45-.44h0l-.64-.65a19,19,0,0,0-32.44,13.38v1.95a22.71,22.71,0,1,1-45.42,0v-1.05a19.67,19.67,0,0,0-32.93-13.39l-.73.65a22.7,22.7,0,0,1-32.11.33l-.33-.33h.89a22.71,22.71,0,0,1-.32-32.11l.32-.33h0l.65-.65a18.9,18.9,0,0,0-13.38-32.44h-1.86a22.71,22.71,0,1,1,0-45.41h1.05a19.53,19.53,0,0,0,13.54-32.52l-.81-.49a22.64,22.64,0,0,1-.44-32l.44-.44h0a22.71,22.71,0,0,1,32.12-.33l.32.33h0l.73.65a18.75,18.75,0,0,0,20.68,3.81h.9a18.89,18.89,0,0,0,10.94-17.11v-1.95a22.71,22.71,0,0,1,45.42,0v1.06a18.83,18.83,0,0,0,11.35,17.11,18.58,18.58,0,0,0,20.77-3.57l.73-.65a22.61,22.61,0,0,1,32-.44l.45.44h0a22.64,22.64,0,0,1,.44,32l-.44.44h0l-.65.73a18.57,18.57,0,0,0-3.73,20.68V289a18.72,18.72,0,0,0,16.78,10.79H425a22.71,22.71,0,0,1,0,45.42H424A18.82,18.82,0,0,0,406.83,356.59Z" style="fill:none;stroke:#fff;stroke-linecap:round;stroke-linejoin:round;stroke-width:22.72281821155161px"/><circle cx="512.94" cy="512.78" r="34.06" style="fill:none;stroke:#fff;stroke-linecap:round;stroke-linejoin:round;stroke-width:22.72281821155161px"/><path d="M577.76,576.23a18.74,18.74,0,0,0-4.43,20.55l.32.92a22.7,22.7,0,0,1-11.93,29.81l-.43.18h0a22.62,22.62,0,0,1-29.75-11.78l-.24-.58h0l-.35-.84a19,19,0,0,0-35.1,0l-.74,1.8a22.71,22.71,0,1,1-42-17.3l.4-1a19.67,19.67,0,0,0-25.35-24.92l-.92.32a22.7,22.7,0,0,1-29.81-11.92l-.18-.43.82.34A22.71,22.71,0,0,1,410,531.6l.43-.18h0l.85-.35a18.89,18.89,0,0,0,0-35.09l-1.72-.71a22.71,22.71,0,1,1,17.3-42l1,.4a19.53,19.53,0,0,0,24.91-24.91l-.56-.76A22.62,22.62,0,0,1,464,398.26l.58-.25h0a22.71,22.71,0,0,1,29.81,11.93l.18.43h0l.43.88a18.72,18.72,0,0,0,17.67,11.4l.82.34a18.89,18.89,0,0,0,16.64-11.65l.74-1.8a22.71,22.71,0,0,1,42,17.3l-.4,1a18.82,18.82,0,0,0,4,20.15A18.59,18.59,0,0,0,597,452.57l.92-.32A22.64,22.64,0,0,1,627.63,464l.24.58h0a22.63,22.63,0,0,1-11.78,29.75l-.58.24h0l-.88.43a18.58,18.58,0,0,0-11.33,17.7l-.34.82a18.75,18.75,0,0,0,11.42,16.37l1.8.74a22.71,22.71,0,0,1-17.3,42l-1-.4A18.81,18.81,0,0,0,577.76,576.23Z" style="fill:none;stroke:#fff;stroke-linecap:round;stroke-linejoin:round;stroke-width:22.72281821155161px"/></svg>