<svg xmlns="http://www.w3.org/2000/svg" viewBox="0 0 828 828"><title>marketing</title><path d="M0,414C0,185.35,185.35,0,414,0S828,185.35,828,414,642.65,828,414,828,0,642.65,0,414Z" style="fill:#346ace;fill-rule:evenodd"/><path d="M566.66,296.78a152.74,152.74,0,0,1-37.43,100.94A128,128,0,0,0,498,481.58v44.75A19.67,19.67,0,0,1,478.33,546h-132a19.67,19.67,0,0,1-19.67-19.67V479.24a128.23,128.23,0,0,0-30.37-82.86A153.33,153.33,0,0,1,408.05,144.09C494.15,141.17,566.36,210.63,566.66,296.78Z" style="fill:#fff;fill-rule:evenodd"/><rect x="324" y="578.66" width="177.33" height="41.33" rx="20.67" style="fill:#fff"/><rect x="333.33" y="642.66" width="158.67" height="41.33" rx="20.67" style="fill:#fff"/></svg>