<svg xmlns="http://www.w3.org/2000/svg" viewBox="0 0 290.56 205.3"><title>running-man_1</title><path d="M268.55,29.21C268.25,40,259.8,49,248.8,49A19.93,19.93,0,0,1,229,29.21,19.93,19.93,0,0,1,248.8,9.45c11,0,19.45,9,19.75,19.76.17,6.09,9.66,6.11,9.49,0C277.69,16.9,270.37,6,258.67,1.7a29.42,29.42,0,0,0-32.28,8.76c-17.19,20.68,1.39,52.24,27.77,47.48C268.1,55.42,277.65,43.07,278,29.21,278.21,23.1,268.72,23.11,268.55,29.21Z" style="fill:#346ace"/><path d="M84.37,203.53,211.66,76.25h-8.49l36.13,36.12a6.08,6.08,0,0,0,8.48,0l41-41c5.47-5.47-3-14-8.48-8.49l-41,41h8.48L211.66,67.76a6.1,6.1,0,0,0-8.49,0L75.89,195.05c-5.47,5.46,3,13.95,8.48,8.48Z" style="fill:#346ace"/><path d="M209.61,66.22,173.49,30.09a6.1,6.1,0,0,0-8.49,0l-41,41c-5.47,5.47,3,14,8.49,8.49l41-41H165L201.13,74.7c5.46,5.47,14-3,8.48-8.48Z" style="fill:#346ace"/><path d="M187.43,194.38l36.13-36.12a6.1,6.1,0,0,0,0-8.49l-41-41c-5.47-5.46-14,3-8.49,8.49l41,41v-8.49L179,185.9c-5.47,5.47,3,13.95,8.48,8.48Z" style="fill:#346ace"/><path d="M83.8,54.21h-58c-7.73,0-7.74,12,0,12h58c7.72,0,7.73-12,0-12Z" style="fill:#346ace"/><path d="M70.8,101.21H5.8c-7.73,0-7.74,12,0,12h65c7.72,0,7.73-12,0-12Z" style="fill:#346ace"/></svg>