<svg xmlns="http://www.w3.org/2000/svg" viewBox="0 0 230.78 320.67"><title>secure</title><path d="M115.43,89.91A116.89,116.89,0,0,0,7,165.57c-16.86,45-2.58,98.08,34.49,128.54,37.45,30.76,91.35,35.54,133.16,10.47s63.3-74.51,53.94-122.2c-9-46.06-47.77-83.58-94.19-90.87a128.39,128.39,0,0,0-19-1.6c-11.58-.08-11.6,17.92,0,18,40.22.26,77.74,25.55,91.52,63.7A98.8,98.8,0,0,1,177.13,281c-31.43,26.14-77.7,28.85-112.42,7.74s-53.18-63-44.83-102.86c9.45-45.07,49.59-77.64,95.55-77.93C127,107.83,127,89.83,115.43,89.91Z" style="fill:#346ace"/><path d="M118.43,211.35v11c0,3.76.63,8.1,0,11.81-.45,2.68-3.74,4.9-5.58,1.72-1.24-2.14-.42-6.32-.42-8.68,0-4.87.13-9.75,0-14.61-.07-2.83-.5-5.5-2.63-7.64-2.71-2.7-5.91-3.75-8-7.2-6.69-11.05,2.13-25.58,15.14-24.35,16,1.51,19.1,22.44,5.94,30.15-10,5.84-.94,21.41,9.08,15.54,13.64-8,21-24.68,15.87-40a34,34,0,0,0-64.81,0c-5,15.37,2.16,32,15.86,40l-4.46-7.77V232c0,12.19,7.79,23.4,21,23.4s21-11.21,21-23.4V211.35C136.43,199.76,118.43,199.75,118.43,211.35Z" style="fill:#346ace"/><path d="M184.3,86.41V131.5l15.37-6.37a115.49,115.49,0,0,0-167.73-.26l15.36,6.37v-32c0-13.18-.11-25.84,4.92-38.36,15-37.24,60.75-54.06,96.07-34.7a69.45,69.45,0,0,1,36,60.25c.12,11.57,18.12,11.6,18,0A86.75,86.75,0,0,0,97,2C74.86,6.8,55.29,20.91,43,39.84,33,55.17,29.3,72.64,29.3,90.7v40.54c0,7.67,9.92,12,15.37,6.36a97.5,97.5,0,0,1,142.27.26c5.42,5.7,15.36,1.3,15.36-6.36V86.41C202.3,74.82,184.3,74.81,184.3,86.41Z" style="fill:#346ace"/></svg>