<?xml version="1.0" encoding="utf-8"?>
<!-- Generator: Adobe Illustrator 24.0.1, SVG Export Plug-In . SVG Version: 6.00 Build 0)  -->
<svg version="1.1" id="Layer_1" xmlns:serif="http://www.serif.com/"
	 xmlns="http://www.w3.org/2000/svg" xmlns:xlink="http://www.w3.org/1999/xlink" x="0px" y="0px" viewBox="0 0 1024 768"
	 style="enable-background:new 0 0 1024 768;" xml:space="preserve">
<style type="text/css">
	.st0{fill:none;}
	.st1{fill:none;stroke:#000000;stroke-width:30;stroke-linecap:round;stroke-linejoin:round;stroke-miterlimit:1.8293;}
	.st2{fill:none;stroke:#000000;stroke-width:30;stroke-linecap:round;stroke-linejoin:round;stroke-miterlimit:10;}
</style>
<g transform="matrix(1,0,0,1,-6411,-220)">
	<rect id="Artboard3" x="6267.7" y="114.9" class="st0" width="1304.8" height="978.1"/>
	<g id="Artboard31" serif:id="Artboard3">
		<g id="Layer1">
			<g transform="matrix(0.530682,-0.530682,0.657867,0.657867,2728.87,4107.07)">
				<path class="st1" d="M7505.1,584.2c0-23.8-24-43.1-53.5-43.1h-113.9c-29.5,0-53.5,19.3-53.5,43.1c0,23.8,24,43.1,53.5,43.1
					h113.9C7481.2,627.3,7505.1,608,7505.1,584.2z"/>
			</g>
			<g transform="matrix(1.01865,-1.01865,0.657867,0.657867,-814.368,7408.63)">
				<path class="st1" d="M7184.3,724.8l167.1-1.5c15.4,0,27.9-19.3,27.9-43.1c0-23.8-12.5-43.1-27.9-43.1l-156.5-2.8
					c-31.1-0.4-58.1-15.1-82-38.5"/>
			</g>
			<g transform="matrix(0.46327,-0.46327,0.657867,0.657867,3325.11,3749.3)">
				<path class="st1" d="M7538.6,489.5c0-23.8-27.5-43.1-61.3-43.1H7379c-33.8,0-61.3,19.3-61.3,43.1c0,23.8,27.5,43.1,61.3,43.1
					h98.4C7511.2,532.7,7538.6,513.3,7538.6,489.5z"/>
			</g>
			<g transform="matrix(0.46327,-0.46327,0.657867,0.657867,3401.49,3915)">
				<path class="st1" d="M7589,393.4c0-23.8-27.5-43.1-61.3-43.1h-98.4c-33.8,0-61.3,19.3-61.3,43.1c0,23.8,27.5,43.1,61.3,43.1
					h98.4C7561.5,436.6,7589,417.2,7589,393.4z"/>
			</g>
			<path class="st2" d="M6835.2,604c-6.4-47.5-26.3-87.3-56.9-120.6c0,0-33.1-37.9-67.1-20.6c-34,17.3-21.5,41-16.9,47.7
				c4.6,6.8,45.3,68.6,47.4,109.4c2,40.7,6.7,88.7,19.9,120.9c13.2,32.2,30.8,71.4,73,71.6c42.2,0.3,53.8-33.9,57.5-55.8"/>
			<path class="st2" d="M7161.7,729.4l-65.7,69.9c0,0-82.5,81.1-166,66.3c-83.5-14.8-126.9-57.8-147.7-84.4"/>
			<path class="st2" d="M6745.6,683l-77.4,77.9c0,0-48.6,43.2,39.6,134.5c88.2,91.4,131.4,64,141.2,53.9s77.8-82,77.8-82"/>
			<path class="st2" d="M6745.5,245l85.3,185.7"/>
			<path class="st2" d="M6883.7,296.5l7.8,95"/>
			<path class="st2" d="M7003.6,271.2l-49.1,120.3"/>
		</g>
	</g>
</g>
</svg>
