<svg xmlns="http://www.w3.org/2000/svg" viewBox="0 0 224.44 297.72"><title>simple-click-icon</title><path d="M186.17,107c-7.24-6.62-17.75-8.57-26.5-3.54-3.65,2.1-6.54,5.46-9.49,8.4-7,7-15.17,13.67-21.17,21.55-12.75,16.7,4.4,41,24.45,34.14,5-1.72,8.49-5.2,12.11-8.82l12.64-12.64c3.32-3.32,7-6.51,9.88-10.25,6.78-8.91,5.44-20.79-1.92-28.84-5.22-5.71-13.69,2.79-8.49,8.49,7.4,8.08-.8,15-6.35,20.51-5.71,5.71-11.35,11.5-17.14,17.13-9.57,9.32-23.82-3.46-14.75-13.55,4.75-5.28,10.11-10.11,15.13-15.13,6-6,14.1-17.2,23.11-9C183.38,120.7,191.88,112.23,186.17,107Z" style="fill:#346ace"/><path d="M140.16,138.87c22.38-22.64,45.46-44.75,67.22-68,10.09-10.77,8.44-28.83-5.58-35.6-10.4-5-20.15-.8-27.75,6.62L131.83,83.17l-18.49,18.07A86.63,86.63,0,0,1,71.45,124c-7.52,1.75-4.34,13.32,3.19,11.57a97.08,97.08,0,0,0,46.07-24.74c3.24-3.13,6.44-6.29,9.65-9.43l43.11-42.12c3.79-3.71,7.47-7.63,11.43-11.18,9.88-8.85,22.92,4.52,14,14.27-10.33,11.36-21.68,21.93-32.47,32.84l-34.81,35.2c-5.43,5.49,3.05,14,8.49,8.48Z" style="fill:#346ace"/><path d="M203.53,135.07c-6.09-5.57-14.51-8-22.53-5.3-4.75,1.63-8.12,4.83-11.56,8.28l-11.11,11.1c-3.07,3.07-6.34,6-8.28,10-7.89,16.16,6.54,34.59,24.06,31.25,9.79-1.86,17.07-11.82,23.75-18.5,3.35-3.35,7.32-6.66,9.53-10.92,4.55-8.75,2.66-18.74-3.86-25.88-5.22-5.71-13.69,2.8-8.48,8.49,8.36,9.15-3.42,17.57-9.44,23.59-5.67,5.68-14.34,17.3-22.89,8.74s3.06-17.22,8.74-22.89c6-6,14.44-17.81,23.59-9.44C200.74,148.76,209.25,140.3,203.53,135.07Z" style="fill:#346ace"/><path d="M218.08,166.64c-6.09-5.57-14.51-8-22.53-5.3-4.75,1.62-8.12,4.83-11.56,8.27l-11.11,11.1c-3.07,3.07-6.34,6-8.28,10-7.89,16.15,6.54,34.58,24.06,31.25,9.79-1.87,17.07-11.82,23.75-18.5,3.35-3.35,7.32-6.67,9.53-10.92,4.55-8.75,2.66-18.75-3.86-25.88-5.22-5.71-13.69,2.79-8.48,8.48,8.36,9.16-3.42,17.58-9.44,23.6-5.68,5.67-14.34,17.29-22.89,8.74s3.06-17.23,8.74-22.9c6-6,14.44-17.8,23.59-9.44C215.29,180.33,223.8,171.86,218.08,166.64Z" style="fill:#346ace"/><path d="M83.68,147.72c-3-21-13.51-44.51-31.48-56.93-9.62-6.64-21.3-7.51-30.93-.39-7.66,5.67-10.2,15-5.54,23.43,3.25,5.9,7.18,11.4,10.3,17.41,4.93,9.5,8.14,18.68,8.81,29.38.85,13.64,2.09,27.8,6.4,40.84,3.25,9.84,7.89,20.55,15.27,28,8.84,8.94,22.93,11.76,34.35,6.11,9.11-4.51,13.78-14.17,15.48-23.76,1.34-7.55-10.22-10.8-11.57-3.19-1.08,6.05-3.12,13-9,16.07-7.42,3.94-16.24,1.33-21.65-4.59-5.68-6.23-9.35-15.29-11.8-23.26C49,186,47.8,174.47,47,163.15c-.68-9.62-1.79-18-5.51-27a157.61,157.61,0,0,0-11.38-22c-1.83-3-5.12-6.45-4.87-9.59.27-3.39,4.54-5.88,7.38-6.81,3.89-1.26,7.83,0,11.23,2,6.45,3.75,11.33,10.19,15.36,16.3a84.54,84.54,0,0,1,12.89,34.91c1.09,7.62,12.66,4.38,11.57-3.19Z" style="fill:#346ace"/><path d="M203.87,195.07c-9.51,10.12-18.5,21.25-29,30.39-9.28,8.12-20.19,15.17-31.84,19.29-16.71,5.92-33.44,3.21-49.44-3.82A84.48,84.48,0,0,1,61,215.74c-4.78-6.06-13.22,2.48-8.49,8.48a92.1,92.1,0,0,0,30.07,24.69c16.28,8.39,35.4,13.72,53.67,10.17,21.16-4.11,40.2-17.33,54.76-32.82l21.33-22.7c5.29-5.63-3.18-14.13-8.48-8.49Z" style="fill:#346ace"/><path d="M37.93,176.59,8.79,205.93c-6.4,6.45-9.57,14.43-8.62,23.7,1.2,11.8,7.59,22.18,14.83,31.28C24.23,272.5,35.79,283.56,48.72,291c11.35,6.51,27.32,10.71,38.22,1,5.82-5.17,10.92-11.38,16.26-17q7.76-8.18,15.5-16.37c5.3-5.62-3.17-14.12-8.49-8.49q-14.14,15-28.33,29.9c-1.19,1.25-2.35,2.53-3.64,3.68-.72.64,1.1-.73.2-.17-.3.19-.59.4-.91.58l-1,.56c-.62.33.8-.19-.6.25a12.85,12.85,0,0,1-6.13.85A27.66,27.66,0,0,1,61,283.68C49.76,279.27,40.3,270.52,32,262.05S15.4,243.65,12.63,231.9a27.9,27.9,0,0,1-.5-8.17,22.67,22.67,0,0,1,.93-3.6c.39-1.13-.33.62.14-.39.22-.45.44-.91.7-1.35.36-.62.75-1.2,1.16-1.79-.7,1-.47.48.2-.16.48-.45.93-.93,1.39-1.39q14.9-15,29.76-30c5.45-5.49-3-14-8.48-8.49Z" style="fill:#346ace"/><path d="M37,9.16,71,83.22c3.21,7,13.56.92,10.36-6.06l-34-74C44.1-3.9,33.75,2.19,37,9.16Z" style="fill:#346ace"/><path d="M91.23,26.68l3.1,37.87c.63,7.64,12.63,7.71,12,0l-3.1-37.87c-.63-7.65-12.63-7.71-12,0Z" style="fill:#346ace"/><path d="M139.27,15,119.71,63c-2.92,7.15,8.69,10.26,11.57,3.19l19.56-48C153.76,11,142.15,7.9,139.27,15Z" style="fill:#346ace"/></svg>