<svg xmlns="http://www.w3.org/2000/svg" viewBox="0 0 445 299.07"><title>spreadsheets</title><rect x="48.23" y="11" width="348.48" height="229" rx="12" style="fill:#fff;stroke:#346ace;stroke-miterlimit:10;stroke-width:22px"/><path d="M445,272.07v11.39a15.61,15.61,0,0,1-15.61,15.61H15.61A15.61,15.61,0,0,1,0,283.46V272.07H148.58c17,6.68,44,11,74.42,11s57.46-4.32,74.42-11Z" style="fill:#346ace"/><line x1="80.5" y1="22.57" x2="80" y2="229.07" style="fill:none;stroke:#b2ccea;stroke-miterlimit:10;stroke-width:4.827107489109039px"/><line x1="385.5" y1="36.57" x2="59.5" y2="36.57" style="fill:none;stroke:#b2ccea;stroke-miterlimit:10;stroke-width:5px"/><line x1="385.5" y1="67.24" x2="80.54" y2="67.57" style="fill:none;stroke:#b2ccea;stroke-miterlimit:10;stroke-width:5.172167420387268px"/><line x1="385.5" y1="97.91" x2="80" y2="97.91" style="fill:none;stroke:#b2ccea;stroke-miterlimit:10;stroke-width:4.840239209878945px"/><line x1="385.5" y1="128.57" x2="80" y2="128.57" style="fill:none;stroke:#b2ccea;stroke-miterlimit:10;stroke-width:4.840239209878945px"/><line x1="385.5" y1="159.24" x2="80" y2="159.24" style="fill:none;stroke:#b2ccea;stroke-miterlimit:10;stroke-width:4.840239209878945px"/><line x1="385.5" y1="189.91" x2="80" y2="189.91" style="fill:none;stroke:#b2ccea;stroke-miterlimit:10;stroke-width:4.840239209878945px"/><line x1="385.5" y1="220.57" x2="80" y2="220.57" style="fill:none;stroke:#b2ccea;stroke-miterlimit:10;stroke-width:4.840239209878945px"/><line x1="141.8" y1="37.07" x2="141.8" y2="229.07" style="fill:none;stroke:#b2ccea;stroke-miterlimit:10;stroke-width:4.827107489109039px"/><line x1="203.35" y1="37.07" x2="203.35" y2="229.07" style="fill:none;stroke:#b2ccea;stroke-miterlimit:10;stroke-width:4.827107489109039px"/><line x1="264.9" y1="37.07" x2="264.9" y2="229.07" style="fill:none;stroke:#b2ccea;stroke-miterlimit:10;stroke-width:4.827107489109039px"/><line x1="326.45" y1="37.07" x2="326.45" y2="229.07" style="fill:none;stroke:#b2ccea;stroke-miterlimit:10;stroke-width:4.827107489109039px"/></svg>