<svg xmlns="http://www.w3.org/2000/svg" viewBox="0 0 1921 1081"><title>grid-2</title><g id="Layer_2" data-name="Layer 2"><g id="Layer_1-2" data-name="Layer 1"><rect x="0.5" y="0.5" width="1920" height="1080" style="fill:none;stroke:#cae6ff;stroke-miterlimit:10;stroke-width:0.5px"/><polyline points="85 1080.5 77.63 1076.25 31.19 1049.44 0.5 1031.72" style="fill:none;stroke:#cae6ff;stroke-miterlimit:10;stroke-width:0.5px"/><polyline points="177.87 1080.5 170.51 1076.25 124.07 1049.44 77.63 1022.62 31.19 995.81 0.5 978.09" style="fill:none;stroke:#cae6ff;stroke-miterlimit:10;stroke-width:0.5px"/><polyline points="270.75 1080.5 263.39 1076.25 216.95 1049.44 216.94 1049.44 170.51 1022.62 124.07 995.81 77.63 969 31.18 942.19 0.5 924.47" style="fill:none;stroke:#cae6ff;stroke-miterlimit:10;stroke-width:0.5px"/><polyline points="363.63 1080.5 356.27 1076.25 309.83 1049.44 263.39 1022.62 263.38 1022.62 216.95 995.81 170.51 969 124.07 942.19 77.62 915.38 31.19 888.56 31.18 888.56 0.5 870.85" style="fill:none;stroke:#cae6ff;stroke-miterlimit:10;stroke-width:0.5px"/><polyline points="456.52 1080.5 449.15 1076.25 402.72 1049.44 402.71 1049.44 356.28 1022.62 309.83 995.81 263.39 969 216.95 942.19 170.52 915.38 170.51 915.38 124.07 888.56 77.63 861.75 31.19 834.93 0.5 817.22" style="fill:none;stroke:#cae6ff;stroke-miterlimit:10;stroke-width:0.5px"/><polyline points="0.5 763.59 31.19 781.31 77.63 808.12 124.07 834.94 170.51 861.75 216.95 888.56 263.39 915.38 309.83 942.19 356.27 969 402.72 995.81 449.15 1022.62 449.16 1022.62 495.59 1049.44 542.04 1076.25 549.4 1080.5" style="fill:none;stroke:#cae6ff;stroke-miterlimit:10;stroke-width:0.5px"/><polyline points="0.5 709.97 31.18 727.69 77.63 754.5 124.07 781.31 170.51 808.13 216.95 834.94 263.39 861.75 309.83 888.56 356.27 915.38 402.71 942.19 449.15 969 495.59 995.81 542.03 1022.63 588.48 1049.44 634.92 1076.25 642.27 1080.5" style="fill:none;stroke:#cae6ff;stroke-miterlimit:10;stroke-width:0.5px"/><polyline points="0.5 656.35 31.18 674.06 77.62 700.87 124.06 727.69 170.5 754.5 216.95 781.32 263.38 808.13 309.83 834.94 356.27 861.75 402.71 888.56 449.14 915.38 449.15 915.38 495.59 942.19 542.03 969 588.47 995.81 634.91 1022.63 681.35 1049.44 727.79 1076.25 735.15 1080.5" style="fill:none;stroke:#cae6ff;stroke-miterlimit:10;stroke-width:0.5px"/><polyline points="0.5 602.71 31.19 620.43 77.63 647.25 124.07 674.06 170.51 700.87 216.95 727.68 263.4 754.5 309.83 781.31 356.28 808.12 402.72 834.94 449.16 861.75 495.59 888.56 542.04 915.37 588.48 942.19 634.92 969 681.36 995.81 727.8 1022.62 727.81 1022.62 774.24 1049.44 820.68 1076.25 828.05 1080.5" style="fill:none;stroke:#cae6ff;stroke-miterlimit:10;stroke-width:0.5px"/><polyline points="0.5 549.09 31.19 566.81 77.63 593.62 124.07 620.43 170.51 647.25 216.95 674.06 263.39 700.87 309.83 727.69 356.27 754.5 402.72 781.31 449.16 808.12 495.59 834.94 542.03 861.75 588.48 888.56 634.92 915.37 681.35 942.19 681.36 942.19 727.8 969 774.24 995.81 820.68 1022.62 867.12 1049.44 913.57 1076.25 920.92 1080.5" style="fill:none;stroke:#cae6ff;stroke-miterlimit:10;stroke-width:0.5px"/><polyline points="0.5 495.47 31.18 513.18 77.63 540 124.07 566.81 170.51 593.62 216.95 620.43 263.39 647.25 309.83 674.06 356.27 700.88 402.71 727.69 449.16 754.5 495.59 781.31 542.03 808.12 542.04 808.12 588.47 834.94 634.92 861.75 681.36 888.56 727.79 915.38 774.24 942.19 820.68 969 867.12 995.81 913.56 1022.63 960 1049.44 1006.44 1076.25 1006.45 1076.25 1013.8 1080.5" style="fill:none;stroke:#cae6ff;stroke-miterlimit:10;stroke-width:0.5px"/><polyline points="0.5 441.85 31.18 459.56 77.62 486.37 124.07 513.19 170.51 540 216.95 566.81 263.38 593.62 309.83 620.44 356.27 647.25 402.71 674.06 449.15 700.88 495.59 727.69 542.03 754.5 588.47 781.31 634.91 808.12 681.36 834.94 727.79 861.75 774.23 888.56 774.24 888.56 820.68 915.38 867.12 942.19 913.56 969 959.99 995.82 960 995.82 1006.44 1022.63 1052.88 1049.44 1099.32 1076.25 1106.67 1080.5" style="fill:none;stroke:#cae6ff;stroke-miterlimit:10;stroke-width:0.5px"/><polyline points="0.5 388.21 31.19 405.94 77.63 432.75 124.07 459.56 170.51 486.37 216.95 513.18 263.39 540 309.83 566.81 356.27 593.62 402.72 620.43 449.16 647.25 495.59 674.06 542.04 700.88 588.48 727.69 634.92 754.5 681.36 781.31 727.8 808.12 727.81 808.12 774.24 834.94 820.68 861.75 867.12 888.56 913.56 915.38 960 942.19 1006.44 969 1052.89 995.81 1099.33 1022.63 1145.77 1049.44 1192.21 1076.25 1199.57 1080.5" style="fill:none;stroke:#cae6ff;stroke-miterlimit:10;stroke-width:0.5px"/><polyline points="0.5 334.59 31.19 352.31 77.63 379.12 124.07 405.94 170.51 432.75 216.95 459.56 263.39 486.37 309.83 513.19 356.27 540 402.71 566.81 449.15 593.62 495.59 620.44 542.03 647.25 588.48 674.06 634.92 700.88 681.35 727.69 681.36 727.69 727.79 754.5 774.24 781.31 820.68 808.12 867.12 834.94 913.56 861.75 960 888.56 960.01 888.56 1006.44 915.38 1052.88 942.19 1099.33 969 1145.76 995.82 1145.77 995.82 1192.2 1022.63 1192.21 1022.63 1238.64 1049.44 1285.09 1076.25 1292.44 1080.5" style="fill:none;stroke:#cae6ff;stroke-miterlimit:10;stroke-width:0.5px"/><polyline points="0.5 280.97 31.18 298.69 77.63 325.5 124.07 352.31 170.51 379.12 216.94 405.94 263.39 432.75 309.83 459.56 356.27 486.37 402.71 513.19 449.15 540 495.59 566.81 542.03 593.63 588.47 620.44 634.92 647.25 681.36 674.06 727.79 700.88 774.23 727.69 820.68 754.5 867.12 781.31 913.55 808.13 913.56 808.13 960 834.94 1006.44 861.75 1052.88 888.56 1099.32 915.38 1145.76 942.19 1192.21 969 1238.64 995.82 1285.08 1022.63 1331.52 1049.44 1377.97 1076.25 1385.32 1080.5" style="fill:none;stroke:#cae6ff;stroke-miterlimit:10;stroke-width:0.5px"/><polyline points="0.5 227.35 31.18 245.06 77.62 271.87 124.07 298.69 170.51 325.5 216.95 352.31 263.38 379.12 309.83 405.94 356.27 432.75 402.71 459.56 449.15 486.37 495.59 513.19 542.03 540 588.47 566.81 634.91 593.62 681.36 620.44 727.8 647.25 774.23 674.06 820.67 700.87 867.12 727.69 913.56 754.5 960 781.31 1006.44 808.13 1052.88 834.94 1099.32 861.75 1145.76 888.56 1192.21 915.38 1238.65 942.19 1285.09 969 1331.52 995.81 1377.97 1022.63 1424.41 1049.44 1470.85 1076.25 1478.2 1080.5" style="fill:none;stroke:#cae6ff;stroke-miterlimit:10;stroke-width:0.5px"/><polyline points="0.5 173.72 31.19 191.43 77.63 218.25 124.07 245.06 170.51 271.87 216.95 298.69 263.39 325.5 309.83 352.31 356.27 379.12 402.72 405.93 449.16 432.75 495.59 459.56 542.04 486.37 588.48 513.18 634.92 540 681.36 566.81 727.8 593.62 774.24 620.44 820.68 647.25 867.12 674.06 913.57 700.87 960 727.68 960.01 727.68 1006.44 754.5 1052.89 781.31 1099.33 808.12 1145.76 834.94 1145.77 834.94 1192.21 861.75 1238.65 888.56 1285.09 915.38 1331.53 942.19 1377.97 969 1424.41 995.81 1470.86 1022.62 1517.29 1049.44 1517.3 1049.44 1563.73 1076.25 1571.1 1080.5" style="fill:none;stroke:#cae6ff;stroke-miterlimit:10;stroke-width:0.5px"/><polyline points="0.5 120.09 31.18 137.81 77.63 164.62 124.07 191.43 170.51 218.25 216.95 245.06 263.39 271.87 309.83 298.69 356.27 325.5 402.71 352.31 449.15 379.12 495.59 405.94 542.03 432.75 588.48 459.56 634.92 486.37 681.36 513.19 727.8 540 774.24 566.81 820.68 593.62 867.12 620.44 913.56 647.25 960 674.06 1006.44 700.87 1052.88 727.69 1099.33 754.5 1145.77 781.31 1192.21 808.12 1238.65 834.94 1285.09 861.75 1331.53 888.56 1377.97 915.38 1424.41 942.19 1470.85 969 1517.29 995.81 1563.73 1022.63 1610.17 1049.44 1656.62 1076.25 1663.97 1080.5" style="fill:none;stroke:#cae6ff;stroke-miterlimit:10;stroke-width:0.5px"/><polyline points="0.5 66.47 31.18 84.19 77.62 111 124.07 137.81 170.5 164.62 216.95 191.44 263.39 218.25 309.83 245.06 356.27 271.87 402.71 298.69 449.15 325.5 495.59 352.31 542.03 379.12 588.47 405.94 634.91 432.75 681.36 459.56 727.8 486.38 774.23 513.19 820.68 540 867.12 566.81 913.56 593.62 959.99 620.44 960 620.44 1006.44 647.25 1052.88 674.06 1099.32 700.88 1145.76 727.69 1192.21 754.5 1238.64 781.31 1238.65 781.31 1285.08 808.13 1285.09 808.13 1331.53 834.94 1377.97 861.75 1424.41 888.56 1470.84 915.38 1470.85 915.38 1517.29 942.19 1563.73 969 1610.17 995.81 1610.18 995.81 1656.61 1022.63 1703.06 1049.44 1749.5 1076.25 1756.85 1080.5" style="fill:none;stroke:#cae6ff;stroke-miterlimit:10;stroke-width:0.5px"/><polyline points="0.5 12.85 31.18 30.56 77.62 57.37 124.06 84.19 170.5 111 216.94 137.81 263.38 164.62 309.83 191.44 356.27 218.25 402.71 245.06 449.14 271.87 495.59 298.69 542.03 325.5 588.47 352.31 634.91 379.12 681.35 405.94 727.79 432.75 774.23 459.56 820.67 486.38 867.12 513.19 913.56 540 960 566.81 1006.43 593.62 1006.44 593.62 1052.88 620.44 1099.32 647.25 1145.76 674.06 1192.2 700.88 1238.64 727.69 1285.08 754.5 1331.52 781.31 1331.53 781.31 1377.97 808.13 1424.41 834.94 1470.85 861.75 1517.28 888.56 1517.29 888.56 1563.73 915.38 1610.17 942.19 1656.61 969 1703.05 995.81 1749.5 1022.63 1795.93 1049.44 1842.37 1076.25 1842.38 1076.25 1849.73 1080.5" style="fill:none;stroke:#cae6ff;stroke-miterlimit:10;stroke-width:0.5px"/><polyline points="72 0.5 77.63 3.75 124.07 30.56 170.5 57.37 216.95 84.19 263.39 111 309.83 137.81 356.27 164.62 402.72 191.44 449.15 218.25 495.59 245.06 542.03 271.87 588.48 298.69 634.92 325.5 681.36 352.31 727.8 379.12 774.24 405.94 820.68 432.75 867.12 459.56 913.57 486.38 960 513.19 960.01 513.19 1006.44 540 1052.88 566.81 1099.32 593.62 1099.33 593.62 1145.77 620.44 1192.21 647.25 1238.65 674.06 1285.09 700.88 1331.53 727.69 1377.97 754.5 1424.41 781.31 1470.86 808.13 1517.29 834.94 1563.73 861.75 1610.17 888.56 1656.62 915.38 1703.06 942.19 1749.5 969 1795.94 995.81 1842.38 1022.63 1888.82 1049.44 1920.5 1067.73" style="fill:none;stroke:#cae6ff;stroke-miterlimit:10;stroke-width:0.5px"/><polyline points="1920.5 1014.11 1888.82 995.81 1842.38 969 1795.93 942.19 1749.5 915.38 1703.05 888.56 1656.61 861.75 1610.17 834.94 1563.73 808.13 1517.29 781.31 1470.85 754.5 1424.41 727.69 1377.97 700.88 1331.53 674.06 1285.09 647.25 1238.64 620.44 1192.2 593.62 1145.77 566.81 1145.76 566.81 1099.32 540 1052.88 513.19 1006.45 486.38 1006.44 486.38 960 459.56 913.56 432.75 867.12 405.94 820.68 379.12 774.24 352.31 727.79 325.5 681.36 298.69 634.91 271.87 588.47 245.06 542.03 218.25 495.59 191.44 449.15 164.62 402.71 137.81 356.27 111 309.83 84.19 263.39 57.37 216.94 30.56 170.5 3.75 164.88 0.5" style="fill:none;stroke:#cae6ff;stroke-miterlimit:10;stroke-width:0.5px"/><polyline points="1920.5 960.48 1888.82 942.19 1842.37 915.38 1795.94 888.57 1795.93 888.57 1749.49 861.75 1703.05 834.94 1656.61 808.13 1610.17 781.31 1563.73 754.5 1517.29 727.69 1470.85 700.88 1424.41 674.06 1424.4 674.06 1377.97 647.25 1331.52 620.44 1285.08 593.63 1238.64 566.81 1192.2 540 1145.76 513.19 1099.32 486.38 1052.88 459.56 1006.44 432.75 960 405.94 913.56 379.13 867.12 352.31 820.67 325.5 774.23 298.69 727.8 271.88 727.79 271.88 681.35 245.06 634.91 218.25 588.47 191.44 542.03 164.62 495.59 137.81 449.15 111 402.71 84.19 356.27 57.37 356.26 57.37 309.83 30.56 263.38 3.75 257.76 0.5" style="fill:none;stroke:#cae6ff;stroke-miterlimit:10;stroke-width:0.5px"/><polyline points="1920.5 906.86 1888.81 888.57 1842.37 861.75 1795.93 834.94 1749.49 808.13 1703.05 781.31 1703.04 781.31 1656.61 754.5 1610.17 727.69 1563.73 700.88 1517.29 674.07 1517.28 674.07 1470.84 647.25 1424.41 620.44 1377.96 593.63 1331.52 566.82 1285.08 540 1238.64 513.19 1192.2 486.38 1145.76 459.56 1145.75 459.56 1099.32 432.75 1052.88 405.94 1006.44 379.13 1006.43 379.13 960 352.32 913.56 325.5 867.11 298.69 820.67 271.88 774.23 245.06 727.79 218.25 681.35 191.44 634.91 164.62 634.9 164.62 588.47 137.81 542.03 111 495.59 84.19 449.15 57.38 449.14 57.38 402.7 30.56 356.27 3.75 350.63 0.5" style="fill:none;stroke:#cae6ff;stroke-miterlimit:10;stroke-width:0.5px"/><polyline points="1920.5 853.23 1888.82 834.94 1842.38 808.13 1795.93 781.31 1749.49 754.5 1703.05 727.69 1656.62 700.88 1610.17 674.06 1563.73 647.25 1517.29 620.44 1470.85 593.63 1424.41 566.81 1377.97 540 1331.53 513.19 1285.09 486.38 1238.64 459.56 1192.2 432.75 1145.77 405.94 1099.33 379.13 1052.88 352.31 1006.44 325.5 960 298.69 913.56 271.87 867.12 245.06 820.68 218.25 774.24 191.44 727.79 164.62 681.35 137.81 634.91 111 588.48 84.19 542.03 57.37 495.59 30.56 449.15 3.75 443.53 0.5" style="fill:none;stroke:#cae6ff;stroke-miterlimit:10;stroke-width:0.5px"/><polyline points="1920.5 799.61 1888.82 781.31 1888.81 781.31 1842.37 754.5 1795.93 727.69 1749.5 700.88 1749.49 700.88 1703.06 674.06 1703.05 674.06 1656.61 647.25 1610.17 620.44 1563.73 593.63 1517.29 566.81 1470.85 540 1424.41 513.19 1377.97 486.37 1377.96 486.37 1331.53 459.56 1285.08 432.75 1238.65 405.94 1238.64 405.94 1192.21 379.12 1192.2 379.12 1145.77 352.31 1099.32 325.5 1052.89 298.69 1052.88 298.69 1006.44 271.87 960 245.06 913.56 218.25 867.12 191.44 820.68 164.62 774.24 137.81 727.8 111 727.79 111 681.36 84.18 681.35 84.18 634.92 57.37 588.48 30.56 542.04 3.75 542.03 3.75 536.41 0.5" style="fill:none;stroke:#cae6ff;stroke-miterlimit:10;stroke-width:0.5px"/><polyline points="1920.5 745.98 1888.81 727.69 1842.37 700.88 1795.93 674.06 1749.49 647.25 1703.05 620.44 1656.61 593.63 1610.17 566.81 1563.73 540 1517.29 513.19 1470.85 486.38 1424.41 459.56 1424.4 459.56 1377.97 432.75 1331.52 405.94 1285.08 379.12 1238.64 352.31 1192.21 325.5 1145.76 298.69 1099.33 271.88 1099.32 271.88 1052.88 245.06 1006.44 218.25 960 191.44 913.56 164.62 867.12 137.81 820.67 111 774.23 84.18 727.79 57.37 681.36 30.56 634.91 3.75 629.29 0.5" style="fill:none;stroke:#cae6ff;stroke-miterlimit:10;stroke-width:0.5px"/><polyline points="1920.5 692.36 1888.81 674.06 1888.8 674.06 1842.37 647.25 1795.93 620.44 1749.49 593.63 1703.05 566.82 1656.61 540 1610.17 513.19 1563.73 486.38 1517.29 459.57 1517.28 459.57 1470.84 432.75 1424.41 405.94 1377.96 379.12 1331.52 352.31 1285.08 325.5 1238.64 298.69 1192.2 271.88 1145.76 245.06 1099.32 218.25 1052.88 191.44 1006.44 164.62 1006.43 164.62 960 137.81 913.56 111 867.11 84.19 820.67 57.37 774.23 30.56 727.79 3.75 722.16 0.5" style="fill:none;stroke:#cae6ff;stroke-miterlimit:10;stroke-width:0.5px"/><polyline points="815.06 0.5 820.68 3.75 867.12 30.56 913.56 57.37 960 84.18 1006.44 111 1052.88 137.81 1099.32 164.62 1145.77 191.44 1192.21 218.25 1238.64 245.06 1285.09 271.88 1331.53 298.69 1377.97 325.5 1424.41 352.31 1470.85 379.12 1517.29 405.94 1563.73 432.75 1610.17 459.56 1656.62 486.38 1703.05 513.19 1749.49 540 1795.93 566.81 1842.38 593.63 1888.82 620.44 1920.5 638.73" style="fill:none;stroke:#cae6ff;stroke-miterlimit:10;stroke-width:0.5px"/><polyline points="1920.5 585.11 1888.82 566.82 1842.37 540 1795.93 513.19 1749.49 486.38 1703.06 459.57 1703.05 459.57 1656.61 432.75 1610.17 405.94 1563.73 379.12 1563.72 379.12 1517.29 352.31 1470.84 325.5 1424.41 298.69 1377.97 271.88 1331.53 245.06 1285.08 218.25 1238.65 191.44 1238.64 191.44 1192.21 164.62 1192.2 164.62 1145.76 137.81 1099.32 111 1052.88 84.19 1006.44 57.37 960 30.56 913.56 3.75 907.93 0.5" style="fill:none;stroke:#cae6ff;stroke-miterlimit:10;stroke-width:0.5px"/><polyline points="1920.5 531.49 1888.81 513.19 1842.37 486.38 1795.93 459.57 1749.49 432.75 1703.05 405.94 1656.61 379.13 1610.17 352.31 1610.16 352.31 1563.73 325.5 1517.28 298.69 1470.85 271.88 1470.84 271.88 1424.41 245.06 1424.4 245.06 1377.97 218.25 1331.52 191.44 1285.09 164.63 1285.08 164.63 1238.64 137.81 1192.2 111 1145.76 84.19 1099.32 57.38 1052.88 30.56 1006.43 3.75 1000.81 0.5" style="fill:none;stroke:#cae6ff;stroke-miterlimit:10;stroke-width:0.5px"/><polyline points="1920.5 477.86 1888.81 459.57 1842.37 432.75 1795.93 405.94 1749.49 379.13 1703.05 352.32 1656.6 325.5 1610.17 298.69 1563.72 271.88 1517.28 245.06 1470.84 218.25 1424.41 191.44 1377.96 164.63 1331.52 137.81 1285.08 111 1238.64 84.19 1192.2 57.38 1145.76 30.56 1099.32 3.75 1093.69 0.5" style="fill:none;stroke:#cae6ff;stroke-miterlimit:10;stroke-width:0.5px"/><polyline points="1920.5 424.23 1888.82 405.94 1842.38 379.13 1795.94 352.31 1749.5 325.5 1703.05 298.68 1656.62 271.87 1656.61 271.87 1610.17 245.06 1563.73 218.25 1517.3 191.44 1517.29 191.44 1470.85 164.62 1424.41 137.81 1377.97 111 1331.53 84.19 1285.09 57.37 1238.65 30.56 1192.21 3.75 1186.58 0.5" style="fill:none;stroke:#cae6ff;stroke-miterlimit:10;stroke-width:0.5px"/><polyline points="1920.5 370.6 1888.82 352.31 1842.37 325.5 1795.93 298.69 1749.49 271.87 1703.05 245.06 1656.61 218.25 1610.17 191.44 1563.73 164.62 1517.29 137.81 1470.85 111 1424.41 84.19 1377.97 57.37 1331.52 30.56 1285.08 3.75 1279.46 0.5" style="fill:none;stroke:#cae6ff;stroke-miterlimit:10;stroke-width:0.5px"/><polyline points="1920.5 316.98 1888.81 298.69 1842.37 271.88 1795.93 245.06 1749.49 218.25 1703.05 191.44 1656.61 164.62 1656.6 164.62 1610.17 137.81 1563.73 111 1517.29 84.19 1517.28 84.19 1470.85 57.38 1424.41 30.56 1377.96 3.75 1372.34 0.5" style="fill:none;stroke:#cae6ff;stroke-miterlimit:10;stroke-width:0.5px"/><polyline points="1920.5 263.36 1888.81 245.07 1842.37 218.25 1795.93 191.44 1749.48 164.62 1703.05 137.81 1703.04 137.81 1656.61 111 1610.17 84.19 1563.73 57.38 1563.72 57.38 1517.28 30.56 1470.85 3.75 1465.21 0.5" style="fill:none;stroke:#cae6ff;stroke-miterlimit:10;stroke-width:0.5px"/><polyline points="1920.5 209.73 1888.82 191.44 1842.38 164.62 1842.37 164.62 1795.93 137.81 1749.49 111 1703.06 84.19 1703.05 84.19 1656.62 57.38 1610.17 30.56 1563.73 3.75 1558.11 0.5" style="fill:none;stroke:#cae6ff;stroke-miterlimit:10;stroke-width:0.5px"/><polyline points="1920.5 156.11 1888.82 137.81 1888.81 137.81 1842.37 111 1795.93 84.19 1749.5 57.38 1749.49 57.38 1703.05 30.56 1656.61 3.75 1650.98 0.5" style="fill:none;stroke:#cae6ff;stroke-miterlimit:10;stroke-width:0.5px"/><polyline points="1920.5 102.48 1888.81 84.19 1842.37 57.38 1795.93 30.56 1749.49 3.75 1743.86 0.5" style="fill:none;stroke:#cae6ff;stroke-miterlimit:10;stroke-width:0.5px"/><polyline points="1920.5 48.86 1888.81 30.56 1888.8 30.56 1842.37 3.75 1836.73 0.5" style="fill:none;stroke:#cae6ff;stroke-miterlimit:10;stroke-width:0.5px"/><polyline points="1835.02 1080.5 1842.37 1076.25 1842.38 1076.25 1888.82 1049.44 1920.5 1031.15" style="fill:none;stroke:#cae6ff;stroke-miterlimit:10;stroke-width:0.5px"/><polyline points="1742.14 1080.5 1749.5 1076.25 1795.93 1049.44 1842.38 1022.63 1888.82 995.81 1920.5 977.52" style="fill:none;stroke:#cae6ff;stroke-miterlimit:10;stroke-width:0.5px"/><polyline points="1649.26 1080.5 1656.62 1076.25 1703.06 1049.44 1749.5 1022.63 1795.94 995.81 1842.38 969 1888.82 942.19 1920.5 923.9" style="fill:none;stroke:#cae6ff;stroke-miterlimit:10;stroke-width:0.5px"/><polyline points="1556.37 1080.5 1563.73 1076.25 1610.17 1049.44 1656.61 1022.63 1703.05 995.81 1749.5 969 1795.93 942.19 1842.37 915.38 1888.81 888.57 1920.5 870.27" style="fill:none;stroke:#cae6ff;stroke-miterlimit:10;stroke-width:0.5px"/><polyline points="1463.49 1080.5 1470.85 1076.25 1517.29 1049.44 1517.3 1049.44 1563.73 1022.63 1610.17 995.81 1610.18 995.81 1656.61 969 1703.06 942.19 1749.5 915.38 1795.93 888.57 1795.94 888.57 1842.37 861.75 1888.82 834.94 1920.5 816.65" style="fill:none;stroke:#cae6ff;stroke-miterlimit:10;stroke-width:0.5px"/><polyline points="1370.61 1080.5 1377.97 1076.25 1424.41 1049.44 1470.86 1022.62 1517.29 995.81 1563.73 969 1610.17 942.19 1656.62 915.38 1703.05 888.56 1749.49 861.75 1795.93 834.94 1842.38 808.13 1888.81 781.31 1888.82 781.31 1920.5 763.02" style="fill:none;stroke:#cae6ff;stroke-miterlimit:10;stroke-width:0.5px"/><polyline points="1277.73 1080.5 1285.09 1076.25 1331.52 1049.44 1377.97 1022.63 1424.41 995.81 1470.85 969 1517.29 942.19 1563.73 915.38 1610.17 888.56 1656.61 861.75 1703.05 834.94 1749.49 808.13 1795.93 781.31 1842.37 754.5 1888.81 727.69 1920.5 709.39" style="fill:none;stroke:#cae6ff;stroke-miterlimit:10;stroke-width:0.5px"/><polyline points="1184.84 1080.5 1192.21 1076.25 1238.64 1049.44 1285.08 1022.63 1331.52 995.81 1377.97 969 1424.41 942.19 1470.84 915.38 1470.85 915.38 1517.28 888.56 1517.29 888.56 1563.73 861.75 1610.17 834.94 1656.61 808.13 1703.04 781.31 1703.05 781.31 1749.49 754.5 1795.93 727.69 1842.37 700.88 1888.8 674.06 1888.81 674.06 1920.5 655.77" style="fill:none;stroke:#cae6ff;stroke-miterlimit:10;stroke-width:0.5px"/><polyline points="1091.97 1080.5 1099.32 1076.25 1145.77 1049.44 1192.2 1022.63 1192.21 1022.63 1238.64 995.82 1285.09 969 1331.53 942.19 1377.97 915.38 1424.41 888.56 1470.85 861.75 1517.29 834.94 1563.73 808.13 1610.17 781.31 1656.61 754.5 1703.05 727.69 1749.49 700.88 1749.5 700.88 1795.93 674.06 1842.37 647.25 1888.82 620.44 1920.5 602.15" style="fill:none;stroke:#cae6ff;stroke-miterlimit:10;stroke-width:0.5px"/><polyline points="999.09 1080.5 1006.44 1076.25 1006.45 1076.25 1052.88 1049.44 1099.33 1022.63 1145.76 995.82 1145.77 995.82 1192.21 969 1238.65 942.19 1285.09 915.38 1331.53 888.56 1377.97 861.75 1424.41 834.94 1470.86 808.13 1517.29 781.31 1563.73 754.5 1610.17 727.69 1656.62 700.88 1703.05 674.06 1703.06 674.06 1749.49 647.25 1795.93 620.44 1842.38 593.63 1888.82 566.82 1920.5 548.52" style="fill:none;stroke:#cae6ff;stroke-miterlimit:10;stroke-width:0.5px"/><polyline points="906.21 1080.5 913.57 1076.25 960 1049.44 1006.44 1022.63 1052.89 995.81 1099.33 969 1145.76 942.19 1192.21 915.38 1238.65 888.56 1285.09 861.75 1331.53 834.94 1377.97 808.13 1424.41 781.31 1470.85 754.5 1517.29 727.69 1563.73 700.88 1610.17 674.06 1656.61 647.25 1703.05 620.44 1749.49 593.63 1795.93 566.81 1842.37 540 1888.81 513.19 1920.5 494.89" style="fill:none;stroke:#cae6ff;stroke-miterlimit:10;stroke-width:0.5px"/><polyline points="813.32 1080.5 820.68 1076.25 867.12 1049.44 913.56 1022.63 959.99 995.82 960 995.82 1006.44 969 1052.88 942.19 1099.32 915.38 1145.76 888.56 1192.21 861.75 1238.65 834.94 1285.08 808.13 1285.09 808.13 1331.52 781.31 1331.53 781.31 1377.97 754.5 1424.41 727.69 1470.85 700.88 1517.28 674.07 1517.29 674.07 1563.73 647.25 1610.17 620.44 1656.61 593.63 1703.05 566.82 1749.49 540 1795.93 513.19 1842.37 486.38 1888.81 459.57 1920.5 441.27" style="fill:none;stroke:#cae6ff;stroke-miterlimit:10;stroke-width:0.5px"/><polyline points="720.44 1080.5 727.79 1076.25 774.24 1049.44 820.68 1022.62 867.12 995.81 913.56 969 960 942.19 1006.44 915.38 1052.88 888.56 1099.32 861.75 1145.76 834.94 1145.77 834.94 1192.21 808.12 1238.64 781.31 1238.65 781.31 1285.08 754.5 1331.53 727.69 1377.97 700.88 1424.4 674.06 1424.41 674.06 1470.84 647.25 1517.29 620.44 1563.73 593.63 1610.17 566.81 1656.61 540 1703.05 513.19 1749.49 486.38 1795.93 459.57 1842.37 432.75 1888.82 405.94 1920.5 387.65" style="fill:none;stroke:#cae6ff;stroke-miterlimit:10;stroke-width:0.5px"/><polyline points="627.56 1080.5 634.92 1076.25 681.35 1049.44 727.8 1022.62 727.81 1022.62 774.24 995.81 820.68 969 867.12 942.19 913.56 915.38 960 888.56 960.01 888.56 1006.44 861.75 1052.88 834.94 1099.33 808.12 1145.77 781.31 1192.21 754.5 1238.64 727.69 1285.09 700.88 1331.53 674.06 1377.97 647.25 1424.41 620.44 1470.85 593.63 1517.29 566.81 1563.73 540 1610.17 513.19 1656.62 486.38 1703.05 459.57 1703.06 459.57 1749.49 432.75 1795.93 405.94 1842.38 379.13 1888.82 352.31 1920.5 334.02" style="fill:none;stroke:#cae6ff;stroke-miterlimit:10;stroke-width:0.5px"/><polyline points="534.68 1080.5 542.04 1076.25 588.48 1049.44 634.91 1022.63 681.36 995.81 727.8 969 774.24 942.19 820.68 915.38 867.12 888.56 913.56 861.75 960 834.94 1006.44 808.13 1052.89 781.31 1099.33 754.5 1145.76 727.69 1192.2 700.88 1238.65 674.06 1285.09 647.25 1331.52 620.44 1377.96 593.63 1424.41 566.81 1470.85 540 1517.29 513.19 1563.73 486.38 1610.17 459.56 1656.61 432.75 1703.05 405.94 1749.49 379.13 1795.94 352.31 1842.37 325.5 1888.81 298.69 1920.5 280.39" style="fill:none;stroke:#cae6ff;stroke-miterlimit:10;stroke-width:0.5px"/><polyline points="441.79 1080.5 449.15 1076.25 495.59 1049.44 542.03 1022.63 588.47 995.81 634.92 969 681.35 942.19 681.36 942.19 727.79 915.38 774.23 888.56 774.24 888.56 820.68 861.75 867.12 834.94 913.55 808.13 913.56 808.13 960 781.31 1006.44 754.5 1052.88 727.69 1099.32 700.88 1145.76 674.06 1192.21 647.25 1238.64 620.44 1285.08 593.63 1331.52 566.82 1377.97 540 1424.41 513.19 1470.85 486.38 1517.28 459.57 1517.29 459.57 1563.73 432.75 1610.17 405.94 1656.61 379.13 1703.05 352.32 1749.5 325.5 1795.93 298.69 1842.37 271.88 1888.81 245.07 1920.5 226.77" style="fill:none;stroke:#cae6ff;stroke-miterlimit:10;stroke-width:0.5px"/><polyline points="348.91 1080.5 356.27 1076.25 402.71 1049.44 402.72 1049.44 449.15 1022.62 449.16 1022.62 495.59 995.81 542.03 969 588.48 942.19 634.92 915.37 681.36 888.56 727.79 861.75 774.24 834.94 820.68 808.12 867.12 781.31 913.56 754.5 960 727.68 960.01 727.68 1006.44 700.87 1052.88 674.06 1099.32 647.25 1145.77 620.44 1192.2 593.62 1238.64 566.81 1285.08 540 1331.53 513.19 1377.96 486.37 1377.97 486.37 1424.4 459.56 1424.41 459.56 1470.84 432.75 1517.29 405.94 1563.72 379.12 1563.73 379.12 1610.16 352.31 1610.17 352.31 1656.6 325.5 1703.05 298.68 1749.49 271.87 1795.93 245.06 1842.37 218.25 1888.82 191.44 1920.5 173.14" style="fill:none;stroke:#cae6ff;stroke-miterlimit:10;stroke-width:0.5px"/><polyline points="256.03 1080.5 263.39 1076.25 309.83 1049.44 356.28 1022.62 402.72 995.81 449.15 969 495.59 942.19 542.04 915.37 588.48 888.56 634.92 861.75 681.36 834.94 727.8 808.12 727.81 808.12 774.24 781.31 820.68 754.5 867.12 727.69 913.57 700.87 960 674.06 1006.44 647.25 1052.88 620.44 1099.32 593.62 1099.33 593.62 1145.76 566.81 1145.77 566.81 1192.2 540 1238.64 513.19 1285.09 486.38 1331.53 459.56 1377.97 432.75 1424.41 405.94 1470.85 379.12 1517.29 352.31 1563.73 325.5 1610.17 298.69 1656.61 271.87 1656.62 271.87 1703.05 245.06 1749.49 218.25 1795.93 191.44 1842.37 164.62 1842.38 164.62 1888.81 137.81 1888.82 137.81 1920.5 119.52" style="fill:none;stroke:#cae6ff;stroke-miterlimit:10;stroke-width:0.5px"/><polyline points="1920.5 65.89 1888.81 84.19 1842.37 111 1795.93 137.81 1749.48 164.62 1703.05 191.44 1656.61 218.25 1610.17 245.06 1563.72 271.88 1517.28 298.69 1470.84 325.5 1424.41 352.31 1377.96 379.12 1331.52 405.94 1285.08 432.75 1238.64 459.56 1192.2 486.38 1145.76 513.19 1099.32 540 1052.88 566.81 1006.44 593.62 1006.43 593.62 960 620.44 959.99 620.44 913.56 647.25 867.12 674.06 820.67 700.87 774.23 727.69 727.79 754.5 681.36 781.31 634.91 808.12 588.47 834.94 542.03 861.75 495.59 888.56 449.15 915.38 449.14 915.38 402.71 942.19 356.27 969 309.83 995.81 263.39 1022.62 263.38 1022.62 216.95 1049.44 216.94 1049.44 170.51 1076.25 163.14 1080.5" style="fill:none;stroke:#cae6ff;stroke-miterlimit:10;stroke-width:0.5px"/><polyline points="1920.5 12.27 1888.81 30.56 1888.8 30.56 1842.37 57.38 1795.93 84.19 1749.49 111 1703.05 137.81 1703.04 137.81 1656.61 164.62 1656.6 164.62 1610.17 191.44 1563.73 218.25 1517.28 245.06 1470.85 271.88 1470.84 271.88 1424.41 298.69 1377.97 325.5 1331.52 352.31 1285.08 379.12 1238.65 405.94 1238.64 405.94 1192.2 432.75 1145.76 459.56 1145.75 459.56 1099.32 486.38 1052.88 513.19 1006.44 540 960 566.81 913.56 593.62 867.12 620.44 820.68 647.25 774.23 674.06 727.79 700.88 681.36 727.69 681.35 727.69 634.92 754.5 588.47 781.31 542.04 808.12 542.03 808.12 495.59 834.94 449.16 861.75 402.71 888.56 356.27 915.38 309.83 942.19 263.39 969 216.95 995.81 170.51 1022.62 124.07 1049.44 77.63 1076.25 70.27 1080.5" style="fill:none;stroke:#cae6ff;stroke-miterlimit:10;stroke-width:0.5px"/><polyline points="1848 0.5 1842.37 3.75 1795.93 30.56 1749.5 57.38 1749.49 57.38 1703.06 84.19 1703.05 84.19 1656.61 111 1610.17 137.81 1563.73 164.62 1517.3 191.44 1517.29 191.44 1470.84 218.25 1424.41 245.06 1424.4 245.06 1377.97 271.88 1331.53 298.69 1285.08 325.5 1238.64 352.31 1192.21 379.12 1192.2 379.12 1145.77 405.94 1099.32 432.75 1052.88 459.56 1006.45 486.38 1006.44 486.38 960.01 513.19 960 513.19 913.56 540 867.12 566.81 820.68 593.62 774.24 620.44 727.8 647.25 681.36 674.06 634.92 700.88 588.48 727.69 542.03 754.5 495.59 781.31 449.16 808.12 402.72 834.94 356.27 861.75 309.83 888.56 263.39 915.38 216.95 942.19 170.51 969 124.07 995.81 77.63 1022.62 31.19 1049.44 0.5 1067.16" style="fill:none;stroke:#cae6ff;stroke-miterlimit:10;stroke-width:0.5px"/><polyline points="1755.13 0.5 1749.49 3.75 1703.05 30.56 1656.62 57.38 1610.17 84.19 1563.73 111 1517.29 137.81 1470.85 164.62 1424.41 191.44 1377.97 218.25 1331.53 245.06 1285.09 271.88 1238.64 298.69 1192.21 325.5 1145.77 352.31 1099.33 379.13 1052.88 405.94 1006.44 432.75 960 459.56 913.57 486.38 867.12 513.19 820.68 540 774.24 566.81 727.8 593.62 681.36 620.44 634.92 647.25 588.48 674.06 542.04 700.88 495.59 727.69 449.16 754.5 402.72 781.31 356.28 808.12 309.83 834.94 263.39 861.75 216.95 888.56 170.52 915.38 170.51 915.38 124.07 942.19 77.63 969 31.19 995.81 0.5 1013.53" style="fill:none;stroke:#cae6ff;stroke-miterlimit:10;stroke-width:0.5px"/><polyline points="1662.23 0.5 1656.61 3.75 1610.17 30.56 1563.73 57.38 1563.72 57.38 1517.29 84.19 1517.28 84.19 1470.85 111 1424.41 137.81 1377.96 164.63 1331.52 191.44 1285.08 218.25 1238.64 245.06 1192.2 271.88 1145.76 298.69 1099.32 325.5 1052.88 352.31 1006.44 379.13 1006.43 379.13 960 405.94 913.56 432.75 867.12 459.56 820.67 486.38 774.23 513.19 727.8 540 681.36 566.81 634.91 593.62 588.47 620.44 542.03 647.25 495.59 674.06 449.15 700.88 402.71 727.69 356.27 754.5 309.83 781.31 263.38 808.13 216.95 834.94 170.51 861.75 124.07 888.56 77.62 915.38 31.18 942.19 0.5 959.9" style="fill:none;stroke:#cae6ff;stroke-miterlimit:10;stroke-width:0.5px"/><polyline points="1569.36 0.5 1563.73 3.75 1517.28 30.56 1470.85 57.38 1424.41 84.19 1377.97 111 1331.52 137.81 1285.09 164.63 1285.08 164.63 1238.65 191.44 1238.64 191.44 1192.21 218.25 1145.76 245.06 1099.33 271.88 1099.32 271.88 1052.89 298.69 1052.88 298.69 1006.44 325.5 960 352.32 913.56 379.13 867.12 405.94 820.68 432.75 774.23 459.56 727.8 486.38 681.36 513.19 634.92 540 588.47 566.81 542.03 593.63 495.59 620.44 449.16 647.25 402.71 674.06 356.27 700.88 309.83 727.69 263.4 754.5 216.95 781.32 170.51 808.13 124.07 834.94 77.63 861.75 31.19 888.56 31.18 888.56 0.5 906.28" style="fill:none;stroke:#cae6ff;stroke-miterlimit:10;stroke-width:0.5px"/><polyline points="1476.48 0.5 1470.85 3.75 1424.41 30.56 1377.97 57.37 1331.53 84.19 1285.08 111 1238.64 137.81 1192.21 164.62 1192.2 164.62 1145.77 191.44 1099.32 218.25 1052.88 245.06 1006.44 271.87 960 298.69 913.56 325.5 867.12 352.31 820.68 379.12 774.24 405.94 727.79 432.75 681.36 459.56 634.92 486.37 588.48 513.18 542.03 540 495.59 566.81 449.15 593.62 402.72 620.43 356.27 647.25 309.83 674.06 263.39 700.87 216.95 727.68 170.5 754.5 124.07 781.31 77.63 808.12 31.19 834.93 0.5 852.65" style="fill:none;stroke:#cae6ff;stroke-miterlimit:10;stroke-width:0.5px"/><polyline points="1383.59 0.5 1377.96 3.75 1331.52 30.56 1285.09 57.37 1238.64 84.19 1192.2 111 1145.76 137.81 1099.32 164.62 1052.88 191.44 1006.44 218.25 960 245.06 913.56 271.87 867.11 298.69 820.67 325.5 774.24 352.31 727.8 379.12 681.35 405.94 634.91 432.75 588.48 459.56 542.04 486.37 495.59 513.19 449.15 540 402.71 566.81 356.27 593.62 309.83 620.44 263.39 647.25 216.95 674.06 170.51 700.87 124.06 727.69 77.63 754.5 31.19 781.31 0.5 799.03" style="fill:none;stroke:#cae6ff;stroke-miterlimit:10;stroke-width:0.5px"/><polyline points="1290.71 0.5 1285.08 3.75 1238.65 30.56 1192.2 57.38 1145.76 84.19 1099.32 111 1052.88 137.81 1006.44 164.62 1006.43 164.62 960 191.44 913.56 218.25 867.12 245.06 820.67 271.88 774.23 298.69 727.79 325.5 681.36 352.31 634.91 379.12 588.47 405.94 542.03 432.75 495.59 459.56 449.15 486.37 402.71 513.19 356.27 540 309.83 566.81 263.38 593.62 216.95 620.43 170.51 647.25 124.07 674.06 77.62 700.87 31.18 727.69 0.5 745.4" style="fill:none;stroke:#cae6ff;stroke-miterlimit:10;stroke-width:0.5px"/><polyline points="1197.83 0.5 1192.21 3.75 1145.76 30.56 1099.32 57.38 1052.88 84.19 1006.44 111 960 137.81 913.56 164.62 867.12 191.44 820.68 218.25 774.23 245.06 727.8 271.88 727.79 271.88 681.36 298.69 634.92 325.5 588.47 352.31 542.03 379.12 495.59 405.94 449.16 432.75 402.71 459.56 356.27 486.37 309.83 513.19 263.39 540 216.95 566.81 170.51 593.62 124.07 620.43 77.63 647.25 31.18 674.06 0.5 691.78" style="fill:none;stroke:#cae6ff;stroke-miterlimit:10;stroke-width:0.5px"/><polyline points="1104.95 0.5 1099.32 3.75 1052.88 30.56 1006.44 57.37 960 84.18 913.56 111 867.12 137.81 820.68 164.62 774.24 191.44 727.79 218.25 681.35 245.06 634.91 271.87 588.48 298.69 542.03 325.5 495.59 352.31 449.15 379.12 402.72 405.93 356.27 432.75 309.83 459.56 263.39 486.37 216.95 513.18 170.51 540 124.07 566.81 77.63 593.62 31.19 620.43 0.5 638.15" style="fill:none;stroke:#cae6ff;stroke-miterlimit:10;stroke-width:0.5px"/><polyline points="1012.06 0.5 1006.43 3.75 960 30.56 913.56 57.37 867.11 84.19 820.67 111 774.24 137.81 727.79 164.62 681.35 191.44 634.91 218.25 588.47 245.06 542.03 271.87 495.59 298.69 449.15 325.5 402.71 352.31 356.27 379.12 309.83 405.94 263.39 432.75 216.95 459.56 170.51 486.37 124.07 513.19 77.63 540 31.19 566.81 0.5 584.53" style="fill:none;stroke:#cae6ff;stroke-miterlimit:10;stroke-width:0.5px"/><polyline points="919.18 0.5 913.56 3.75 867.12 30.56 820.67 57.37 774.23 84.18 727.8 111 727.79 111 681.35 137.81 634.91 164.62 634.9 164.62 588.47 191.44 542.03 218.25 495.59 245.06 449.14 271.87 402.71 298.69 356.27 325.5 309.83 352.31 263.38 379.12 216.94 405.94 170.51 432.75 124.07 459.56 77.62 486.37 31.18 513.18 0.5 530.9" style="fill:none;stroke:#cae6ff;stroke-miterlimit:10;stroke-width:0.5px"/><polyline points="826.3 0.5 820.68 3.75 774.23 30.56 727.79 57.37 681.36 84.18 681.35 84.18 634.91 111 588.47 137.81 542.03 164.62 495.59 191.44 449.15 218.25 402.71 245.06 356.27 271.87 309.83 298.69 263.39 325.5 216.95 352.31 170.51 379.12 124.07 405.94 77.63 432.75 31.18 459.56 0.5 477.28" style="fill:none;stroke:#cae6ff;stroke-miterlimit:10;stroke-width:0.5px"/><polyline points="0.5 423.66 31.19 405.94 77.63 379.12 124.07 352.31 170.51 325.5 216.95 298.69 263.39 271.87 309.83 245.06 356.27 218.25 402.72 191.44 449.15 164.62 495.59 137.81 542.03 111 588.48 84.19 634.92 57.37 681.36 30.56 727.79 3.75 733.43 0.5" style="fill:none;stroke:#cae6ff;stroke-miterlimit:10;stroke-width:0.5px"/><polyline points="640.54 0.5 634.91 3.75 588.48 30.56 542.03 57.37 495.59 84.19 449.15 111 402.71 137.81 356.27 164.62 309.83 191.44 263.39 218.25 216.95 245.06 170.51 271.87 124.07 298.69 77.63 325.5 31.19 352.31 0.5 370.03" style="fill:none;stroke:#cae6ff;stroke-miterlimit:10;stroke-width:0.5px"/><polyline points="547.66 0.5 542.04 3.75 542.03 3.75 495.59 30.56 449.15 57.38 449.14 57.38 402.71 84.19 356.27 111 309.83 137.81 263.38 164.62 216.95 191.44 170.51 218.25 124.07 245.06 77.62 271.87 31.18 298.69 0.5 316.4" style="fill:none;stroke:#cae6ff;stroke-miterlimit:10;stroke-width:0.5px"/><polyline points="454.78 0.5 449.15 3.75 402.7 30.56 356.27 57.37 356.26 57.37 309.83 84.19 263.39 111 216.94 137.81 170.5 164.62 124.07 191.43 77.63 218.25 31.18 245.06 0.5 262.77" style="fill:none;stroke:#cae6ff;stroke-miterlimit:10;stroke-width:0.5px"/><polyline points="0.5 209.15 31.19 191.43 77.63 164.62 124.07 137.81 170.5 111 216.95 84.19 263.39 57.37 309.83 30.56 356.27 3.75 361.9 0.5" style="fill:none;stroke:#cae6ff;stroke-miterlimit:10;stroke-width:0.5px"/><polyline points="0.5 155.52 31.18 137.81 77.62 111 124.06 84.19 170.5 57.37 216.94 30.56 263.38 3.75 269.01 0.5" style="fill:none;stroke:#cae6ff;stroke-miterlimit:10;stroke-width:0.5px"/><polyline points="0.5 101.9 31.18 84.19 77.62 57.37 124.07 30.56 170.5 3.75 176.13 0.5" style="fill:none;stroke:#cae6ff;stroke-miterlimit:10;stroke-width:0.5px"/><polyline points="0.5 48.27 31.18 30.56 77.63 3.75 83.25 0.5" style="fill:none;stroke:#cae6ff;stroke-miterlimit:10;stroke-width:0.5px"/><rect x="0.5" y="0.5" width="1920" height="1080" style="fill:none;stroke:#cae6ff;stroke-miterlimit:10"/><path d="M1617.29,571.77,1835.67,697.9a4.34,4.34,0,0,1,0,7.53l-126.35,72.2a14.21,14.21,0,0,1-14.16,0l-218-125.9a4.61,4.61,0,0,1,0-8l125.93-72A14.21,14.21,0,0,1,1617.29,571.77Z" style="fill:#a9d0ed"/><path d="M1617.29,559.77,1835.67,685.9a4.34,4.34,0,0,1,0,7.53l-126.35,72.2a14.21,14.21,0,0,1-14.16,0l-218-125.9a4.61,4.61,0,0,1,0-8l125.93-72A14.21,14.21,0,0,1,1617.29,559.77Z" style="fill:#cae6ff"/><path d="M1920.5,747V907.87L1888,889.07l-.44-.26-46-26.56-.44-.26-46-26.56-.44-.25-39.1-22.59a4.31,4.31,0,0,1-1.42-1.28h0a3.9,3.9,0,0,1-.45-.76A4.62,4.62,0,0,1,1755,805h0a5.21,5.21,0,0,1,.55-.36l3.46-2,4.36-2.49,32.28-18.45.44-.25q23.12-13.2,46.24-26.42l.44-.25,38.71-22.12a14.23,14.23,0,0,1,14.16,0Z" style="fill:#a9d0ed"/><path d="M1920.5,735V895.87l-22.17-12.8-.43-.25q-23-13.3-46-26.57l-.44-.26-46-26.56-.44-.25q-23-13.3-46-26.57h0l-.42-.24-3.06-1.77a4.62,4.62,0,0,1,0-8l29.65-16.94h0l.45-.26L1831.89,749l.44-.25,46.24-26.42.45-.25,2.47-1.42a14.23,14.23,0,0,1,14.16,0l2.24,1.29.44.25Z" style="fill:#cae6ff"/><path d="M1338.37,410.1l218.38,126.13a4.35,4.35,0,0,1,0,7.54L1430.39,616a14.21,14.21,0,0,1-14.16,0l-218-125.9a4.61,4.61,0,0,1,0-8l125.93-72A14.21,14.21,0,0,1,1338.37,410.1Z" style="fill:#a9d0ed"/><path d="M1338.37,398.1l218.38,126.13a4.35,4.35,0,0,1,0,7.54L1430.39,604a14.21,14.21,0,0,1-14.16,0l-218-125.9a4.61,4.61,0,0,1,0-8l125.93-72A14.21,14.21,0,0,1,1338.37,398.1Z" style="fill:#cae6ff"/><path d="M1059.72,249.22,1278.1,375.36a4.34,4.34,0,0,1,0,7.53l-126.34,72.2a14.23,14.23,0,0,1-14.16,0l-218-125.9a4.62,4.62,0,0,1,0-8l125.93-72A14.23,14.23,0,0,1,1059.72,249.22Z" style="fill:#a9d0ed"/><path d="M1059.72,237.22,1278.1,363.36a4.34,4.34,0,0,1,0,7.53l-126.34,72.2a14.23,14.23,0,0,1-14.16,0l-218-125.9a4.62,4.62,0,0,1,0-8l125.93-72A14.23,14.23,0,0,1,1059.72,237.22Z" style="fill:#cae6ff"/><path d="M781.29,88.77,999.67,214.9a4.34,4.34,0,0,1,0,7.53l-126.35,72.2a14.21,14.21,0,0,1-14.16,0l-218-125.9a4.61,4.61,0,0,1,0-8l125.93-72A14.21,14.21,0,0,1,781.29,88.77Z" style="fill:#a9d0ed"/><path d="M781.29,76.77,999.67,202.9a4.34,4.34,0,0,1,0,7.53l-126.35,72.2a14.21,14.21,0,0,1-14.16,0l-218-125.9a4.61,4.61,0,0,1,0-8l125.93-72A14.21,14.21,0,0,1,781.29,76.77Z" style="fill:#cae6ff"/><path d="M1920.5,960.08V1080.5h-70l-7.73-4.46-.44-.26-46-26.56-.43-.25-46-26.56-.45-.26-39.85-23a4.62,4.62,0,0,1-1.83-6,4.2,4.2,0,0,1,.48-.78,4.68,4.68,0,0,1,1.37-1.19l3.46-2,35.4-20.22.45-.26,28.5-16.29.25-.14,17.48-10,.44-.25,40-22.83a13.93,13.93,0,0,1,1.74-.84,14.3,14.3,0,0,1,7.94-.79h0a13.15,13.15,0,0,1,1.53.38,13.65,13.65,0,0,1,2.94,1.28l39,22.54.45.26Z" style="fill:#a9d0ed"/><path d="M1920.5,948.08V1080.5h-49.25L1853.14,1070l-.44-.26-46-26.56-.43-.25-46-26.56-.45-.26-46-26.57-.44-.25-.33-.19-3.48-2a4.62,4.62,0,0,1,0-8L1738,962.89l.45-.26,46.23-26.42.44-.25,46.24-26.42.44-.25,3.72-2.13a14.21,14.21,0,0,1,14.16,0l3,1.73.43.25,46,26.56.45.26Z" style="fill:#cae6ff"/><path d="M1571.05,758.32l218.38,126.13a4.35,4.35,0,0,1,0,7.54l-126.35,72.19a14.21,14.21,0,0,1-14.16,0l-218-125.9a4.61,4.61,0,0,1,0-8l125.93-72A14.21,14.21,0,0,1,1571.05,758.32Z" style="fill:#a9d0ed"/><path d="M1571.05,746.32l218.38,126.13a4.35,4.35,0,0,1,0,7.54l-126.35,72.19a14.21,14.21,0,0,1-14.16,0l-218-125.9a4.61,4.61,0,0,1,0-8l125.93-72A14.21,14.21,0,0,1,1571.05,746.32Z" style="fill:#cae6ff"/><path d="M1292.63,597.86,1511,724a4.35,4.35,0,0,1,0,7.54l-126.34,72.19a14.21,14.21,0,0,1-14.16,0l-218-125.9a4.61,4.61,0,0,1,0-8l125.94-72A14.21,14.21,0,0,1,1292.63,597.86Z" style="fill:#a9d0ed"/><path d="M1292.63,585.86,1511,712a4.35,4.35,0,0,1,0,7.54l-126.34,72.19a14.21,14.21,0,0,1-14.16,0l-218-125.9a4.61,4.61,0,0,1,0-8l125.94-72A14.21,14.21,0,0,1,1292.63,585.86Z" style="fill:#cae6ff"/><path d="M720.73,60.77,680.11,84l-46.68,26.67-39,22.31a14.21,14.21,0,0,1-14.16,0l-38.52-22.25L495.28,83.86,448.84,57,402.41,30.22,362.26,7A4.61,4.61,0,0,1,360.53.78l.18-.28H629.45l5.11,3L681,30.27,716.86,51l3.89,2.25a4.16,4.16,0,0,1,1.5,1.44A4.36,4.36,0,0,1,720.73,60.77Z" style="fill:#a9d0ed"/><path d="M720.73,48.77,716.86,51l-.51.29L669.67,78,623,104.62,594.39,121a14.21,14.21,0,0,1-14.16,0L552.1,104.68,505.67,77.86,459.23,51,412.8,24.22,371.73.5h278.5l41.15,23.77,29.37,17A4.35,4.35,0,0,1,720.73,48.77Z" style="fill:#cae6ff"/><path d="M1920.5,549.66v142.8l-31.78-18.35-46.42-26.82-39.12-22.59a4.55,4.55,0,0,1-.62-.43,4.61,4.61,0,0,1,.64-7.57l3.47-2L1843,594l46.67-26.67Z" style="fill:#a9d0ed"/><path d="M1920.5,537.66v142.8l-21.38-12.35-46.43-26.81-46-26.58-.41-.24-3.08-1.78a4.61,4.61,0,0,1,0-8l29.33-16.76,46.67-26.67Z" style="fill:#cae6ff"/><path d="M1664.37,383.1l218.38,126.13a4.35,4.35,0,0,1,0,7.54L1756.39,589a14.21,14.21,0,0,1-14.16,0l-218-125.9a4.61,4.61,0,0,1,0-8l125.93-72A14.21,14.21,0,0,1,1664.37,383.1Z" style="fill:#a9d0ed"/><path d="M1664.37,371.1l218.38,126.13a4.35,4.35,0,0,1,0,7.54L1756.39,577a14.21,14.21,0,0,1-14.16,0l-218-125.9a4.61,4.61,0,0,1,0-8l125.93-72A14.21,14.21,0,0,1,1664.37,371.1Z" style="fill:#cae6ff"/><path d="M1385.72,222.22,1604.1,348.36a4.34,4.34,0,0,1,0,7.53l-126.34,72.2a14.23,14.23,0,0,1-14.16,0l-218-125.9a4.62,4.62,0,0,1,0-8l125.93-72A14.23,14.23,0,0,1,1385.72,222.22Z" style="fill:#a9d0ed"/><path d="M1385.72,210.22,1604.1,336.36a4.34,4.34,0,0,1,0,7.53l-126.34,72.2a14.23,14.23,0,0,1-14.16,0l-218-125.9a4.62,4.62,0,0,1,0-8l125.93-72A14.23,14.23,0,0,1,1385.72,210.22Z" style="fill:#cae6ff"/><path d="M1107.29,61.77,1325.67,187.9a4.34,4.34,0,0,1,0,7.53l-126.35,72.2a14.21,14.21,0,0,1-14.16,0l-218-125.9a4.61,4.61,0,0,1,0-8l125.93-72A14.21,14.21,0,0,1,1107.29,61.77Z" style="fill:#a9d0ed"/><path d="M1107.29,49.77,1325.67,175.9a4.34,4.34,0,0,1,0,7.53l-126.35,72.2a14.21,14.21,0,0,1-14.16,0l-218-125.9a4.61,4.61,0,0,1,0-8l125.93-72A14.21,14.21,0,0,1,1107.29,49.77Z" style="fill:#cae6ff"/><path d="M1046.73,33.77,1006.11,57l-.17.1L959.43,83.65l-.17.1L920.39,106a14.21,14.21,0,0,1-14.16,0L867.85,83.76l-.14-.08L821.42,56.94l-.14-.08L775,30.12l-.15-.08L728.56,3.31l-.15-.09L723.7.5h278.49l4.8,2.77.14.08L1042.86,24l3.89,2.25a4.16,4.16,0,0,1,1.5,1.44c.07.11.13.22.19.33A4.36,4.36,0,0,1,1046.73,33.77Z" style="fill:#a9d0ed"/><path d="M1046.73,21.77,1042.86,24l-.51.29-.18.11Q1018.92,37.65,995.67,51l-.18.1L949,77.62l-.17.1L920.39,94a14.21,14.21,0,0,1-14.16,0l-28-16.17-.14-.08L831.81,50.94l-.14-.08L785.38,24.13l-.15-.09L744.48.5H1023l23.78,13.73A4.35,4.35,0,0,1,1046.73,21.77Z" style="fill:#cae6ff"/></g></g></svg>