<svg xmlns="http://www.w3.org/2000/svg" viewBox="0 0 3809.14 2199.21"><title>grid</title><g id="Layer_2" data-name="Layer 2"><g id="Layer_1-2" data-name="Layer 1"><polygon points="1904.56 0.29 3808.64 1099.61 1904.58 2198.92 0.5 1099.6 1904.56 0.29" style="fill:none;stroke:#9fbfe2;stroke-miterlimit:10;stroke-width:0.5px"/><line x1="46.94" y1="1072.79" x2="1951.02" y2="2172.11" style="fill:none;stroke:#9fbfe2;stroke-miterlimit:10;stroke-width:0.5px"/><line x1="93.38" y1="1045.98" x2="1997.46" y2="2145.29" style="fill:none;stroke:#9fbfe2;stroke-miterlimit:10;stroke-width:0.5px"/><line x1="139.82" y1="1019.16" x2="2043.9" y2="2118.48" style="fill:none;stroke:#9fbfe2;stroke-miterlimit:10;stroke-width:0.5px"/><line x1="186.26" y1="992.35" x2="2090.34" y2="2091.67" style="fill:none;stroke:#9fbfe2;stroke-miterlimit:10;stroke-width:0.5px"/><line x1="232.7" y1="965.54" x2="2136.78" y2="2064.86" style="fill:none;stroke:#9fbfe2;stroke-miterlimit:10;stroke-width:0.5px"/><line x1="279.14" y1="938.73" x2="2183.22" y2="2038.04" style="fill:none;stroke:#9fbfe2;stroke-miterlimit:10;stroke-width:0.5px"/><line x1="325.58" y1="911.91" x2="2229.66" y2="2011.23" style="fill:none;stroke:#9fbfe2;stroke-miterlimit:10;stroke-width:0.5px"/><line x1="372.02" y1="885.1" x2="2276.1" y2="1984.42" style="fill:none;stroke:#9fbfe2;stroke-miterlimit:10;stroke-width:0.5px"/><line x1="418.47" y1="858.29" x2="2322.54" y2="1957.61" style="fill:none;stroke:#9fbfe2;stroke-miterlimit:10;stroke-width:0.5px"/><line x1="464.91" y1="831.48" x2="2368.98" y2="1930.79" style="fill:none;stroke:#9fbfe2;stroke-miterlimit:10;stroke-width:0.5px"/><line x1="511.35" y1="804.66" x2="2415.42" y2="1903.98" style="fill:none;stroke:#9fbfe2;stroke-miterlimit:10;stroke-width:0.5px"/><line x1="557.79" y1="777.85" x2="2461.86" y2="1877.17" style="fill:none;stroke:#9fbfe2;stroke-miterlimit:10;stroke-width:0.5px"/><line x1="604.23" y1="751.04" x2="2508.3" y2="1850.36" style="fill:none;stroke:#9fbfe2;stroke-miterlimit:10;stroke-width:0.5px"/><line x1="650.67" y1="724.23" x2="2554.74" y2="1823.54" style="fill:none;stroke:#9fbfe2;stroke-miterlimit:10;stroke-width:0.5px"/><line x1="697.11" y1="697.41" x2="2601.18" y2="1796.73" style="fill:none;stroke:#9fbfe2;stroke-miterlimit:10;stroke-width:0.5px"/><line x1="743.55" y1="670.6" x2="2647.63" y2="1769.92" style="fill:none;stroke:#9fbfe2;stroke-miterlimit:10;stroke-width:0.5px"/><line x1="789.99" y1="643.79" x2="2694.07" y2="1743.11" style="fill:none;stroke:#9fbfe2;stroke-miterlimit:10;stroke-width:0.5px"/><line x1="836.43" y1="616.98" x2="2740.51" y2="1716.29" style="fill:none;stroke:#9fbfe2;stroke-miterlimit:10;stroke-width:0.5px"/><line x1="882.87" y1="590.16" x2="2786.95" y2="1689.48" style="fill:none;stroke:#9fbfe2;stroke-miterlimit:10;stroke-width:0.5px"/><line x1="929.31" y1="563.35" x2="2833.39" y2="1662.67" style="fill:none;stroke:#9fbfe2;stroke-miterlimit:10;stroke-width:0.5px"/><line x1="975.75" y1="536.54" x2="2879.83" y2="1635.86" style="fill:none;stroke:#9fbfe2;stroke-miterlimit:10;stroke-width:0.5px"/><line x1="1022.19" y1="509.73" x2="2926.27" y2="1609.04" style="fill:none;stroke:#9fbfe2;stroke-miterlimit:10;stroke-width:0.5px"/><line x1="1068.63" y1="482.91" x2="2972.71" y2="1582.23" style="fill:none;stroke:#9fbfe2;stroke-miterlimit:10;stroke-width:0.5px"/><line x1="1115.07" y1="456.1" x2="3019.15" y2="1555.42" style="fill:none;stroke:#9fbfe2;stroke-miterlimit:10;stroke-width:0.5px"/><line x1="1161.51" y1="429.29" x2="3065.59" y2="1528.61" style="fill:none;stroke:#9fbfe2;stroke-miterlimit:10;stroke-width:0.5px"/><line x1="1207.96" y1="402.48" x2="3112.03" y2="1501.79" style="fill:none;stroke:#9fbfe2;stroke-miterlimit:10;stroke-width:0.5px"/><line x1="1254.4" y1="375.66" x2="3158.47" y2="1474.98" style="fill:none;stroke:#9fbfe2;stroke-miterlimit:10;stroke-width:0.5px"/><line x1="1300.84" y1="348.85" x2="3204.91" y2="1448.17" style="fill:none;stroke:#9fbfe2;stroke-miterlimit:10;stroke-width:0.5px"/><line x1="1347.28" y1="322.04" x2="3251.35" y2="1421.36" style="fill:none;stroke:#9fbfe2;stroke-miterlimit:10;stroke-width:0.5px"/><line x1="1393.72" y1="295.23" x2="3297.79" y2="1394.54" style="fill:none;stroke:#9fbfe2;stroke-miterlimit:10;stroke-width:0.5px"/><line x1="1440.16" y1="268.41" x2="3344.23" y2="1367.73" style="fill:none;stroke:#9fbfe2;stroke-miterlimit:10;stroke-width:0.5px"/><line x1="1486.6" y1="241.6" x2="3390.67" y2="1340.92" style="fill:none;stroke:#9fbfe2;stroke-miterlimit:10;stroke-width:0.5px"/><line x1="1533.04" y1="214.79" x2="3437.11" y2="1314.11" style="fill:none;stroke:#9fbfe2;stroke-miterlimit:10;stroke-width:0.5px"/><line x1="1579.48" y1="187.98" x2="3483.56" y2="1287.29" style="fill:none;stroke:#9fbfe2;stroke-miterlimit:10;stroke-width:0.5px"/><line x1="1625.92" y1="161.16" x2="3530" y2="1260.48" style="fill:none;stroke:#9fbfe2;stroke-miterlimit:10;stroke-width:0.5px"/><line x1="1672.36" y1="134.35" x2="3576.44" y2="1233.67" style="fill:none;stroke:#9fbfe2;stroke-miterlimit:10;stroke-width:0.5px"/><line x1="1718.8" y1="107.54" x2="3622.88" y2="1206.86" style="fill:none;stroke:#9fbfe2;stroke-miterlimit:10;stroke-width:0.5px"/><line x1="1765.24" y1="80.73" x2="3669.32" y2="1180.04" style="fill:none;stroke:#9fbfe2;stroke-miterlimit:10;stroke-width:0.5px"/><line x1="1811.68" y1="53.91" x2="3715.76" y2="1153.23" style="fill:none;stroke:#9fbfe2;stroke-miterlimit:10;stroke-width:0.5px"/><line x1="1858.12" y1="27.1" x2="3762.2" y2="1126.42" style="fill:none;stroke:#9fbfe2;stroke-miterlimit:10;stroke-width:0.5px"/><line x1="3762.2" y1="1072.79" x2="1858.13" y2="2172.11" style="fill:none;stroke:#9fbfe2;stroke-miterlimit:10;stroke-width:0.5px"/><line x1="3715.76" y1="1045.98" x2="1811.69" y2="2145.29" style="fill:none;stroke:#9fbfe2;stroke-miterlimit:10;stroke-width:0.5px"/><line x1="3669.32" y1="1019.17" x2="1765.25" y2="2118.48" style="fill:none;stroke:#9fbfe2;stroke-miterlimit:10;stroke-width:0.5px"/><line x1="3622.88" y1="992.36" x2="1718.81" y2="2091.67" style="fill:none;stroke:#9fbfe2;stroke-miterlimit:10;stroke-width:0.5px"/><line x1="3576.44" y1="965.54" x2="1672.37" y2="2064.86" style="fill:none;stroke:#9fbfe2;stroke-miterlimit:10;stroke-width:0.5px"/><line x1="3529.99" y1="938.73" x2="1625.93" y2="2038.04" style="fill:none;stroke:#9fbfe2;stroke-miterlimit:10;stroke-width:0.5px"/><line x1="3483.55" y1="911.92" x2="1579.49" y2="2011.23" style="fill:none;stroke:#9fbfe2;stroke-miterlimit:10;stroke-width:0.5px"/><line x1="3437.11" y1="885.11" x2="1533.05" y2="1984.42" style="fill:none;stroke:#9fbfe2;stroke-miterlimit:10;stroke-width:0.5px"/><line x1="3390.67" y1="858.29" x2="1486.61" y2="1957.61" style="fill:none;stroke:#9fbfe2;stroke-miterlimit:10;stroke-width:0.5px"/><line x1="3344.23" y1="831.48" x2="1440.17" y2="1930.79" style="fill:none;stroke:#9fbfe2;stroke-miterlimit:10;stroke-width:0.5px"/><line x1="3297.79" y1="804.67" x2="1393.73" y2="1903.98" style="fill:none;stroke:#9fbfe2;stroke-miterlimit:10;stroke-width:0.5px"/><line x1="3251.35" y1="777.86" x2="1347.29" y2="1877.17" style="fill:none;stroke:#9fbfe2;stroke-miterlimit:10;stroke-width:0.5px"/><line x1="3204.91" y1="751.04" x2="1300.84" y2="1850.35" style="fill:none;stroke:#9fbfe2;stroke-miterlimit:10;stroke-width:0.5px"/><line x1="3158.47" y1="724.23" x2="1254.4" y2="1823.54" style="fill:none;stroke:#9fbfe2;stroke-miterlimit:10;stroke-width:0.5px"/><line x1="3112.03" y1="697.42" x2="1207.96" y2="1796.73" style="fill:none;stroke:#9fbfe2;stroke-miterlimit:10;stroke-width:0.5px"/><line x1="3065.59" y1="670.6" x2="1161.52" y2="1769.92" style="fill:none;stroke:#9fbfe2;stroke-miterlimit:10;stroke-width:0.5px"/><line x1="3019.14" y1="643.79" x2="1115.08" y2="1743.1" style="fill:none;stroke:#9fbfe2;stroke-miterlimit:10;stroke-width:0.5px"/><line x1="2972.7" y1="616.98" x2="1068.64" y2="1716.29" style="fill:none;stroke:#9fbfe2;stroke-miterlimit:10;stroke-width:0.5px"/><line x1="2926.26" y1="590.17" x2="1022.2" y2="1689.48" style="fill:none;stroke:#9fbfe2;stroke-miterlimit:10;stroke-width:0.5px"/><line x1="2879.82" y1="563.35" x2="975.76" y2="1662.67" style="fill:none;stroke:#9fbfe2;stroke-miterlimit:10;stroke-width:0.5px"/><line x1="2833.38" y1="536.54" x2="929.32" y2="1635.85" style="fill:none;stroke:#9fbfe2;stroke-miterlimit:10;stroke-width:0.5px"/><line x1="2786.94" y1="509.73" x2="882.88" y2="1609.04" style="fill:none;stroke:#9fbfe2;stroke-miterlimit:10;stroke-width:0.5px"/><line x1="2740.5" y1="482.92" x2="836.44" y2="1582.23" style="fill:none;stroke:#9fbfe2;stroke-miterlimit:10;stroke-width:0.5px"/><line x1="2694.06" y1="456.1" x2="789.99" y2="1555.42" style="fill:none;stroke:#9fbfe2;stroke-miterlimit:10;stroke-width:0.5px"/><line x1="2647.62" y1="429.29" x2="743.55" y2="1528.6" style="fill:none;stroke:#9fbfe2;stroke-miterlimit:10;stroke-width:0.5px"/><line x1="2601.18" y1="402.48" x2="697.11" y2="1501.79" style="fill:none;stroke:#9fbfe2;stroke-miterlimit:10;stroke-width:0.5px"/><line x1="2554.74" y1="375.67" x2="650.67" y2="1474.98" style="fill:none;stroke:#9fbfe2;stroke-miterlimit:10;stroke-width:0.5px"/><line x1="2508.3" y1="348.85" x2="604.23" y2="1448.16" style="fill:none;stroke:#9fbfe2;stroke-miterlimit:10;stroke-width:0.5px"/><line x1="2461.85" y1="322.04" x2="557.79" y2="1421.35" style="fill:none;stroke:#9fbfe2;stroke-miterlimit:10;stroke-width:0.5px"/><line x1="2415.41" y1="295.23" x2="511.35" y2="1394.54" style="fill:none;stroke:#9fbfe2;stroke-miterlimit:10;stroke-width:0.5px"/><line x1="2368.97" y1="268.42" x2="464.91" y2="1367.73" style="fill:none;stroke:#9fbfe2;stroke-miterlimit:10;stroke-width:0.5px"/><line x1="2322.53" y1="241.6" x2="418.47" y2="1340.91" style="fill:none;stroke:#9fbfe2;stroke-miterlimit:10;stroke-width:0.5px"/><line x1="2276.09" y1="214.79" x2="372.03" y2="1314.1" style="fill:none;stroke:#9fbfe2;stroke-miterlimit:10;stroke-width:0.5px"/><line x1="2229.65" y1="187.98" x2="325.59" y2="1287.29" style="fill:none;stroke:#9fbfe2;stroke-miterlimit:10;stroke-width:0.5px"/><line x1="2183.21" y1="161.16" x2="279.15" y2="1260.48" style="fill:none;stroke:#9fbfe2;stroke-miterlimit:10;stroke-width:0.5px"/><line x1="2136.77" y1="134.35" x2="232.7" y2="1233.66" style="fill:none;stroke:#9fbfe2;stroke-miterlimit:10;stroke-width:0.5px"/><line x1="2090.33" y1="107.54" x2="186.26" y2="1206.85" style="fill:none;stroke:#9fbfe2;stroke-miterlimit:10;stroke-width:0.5px"/><line x1="2043.89" y1="80.73" x2="139.82" y2="1180.04" style="fill:none;stroke:#9fbfe2;stroke-miterlimit:10;stroke-width:0.5px"/><line x1="1997.45" y1="53.91" x2="93.38" y2="1153.23" style="fill:none;stroke:#9fbfe2;stroke-miterlimit:10;stroke-width:0.5px"/><line x1="1951" y1="27.1" x2="46.94" y2="1126.41" style="fill:none;stroke:#9fbfe2;stroke-miterlimit:10;stroke-width:0.5px"/></g></g></svg>