<svg xmlns="http://www.w3.org/2000/svg" viewBox="0 0 1163.55 1239"><title>hero</title><g id="Layer_2" data-name="Layer 2"><g id="Layer_1-2" data-name="Layer 1"><rect x="201.99" y="2.99" width="361.41" height="217.02" rx="10.4" style="fill:#fff"/><path d="M553,6a7.42,7.42,0,0,1,7.41,7.41V209.61A7.42,7.42,0,0,1,553,217H212.39a7.43,7.43,0,0,1-7.41-7.41V13.39A7.43,7.43,0,0,1,212.39,6H553m0-6H212.39A13.4,13.4,0,0,0,199,13.39V209.61A13.4,13.4,0,0,0,212.39,223H553a13.39,13.39,0,0,0,13.39-13.39V13.39A13.39,13.39,0,0,0,553,0Z" style="fill:#9fbfe2"/><rect x="600.14" y="2.99" width="361.41" height="217.02" rx="10.4" style="fill:#fff"/><path d="M951.15,6a7.43,7.43,0,0,1,7.42,7.41V209.61a7.43,7.43,0,0,1-7.42,7.41H610.55a7.43,7.43,0,0,1-7.42-7.41V13.39A7.43,7.43,0,0,1,610.55,6h340.6m0-6H610.55a13.4,13.4,0,0,0-13.4,13.39V209.61A13.4,13.4,0,0,0,610.55,223h340.6a13.4,13.4,0,0,0,13.4-13.39V13.39A13.4,13.4,0,0,0,951.15,0Z" style="fill:#9fbfe2"/><rect x="201.99" y="1018.99" width="361.41" height="217.02" rx="10.4" style="fill:#fff"/><path d="M553,1022a7.42,7.42,0,0,1,7.41,7.41v196.22A7.42,7.42,0,0,1,553,1233H212.39a7.43,7.43,0,0,1-7.41-7.41V1029.39a7.43,7.43,0,0,1,7.41-7.41H553m0-6H212.39A13.4,13.4,0,0,0,199,1029.39v196.22A13.4,13.4,0,0,0,212.39,1239H553a13.39,13.39,0,0,0,13.39-13.39V1029.39A13.39,13.39,0,0,0,553,1016Z" style="fill:#9fbfe2"/><rect x="600.14" y="1018.99" width="361.41" height="217.02" rx="10.4" style="fill:#fff"/><path d="M951.15,1022a7.43,7.43,0,0,1,7.42,7.41v196.22a7.43,7.43,0,0,1-7.42,7.41H610.55a7.43,7.43,0,0,1-7.42-7.41V1029.39a7.43,7.43,0,0,1,7.42-7.41h340.6m0-6H610.55a13.4,13.4,0,0,0-13.4,13.39v196.22a13.4,13.4,0,0,0,13.4,13.39h340.6a13.4,13.4,0,0,0,13.4-13.39V1029.39a13.4,13.4,0,0,0-13.4-13.39Z" style="fill:#9fbfe2"/><rect x="400.99" y="256.99" width="361.41" height="217.02" rx="10.4" style="fill:#fff"/><path d="M752,260a7.42,7.42,0,0,1,7.41,7.41V463.61A7.42,7.42,0,0,1,752,471H411.39a7.43,7.43,0,0,1-7.41-7.41V267.39a7.43,7.43,0,0,1,7.41-7.41H752m0-6H411.39A13.4,13.4,0,0,0,398,267.39V463.61A13.4,13.4,0,0,0,411.39,477H752a13.39,13.39,0,0,0,13.39-13.39V267.39A13.39,13.39,0,0,0,752,254Z" style="fill:#9fbfe2"/><rect x="799.14" y="256.99" width="361.41" height="217.02" rx="10.4" style="fill:#fff"/><path d="M1150.15,260a7.43,7.43,0,0,1,7.42,7.41V463.61a7.43,7.43,0,0,1-7.42,7.41H809.55a7.43,7.43,0,0,1-7.42-7.41V267.39a7.43,7.43,0,0,1,7.42-7.41h340.6m0-6H809.55a13.4,13.4,0,0,0-13.4,13.39V463.61A13.4,13.4,0,0,0,809.55,477h340.6a13.4,13.4,0,0,0,13.4-13.39V267.39a13.4,13.4,0,0,0-13.4-13.39Z" style="fill:#9fbfe2"/><rect x="2.99" y="256.99" width="361.41" height="217.02" rx="10.4" style="fill:#fff"/><path d="M354,260a7.42,7.42,0,0,1,7.41,7.41V463.61A7.42,7.42,0,0,1,354,471H13.39A7.43,7.43,0,0,1,6,463.61V267.39A7.43,7.43,0,0,1,13.39,260H354m0-6H13.39A13.4,13.4,0,0,0,0,267.39V463.61A13.4,13.4,0,0,0,13.39,477H354a13.39,13.39,0,0,0,13.39-13.39V267.39A13.39,13.39,0,0,0,354,254Z" style="fill:#9fbfe2"/><rect x="201.99" y="510.99" width="361.41" height="217.02" rx="10.4" style="fill:#fff"/><path d="M553,514a7.42,7.42,0,0,1,7.41,7.41V717.61A7.42,7.42,0,0,1,553,725H212.39a7.43,7.43,0,0,1-7.41-7.41V521.39a7.43,7.43,0,0,1,7.41-7.41H553m0-6H212.39A13.4,13.4,0,0,0,199,521.39V717.61A13.4,13.4,0,0,0,212.39,731H553a13.39,13.39,0,0,0,13.39-13.39V521.39A13.39,13.39,0,0,0,553,508Z" style="fill:#9fbfe2"/><rect x="600.14" y="510.99" width="361.41" height="217.02" rx="10.4" style="fill:#fff"/><path d="M951.15,514a7.43,7.43,0,0,1,7.42,7.41V717.61a7.43,7.43,0,0,1-7.42,7.41H610.55a7.43,7.43,0,0,1-7.42-7.41V521.39a7.43,7.43,0,0,1,7.42-7.41h340.6m0-6H610.55a13.4,13.4,0,0,0-13.4,13.39V717.61A13.4,13.4,0,0,0,610.55,731h340.6a13.4,13.4,0,0,0,13.4-13.39V521.39A13.4,13.4,0,0,0,951.15,508Z" style="fill:#9fbfe2"/><rect x="400.99" y="764.99" width="361.41" height="217.02" rx="10.4" style="fill:#fff"/><path d="M752,768a7.42,7.42,0,0,1,7.41,7.41V971.61A7.42,7.42,0,0,1,752,979H411.39a7.43,7.43,0,0,1-7.41-7.41V775.39a7.43,7.43,0,0,1,7.41-7.41H752m0-6H411.39A13.4,13.4,0,0,0,398,775.39V971.61A13.4,13.4,0,0,0,411.39,985H752a13.39,13.39,0,0,0,13.39-13.39V775.39A13.39,13.39,0,0,0,752,762Z" style="fill:#9fbfe2"/><rect x="799.14" y="764.99" width="361.41" height="217.02" rx="10.4" style="fill:#fff"/><path d="M1150.15,768a7.43,7.43,0,0,1,7.42,7.41V971.61a7.43,7.43,0,0,1-7.42,7.41H809.55a7.43,7.43,0,0,1-7.42-7.41V775.39a7.43,7.43,0,0,1,7.42-7.41h340.6m0-6H809.55a13.4,13.4,0,0,0-13.4,13.39V971.61A13.4,13.4,0,0,0,809.55,985h340.6a13.4,13.4,0,0,0,13.4-13.39V775.39a13.4,13.4,0,0,0-13.4-13.39Z" style="fill:#9fbfe2"/><rect x="2.99" y="764.99" width="361.41" height="217.02" rx="10.4" style="fill:#fff"/><path d="M354,768a7.42,7.42,0,0,1,7.41,7.41V971.61A7.42,7.42,0,0,1,354,979H13.39A7.43,7.43,0,0,1,6,971.61V775.39A7.43,7.43,0,0,1,13.39,768H354m0-6H13.39A13.4,13.4,0,0,0,0,775.39V971.61A13.4,13.4,0,0,0,13.39,985H354a13.39,13.39,0,0,0,13.39-13.39V775.39A13.39,13.39,0,0,0,354,762Z" style="fill:#9fbfe2"/></g></g></svg>