<svg xmlns="http://www.w3.org/2000/svg" viewBox="0 0 813.09 309.26"><title>404</title><path d="M139.59,141.94c0-20.21,1.88-50.29,2.82-70.5h-1.88C130.66,89.3,118,107.16,107.16,125l-31,50.76h173v61.1H0v-56.4L115.15,5.64h99.64v298h-75.2Z" style="fill:#346ace"/><path d="M290,153.22C290,51.23,337.46,0,407.49,0S525,51.23,525,153.22s-47.47,156-117.5,156S290,255.21,290,153.22Zm163.56,0C453.55,79,432.4,62,407.49,62S361.43,79,361.43,153.22s21.15,94,46.06,94S453.55,227.48,453.55,153.22Z" style="fill:#346ace"/><path d="M703.58,141.94c0-20.21,1.88-50.29,2.82-70.5h-1.88C694.65,89.3,682,107.16,671.15,125l-31,50.76h173v61.1H564v-56.4L679.14,5.64h99.64v298h-75.2Z" style="fill:#346ace"/></svg>