<svg xmlns="http://www.w3.org/2000/svg" viewBox="0 0 1892 562"><title>about-hero-background</title><g id="Layer_2" data-name="Layer 2"><g id="Layer_1-2" data-name="Layer 1"><rect x="287.9" y="385.83" width="237.14" height="146.69" rx="6.13" style="fill:#fff"/><path d="M518.91,387.86A4.11,4.11,0,0,1,523,392V526.39a4.11,4.11,0,0,1-4.1,4.1H294a4.11,4.11,0,0,1-4.1-4.1V392a4.11,4.11,0,0,1,4.1-4.1H518.91m0-4.06H294a8.16,8.16,0,0,0-8.16,8.16V526.39a8.16,8.16,0,0,0,8.16,8.16H518.91a8.16,8.16,0,0,0,8.16-8.16V392a8.16,8.16,0,0,0-8.16-8.16Z" style="fill:#eaeaea"/><rect x="307.13" y="399.81" width="39.1" height="17.38" rx="2.97" style="fill:#366dcb"/><rect x="352.31" y="399.81" width="39.1" height="6.66" rx="1.84" style="fill:#366dcb"/><rect x="486.4" y="399.81" width="19.4" height="6.66" rx="1.3" style="fill:#366dcb"/><rect x="352.31" y="411.68" width="153.5" height="5.5" rx="2.75" style="fill:#eaeaea"/><rect x="307.13" y="422.11" width="39.1" height="30.99" rx="3.97" style="fill:#eaeaea"/><rect x="352.31" y="419.01" width="153.5" height="5.5" rx="2.75" style="fill:#eaeaea"/><rect x="352.31" y="426.33" width="153.5" height="5.5" rx="2.75" style="fill:#eaeaea"/><rect x="352.31" y="433.65" width="153.5" height="5.5" rx="2.75" style="fill:#eaeaea"/><rect x="352.31" y="440.98" width="153.5" height="5.5" rx="2.75" style="fill:#eaeaea"/><rect x="352.31" y="448.3" width="153.5" height="5.5" rx="2.75" style="fill:#eaeaea"/><rect x="352.31" y="455.62" width="153.5" height="5.5" rx="2.75" style="fill:#eaeaea"/><rect x="352.31" y="462.95" width="153.5" height="5.5" rx="2.75" style="fill:#eaeaea"/><rect x="352.31" y="482.93" width="39.1" height="6.66" rx="1.84" style="fill:#366dcb"/><rect x="352.31" y="494.8" width="153.5" height="5.5" rx="2.75" style="fill:#eaeaea"/><rect x="352.31" y="502.13" width="153.5" height="5.5" rx="2.75" style="fill:#eaeaea"/><rect x="352.31" y="509.45" width="153.5" height="5.5" rx="2.75" style="fill:#eaeaea"/><rect x="352.31" y="516.77" width="153.5" height="5.5" rx="2.75" style="fill:#eaeaea"/><rect x="557.69" y="385.83" width="237.14" height="146.69" rx="6.13" style="fill:#fff"/><path d="M788.7,387.86a4.11,4.11,0,0,1,4.1,4.1V526.39a4.11,4.11,0,0,1-4.1,4.1H563.82a4.11,4.11,0,0,1-4.11-4.1V392a4.11,4.11,0,0,1,4.11-4.1H788.7m0-4.06H563.82a8.16,8.16,0,0,0-8.16,8.16V526.39a8.16,8.16,0,0,0,8.16,8.16H788.7a8.15,8.15,0,0,0,8.15-8.16V392a8.15,8.15,0,0,0-8.15-8.16Z" style="fill:#eaeaea"/><rect x="563.34" y="391.51" width="33.83" height="135.33" rx="1.68" style="fill:#366dcb"/><rect x="572.22" y="401.03" width="16.92" height="16.92" rx="8.46" style="fill:#4b81d1"/><rect x="603.09" y="391.3" width="40.77" height="5.92" rx="2.14" style="fill:#366dcb"/><rect x="603.09" y="399.76" width="40.77" height="18.53" rx="2.96" style="fill:#d2e4ff"/><rect x="650.46" y="399.76" width="40.77" height="18.53" rx="2.96" style="fill:#d2e4ff"/><rect x="650.46" y="421.17" width="40.77" height="18.53" rx="2.96" style="fill:#d2e4ff"/><rect x="650.46" y="442.59" width="40.77" height="18.53" rx="2.96" style="fill:#d2e4ff"/><rect x="650.46" y="464" width="40.77" height="18.53" rx="2.96" style="fill:#d2e4ff"/><rect x="603.09" y="421.17" width="40.77" height="18.53" rx="2.96" style="fill:#d2e4ff"/><rect x="603.09" y="442.59" width="40.77" height="18.53" rx="2.96" style="fill:#d2e4ff"/><rect x="746.03" y="421.17" width="40.77" height="18.53" rx="2.96" style="fill:#d2e4ff"/><rect x="746.03" y="442.59" width="40.77" height="18.53" rx="2.96" style="fill:#d2e4ff"/><rect x="603.09" y="464" width="40.77" height="18.53" rx="2.96" style="fill:#d2e4ff"/><rect x="650.46" y="485.41" width="40.77" height="18.53" rx="2.96" style="fill:#d2e4ff"/><rect x="650.46" y="506.83" width="40.77" height="18.53" rx="2.96" style="fill:#d2e4ff"/><rect x="698.67" y="399.76" width="40.77" height="18.53" rx="2.96" style="fill:#d2e4ff"/><rect x="746.03" y="399.76" width="40.77" height="18.53" rx="2.96" style="fill:#d2e4ff"/><rect x="650.83" y="391.3" width="40.77" height="5.92" rx="2.14" style="fill:#366dcb"/><rect x="698.56" y="391.72" width="40.77" height="5.92" rx="2.14" style="fill:#366dcb"/><rect x="746.29" y="391.72" width="40.77" height="5.92" rx="2.14" style="fill:#366dcb"/><rect x="287.88" y="30.6" width="237.14" height="146.69" rx="6.13" style="fill:#fff"/><path d="M518.89,32.63a4.11,4.11,0,0,1,4.1,4.1V171.16a4.11,4.11,0,0,1-4.1,4.1H294a4.11,4.11,0,0,1-4.1-4.1V36.73a4.11,4.11,0,0,1,4.1-4.1H518.89m0-4.06H294a8.16,8.16,0,0,0-8.16,8.16V171.16a8.16,8.16,0,0,0,8.16,8.16H518.89a8.17,8.17,0,0,0,8.16-8.16V36.73a8.16,8.16,0,0,0-8.16-8.16Z" style="fill:#eaeaea"/><rect x="293.54" y="36.28" width="33.83" height="135.33" rx="1.68" style="fill:#366dcb"/><rect x="302.42" y="45.8" width="16.92" height="16.92" rx="8.46" style="fill:#4b81d1"/><rect x="333.29" y="36.07" width="40.77" height="5.92" rx="2.14" style="fill:#366dcb"/><rect x="333.29" y="44.53" width="40.77" height="18.53" rx="2.96" style="fill:#d2e4ff"/><rect x="380.65" y="44.53" width="40.77" height="18.53" rx="2.96" style="fill:#d2e4ff"/><rect x="380.65" y="65.94" width="40.77" height="18.53" rx="2.96" style="fill:#d2e4ff"/><rect x="380.65" y="87.35" width="40.77" height="18.53" rx="2.96" style="fill:#d2e4ff"/><rect x="380.65" y="108.77" width="40.77" height="18.53" rx="2.96" style="fill:#d2e4ff"/><rect x="333.29" y="65.94" width="40.77" height="18.53" rx="2.96" style="fill:#d2e4ff"/><rect x="333.29" y="87.35" width="40.77" height="18.53" rx="2.96" style="fill:#d2e4ff"/><rect x="476.23" y="65.94" width="40.77" height="18.53" rx="2.96" style="fill:#d2e4ff"/><rect x="476.23" y="87.35" width="40.77" height="18.53" rx="2.96" style="fill:#d2e4ff"/><rect x="333.29" y="108.77" width="40.77" height="18.53" rx="2.96" style="fill:#d2e4ff"/><rect x="380.65" y="130.18" width="40.77" height="18.53" rx="2.96" style="fill:#d2e4ff"/><rect x="380.65" y="151.6" width="40.77" height="18.53" rx="2.96" style="fill:#d2e4ff"/><rect x="428.86" y="44.53" width="40.77" height="18.53" rx="2.96" style="fill:#d2e4ff"/><rect x="476.23" y="44.53" width="40.77" height="18.53" rx="2.96" style="fill:#d2e4ff"/><rect x="381.02" y="36.07" width="40.77" height="5.92" rx="2.14" style="fill:#366dcb"/><rect x="428.75" y="36.49" width="40.77" height="5.92" rx="2.14" style="fill:#366dcb"/><rect x="476.48" y="36.49" width="40.77" height="5.92" rx="2.14" style="fill:#366dcb"/><rect x="557.58" y="208.51" width="237.14" height="146.69" rx="6.13" style="fill:#fff"/><path d="M788.59,210.53a4.11,4.11,0,0,1,4.1,4.11V349.07a4.11,4.11,0,0,1-4.1,4.1H563.71a4.11,4.11,0,0,1-4.11-4.1V214.64a4.12,4.12,0,0,1,4.11-4.11H788.59m0-4.05H563.71a8.16,8.16,0,0,0-8.16,8.16V349.07a8.15,8.15,0,0,0,8.16,8.15H788.59a8.15,8.15,0,0,0,8.15-8.15V214.64a8.15,8.15,0,0,0-8.15-8.16Z" style="fill:#eaeaea"/><rect x="563.23" y="214.19" width="33.83" height="135.33" rx="1.68" style="fill:#366dcb"/><rect x="572.11" y="223.7" width="16.92" height="16.92" rx="8.46" style="fill:#4b81d1"/><rect x="601.54" y="214.23" width="38.8" height="38.86" rx="4.18" style="fill:#d2e4ff"/><rect x="601.54" y="258.21" width="38.8" height="11.15" rx="2.24" style="fill:#d2e4ff"/><rect x="601.54" y="274.28" width="38.8" height="11.15" rx="2.24" style="fill:#d2e4ff"/><rect x="601.54" y="290.35" width="38.8" height="11.15" rx="2.24" style="fill:#d2e4ff"/><rect x="601.54" y="306.42" width="38.8" height="11.15" rx="2.24" style="fill:#d2e4ff"/><rect x="645.42" y="214.23" width="143.84" height="134.63" rx="2.63" style="fill:#f3f8ff"/><rect x="649.75" y="218.46" width="31.23" height="28.65" rx="3.22" style="fill:#88c4ff"/><rect x="684.56" y="250.05" width="31.23" height="28.65" rx="3.22" style="fill:#88c4ff"/><rect x="684.56" y="283.18" width="31.23" height="28.65" rx="3.22" style="fill:#88c4ff"/><rect x="720.21" y="283.18" width="31.23" height="28.65" rx="3.22" style="fill:#88c4ff"/><rect x="649.84" y="315.98" width="31.23" height="28.65" rx="3.22" style="fill:#88c4ff"/><rect x="753.5" y="315.98" width="31.23" height="28.65" rx="3.22" style="fill:#88c4ff"/><rect x="719.79" y="218.84" width="31.23" height="28.65" rx="3.22" style="fill:#88c4ff"/><rect x="753.75" y="251.97" width="31.23" height="28.65" rx="3.22" style="fill:#88c4ff"/><rect x="287.8" y="208.21" width="237.14" height="146.69" rx="6.13" style="fill:#fff"/><path d="M518.81,210.24a4.11,4.11,0,0,1,4.1,4.1V348.78a4.11,4.11,0,0,1-4.1,4.1H293.93a4.11,4.11,0,0,1-4.1-4.1V214.34a4.11,4.11,0,0,1,4.1-4.1H518.81m0-4.05H293.93a8.15,8.15,0,0,0-8.16,8.15V348.78a8.15,8.15,0,0,0,8.16,8.15H518.81a8.16,8.16,0,0,0,8.16-8.15V214.34a8.16,8.16,0,0,0-8.16-8.15Z" style="fill:#eaeaea"/><rect x="293.46" y="213.9" width="33.83" height="135.33" rx="1.68" style="fill:#366dcb"/><rect x="302.34" y="223.41" width="16.92" height="16.92" rx="8.46" style="fill:#4b81d1"/><rect x="330.67" y="214.01" width="35.52" height="5.45" rx="1.32" style="fill:#eaeaea"/><rect x="504.9" y="214.01" width="13.53" height="5.45" rx="0.81" style="fill:#366dcb"/><rect x="489.68" y="214.01" width="13.53" height="5.45" rx="0.81" style="fill:#366dcb"/><rect x="474.45" y="214.01" width="13.53" height="5.45" rx="0.81" style="fill:#366dcb"/><rect x="330.67" y="222.83" width="187.77" height="126.02" rx="2.91" style="fill:#f3f8ff"/><rect x="333.74" y="225.91" width="17.23" height="3.69" rx="1.85" style="fill:#366dcb"/><rect x="333.74" y="234.37" width="17.23" height="3.69" rx="1.85" style="fill:#82b1f4"/><rect x="333.74" y="242.82" width="21.46" height="3.69" rx="1.85" style="fill:#82b1f4"/><rect x="333.74" y="251.28" width="17.23" height="3.69" rx="1.85" style="fill:#82b1f4"/><rect x="333.74" y="259.74" width="14.69" height="3.69" rx="1.7" style="fill:#82b1f4"/><rect x="333.74" y="268.2" width="17.23" height="3.69" rx="1.85" style="fill:#82b1f4"/><rect x="333.74" y="276.66" width="18.08" height="3.69" rx="1.85" style="fill:#82b1f4"/><rect x="333.74" y="285.11" width="20.61" height="3.69" rx="1.85" style="fill:#82b1f4"/><rect x="333.74" y="293.57" width="15.54" height="3.69" rx="1.75" style="fill:#82b1f4"/><rect x="333.74" y="302.03" width="13.85" height="3.69" rx="1.65" style="fill:#82b1f4"/><rect x="333.74" y="310.49" width="18.92" height="3.69" rx="1.85" style="fill:#82b1f4"/><rect x="333.74" y="318.95" width="15.54" height="3.69" rx="1.75" style="fill:#82b1f4"/><rect x="333.74" y="327.4" width="19.77" height="3.69" rx="1.85" style="fill:#82b1f4"/><rect x="333.74" y="335.86" width="14.69" height="3.69" rx="1.7" style="fill:#82b1f4"/><rect x="370.11" y="234.37" width="16.38" height="3.69" rx="1.8" style="fill:#82b1f4"/><rect x="370.11" y="242.82" width="18.92" height="3.69" rx="1.85" style="fill:#82b1f4"/><rect x="370.11" y="251.28" width="14.69" height="3.69" rx="1.7" style="fill:#82b1f4"/><rect x="370.11" y="259.74" width="18.92" height="3.69" rx="1.85" style="fill:#82b1f4"/><rect x="370.11" y="268.2" width="13.85" height="3.69" rx="1.65" style="fill:#82b1f4"/><rect x="370.11" y="276.66" width="18.08" height="3.69" rx="1.85" style="fill:#82b1f4"/><rect x="370.11" y="285.11" width="15.54" height="3.69" rx="1.75" style="fill:#82b1f4"/><rect x="370.11" y="293.57" width="18.92" height="3.69" rx="1.85" style="fill:#82b1f4"/><rect x="370.11" y="302.03" width="15.54" height="3.69" rx="1.75" style="fill:#82b1f4"/><rect x="370.11" y="310.49" width="18.92" height="3.69" rx="1.85" style="fill:#82b1f4"/><rect x="370.11" y="318.95" width="15.54" height="3.69" rx="1.75" style="fill:#82b1f4"/><rect x="370.11" y="327.4" width="18.92" height="3.69" rx="1.85" style="fill:#82b1f4"/><rect x="370.11" y="335.86" width="15.54" height="3.69" rx="1.75" style="fill:#82b1f4"/><rect x="406.48" y="234.37" width="12.16" height="3.69" rx="1.55" style="fill:#82b1f4"/><rect x="406.48" y="242.82" width="14.69" height="3.69" rx="1.7" style="fill:#82b1f4"/><rect x="406.48" y="251.28" width="9.62" height="3.69" rx="1.38" style="fill:#82b1f4"/><rect x="406.48" y="259.74" width="14.69" height="3.69" rx="1.7" style="fill:#82b1f4"/><rect x="406.48" y="268.2" width="14.69" height="3.69" rx="1.7" style="fill:#82b1f4"/><rect x="406.48" y="276.66" width="15.54" height="3.69" rx="1.75" style="fill:#82b1f4"/><rect x="406.48" y="285.11" width="9.62" height="3.69" rx="1.38" style="fill:#82b1f4"/><rect x="406.48" y="293.57" width="13.85" height="3.69" rx="1.65" style="fill:#82b1f4"/><rect x="406.48" y="302.03" width="15.54" height="3.69" rx="1.75" style="fill:#82b1f4"/><rect x="406.48" y="310.49" width="13" height="3.69" rx="1.6" style="fill:#82b1f4"/><rect x="406.48" y="318.95" width="13.85" height="3.69" rx="1.65" style="fill:#82b1f4"/><rect x="406.48" y="327.4" width="15.54" height="3.69" rx="1.75" style="fill:#82b1f4"/><rect x="406.48" y="335.86" width="11.31" height="3.69" rx="1.5" style="fill:#82b1f4"/><rect x="442.85" y="234.37" width="25.69" height="3.69" rx="1.85" style="fill:#82b1f4"/><rect x="442.85" y="242.82" width="20.61" height="3.69" rx="1.85" style="fill:#82b1f4"/><rect x="442.85" y="251.28" width="21.46" height="3.69" rx="1.85" style="fill:#82b1f4"/><rect x="442.85" y="259.74" width="21.46" height="3.69" rx="1.85" style="fill:#82b1f4"/><rect x="442.85" y="268.2" width="18.92" height="3.69" rx="1.85" style="fill:#82b1f4"/><rect x="442.85" y="276.66" width="20.61" height="3.69" rx="1.85" style="fill:#82b1f4"/><rect x="442.85" y="285.11" width="23.15" height="3.69" rx="1.85" style="fill:#82b1f4"/><rect x="442.85" y="293.57" width="21.46" height="3.69" rx="1.85" style="fill:#82b1f4"/><rect x="442.85" y="302.03" width="20.61" height="3.69" rx="1.85" style="fill:#82b1f4"/><rect x="442.85" y="310.49" width="18.92" height="3.69" rx="1.85" style="fill:#82b1f4"/><rect x="442.85" y="318.95" width="20.61" height="3.69" rx="1.85" style="fill:#82b1f4"/><rect x="442.85" y="327.4" width="18.92" height="3.69" rx="1.85" style="fill:#82b1f4"/><rect x="442.85" y="335.86" width="20.61" height="3.69" rx="1.85" style="fill:#82b1f4"/><rect x="479.21" y="234.37" width="20.61" height="3.69" rx="1.85" style="fill:#82b1f4"/><rect x="479.21" y="242.82" width="18.92" height="3.69" rx="1.85" style="fill:#82b1f4"/><rect x="479.21" y="251.28" width="22.31" height="3.69" rx="1.85" style="fill:#82b1f4"/><rect x="479.21" y="259.74" width="19.77" height="3.69" rx="1.85" style="fill:#82b1f4"/><rect x="479.21" y="268.2" width="21.46" height="3.69" rx="1.85" style="fill:#82b1f4"/><rect x="479.21" y="276.66" width="25.69" height="3.69" rx="1.85" style="fill:#82b1f4"/><rect x="479.21" y="285.11" width="20.61" height="3.69" rx="1.85" style="fill:#82b1f4"/><rect x="479.21" y="293.57" width="23.15" height="3.69" rx="1.85" style="fill:#82b1f4"/><rect x="479.21" y="302.03" width="19.77" height="3.69" rx="1.85" style="fill:#82b1f4"/><rect x="479.21" y="310.49" width="22.31" height="3.69" rx="1.85" style="fill:#82b1f4"/><rect x="479.21" y="318.95" width="20.61" height="3.69" rx="1.85" style="fill:#82b1f4"/><rect x="479.21" y="327.4" width="20.61" height="3.69" rx="1.85" style="fill:#82b1f4"/><rect x="479.21" y="335.86" width="24.84" height="3.69" rx="1.85" style="fill:#82b1f4"/><rect x="370.11" y="225.91" width="22.31" height="3.69" rx="1.85" style="fill:#366dcb"/><rect x="406.48" y="225.91" width="12.16" height="3.69" rx="1.85" style="fill:#366dcb"/><rect x="442.85" y="225.91" width="20.61" height="3.69" rx="1.85" style="fill:#366dcb"/><rect x="479.21" y="225.91" width="18.08" height="3.69" rx="1.73" style="fill:#366dcb"/><rect x="827.47" y="385.83" width="237.14" height="146.69" rx="6.13" style="fill:#fff"/><path d="M1058.48,387.86a4.11,4.11,0,0,1,4.11,4.1V526.39a4.11,4.11,0,0,1-4.11,4.1H833.6a4.11,4.11,0,0,1-4.1-4.1V392a4.11,4.11,0,0,1,4.1-4.1h224.88m0-4.06H833.6a8.15,8.15,0,0,0-8.15,8.16V526.39a8.15,8.15,0,0,0,8.15,8.16h224.88a8.16,8.16,0,0,0,8.16-8.16V392a8.16,8.16,0,0,0-8.16-8.16Z" style="fill:#eaeaea"/><rect x="846.7" y="399.81" width="39.1" height="17.38" rx="2.97" style="fill:#366dcb"/><rect x="891.88" y="399.81" width="39.1" height="6.66" rx="1.84" style="fill:#366dcb"/><rect x="1025.98" y="399.81" width="19.4" height="6.66" rx="1.3" style="fill:#366dcb"/><rect x="891.88" y="411.68" width="153.5" height="5.5" rx="2.75" style="fill:#eaeaea"/><rect x="846.7" y="422.11" width="39.1" height="30.99" rx="3.97" style="fill:#eaeaea"/><rect x="891.88" y="419.01" width="153.5" height="5.5" rx="2.75" style="fill:#eaeaea"/><rect x="891.88" y="426.33" width="153.5" height="5.5" rx="2.75" style="fill:#eaeaea"/><rect x="891.88" y="433.65" width="153.5" height="5.5" rx="2.75" style="fill:#eaeaea"/><rect x="891.88" y="440.98" width="153.5" height="5.5" rx="2.75" style="fill:#eaeaea"/><rect x="891.88" y="448.3" width="153.5" height="5.5" rx="2.75" style="fill:#eaeaea"/><rect x="891.88" y="455.62" width="153.5" height="5.5" rx="2.75" style="fill:#eaeaea"/><rect x="891.88" y="462.95" width="153.5" height="5.5" rx="2.75" style="fill:#eaeaea"/><rect x="891.88" y="482.93" width="39.1" height="6.66" rx="1.84" style="fill:#366dcb"/><rect x="891.88" y="494.8" width="153.5" height="5.5" rx="2.75" style="fill:#eaeaea"/><rect x="891.88" y="502.13" width="153.5" height="5.5" rx="2.75" style="fill:#eaeaea"/><rect x="891.88" y="509.45" width="153.5" height="5.5" rx="2.75" style="fill:#eaeaea"/><rect x="891.88" y="516.77" width="153.5" height="5.5" rx="2.75" style="fill:#eaeaea"/><rect x="1097.26" y="385.83" width="237.14" height="146.69" rx="6.13" style="fill:#fff"/><path d="M1328.27,387.86a4.11,4.11,0,0,1,4.1,4.1V526.39a4.11,4.11,0,0,1-4.1,4.1H1103.39a4.11,4.11,0,0,1-4.1-4.1V392a4.11,4.11,0,0,1,4.1-4.1h224.88m0-4.06H1103.39a8.16,8.16,0,0,0-8.16,8.16V526.39a8.16,8.16,0,0,0,8.16,8.16h224.88a8.16,8.16,0,0,0,8.16-8.16V392a8.16,8.16,0,0,0-8.16-8.16Z" style="fill:#eaeaea"/><rect x="1102.92" y="391.51" width="33.83" height="135.33" rx="1.68" style="fill:#366dcb"/><rect x="1111.8" y="401.03" width="16.92" height="16.92" rx="8.46" style="fill:#4b81d1"/><rect x="1142.67" y="391.3" width="40.77" height="5.92" rx="2.14" style="fill:#366dcb"/><rect x="1142.67" y="399.76" width="40.77" height="18.53" rx="2.96" style="fill:#d2e4ff"/><rect x="1190.03" y="399.76" width="40.77" height="18.53" rx="2.96" style="fill:#d2e4ff"/><rect x="1190.03" y="421.17" width="40.77" height="18.53" rx="2.96" style="fill:#d2e4ff"/><rect x="1190.03" y="442.59" width="40.77" height="18.53" rx="2.96" style="fill:#d2e4ff"/><rect x="1190.03" y="464" width="40.77" height="18.53" rx="2.96" style="fill:#d2e4ff"/><rect x="1142.67" y="421.17" width="40.77" height="18.53" rx="2.96" style="fill:#d2e4ff"/><rect x="1142.67" y="442.59" width="40.77" height="18.53" rx="2.96" style="fill:#d2e4ff"/><rect x="1285.61" y="421.17" width="40.77" height="18.53" rx="2.96" style="fill:#d2e4ff"/><rect x="1285.61" y="442.59" width="40.77" height="18.53" rx="2.96" style="fill:#d2e4ff"/><rect x="1142.67" y="464" width="40.77" height="18.53" rx="2.96" style="fill:#d2e4ff"/><rect x="1190.03" y="485.41" width="40.77" height="18.53" rx="2.96" style="fill:#d2e4ff"/><rect x="1190.03" y="506.83" width="40.77" height="18.53" rx="2.96" style="fill:#d2e4ff"/><rect x="1238.24" y="399.76" width="40.77" height="18.53" rx="2.96" style="fill:#d2e4ff"/><rect x="1285.61" y="399.76" width="40.77" height="18.53" rx="2.96" style="fill:#d2e4ff"/><rect x="1190.4" y="391.3" width="40.77" height="5.92" rx="2.14" style="fill:#366dcb"/><rect x="1238.13" y="391.72" width="40.77" height="5.92" rx="2.14" style="fill:#366dcb"/><rect x="1285.86" y="391.72" width="40.77" height="5.92" rx="2.14" style="fill:#366dcb"/><rect x="1097.13" y="208.51" width="237.14" height="146.69" rx="6.13" style="fill:#fff"/><path d="M1328.14,210.53a4.11,4.11,0,0,1,4.11,4.11V349.07a4.11,4.11,0,0,1-4.11,4.1H1103.26a4.11,4.11,0,0,1-4.1-4.1V214.64a4.11,4.11,0,0,1,4.1-4.11h224.88m0-4.05H1103.26a8.15,8.15,0,0,0-8.15,8.16V349.07a8.15,8.15,0,0,0,8.15,8.15h224.88a8.15,8.15,0,0,0,8.16-8.15V214.64a8.16,8.16,0,0,0-8.16-8.16Z" style="fill:#eaeaea"/><rect x="1102.79" y="214.19" width="33.83" height="135.33" rx="1.68" style="fill:#366dcb"/><rect x="1111.67" y="223.7" width="16.92" height="16.92" rx="8.46" style="fill:#4b81d1"/><rect x="1141.1" y="214.23" width="38.8" height="38.86" rx="4.18" style="fill:#d2e4ff"/><rect x="1141.1" y="258.21" width="38.8" height="11.15" rx="2.24" style="fill:#d2e4ff"/><rect x="1141.1" y="274.28" width="38.8" height="11.15" rx="2.24" style="fill:#d2e4ff"/><rect x="1141.1" y="290.35" width="38.8" height="11.15" rx="2.24" style="fill:#d2e4ff"/><rect x="1141.1" y="306.42" width="38.8" height="11.15" rx="2.24" style="fill:#d2e4ff"/><rect x="1184.97" y="214.23" width="143.84" height="134.63" rx="2.63" style="fill:#f3f8ff"/><rect x="1189.31" y="218.46" width="31.23" height="28.65" rx="3.22" style="fill:#88c4ff"/><rect x="1224.11" y="250.05" width="31.23" height="28.65" rx="3.22" style="fill:#88c4ff"/><rect x="1224.11" y="283.18" width="31.23" height="28.65" rx="3.22" style="fill:#88c4ff"/><rect x="1259.77" y="283.18" width="31.23" height="28.65" rx="3.22" style="fill:#88c4ff"/><rect x="1189.4" y="315.98" width="31.23" height="28.65" rx="3.22" style="fill:#88c4ff"/><rect x="1293.05" y="315.98" width="31.23" height="28.65" rx="3.22" style="fill:#88c4ff"/><rect x="1259.35" y="218.84" width="31.23" height="28.65" rx="3.22" style="fill:#88c4ff"/><rect x="1293.3" y="251.97" width="31.23" height="28.65" rx="3.22" style="fill:#88c4ff"/><rect x="1366.94" y="30.89" width="237.14" height="146.69" rx="6.13" style="fill:#fff"/><path d="M1598,32.92a4.11,4.11,0,0,1,4.1,4.1V171.45a4.11,4.11,0,0,1-4.1,4.1H1373.07a4.11,4.11,0,0,1-4.1-4.1V37a4.11,4.11,0,0,1,4.1-4.1H1598m0-4.06H1373.07a8.16,8.16,0,0,0-8.16,8.16V171.45a8.16,8.16,0,0,0,8.16,8.16H1598a8.16,8.16,0,0,0,8.16-8.16V37a8.16,8.16,0,0,0-8.16-8.16Z" style="fill:#eaeaea"/><rect x="1372.6" y="36.57" width="33.83" height="135.33" rx="1.68" style="fill:#366dcb"/><rect x="1381.48" y="46.09" width="16.92" height="16.92" rx="8.46" style="fill:#4b81d1"/><rect x="1410.9" y="36.61" width="38.8" height="38.86" rx="4.18" style="fill:#d2e4ff"/><rect x="1410.9" y="80.59" width="38.8" height="11.15" rx="2.24" style="fill:#d2e4ff"/><rect x="1410.9" y="96.66" width="38.8" height="11.15" rx="2.24" style="fill:#d2e4ff"/><rect x="1410.9" y="112.73" width="38.8" height="11.15" rx="2.24" style="fill:#d2e4ff"/><rect x="1410.9" y="128.8" width="38.8" height="11.15" rx="2.24" style="fill:#d2e4ff"/><rect x="1454.78" y="36.61" width="143.84" height="134.63" rx="2.63" style="fill:#f3f8ff"/><rect x="1459.11" y="40.84" width="31.23" height="28.65" rx="3.22" style="fill:#88c4ff"/><rect x="1493.92" y="72.43" width="31.23" height="28.65" rx="3.22" style="fill:#88c4ff"/><rect x="1493.92" y="105.57" width="31.23" height="28.65" rx="3.22" style="fill:#88c4ff"/><rect x="1529.58" y="105.57" width="31.23" height="28.65" rx="3.22" style="fill:#88c4ff"/><rect x="1459.2" y="138.37" width="31.23" height="28.65" rx="3.22" style="fill:#88c4ff"/><rect x="1562.86" y="138.37" width="31.23" height="28.65" rx="3.22" style="fill:#88c4ff"/><rect x="1529.15" y="41.22" width="31.23" height="28.65" rx="3.22" style="fill:#88c4ff"/><rect x="1563.11" y="74.36" width="31.23" height="28.65" rx="3.22" style="fill:#88c4ff"/><rect x="1367.05" y="385.83" width="237.14" height="146.69" rx="6.13" style="fill:#fff"/><path d="M1598.06,387.86a4.11,4.11,0,0,1,4.1,4.1V526.39a4.11,4.11,0,0,1-4.1,4.1H1373.18a4.11,4.11,0,0,1-4.11-4.1V392a4.11,4.11,0,0,1,4.11-4.1h224.88m0-4.06H1373.18A8.16,8.16,0,0,0,1365,392V526.39a8.16,8.16,0,0,0,8.16,8.16h224.88a8.15,8.15,0,0,0,8.15-8.16V392a8.15,8.15,0,0,0-8.15-8.16Z" style="fill:#eaeaea"/><rect x="1386.28" y="399.81" width="39.1" height="17.38" rx="2.97" style="fill:#366dcb"/><rect x="1431.46" y="399.81" width="39.1" height="6.66" rx="1.84" style="fill:#366dcb"/><rect x="1565.55" y="399.81" width="19.4" height="6.66" rx="1.3" style="fill:#366dcb"/><rect x="1431.46" y="411.68" width="153.5" height="5.5" rx="2.75" style="fill:#eaeaea"/><rect x="1386.28" y="422.11" width="39.1" height="30.99" rx="3.97" style="fill:#eaeaea"/><rect x="1431.46" y="419.01" width="153.5" height="5.5" rx="2.75" style="fill:#eaeaea"/><rect x="1431.46" y="426.33" width="153.5" height="5.5" rx="2.75" style="fill:#eaeaea"/><rect x="1431.46" y="433.65" width="153.5" height="5.5" rx="2.75" style="fill:#eaeaea"/><rect x="1431.46" y="440.98" width="153.5" height="5.5" rx="2.75" style="fill:#eaeaea"/><rect x="1431.46" y="448.3" width="153.5" height="5.5" rx="2.75" style="fill:#eaeaea"/><rect x="1431.46" y="455.62" width="153.5" height="5.5" rx="2.75" style="fill:#eaeaea"/><rect x="1431.46" y="462.95" width="153.5" height="5.5" rx="2.75" style="fill:#eaeaea"/><rect x="1431.46" y="482.93" width="39.1" height="6.66" rx="1.84" style="fill:#366dcb"/><rect x="1431.46" y="494.8" width="153.5" height="5.5" rx="2.75" style="fill:#eaeaea"/><rect x="1431.46" y="502.13" width="153.5" height="5.5" rx="2.75" style="fill:#eaeaea"/><rect x="1431.46" y="509.45" width="153.5" height="5.5" rx="2.75" style="fill:#eaeaea"/><rect x="1431.46" y="516.77" width="153.5" height="5.5" rx="2.75" style="fill:#eaeaea"/><rect x="1636.83" y="385.83" width="237.14" height="146.69" rx="6.13" style="fill:#fff"/><path d="M1867.84,387.86A4.11,4.11,0,0,1,1872,392V526.39a4.11,4.11,0,0,1-4.11,4.1H1643a4.11,4.11,0,0,1-4.1-4.1V392a4.11,4.11,0,0,1,4.1-4.1h224.88m0-4.06H1643a8.15,8.15,0,0,0-8.15,8.16V526.39a8.15,8.15,0,0,0,8.15,8.16h224.88a8.16,8.16,0,0,0,8.16-8.16V392a8.16,8.16,0,0,0-8.16-8.16Z" style="fill:#eaeaea"/><rect x="1642.49" y="391.51" width="33.83" height="135.33" rx="1.68" style="fill:#366dcb"/><rect x="1651.37" y="401.03" width="16.92" height="16.92" rx="8.46" style="fill:#4b81d1"/><rect x="1682.24" y="391.3" width="40.77" height="5.92" rx="2.14" style="fill:#366dcb"/><rect x="1682.24" y="399.76" width="40.77" height="18.53" rx="2.96" style="fill:#d2e4ff"/><rect x="1729.61" y="399.76" width="40.77" height="18.53" rx="2.96" style="fill:#d2e4ff"/><rect x="1729.61" y="421.17" width="40.77" height="18.53" rx="2.96" style="fill:#d2e4ff"/><rect x="1729.61" y="442.59" width="40.77" height="18.53" rx="2.96" style="fill:#d2e4ff"/><rect x="1729.61" y="464" width="40.77" height="18.53" rx="2.96" style="fill:#d2e4ff"/><rect x="1682.24" y="421.17" width="40.77" height="18.53" rx="2.96" style="fill:#d2e4ff"/><rect x="1682.24" y="442.59" width="40.77" height="18.53" rx="2.96" style="fill:#d2e4ff"/><rect x="1825.18" y="421.17" width="40.77" height="18.53" rx="2.96" style="fill:#d2e4ff"/><rect x="1825.18" y="442.59" width="40.77" height="18.53" rx="2.96" style="fill:#d2e4ff"/><rect x="1682.24" y="464" width="40.77" height="18.53" rx="2.96" style="fill:#d2e4ff"/><rect x="1729.61" y="485.41" width="40.77" height="18.53" rx="2.96" style="fill:#d2e4ff"/><rect x="1729.61" y="506.83" width="40.77" height="18.53" rx="2.96" style="fill:#d2e4ff"/><rect x="1777.82" y="399.76" width="40.77" height="18.53" rx="2.96" style="fill:#d2e4ff"/><rect x="1825.18" y="399.76" width="40.77" height="18.53" rx="2.96" style="fill:#d2e4ff"/><rect x="1729.97" y="391.3" width="40.77" height="5.92" rx="2.14" style="fill:#366dcb"/><rect x="1777.7" y="391.72" width="40.77" height="5.92" rx="2.14" style="fill:#366dcb"/><rect x="1825.43" y="391.72" width="40.77" height="5.92" rx="2.14" style="fill:#366dcb"/><rect x="1636.69" y="208.51" width="237.14" height="146.69" rx="6.13" style="fill:#fff"/><path d="M1867.7,210.53a4.11,4.11,0,0,1,4.1,4.11V349.07a4.11,4.11,0,0,1-4.1,4.1H1642.82a4.11,4.11,0,0,1-4.1-4.1V214.64a4.11,4.11,0,0,1,4.1-4.11H1867.7m0-4.05H1642.82a8.16,8.16,0,0,0-8.16,8.16V349.07a8.16,8.16,0,0,0,8.16,8.15H1867.7a8.15,8.15,0,0,0,8.16-8.15V214.64a8.16,8.16,0,0,0-8.16-8.16Z" style="fill:#eaeaea"/><rect x="1642.35" y="214.19" width="33.83" height="135.33" rx="1.68" style="fill:#366dcb"/><rect x="1651.23" y="223.7" width="16.92" height="16.92" rx="8.46" style="fill:#4b81d1"/><rect x="1680.65" y="214.23" width="38.8" height="38.86" rx="4.18" style="fill:#d2e4ff"/><rect x="1680.65" y="258.21" width="38.8" height="11.15" rx="2.24" style="fill:#d2e4ff"/><rect x="1680.65" y="274.28" width="38.8" height="11.15" rx="2.24" style="fill:#d2e4ff"/><rect x="1680.65" y="290.35" width="38.8" height="11.15" rx="2.24" style="fill:#d2e4ff"/><rect x="1680.65" y="306.42" width="38.8" height="11.15" rx="2.24" style="fill:#d2e4ff"/><rect x="1724.53" y="214.23" width="143.84" height="134.63" rx="2.63" style="fill:#f3f8ff"/><rect x="1728.86" y="218.46" width="31.23" height="28.65" rx="3.22" style="fill:#88c4ff"/><rect x="1763.67" y="250.05" width="31.23" height="28.65" rx="3.22" style="fill:#88c4ff"/><rect x="1763.67" y="283.18" width="31.23" height="28.65" rx="3.22" style="fill:#88c4ff"/><rect x="1799.33" y="283.18" width="31.23" height="28.65" rx="3.22" style="fill:#88c4ff"/><rect x="1728.96" y="315.98" width="31.23" height="28.65" rx="3.22" style="fill:#88c4ff"/><rect x="1832.61" y="315.98" width="31.23" height="28.65" rx="3.22" style="fill:#88c4ff"/><rect x="1798.9" y="218.84" width="31.23" height="28.65" rx="3.22" style="fill:#88c4ff"/><rect x="1832.86" y="251.97" width="31.23" height="28.65" rx="3.22" style="fill:#88c4ff"/><rect x="18.17" y="385.83" width="237.14" height="146.69" rx="6.13" style="fill:#fff"/><path d="M249.18,387.86a4.11,4.11,0,0,1,4.1,4.1V526.39a4.11,4.11,0,0,1-4.1,4.1H24.3a4.11,4.11,0,0,1-4.1-4.1V392a4.11,4.11,0,0,1,4.1-4.1H249.18m0-4.06H24.3A8.16,8.16,0,0,0,16.14,392V526.39a8.16,8.16,0,0,0,8.16,8.16H249.18a8.16,8.16,0,0,0,8.16-8.16V392a8.16,8.16,0,0,0-8.16-8.16Z" style="fill:#eaeaea"/><rect x="23.83" y="391.51" width="33.83" height="135.33" rx="1.68" style="fill:#366dcb"/><rect x="32.71" y="401.03" width="16.92" height="16.92" rx="8.46" style="fill:#4b81d1"/><rect x="63.58" y="391.3" width="40.77" height="5.92" rx="2.14" style="fill:#366dcb"/><rect x="63.58" y="399.76" width="40.77" height="18.53" rx="2.96" style="fill:#d2e4ff"/><rect x="110.94" y="399.76" width="40.77" height="18.53" rx="2.96" style="fill:#d2e4ff"/><rect x="110.94" y="421.17" width="40.77" height="18.53" rx="2.96" style="fill:#d2e4ff"/><rect x="110.94" y="442.59" width="40.77" height="18.53" rx="2.96" style="fill:#d2e4ff"/><rect x="110.94" y="464" width="40.77" height="18.53" rx="2.96" style="fill:#d2e4ff"/><rect x="63.58" y="421.17" width="40.77" height="18.53" rx="2.96" style="fill:#d2e4ff"/><rect x="63.58" y="442.59" width="40.77" height="18.53" rx="2.96" style="fill:#d2e4ff"/><rect x="206.52" y="421.17" width="40.77" height="18.53" rx="2.96" style="fill:#d2e4ff"/><rect x="206.52" y="442.59" width="40.77" height="18.53" rx="2.96" style="fill:#d2e4ff"/><rect x="63.58" y="464" width="40.77" height="18.53" rx="2.96" style="fill:#d2e4ff"/><rect x="110.94" y="485.41" width="40.77" height="18.53" rx="2.96" style="fill:#d2e4ff"/><rect x="110.94" y="506.83" width="40.77" height="18.53" rx="2.96" style="fill:#d2e4ff"/><rect x="159.15" y="399.76" width="40.77" height="18.53" rx="2.96" style="fill:#d2e4ff"/><rect x="206.52" y="399.76" width="40.77" height="18.53" rx="2.96" style="fill:#d2e4ff"/><rect x="111.31" y="391.3" width="40.77" height="5.92" rx="2.14" style="fill:#366dcb"/><rect x="159.04" y="391.72" width="40.77" height="5.92" rx="2.14" style="fill:#366dcb"/><rect x="206.77" y="391.72" width="40.77" height="5.92" rx="2.14" style="fill:#366dcb"/><rect x="18.03" y="208.51" width="237.14" height="146.69" rx="6.13" style="fill:#fff"/><path d="M249,210.53a4.11,4.11,0,0,1,4.1,4.11V349.07a4.11,4.11,0,0,1-4.1,4.1H24.16a4.11,4.11,0,0,1-4.11-4.1V214.64a4.12,4.12,0,0,1,4.11-4.11H249m0-4.05H24.16A8.16,8.16,0,0,0,16,214.64V349.07a8.15,8.15,0,0,0,8.16,8.15H249a8.15,8.15,0,0,0,8.15-8.15V214.64a8.15,8.15,0,0,0-8.15-8.16Z" style="fill:#eaeaea"/><rect x="23.68" y="214.19" width="33.83" height="135.33" rx="1.68" style="fill:#366dcb"/><rect x="32.56" y="223.7" width="16.92" height="16.92" rx="8.46" style="fill:#4b81d1"/><rect x="61.99" y="214.23" width="38.8" height="38.86" rx="4.18" style="fill:#d2e4ff"/><rect x="61.99" y="258.21" width="38.8" height="11.15" rx="2.24" style="fill:#d2e4ff"/><rect x="61.99" y="274.28" width="38.8" height="11.15" rx="2.24" style="fill:#d2e4ff"/><rect x="61.99" y="290.35" width="38.8" height="11.15" rx="2.24" style="fill:#d2e4ff"/><rect x="61.99" y="306.42" width="38.8" height="11.15" rx="2.24" style="fill:#d2e4ff"/><rect x="105.87" y="214.23" width="143.84" height="134.63" rx="2.63" style="fill:#f3f8ff"/><rect x="110.2" y="218.46" width="31.23" height="28.65" rx="3.22" style="fill:#88c4ff"/><rect x="145.01" y="250.05" width="31.23" height="28.65" rx="3.22" style="fill:#88c4ff"/><rect x="145.01" y="283.18" width="31.23" height="28.65" rx="3.22" style="fill:#88c4ff"/><rect x="180.66" y="283.18" width="31.23" height="28.65" rx="3.22" style="fill:#88c4ff"/><rect x="110.29" y="315.98" width="31.23" height="28.65" rx="3.22" style="fill:#88c4ff"/><rect x="213.95" y="315.98" width="31.23" height="28.65" rx="3.22" style="fill:#88c4ff"/><rect x="180.24" y="218.84" width="31.23" height="28.65" rx="3.22" style="fill:#88c4ff"/><rect x="214.2" y="251.97" width="31.23" height="28.65" rx="3.22" style="fill:#88c4ff"/><rect x="1366.91" y="208.21" width="237.14" height="146.69" rx="6.13" style="fill:#fff"/><path d="M1597.92,210.24a4.11,4.11,0,0,1,4.11,4.1V348.78a4.11,4.11,0,0,1-4.11,4.1H1373a4.11,4.11,0,0,1-4.1-4.1V214.34a4.11,4.11,0,0,1,4.1-4.1h224.88m0-4.05H1373a8.15,8.15,0,0,0-8.15,8.15V348.78a8.15,8.15,0,0,0,8.15,8.15h224.88a8.15,8.15,0,0,0,8.16-8.15V214.34a8.15,8.15,0,0,0-8.16-8.15Z" style="fill:#eaeaea"/><rect x="1372.57" y="213.9" width="33.83" height="135.33" rx="1.68" style="fill:#366dcb"/><rect x="1381.45" y="223.41" width="16.92" height="16.92" rx="8.46" style="fill:#4b81d1"/><rect x="1409.78" y="214.01" width="35.52" height="5.45" rx="1.32" style="fill:#eaeaea"/><rect x="1584.02" y="214.01" width="13.53" height="5.45" rx="0.81" style="fill:#366dcb"/><rect x="1568.79" y="214.01" width="13.53" height="5.45" rx="0.81" style="fill:#366dcb"/><rect x="1553.57" y="214.01" width="13.53" height="5.45" rx="0.81" style="fill:#366dcb"/><rect x="1409.78" y="222.83" width="187.77" height="126.02" rx="2.91" style="fill:#f3f8ff"/><rect x="1412.85" y="225.91" width="17.23" height="3.69" rx="1.85" style="fill:#366dcb"/><rect x="1412.85" y="234.37" width="17.23" height="3.69" rx="1.85" style="fill:#82b1f4"/><rect x="1412.85" y="242.82" width="21.46" height="3.69" rx="1.85" style="fill:#82b1f4"/><rect x="1412.85" y="251.28" width="17.23" height="3.69" rx="1.85" style="fill:#82b1f4"/><rect x="1412.85" y="259.74" width="14.69" height="3.69" rx="1.7" style="fill:#82b1f4"/><rect x="1412.85" y="268.2" width="17.23" height="3.69" rx="1.85" style="fill:#82b1f4"/><rect x="1412.85" y="276.66" width="18.08" height="3.69" rx="1.85" style="fill:#82b1f4"/><rect x="1412.85" y="285.11" width="20.61" height="3.69" rx="1.85" style="fill:#82b1f4"/><rect x="1412.85" y="293.57" width="15.54" height="3.69" rx="1.75" style="fill:#82b1f4"/><rect x="1412.85" y="302.03" width="13.85" height="3.69" rx="1.65" style="fill:#82b1f4"/><rect x="1412.85" y="310.49" width="18.92" height="3.69" rx="1.85" style="fill:#82b1f4"/><rect x="1412.85" y="318.95" width="15.54" height="3.69" rx="1.75" style="fill:#82b1f4"/><rect x="1412.85" y="327.4" width="19.77" height="3.69" rx="1.85" style="fill:#82b1f4"/><rect x="1412.85" y="335.86" width="14.69" height="3.69" rx="1.7" style="fill:#82b1f4"/><rect x="1449.22" y="234.37" width="16.38" height="3.69" rx="1.8" style="fill:#82b1f4"/><rect x="1449.22" y="242.82" width="18.92" height="3.69" rx="1.85" style="fill:#82b1f4"/><rect x="1449.22" y="251.28" width="14.69" height="3.69" rx="1.7" style="fill:#82b1f4"/><rect x="1449.22" y="259.74" width="18.92" height="3.69" rx="1.85" style="fill:#82b1f4"/><rect x="1449.22" y="268.2" width="13.85" height="3.69" rx="1.65" style="fill:#82b1f4"/><rect x="1449.22" y="276.66" width="18.08" height="3.69" rx="1.85" style="fill:#82b1f4"/><rect x="1449.22" y="285.11" width="15.54" height="3.69" rx="1.75" style="fill:#82b1f4"/><rect x="1449.22" y="293.57" width="18.92" height="3.69" rx="1.85" style="fill:#82b1f4"/><rect x="1449.22" y="302.03" width="15.54" height="3.69" rx="1.75" style="fill:#82b1f4"/><rect x="1449.22" y="310.49" width="18.92" height="3.69" rx="1.85" style="fill:#82b1f4"/><rect x="1449.22" y="318.95" width="15.54" height="3.69" rx="1.75" style="fill:#82b1f4"/><rect x="1449.22" y="327.4" width="18.92" height="3.69" rx="1.85" style="fill:#82b1f4"/><rect x="1449.22" y="335.86" width="15.54" height="3.69" rx="1.75" style="fill:#82b1f4"/><rect x="1485.59" y="234.37" width="12.16" height="3.69" rx="1.55" style="fill:#82b1f4"/><rect x="1485.59" y="242.82" width="14.69" height="3.69" rx="1.7" style="fill:#82b1f4"/><rect x="1485.59" y="251.28" width="9.62" height="3.69" rx="1.38" style="fill:#82b1f4"/><rect x="1485.59" y="259.74" width="14.69" height="3.69" rx="1.7" style="fill:#82b1f4"/><rect x="1485.59" y="268.2" width="14.69" height="3.69" rx="1.7" style="fill:#82b1f4"/><rect x="1485.59" y="276.66" width="15.54" height="3.69" rx="1.75" style="fill:#82b1f4"/><rect x="1485.59" y="285.11" width="9.62" height="3.69" rx="1.38" style="fill:#82b1f4"/><rect x="1485.59" y="293.57" width="13.85" height="3.69" rx="1.65" style="fill:#82b1f4"/><rect x="1485.59" y="302.03" width="15.54" height="3.69" rx="1.75" style="fill:#82b1f4"/><rect x="1485.59" y="310.49" width="13" height="3.69" rx="1.6" style="fill:#82b1f4"/><rect x="1485.59" y="318.95" width="13.85" height="3.69" rx="1.65" style="fill:#82b1f4"/><rect x="1485.59" y="327.4" width="15.54" height="3.69" rx="1.75" style="fill:#82b1f4"/><rect x="1485.59" y="335.86" width="11.31" height="3.69" rx="1.5" style="fill:#82b1f4"/><rect x="1521.96" y="234.37" width="25.69" height="3.69" rx="1.85" style="fill:#82b1f4"/><rect x="1521.96" y="242.82" width="20.61" height="3.69" rx="1.85" style="fill:#82b1f4"/><rect x="1521.96" y="251.28" width="21.46" height="3.69" rx="1.85" style="fill:#82b1f4"/><rect x="1521.96" y="259.74" width="21.46" height="3.69" rx="1.85" style="fill:#82b1f4"/><rect x="1521.96" y="268.2" width="18.92" height="3.69" rx="1.85" style="fill:#82b1f4"/><rect x="1521.96" y="276.66" width="20.61" height="3.69" rx="1.85" style="fill:#82b1f4"/><rect x="1521.96" y="285.11" width="23.15" height="3.69" rx="1.85" style="fill:#82b1f4"/><rect x="1521.96" y="293.57" width="21.46" height="3.69" rx="1.85" style="fill:#82b1f4"/><rect x="1521.96" y="302.03" width="20.61" height="3.69" rx="1.85" style="fill:#82b1f4"/><rect x="1521.96" y="310.49" width="18.92" height="3.69" rx="1.85" style="fill:#82b1f4"/><rect x="1521.96" y="318.95" width="20.61" height="3.69" rx="1.85" style="fill:#82b1f4"/><rect x="1521.96" y="327.4" width="18.92" height="3.69" rx="1.85" style="fill:#82b1f4"/><rect x="1521.96" y="335.86" width="20.61" height="3.69" rx="1.85" style="fill:#82b1f4"/><rect x="1558.33" y="234.37" width="20.61" height="3.69" rx="1.85" style="fill:#82b1f4"/><rect x="1558.33" y="242.82" width="18.92" height="3.69" rx="1.85" style="fill:#82b1f4"/><rect x="1558.33" y="251.28" width="22.31" height="3.69" rx="1.85" style="fill:#82b1f4"/><rect x="1558.33" y="259.74" width="19.77" height="3.69" rx="1.85" style="fill:#82b1f4"/><rect x="1558.33" y="268.2" width="21.46" height="3.69" rx="1.85" style="fill:#82b1f4"/><rect x="1558.33" y="276.66" width="25.69" height="3.69" rx="1.85" style="fill:#82b1f4"/><rect x="1558.33" y="285.11" width="20.61" height="3.69" rx="1.85" style="fill:#82b1f4"/><rect x="1558.33" y="293.57" width="23.15" height="3.69" rx="1.85" style="fill:#82b1f4"/><rect x="1558.33" y="302.03" width="19.77" height="3.69" rx="1.85" style="fill:#82b1f4"/><rect x="1558.33" y="310.49" width="22.31" height="3.69" rx="1.85" style="fill:#82b1f4"/><rect x="1558.33" y="318.95" width="20.61" height="3.69" rx="1.85" style="fill:#82b1f4"/><rect x="1558.33" y="327.4" width="20.61" height="3.69" rx="1.85" style="fill:#82b1f4"/><rect x="1558.33" y="335.86" width="24.84" height="3.69" rx="1.85" style="fill:#82b1f4"/><rect x="1449.22" y="225.91" width="22.31" height="3.69" rx="1.85" style="fill:#366dcb"/><rect x="1485.59" y="225.91" width="12.16" height="3.69" rx="1.85" style="fill:#366dcb"/><rect x="1521.96" y="225.91" width="20.61" height="3.69" rx="1.85" style="fill:#366dcb"/><rect x="1558.33" y="225.91" width="18.08" height="3.69" rx="1.73" style="fill:#366dcb"/><rect width="1892" height="562" style="fill:none"/></g></g></svg>