<svg width="684" height="591" viewBox="0 0 684 591" fill="none" xmlns="http://www.w3.org/2000/svg">
<path d="M288.218 48.7732C291.049 44.7635 296.194 43.1147 300.828 44.7322L670.978 173.919C677.646 176.246 680.424 184.165 676.672 190.149L429.804 583.798C427.144 588.04 421.954 589.95 417.179 588.445L14.3696 461.504C7.26263 459.265 4.39204 450.756 8.68995 444.668L288.218 48.7732Z" fill="#3B58A8"/>
<path d="M288.218 26.7732C291.049 22.7635 296.194 21.1147 300.828 22.7322L670.978 151.919C677.646 154.246 680.424 162.165 676.672 168.149L429.804 561.798C427.144 566.04 421.954 567.95 417.179 566.445L14.3696 439.504C7.26263 437.265 4.39204 428.756 8.68995 422.668L288.218 26.7732Z" fill="#64A8F2"/>
<path d="M288.218 6.7732C291.049 2.76348 296.194 1.11473 300.828 2.73216L670.978 131.919C677.646 134.246 680.424 142.165 676.672 148.149L429.804 541.798C427.144 546.04 421.954 547.95 417.179 546.445L14.3696 419.504C7.26263 417.265 4.39204 408.756 8.68995 402.668L288.218 6.7732Z" fill="#487BED"/>
</svg>
