<svg width="620" height="421" viewBox="0 0 620 421" fill="none" xmlns="http://www.w3.org/2000/svg">
<g clip-path="url(#clip0)">
<rect width="620" height="421" rx="12" fill="white"/>
<rect width="620" height="476" fill="#F2F8FF"/>
<rect x="20.5" y="20.5" width="99" height="39" rx="2.5" fill="white" stroke="#F1F1F1"/>
<rect x="20.5" y="80.5" width="279" height="179" rx="2.5" fill="white" stroke="#F1F1F1"/>
<rect x="20.5" y="280.5" width="279" height="179" rx="2.5" fill="white" stroke="#F1F1F1"/>
<rect x="320.5" y="80.5" width="279" height="179" rx="2.5" fill="white" stroke="#F1F1F1"/>
<rect x="320.5" y="280.5" width="279" height="179" rx="2.5" fill="white" stroke="#F1F1F1"/>
<path d="M40.4336 34.0898C40.4336 35.7773 40.0781 37.0371 39.3672 37.8691C38.6562 38.7012 37.5801 39.1172 36.1387 39.1172C35.6309 39.1172 35.2461 39.0898 34.9844 39.0352V37.582C35.3125 37.6641 35.6562 37.7051 36.0156 37.7051C36.6211 37.7051 37.1191 37.6172 37.5098 37.4414C37.9004 37.2617 38.1992 36.9824 38.4062 36.6035C38.6133 36.2207 38.7324 35.6953 38.7637 35.0273H38.6934C38.4668 35.3945 38.2051 35.6523 37.9082 35.8008C37.6113 35.9492 37.2402 36.0234 36.7949 36.0234C36.0488 36.0234 35.4609 35.7852 35.0312 35.3086C34.6016 34.8281 34.3867 34.1621 34.3867 33.3105C34.3867 32.3926 34.6465 31.668 35.166 31.1367C35.6895 30.6016 36.4004 30.334 37.2988 30.334C37.9316 30.334 38.4844 30.4824 38.957 30.7793C39.4336 31.0762 39.7988 31.5078 40.0527 32.0742C40.3066 32.6367 40.4336 33.3086 40.4336 34.0898ZM37.334 31.7871C36.959 31.7871 36.666 31.916 36.4551 32.1738C36.2441 32.4316 36.1387 32.8027 36.1387 33.2871C36.1387 33.7012 36.2344 34.0293 36.4258 34.2715C36.6172 34.5137 36.9082 34.6348 37.2988 34.6348C37.666 34.6348 37.9805 34.5156 38.2422 34.2773C38.5039 34.0352 38.6348 33.7578 38.6348 33.4453C38.6348 32.9805 38.5117 32.5879 38.2656 32.2676C38.0234 31.9473 37.7129 31.7871 37.334 31.7871Z" fill="black"/>
<rect x="140.5" y="20.5" width="99" height="39" rx="2.5" fill="white" stroke="#F1F1F1"/>
<path d="M160.422 35.3613C160.422 33.666 160.779 32.4043 161.494 31.5762C162.213 30.748 163.287 30.334 164.717 30.334C165.205 30.334 165.588 30.3633 165.865 30.4219V31.8691C165.518 31.791 165.174 31.752 164.834 31.752C164.213 31.752 163.705 31.8457 163.311 32.0332C162.92 32.2207 162.627 32.498 162.432 32.8652C162.236 33.2324 162.121 33.7539 162.086 34.4297H162.162C162.549 33.7656 163.168 33.4336 164.02 33.4336C164.785 33.4336 165.385 33.6738 165.818 34.1543C166.252 34.6348 166.469 35.2988 166.469 36.1465C166.469 37.0605 166.211 37.7852 165.695 38.3203C165.18 38.8516 164.465 39.1172 163.551 39.1172C162.918 39.1172 162.365 38.9707 161.893 38.6777C161.424 38.3848 161.061 37.957 160.803 37.3945C160.549 36.832 160.422 36.1543 160.422 35.3613ZM163.516 37.6699C163.902 37.6699 164.199 37.541 164.406 37.2832C164.613 37.0215 164.717 36.6504 164.717 36.1699C164.717 35.752 164.619 35.4238 164.424 35.1855C164.232 34.9434 163.941 34.8223 163.551 34.8223C163.184 34.8223 162.869 34.9414 162.607 35.1797C162.35 35.418 162.221 35.6953 162.221 36.0117C162.221 36.4766 162.342 36.8691 162.584 37.1895C162.83 37.5098 163.141 37.6699 163.516 37.6699Z" fill="black"/>
<path d="M37.7266 49L35.5469 43.3047H35.5117C35.5527 43.7559 35.5732 44.292 35.5732 44.9131V49H34.8833V42.5752H36.0083L38.043 47.875H38.0781L40.1304 42.5752H41.2466V49H40.4995V44.8604C40.4995 44.3857 40.52 43.8701 40.561 43.3135H40.5259L38.3286 49H37.7266ZM44.938 49.0879C44.2261 49.0879 43.6636 48.8711 43.2505 48.4375C42.8403 48.0039 42.6353 47.4019 42.6353 46.6313C42.6353 45.855 42.8257 45.2383 43.2065 44.7812C43.5903 44.3242 44.1045 44.0957 44.749 44.0957C45.3525 44.0957 45.8301 44.2949 46.1816 44.6934C46.5332 45.0889 46.709 45.6118 46.709 46.2622V46.7236H43.3911C43.4058 47.2891 43.5479 47.7183 43.8174 48.0112C44.0898 48.3042 44.4722 48.4507 44.9644 48.4507C45.4829 48.4507 45.9956 48.3423 46.5024 48.1255V48.7759C46.2446 48.8872 46 48.9663 45.7686 49.0132C45.54 49.063 45.2632 49.0879 44.938 49.0879ZM44.7402 44.7065C44.3535 44.7065 44.0444 44.8325 43.813 45.0845C43.5845 45.3364 43.4497 45.6851 43.4087 46.1304H45.9268C45.9268 45.6704 45.8242 45.3188 45.6191 45.0757C45.4141 44.8296 45.1211 44.7065 44.7402 44.7065ZM49.9917 49.0879C49.2798 49.0879 48.7173 48.8711 48.3042 48.4375C47.894 48.0039 47.689 47.4019 47.689 46.6313C47.689 45.855 47.8794 45.2383 48.2603 44.7812C48.644 44.3242 49.1582 44.0957 49.8027 44.0957C50.4062 44.0957 50.8838 44.2949 51.2354 44.6934C51.5869 45.0889 51.7627 45.6118 51.7627 46.2622V46.7236H48.4448C48.4595 47.2891 48.6016 47.7183 48.8711 48.0112C49.1436 48.3042 49.5259 48.4507 50.0181 48.4507C50.5366 48.4507 51.0493 48.3423 51.5562 48.1255V48.7759C51.2983 48.8872 51.0537 48.9663 50.8223 49.0132C50.5938 49.063 50.3169 49.0879 49.9917 49.0879ZM49.7939 44.7065C49.4072 44.7065 49.0981 44.8325 48.8667 45.0845C48.6382 45.3364 48.5034 45.6851 48.4624 46.1304H50.9805C50.9805 45.6704 50.8779 45.3188 50.6729 45.0757C50.4678 44.8296 50.1748 44.7065 49.7939 44.7065ZM54.5664 48.4858C54.6953 48.4858 54.8198 48.4771 54.9399 48.4595C55.0601 48.439 55.1553 48.4185 55.2256 48.3979V48.9561C55.1465 48.9941 55.0293 49.0249 54.874 49.0483C54.7217 49.0747 54.584 49.0879 54.4609 49.0879C53.5293 49.0879 53.0635 48.5972 53.0635 47.6157V44.7505H52.3735V44.3989L53.0635 44.0957L53.3711 43.0674H53.793V44.1836H55.1904V44.7505H53.793V47.585C53.793 47.875 53.8618 48.0977 53.9995 48.2529C54.1372 48.4082 54.3262 48.4858 54.5664 48.4858ZM56.9219 49H56.1924V44.1836H56.9219V49ZM56.1309 42.8784C56.1309 42.7114 56.1719 42.5898 56.2539 42.5137C56.3359 42.4346 56.4385 42.395 56.5615 42.395C56.6787 42.395 56.7798 42.4346 56.8647 42.5137C56.9497 42.5928 56.9922 42.7144 56.9922 42.8784C56.9922 43.0425 56.9497 43.1655 56.8647 43.2476C56.7798 43.3267 56.6787 43.3662 56.5615 43.3662C56.4385 43.3662 56.3359 43.3267 56.2539 43.2476C56.1719 43.1655 56.1309 43.0425 56.1309 42.8784ZM61.7646 49V45.8843C61.7646 45.4917 61.6753 45.1987 61.4966 45.0054C61.3179 44.812 61.0381 44.7153 60.6572 44.7153C60.1533 44.7153 59.7842 44.8516 59.5498 45.124C59.3154 45.3965 59.1982 45.8462 59.1982 46.4731V49H58.4688V44.1836H59.062L59.1807 44.8428H59.2158C59.3652 44.6055 59.5747 44.4224 59.8442 44.2935C60.1138 44.1616 60.4141 44.0957 60.7451 44.0957C61.3252 44.0957 61.7617 44.2363 62.0547 44.5176C62.3477 44.7959 62.4941 45.2427 62.4941 45.8579V49H61.7646ZM67.939 44.1836V44.645L67.0469 44.7505C67.1289 44.853 67.2021 44.9878 67.2666 45.1548C67.3311 45.3188 67.3633 45.5049 67.3633 45.7129C67.3633 46.1846 67.2021 46.561 66.8799 46.8423C66.5576 47.1235 66.1152 47.2642 65.5527 47.2642C65.4092 47.2642 65.2744 47.2524 65.1484 47.229C64.8379 47.3931 64.6826 47.5996 64.6826 47.8486C64.6826 47.9805 64.7368 48.0786 64.8452 48.1431C64.9536 48.2046 65.1396 48.2354 65.4033 48.2354H66.2559C66.7773 48.2354 67.1772 48.3452 67.4556 48.5649C67.7368 48.7847 67.8774 49.104 67.8774 49.5229C67.8774 50.0562 67.6636 50.4619 67.2358 50.7402C66.8081 51.0215 66.1841 51.1621 65.3638 51.1621C64.7339 51.1621 64.2476 51.0449 63.9048 50.8105C63.5649 50.5762 63.395 50.2451 63.395 49.8174C63.395 49.5244 63.4888 49.271 63.6763 49.0571C63.8638 48.8433 64.1274 48.6982 64.4673 48.6221C64.3442 48.5664 64.2402 48.48 64.1553 48.3628C64.0732 48.2456 64.0322 48.1094 64.0322 47.9541C64.0322 47.7783 64.0791 47.6245 64.1729 47.4927C64.2666 47.3608 64.4146 47.2334 64.6167 47.1104C64.3677 47.0078 64.1641 46.8335 64.0059 46.5874C63.8506 46.3413 63.7729 46.0601 63.7729 45.7437C63.7729 45.2163 63.9312 44.8105 64.2476 44.5264C64.564 44.2393 65.0122 44.0957 65.5923 44.0957C65.8442 44.0957 66.0713 44.125 66.2734 44.1836H67.939ZM64.0981 49.8086C64.0981 50.0693 64.208 50.2671 64.4277 50.4019C64.6475 50.5366 64.9624 50.604 65.3726 50.604C65.9849 50.604 66.4375 50.5117 66.7305 50.3271C67.0264 50.1455 67.1743 49.8979 67.1743 49.5845C67.1743 49.3237 67.0938 49.1421 66.9326 49.0396C66.7715 48.9399 66.4683 48.8901 66.0229 48.8901H65.1484C64.8174 48.8901 64.5596 48.9692 64.375 49.1274C64.1904 49.2856 64.0981 49.5127 64.0981 49.8086ZM64.4937 45.7261C64.4937 46.063 64.5889 46.3179 64.7793 46.4907C64.9697 46.6636 65.2349 46.75 65.5747 46.75C66.2866 46.75 66.6426 46.4043 66.6426 45.7129C66.6426 44.9893 66.2822 44.6274 65.5615 44.6274C65.2188 44.6274 64.9551 44.7197 64.7705 44.9043C64.5859 45.0889 64.4937 45.3628 64.4937 45.7261ZM72.0347 47.686C72.0347 48.1343 71.8677 48.48 71.5337 48.7231C71.1997 48.9663 70.731 49.0879 70.1274 49.0879C69.4888 49.0879 68.9907 48.9868 68.6333 48.7847V48.1079C68.8647 48.2251 69.1123 48.3174 69.376 48.3848C69.6426 48.4521 69.8989 48.4858 70.145 48.4858C70.5259 48.4858 70.8188 48.4258 71.0239 48.3057C71.229 48.1826 71.3315 47.9966 71.3315 47.7476C71.3315 47.5601 71.2495 47.4004 71.0854 47.2686C70.9243 47.1338 70.6079 46.9756 70.1362 46.7939C69.688 46.627 69.3687 46.4819 69.1782 46.3589C68.9907 46.2329 68.8501 46.0908 68.7563 45.9326C68.6655 45.7744 68.6201 45.5854 68.6201 45.3657C68.6201 44.9731 68.7798 44.6641 69.0991 44.4385C69.4185 44.21 69.8564 44.0957 70.4131 44.0957C70.9316 44.0957 71.4385 44.2012 71.9336 44.4121L71.6743 45.0054C71.1909 44.8062 70.7529 44.7065 70.3604 44.7065C70.0146 44.7065 69.7539 44.7607 69.5781 44.8691C69.4023 44.9775 69.3145 45.127 69.3145 45.3174C69.3145 45.4463 69.3467 45.5562 69.4111 45.647C69.4785 45.7378 69.5854 45.8242 69.7319 45.9062C69.8784 45.9883 70.1597 46.1069 70.5757 46.2622C71.147 46.4702 71.5322 46.6797 71.7314 46.8906C71.9336 47.1016 72.0347 47.3667 72.0347 47.686Z" fill="#5F5F5F"/>
<path d="M163.634 43.1509C162.928 43.1509 162.37 43.3867 161.96 43.8584C161.553 44.3271 161.349 44.9702 161.349 45.7876C161.349 46.6284 161.545 47.2788 161.938 47.7388C162.333 48.1958 162.896 48.4243 163.625 48.4243C164.074 48.4243 164.585 48.3438 165.159 48.1826V48.8374C164.714 49.0044 164.165 49.0879 163.511 49.0879C162.565 49.0879 161.834 48.8008 161.318 48.2266C160.806 47.6523 160.549 46.8364 160.549 45.7788C160.549 45.1167 160.672 44.5366 160.918 44.0386C161.167 43.5405 161.525 43.1567 161.991 42.8872C162.459 42.6177 163.01 42.4829 163.643 42.4829C164.317 42.4829 164.906 42.606 165.41 42.8521L165.093 43.4937C164.607 43.2651 164.121 43.1509 163.634 43.1509ZM169.413 49L169.268 48.3145H169.233C168.993 48.6162 168.752 48.8213 168.512 48.9297C168.275 49.0352 167.978 49.0879 167.62 49.0879C167.143 49.0879 166.768 48.9648 166.495 48.7188C166.226 48.4727 166.091 48.1226 166.091 47.6685C166.091 46.6958 166.869 46.186 168.424 46.1392L169.242 46.1128V45.814C169.242 45.436 169.16 45.1577 168.996 44.979C168.834 44.7974 168.575 44.7065 168.218 44.7065C167.816 44.7065 167.362 44.8296 166.855 45.0757L166.631 44.5176C166.869 44.3887 167.128 44.2876 167.409 44.2144C167.693 44.1411 167.978 44.1045 168.262 44.1045C168.836 44.1045 169.261 44.2319 169.536 44.4868C169.814 44.7417 169.954 45.1504 169.954 45.7129V49H169.413ZM167.765 48.4858C168.219 48.4858 168.575 48.3613 168.833 48.1123C169.094 47.8633 169.224 47.5146 169.224 47.0664V46.6313L168.495 46.6621C167.915 46.6826 167.496 46.7734 167.238 46.9346C166.983 47.0928 166.855 47.3403 166.855 47.6772C166.855 47.9409 166.935 48.1416 167.093 48.2793C167.254 48.417 167.478 48.4858 167.765 48.4858ZM172.19 49H171.461V42.1621H172.19V49ZM174.467 49H173.737V42.1621H174.467V49ZM179.121 47.686C179.121 48.1343 178.954 48.48 178.62 48.7231C178.286 48.9663 177.817 49.0879 177.213 49.0879C176.575 49.0879 176.077 48.9868 175.719 48.7847V48.1079C175.951 48.2251 176.198 48.3174 176.462 48.3848C176.729 48.4521 176.985 48.4858 177.231 48.4858C177.612 48.4858 177.905 48.4258 178.11 48.3057C178.315 48.1826 178.417 47.9966 178.417 47.7476C178.417 47.5601 178.335 47.4004 178.171 47.2686C178.01 47.1338 177.694 46.9756 177.222 46.7939C176.774 46.627 176.455 46.4819 176.264 46.3589C176.077 46.2329 175.936 46.0908 175.842 45.9326C175.751 45.7744 175.706 45.5854 175.706 45.3657C175.706 44.9731 175.866 44.6641 176.185 44.4385C176.504 44.21 176.942 44.0957 177.499 44.0957C178.018 44.0957 178.524 44.2012 179.02 44.4121L178.76 45.0054C178.277 44.8062 177.839 44.7065 177.446 44.7065C177.101 44.7065 176.84 44.7607 176.664 44.8691C176.488 44.9775 176.4 45.127 176.4 45.3174C176.4 45.4463 176.433 45.5562 176.497 45.647C176.564 45.7378 176.671 45.8242 176.818 45.9062C176.964 45.9883 177.246 46.1069 177.662 46.2622C178.233 46.4702 178.618 46.6797 178.817 46.8906C179.02 47.1016 179.121 47.3667 179.121 47.686Z" fill="#5F5F5F"/>
<rect x="260.5" y="20.5" width="99" height="39" rx="2.5" fill="white" stroke="#F1F1F1"/>
<path d="M286.469 39H280.48V37.7402L282.631 35.5664C283.268 34.9141 283.684 34.4629 283.879 34.2129C284.074 33.959 284.215 33.7246 284.301 33.5098C284.387 33.2949 284.43 33.0723 284.43 32.8418C284.43 32.498 284.334 32.2422 284.143 32.0742C283.955 31.9062 283.703 31.8223 283.387 31.8223C283.055 31.8223 282.732 31.8984 282.42 32.0508C282.107 32.2031 281.781 32.4199 281.441 32.7012L280.457 31.5352C280.879 31.1758 281.229 30.9219 281.506 30.7734C281.783 30.625 282.086 30.5117 282.414 30.4336C282.742 30.3516 283.109 30.3105 283.516 30.3105C284.051 30.3105 284.523 30.4082 284.934 30.6035C285.344 30.7988 285.662 31.0723 285.889 31.4238C286.115 31.7754 286.229 32.1777 286.229 32.6309C286.229 33.0254 286.158 33.3965 286.018 33.7441C285.881 34.0879 285.666 34.4414 285.373 34.8047C285.084 35.168 284.572 35.6855 283.838 36.3574L282.736 37.3945V37.4766H286.469V39Z" fill="black"/>
<path d="M285.902 49H285.049L281.538 43.6079H281.503C281.55 44.2407 281.573 44.8208 281.573 45.3481V49H280.883V42.5752H281.727L285.229 47.9453H285.265C285.259 47.8662 285.246 47.6128 285.225 47.1851C285.205 46.7544 285.197 46.4468 285.203 46.2622V42.5752H285.902V49ZM291.716 46.5874C291.716 47.3726 291.518 47.9863 291.123 48.4287C290.727 48.8682 290.181 49.0879 289.483 49.0879C289.053 49.0879 288.67 48.9868 288.336 48.7847C288.002 48.5825 287.745 48.2925 287.563 47.9146C287.381 47.5366 287.291 47.0942 287.291 46.5874C287.291 45.8022 287.487 45.1914 287.879 44.7549C288.272 44.3154 288.817 44.0957 289.514 44.0957C290.188 44.0957 290.723 44.3198 291.118 44.7681C291.517 45.2163 291.716 45.8228 291.716 46.5874ZM288.046 46.5874C288.046 47.2026 288.169 47.6714 288.416 47.9937C288.662 48.3159 289.023 48.4771 289.501 48.4771C289.979 48.4771 290.34 48.3174 290.586 47.998C290.835 47.6758 290.96 47.2056 290.96 46.5874C290.96 45.9751 290.835 45.5107 290.586 45.1943C290.34 44.875 289.976 44.7153 289.492 44.7153C289.015 44.7153 288.654 44.8721 288.411 45.1855C288.168 45.499 288.046 45.9663 288.046 46.5874ZM294.555 48.4858C294.684 48.4858 294.808 48.4771 294.928 48.4595C295.048 48.439 295.144 48.4185 295.214 48.3979V48.9561C295.135 48.9941 295.018 49.0249 294.862 49.0483C294.71 49.0747 294.572 49.0879 294.449 49.0879C293.518 49.0879 293.052 48.5972 293.052 47.6157V44.7505H292.362V44.3989L293.052 44.0957L293.359 43.0674H293.781V44.1836H295.179V44.7505H293.781V47.585C293.781 47.875 293.85 48.0977 293.988 48.2529C294.125 48.4082 294.314 48.4858 294.555 48.4858ZM298.215 49.0879C297.503 49.0879 296.941 48.8711 296.528 48.4375C296.118 48.0039 295.913 47.4019 295.913 46.6313C295.913 45.855 296.103 45.2383 296.484 44.7812C296.868 44.3242 297.382 44.0957 298.026 44.0957C298.63 44.0957 299.107 44.2949 299.459 44.6934C299.811 45.0889 299.986 45.6118 299.986 46.2622V46.7236H296.668C296.683 47.2891 296.825 47.7183 297.095 48.0112C297.367 48.3042 297.75 48.4507 298.242 48.4507C298.76 48.4507 299.273 48.3423 299.78 48.1255V48.7759C299.522 48.8872 299.277 48.9663 299.046 49.0132C298.817 49.063 298.541 49.0879 298.215 49.0879ZM298.018 44.7065C297.631 44.7065 297.322 44.8325 297.09 45.0845C296.862 45.3364 296.727 45.6851 296.686 46.1304H299.204C299.204 45.6704 299.102 45.3188 298.896 45.0757C298.691 44.8296 298.398 44.7065 298.018 44.7065ZM304.341 47.686C304.341 48.1343 304.174 48.48 303.84 48.7231C303.506 48.9663 303.038 49.0879 302.434 49.0879C301.795 49.0879 301.297 48.9868 300.94 48.7847V48.1079C301.171 48.2251 301.419 48.3174 301.683 48.3848C301.949 48.4521 302.206 48.4858 302.452 48.4858C302.833 48.4858 303.125 48.4258 303.331 48.3057C303.536 48.1826 303.638 47.9966 303.638 47.7476C303.638 47.5601 303.556 47.4004 303.392 47.2686C303.231 47.1338 302.915 46.9756 302.443 46.7939C301.995 46.627 301.675 46.4819 301.485 46.3589C301.297 46.2329 301.157 46.0908 301.063 45.9326C300.972 45.7744 300.927 45.5854 300.927 45.3657C300.927 44.9731 301.086 44.6641 301.406 44.4385C301.725 44.21 302.163 44.0957 302.72 44.0957C303.238 44.0957 303.745 44.2012 304.24 44.4121L303.981 45.0054C303.498 44.8062 303.06 44.7065 302.667 44.7065C302.321 44.7065 302.061 44.7607 301.885 44.8691C301.709 44.9775 301.621 45.127 301.621 45.3174C301.621 45.4463 301.653 45.5562 301.718 45.647C301.785 45.7378 301.892 45.8242 302.039 45.9062C302.185 45.9883 302.466 46.1069 302.882 46.2622C303.454 46.4702 303.839 46.6797 304.038 46.8906C304.24 47.1016 304.341 47.3667 304.341 47.686Z" fill="#5F5F5F"/>
<mask id="mask0" style="mask-type:alpha" maskUnits="userSpaceOnUse" x="114" y="85" width="173" height="55">
<rect x="114" y="85" width="173" height="55" fill="#C4C4C4"/>
</mask>
<g mask="url(#mask0)">
<path d="M198.5 250L119.259 92.5L277.741 92.5L198.5 250Z" fill="#CFD4FF"/>
</g>
<mask id="mask1" style="mask-type:alpha" maskUnits="userSpaceOnUse" x="114" y="140" width="173" height="55">
<rect x="114" y="140" width="173" height="55" fill="#C4C4C4"/>
</mask>
<g mask="url(#mask1)">
<path d="M198.5 250L119.259 92.5L277.741 92.5L198.5 250Z" fill="#FFC2C2"/>
</g>
<mask id="mask2" style="mask-type:alpha" maskUnits="userSpaceOnUse" x="114" y="195" width="173" height="58">
<rect x="114" y="195" width="173" height="58" fill="#C4C4C4"/>
</mask>
<g mask="url(#mask2)">
<path d="M198.5 250L119.259 92.5L277.741 92.5L198.5 250Z" fill="#FFE4CC"/>
</g>
<line x1="154" y1="216.5" x2="89" y2="216.5" stroke="#ABABAB" stroke-dasharray="2 2"/>
<line x1="131" y1="167.5" x2="89" y2="167.5" stroke="#ABABAB" stroke-dasharray="2 2"/>
<line x1="106" y1="115.5" x2="89" y2="115.5" stroke="#ABABAB" stroke-dasharray="2 2"/>
<path d="M38.7188 117V111.289H39.9297V116H42.2461V117H38.7188ZM44.957 113.398C44.7044 113.398 44.5065 113.479 44.3633 113.641C44.2201 113.799 44.138 114.026 44.1172 114.32H45.7891C45.7839 114.026 45.707 113.799 45.5586 113.641C45.4102 113.479 45.2096 113.398 44.957 113.398ZM45.125 117.078C44.4219 117.078 43.8724 116.884 43.4766 116.496C43.0807 116.108 42.8828 115.559 42.8828 114.848C42.8828 114.116 43.0651 113.551 43.4297 113.152C43.7969 112.751 44.3034 112.551 44.9492 112.551C45.5664 112.551 46.0469 112.727 46.3906 113.078C46.7344 113.43 46.9062 113.915 46.9062 114.535V115.113H44.0898C44.1029 115.452 44.2031 115.716 44.3906 115.906C44.5781 116.096 44.8411 116.191 45.1797 116.191C45.4427 116.191 45.6914 116.164 45.9258 116.109C46.1602 116.055 46.4049 115.967 46.6602 115.848V116.77C46.4518 116.874 46.2292 116.951 45.9922 117C45.7552 117.052 45.4661 117.078 45.125 117.078ZM50.6484 117L50.418 116.406H50.3867C50.1862 116.659 49.9792 116.835 49.7656 116.934C49.5547 117.03 49.2786 117.078 48.9375 117.078C48.5182 117.078 48.1875 116.958 47.9453 116.719C47.7057 116.479 47.5859 116.138 47.5859 115.695C47.5859 115.232 47.7474 114.891 48.0703 114.672C48.3958 114.451 48.8854 114.328 49.5391 114.305L50.2969 114.281V114.09C50.2969 113.647 50.0703 113.426 49.6172 113.426C49.2682 113.426 48.8581 113.531 48.3867 113.742L47.9922 112.938C48.4948 112.674 49.0521 112.543 49.6641 112.543C50.25 112.543 50.6992 112.671 51.0117 112.926C51.3242 113.181 51.4805 113.569 51.4805 114.09V117H50.6484ZM50.2969 114.977L49.8359 114.992C49.4896 115.003 49.2318 115.065 49.0625 115.18C48.8932 115.294 48.8086 115.469 48.8086 115.703C48.8086 116.039 49.0013 116.207 49.3867 116.207C49.6628 116.207 49.8828 116.128 50.0469 115.969C50.2135 115.81 50.2969 115.599 50.2969 115.336V114.977ZM54.0938 117.078C53.5807 117.078 53.1771 116.879 52.8828 116.48C52.5911 116.082 52.4453 115.53 52.4453 114.824C52.4453 114.108 52.5938 113.551 52.8906 113.152C53.1901 112.751 53.6016 112.551 54.125 112.551C54.6745 112.551 55.0938 112.764 55.3828 113.191H55.4219C55.362 112.866 55.332 112.576 55.332 112.32V110.922H56.5273V117H55.6133L55.3828 116.434H55.332C55.0612 116.863 54.6484 117.078 54.0938 117.078ZM54.5117 116.129C54.8164 116.129 55.0391 116.04 55.1797 115.863C55.3229 115.686 55.401 115.385 55.4141 114.961V114.832C55.4141 114.363 55.3411 114.027 55.1953 113.824C55.0521 113.621 54.8177 113.52 54.4922 113.52C54.2266 113.52 54.0195 113.633 53.8711 113.859C53.7253 114.083 53.6523 114.41 53.6523 114.84C53.6523 115.27 53.7266 115.592 53.875 115.809C54.0234 116.022 54.2357 116.129 54.5117 116.129Z" fill="#696969"/>
<path d="M42.0078 170H38.7188V164.289H42.0078V165.281H39.9297V166.535H41.8633V167.527H39.9297V169H42.0078V170ZM47.1406 170H45.9492V167.449C45.9492 167.134 45.8932 166.898 45.7812 166.742C45.6693 166.583 45.4909 166.504 45.2461 166.504C44.9128 166.504 44.6719 166.616 44.5234 166.84C44.375 167.061 44.3008 167.43 44.3008 167.945V170H43.1094V165.633H44.0195L44.1797 166.191H44.2461C44.3789 165.98 44.5612 165.822 44.793 165.715C45.0273 165.605 45.293 165.551 45.5898 165.551C46.0977 165.551 46.4831 165.689 46.7461 165.965C47.0091 166.238 47.1406 166.634 47.1406 167.152V170ZM52.168 165.633V166.238L51.4844 166.414C51.6094 166.609 51.6719 166.828 51.6719 167.07C51.6719 167.539 51.5078 167.905 51.1797 168.168C50.8542 168.428 50.401 168.559 49.8203 168.559L49.6055 168.547L49.4297 168.527C49.3073 168.621 49.2461 168.725 49.2461 168.84C49.2461 169.012 49.4648 169.098 49.9023 169.098H50.6445C51.1237 169.098 51.4883 169.201 51.7383 169.406C51.9909 169.612 52.1172 169.914 52.1172 170.312C52.1172 170.823 51.9036 171.219 51.4766 171.5C51.0521 171.781 50.4414 171.922 49.6445 171.922C49.0352 171.922 48.569 171.815 48.2461 171.602C47.9258 171.391 47.7656 171.094 47.7656 170.711C47.7656 170.448 47.8477 170.228 48.0117 170.051C48.1758 169.874 48.4167 169.747 48.7344 169.672C48.612 169.62 48.5052 169.535 48.4141 169.418C48.3229 169.298 48.2773 169.172 48.2773 169.039C48.2773 168.872 48.3255 168.734 48.4219 168.625C48.5182 168.513 48.6576 168.404 48.8398 168.297C48.6107 168.198 48.4284 168.039 48.293 167.82C48.1602 167.602 48.0938 167.344 48.0938 167.047C48.0938 166.57 48.2487 166.202 48.5586 165.941C48.8685 165.681 49.3112 165.551 49.8867 165.551C50.0091 165.551 50.1536 165.562 50.3203 165.586C50.4896 165.607 50.5977 165.622 50.6445 165.633H52.168ZM48.7969 170.617C48.7969 170.781 48.875 170.91 49.0312 171.004C49.1901 171.098 49.4115 171.145 49.6953 171.145C50.1224 171.145 50.457 171.086 50.6992 170.969C50.9414 170.852 51.0625 170.691 51.0625 170.488C51.0625 170.324 50.9909 170.211 50.8477 170.148C50.7044 170.086 50.4831 170.055 50.1836 170.055H49.5664C49.3477 170.055 49.1641 170.105 49.0156 170.207C48.8698 170.311 48.7969 170.448 48.7969 170.617ZM49.2305 167.062C49.2305 167.299 49.2839 167.487 49.3906 167.625C49.5 167.763 49.6654 167.832 49.8867 167.832C50.1107 167.832 50.2747 167.763 50.3789 167.625C50.4831 167.487 50.5352 167.299 50.5352 167.062C50.5352 166.536 50.319 166.273 49.8867 166.273C49.4492 166.273 49.2305 166.536 49.2305 167.062ZM55.6641 170L55.4336 169.406H55.4023C55.2018 169.659 54.9948 169.835 54.7812 169.934C54.5703 170.03 54.2943 170.078 53.9531 170.078C53.5339 170.078 53.2031 169.958 52.9609 169.719C52.7214 169.479 52.6016 169.138 52.6016 168.695C52.6016 168.232 52.763 167.891 53.0859 167.672C53.4115 167.451 53.901 167.328 54.5547 167.305L55.3125 167.281V167.09C55.3125 166.647 55.0859 166.426 54.6328 166.426C54.2839 166.426 53.8737 166.531 53.4023 166.742L53.0078 165.938C53.5104 165.674 54.0677 165.543 54.6797 165.543C55.2656 165.543 55.7148 165.671 56.0273 165.926C56.3398 166.181 56.4961 166.569 56.4961 167.09V170H55.6641ZM55.3125 167.977L54.8516 167.992C54.5052 168.003 54.2474 168.065 54.0781 168.18C53.9089 168.294 53.8242 168.469 53.8242 168.703C53.8242 169.039 54.0169 169.207 54.4023 169.207C54.6784 169.207 54.8984 169.128 55.0625 168.969C55.2292 168.81 55.3125 168.599 55.3125 168.336V167.977ZM61.5273 165.633V166.238L60.8438 166.414C60.9688 166.609 61.0312 166.828 61.0312 167.07C61.0312 167.539 60.8672 167.905 60.5391 168.168C60.2135 168.428 59.7604 168.559 59.1797 168.559L58.9648 168.547L58.7891 168.527C58.6667 168.621 58.6055 168.725 58.6055 168.84C58.6055 169.012 58.8242 169.098 59.2617 169.098H60.0039C60.4831 169.098 60.8477 169.201 61.0977 169.406C61.3503 169.612 61.4766 169.914 61.4766 170.312C61.4766 170.823 61.263 171.219 60.8359 171.5C60.4115 171.781 59.8008 171.922 59.0039 171.922C58.3945 171.922 57.9284 171.815 57.6055 171.602C57.2852 171.391 57.125 171.094 57.125 170.711C57.125 170.448 57.207 170.228 57.3711 170.051C57.5352 169.874 57.776 169.747 58.0938 169.672C57.9714 169.62 57.8646 169.535 57.7734 169.418C57.6823 169.298 57.6367 169.172 57.6367 169.039C57.6367 168.872 57.6849 168.734 57.7812 168.625C57.8776 168.513 58.0169 168.404 58.1992 168.297C57.9701 168.198 57.7878 168.039 57.6523 167.82C57.5195 167.602 57.4531 167.344 57.4531 167.047C57.4531 166.57 57.6081 166.202 57.918 165.941C58.2279 165.681 58.6706 165.551 59.2461 165.551C59.3685 165.551 59.513 165.562 59.6797 165.586C59.849 165.607 59.957 165.622 60.0039 165.633H61.5273ZM58.1562 170.617C58.1562 170.781 58.2344 170.91 58.3906 171.004C58.5495 171.098 58.7708 171.145 59.0547 171.145C59.4818 171.145 59.8164 171.086 60.0586 170.969C60.3008 170.852 60.4219 170.691 60.4219 170.488C60.4219 170.324 60.3503 170.211 60.207 170.148C60.0638 170.086 59.8424 170.055 59.543 170.055H58.9258C58.707 170.055 58.5234 170.105 58.375 170.207C58.2292 170.311 58.1562 170.448 58.1562 170.617ZM58.5898 167.062C58.5898 167.299 58.6432 167.487 58.75 167.625C58.8594 167.763 59.0247 167.832 59.2461 167.832C59.4701 167.832 59.6341 167.763 59.7383 167.625C59.8424 167.487 59.8945 167.299 59.8945 167.062C59.8945 166.536 59.6784 166.273 59.2461 166.273C58.8086 166.273 58.5898 166.536 58.5898 167.062ZM64.0586 166.398C63.806 166.398 63.6081 166.479 63.4648 166.641C63.3216 166.799 63.2396 167.026 63.2188 167.32H64.8906C64.8854 167.026 64.8086 166.799 64.6602 166.641C64.5117 166.479 64.3112 166.398 64.0586 166.398ZM64.2266 170.078C63.5234 170.078 62.974 169.884 62.5781 169.496C62.1823 169.108 61.9844 168.559 61.9844 167.848C61.9844 167.116 62.1667 166.551 62.5312 166.152C62.8984 165.751 63.4049 165.551 64.0508 165.551C64.668 165.551 65.1484 165.727 65.4922 166.078C65.8359 166.43 66.0078 166.915 66.0078 167.535V168.113H63.1914C63.2044 168.452 63.3047 168.716 63.4922 168.906C63.6797 169.096 63.9427 169.191 64.2812 169.191C64.5443 169.191 64.793 169.164 65.0273 169.109C65.2617 169.055 65.5065 168.967 65.7617 168.848V169.77C65.5534 169.874 65.3307 169.951 65.0938 170C64.8568 170.052 64.5677 170.078 64.2266 170.078ZM68.3594 170.078C67.8464 170.078 67.4427 169.879 67.1484 169.48C66.8568 169.082 66.7109 168.53 66.7109 167.824C66.7109 167.108 66.8594 166.551 67.1562 166.152C67.4557 165.751 67.8672 165.551 68.3906 165.551C68.9401 165.551 69.3594 165.764 69.6484 166.191H69.6875C69.6276 165.866 69.5977 165.576 69.5977 165.32V163.922H70.793V170H69.8789L69.6484 169.434H69.5977C69.3268 169.863 68.9141 170.078 68.3594 170.078ZM68.7773 169.129C69.082 169.129 69.3047 169.04 69.4453 168.863C69.5885 168.686 69.6667 168.385 69.6797 167.961V167.832C69.6797 167.363 69.6068 167.027 69.4609 166.824C69.3177 166.621 69.0833 166.52 68.7578 166.52C68.4922 166.52 68.2852 166.633 68.1367 166.859C67.9909 167.083 67.918 167.41 67.918 167.84C67.918 168.27 67.9922 168.592 68.1406 168.809C68.2891 169.022 68.5013 169.129 68.7773 169.129Z" fill="#696969"/>
<path d="M43.457 216.09C43.457 217.03 43.1888 217.75 42.6523 218.25C42.1185 218.75 41.3464 219 40.3359 219H38.7188V213.289H40.5117C41.444 213.289 42.168 213.535 42.6836 214.027C43.1992 214.52 43.457 215.207 43.457 216.09ZM42.1992 216.121C42.1992 214.895 41.6576 214.281 40.5742 214.281H39.9297V218H40.4492C41.6159 218 42.1992 217.374 42.1992 216.121ZM44.4961 213.504C44.4961 213.116 44.7122 212.922 45.1445 212.922C45.5768 212.922 45.793 213.116 45.793 213.504C45.793 213.689 45.7383 213.833 45.6289 213.938C45.5221 214.039 45.3607 214.09 45.1445 214.09C44.7122 214.09 44.4961 213.895 44.4961 213.504ZM45.7383 219H44.5469V214.633H45.7383V219ZM50.0391 217.703C50.0391 218.151 49.8828 218.492 49.5703 218.727C49.2604 218.961 48.7956 219.078 48.1758 219.078C47.8581 219.078 47.5872 219.056 47.3633 219.012C47.1393 218.97 46.9297 218.908 46.7344 218.824V217.84C46.9557 217.944 47.2044 218.031 47.4805 218.102C47.7591 218.172 48.0039 218.207 48.2148 218.207C48.6471 218.207 48.8633 218.082 48.8633 217.832C48.8633 217.738 48.8346 217.663 48.7773 217.605C48.7201 217.546 48.6211 217.479 48.4805 217.406C48.3398 217.331 48.1523 217.243 47.918 217.145C47.582 217.004 47.3346 216.874 47.1758 216.754C47.0195 216.634 46.9049 216.497 46.832 216.344C46.7617 216.188 46.7266 215.996 46.7266 215.77C46.7266 215.382 46.8763 215.082 47.1758 214.871C47.4779 214.658 47.9049 214.551 48.457 214.551C48.9831 214.551 49.4948 214.665 49.9922 214.895L49.6328 215.754C49.4141 215.66 49.2096 215.583 49.0195 215.523C48.8294 215.464 48.6354 215.434 48.4375 215.434C48.0859 215.434 47.9102 215.529 47.9102 215.719C47.9102 215.826 47.9661 215.918 48.0781 215.996C48.1927 216.074 48.4414 216.19 48.8242 216.344C49.1654 216.482 49.4154 216.611 49.5742 216.73C49.7331 216.85 49.8503 216.988 49.9258 217.145C50.0013 217.301 50.0391 217.487 50.0391 217.703ZM52.7422 219.078C51.3828 219.078 50.7031 218.332 50.7031 216.84C50.7031 216.098 50.888 215.531 51.2578 215.141C51.6276 214.747 52.1576 214.551 52.8477 214.551C53.3529 214.551 53.806 214.65 54.207 214.848L53.8555 215.77C53.668 215.694 53.4935 215.633 53.332 215.586C53.1706 215.536 53.0091 215.512 52.8477 215.512C52.2279 215.512 51.918 215.952 51.918 216.832C51.918 217.686 52.2279 218.113 52.8477 218.113C53.0768 218.113 53.2891 218.083 53.4844 218.023C53.6797 217.961 53.875 217.865 54.0703 217.734V218.754C53.8776 218.876 53.6823 218.961 53.4844 219.008C53.2891 219.055 53.0417 219.078 52.7422 219.078ZM58.1797 219L58.0195 218.441H57.957C57.8294 218.645 57.6484 218.802 57.4141 218.914C57.1797 219.023 56.9128 219.078 56.6133 219.078C56.1003 219.078 55.7135 218.941 55.4531 218.668C55.1927 218.392 55.0625 217.996 55.0625 217.48V214.633H56.2539V217.184C56.2539 217.499 56.3099 217.736 56.4219 217.895C56.5339 218.051 56.7122 218.129 56.957 218.129C57.2904 218.129 57.5312 218.018 57.6797 217.797C57.8281 217.573 57.9023 217.203 57.9023 216.688V214.633H59.0938V219H58.1797ZM63.3906 217.703C63.3906 218.151 63.2344 218.492 62.9219 218.727C62.612 218.961 62.1471 219.078 61.5273 219.078C61.2096 219.078 60.9388 219.056 60.7148 219.012C60.4909 218.97 60.2812 218.908 60.0859 218.824V217.84C60.3073 217.944 60.556 218.031 60.832 218.102C61.1107 218.172 61.3555 218.207 61.5664 218.207C61.9987 218.207 62.2148 218.082 62.2148 217.832C62.2148 217.738 62.1862 217.663 62.1289 217.605C62.0716 217.546 61.9727 217.479 61.832 217.406C61.6914 217.331 61.5039 217.243 61.2695 217.145C60.9336 217.004 60.6862 216.874 60.5273 216.754C60.3711 216.634 60.2565 216.497 60.1836 216.344C60.1133 216.188 60.0781 215.996 60.0781 215.77C60.0781 215.382 60.2279 215.082 60.5273 214.871C60.8294 214.658 61.2565 214.551 61.8086 214.551C62.3346 214.551 62.8464 214.665 63.3438 214.895L62.9844 215.754C62.7656 215.66 62.5612 215.583 62.3711 215.523C62.181 215.464 61.987 215.434 61.7891 215.434C61.4375 215.434 61.2617 215.529 61.2617 215.719C61.2617 215.826 61.3177 215.918 61.4297 215.996C61.5443 216.074 61.793 216.19 62.1758 216.344C62.5169 216.482 62.7669 216.611 62.9258 216.73C63.0846 216.85 63.2018 216.988 63.2773 217.145C63.3529 217.301 63.3906 217.487 63.3906 217.703ZM67.3672 217.703C67.3672 218.151 67.2109 218.492 66.8984 218.727C66.5885 218.961 66.1237 219.078 65.5039 219.078C65.1862 219.078 64.9154 219.056 64.6914 219.012C64.4674 218.97 64.2578 218.908 64.0625 218.824V217.84C64.2839 217.944 64.5326 218.031 64.8086 218.102C65.0872 218.172 65.332 218.207 65.543 218.207C65.9753 218.207 66.1914 218.082 66.1914 217.832C66.1914 217.738 66.1628 217.663 66.1055 217.605C66.0482 217.546 65.9492 217.479 65.8086 217.406C65.668 217.331 65.4805 217.243 65.2461 217.145C64.9102 217.004 64.6628 216.874 64.5039 216.754C64.3477 216.634 64.2331 216.497 64.1602 216.344C64.0898 216.188 64.0547 215.996 64.0547 215.77C64.0547 215.382 64.2044 215.082 64.5039 214.871C64.806 214.658 65.2331 214.551 65.7852 214.551C66.3112 214.551 66.8229 214.665 67.3203 214.895L66.9609 215.754C66.7422 215.66 66.5378 215.583 66.3477 215.523C66.1576 215.464 65.9635 215.434 65.7656 215.434C65.4141 215.434 65.2383 215.529 65.2383 215.719C65.2383 215.826 65.2943 215.918 65.4062 215.996C65.5208 216.074 65.7695 216.19 66.1523 216.344C66.4935 216.482 66.7435 216.611 66.9023 216.73C67.0612 216.85 67.1784 216.988 67.2539 217.145C67.3294 217.301 67.3672 217.487 67.3672 217.703ZM68.2461 213.504C68.2461 213.116 68.4622 212.922 68.8945 212.922C69.3268 212.922 69.543 213.116 69.543 213.504C69.543 213.689 69.4883 213.833 69.3789 213.938C69.2721 214.039 69.1107 214.09 68.8945 214.09C68.4622 214.09 68.2461 213.895 68.2461 213.504ZM69.4883 219H68.2969V214.633H69.4883V219ZM71.6914 216.809C71.6914 217.241 71.7617 217.568 71.9023 217.789C72.0456 218.01 72.2773 218.121 72.5977 218.121C72.9154 218.121 73.1432 218.012 73.2812 217.793C73.4219 217.572 73.4922 217.243 73.4922 216.809C73.4922 216.376 73.4219 216.052 73.2812 215.836C73.1406 215.62 72.9102 215.512 72.5898 215.512C72.2721 215.512 72.043 215.62 71.9023 215.836C71.7617 216.049 71.6914 216.374 71.6914 216.809ZM74.7109 216.809C74.7109 217.52 74.5234 218.076 74.1484 218.477C73.7734 218.878 73.2513 219.078 72.582 219.078C72.1628 219.078 71.793 218.987 71.4727 218.805C71.1523 218.62 70.9062 218.355 70.7344 218.012C70.5625 217.668 70.4766 217.267 70.4766 216.809C70.4766 216.095 70.6628 215.54 71.0352 215.145C71.4076 214.749 71.931 214.551 72.6055 214.551C73.0247 214.551 73.3945 214.642 73.7148 214.824C74.0352 215.007 74.2812 215.268 74.4531 215.609C74.625 215.951 74.7109 216.35 74.7109 216.809ZM79.7266 219H78.5352V216.449C78.5352 216.134 78.4792 215.898 78.3672 215.742C78.2552 215.583 78.0768 215.504 77.832 215.504C77.4987 215.504 77.2578 215.616 77.1094 215.84C76.9609 216.061 76.8867 216.43 76.8867 216.945V219H75.6953V214.633H76.6055L76.7656 215.191H76.832C76.9648 214.98 77.1471 214.822 77.3789 214.715C77.6133 214.605 77.8789 214.551 78.1758 214.551C78.6836 214.551 79.069 214.689 79.332 214.965C79.5951 215.238 79.7266 215.634 79.7266 216.152V219Z" fill="#696969"/>
<circle cx="459.5" cy="182.5" r="66.5" fill="#CFD4FF"/>
<path d="M526 182.5C526 194.863 522.554 206.982 516.048 217.495C509.542 228.008 500.234 236.499 489.169 242.015C478.104 247.531 465.721 249.853 453.41 248.721C441.099 247.588 429.347 243.047 419.474 235.605C409.601 228.164 401.998 218.117 397.518 206.594C393.039 195.071 391.861 182.527 394.115 170.371C396.37 158.215 401.969 146.929 410.284 137.779C418.598 128.629 429.298 121.978 441.183 118.572L459.5 182.5H526Z" fill="#FFCFD8"/>
<path d="M526 182.5C526 196.071 521.848 209.317 514.101 220.46C506.355 231.602 495.384 240.108 482.663 244.835C469.942 249.562 456.08 250.284 442.936 246.904C429.793 243.524 417.999 236.203 409.137 225.926L459.5 182.5H526Z" fill="#FFE4CC"/>
<rect x="375" y="95" width="46" height="9" rx="3" fill="#FFCFD8"/>
<rect x="437" y="95" width="46" height="9" rx="3" fill="#CFD4FF"/>
<rect x="499" y="95" width="46" height="9" rx="3" fill="#FFE4CC"/>
<path d="M20 284.189C20 281.875 21.8753 280 24.1887 280H295.811C298.125 280 300 281.875 300 284.189V295H20V284.189Z" fill="#C0D6FF"/>
<line x1="20" y1="307.86" x2="300" y2="307.86" stroke="#E6E6E6" stroke-width="0.279245"/>
<line x1="20" y1="332.86" x2="300" y2="332.86" stroke="#E6E6E6" stroke-width="0.279245"/>
<line x1="20" y1="357.86" x2="300" y2="357.86" stroke="#E6E6E6" stroke-width="0.279245"/>
<line x1="20" y1="382.86" x2="300" y2="382.86" stroke="#E6E6E6" stroke-width="0.279245"/>
<line x1="20" y1="407.86" x2="300" y2="407.86" stroke="#E6E6E6" stroke-width="0.279245"/>
<line x1="20" y1="294.86" x2="300" y2="294.86" stroke="#E6E6E6" stroke-width="0.279245"/>
<line x1="20" y1="319.86" x2="300" y2="319.86" stroke="#E6E6E6" stroke-width="0.279245"/>
<line x1="20" y1="344.86" x2="300" y2="344.86" stroke="#E6E6E6" stroke-width="0.279245"/>
<line x1="20" y1="369.86" x2="300" y2="369.86" stroke="#E6E6E6" stroke-width="0.279245"/>
<line x1="20" y1="395.86" x2="300" y2="395.86" stroke="#E6E6E6" stroke-width="0.279245"/>
<line x1="20" y1="420.86" x2="300" y2="420.86" stroke="#E6E6E6" stroke-width="0.279245"/>
<path d="M27.4327 288.909V285.321H28.1936V288.909H27.4327ZM32.0738 287.081C32.0738 287.672 31.9053 288.124 31.5682 288.438C31.2328 288.752 30.7477 288.909 30.1128 288.909H29.0968V285.321H30.2233C30.809 285.321 31.2639 285.476 31.5879 285.785C31.9118 286.094 32.0738 286.526 32.0738 287.081ZM31.2835 287.101C31.2835 286.33 30.9432 285.945 30.2625 285.945H29.8576V288.281H30.184C30.917 288.281 31.2835 287.888 31.2835 287.101Z" fill="black" fill-opacity="0.44"/>
<path d="M74.6348 289H73.6678L72.1069 286.286H72.0848C72.1159 286.765 72.1314 287.107 72.1314 287.311V289H71.4516V285.412H72.4112L73.9697 288.099H73.9869C73.9623 287.633 73.9501 287.303 73.9501 287.11V285.412H74.6348V289ZM77.2241 289L77.0793 288.627H77.0597C76.9337 288.786 76.8036 288.896 76.6694 288.958C76.5369 289.019 76.3635 289.049 76.1491 289.049C75.8857 289.049 75.6779 288.974 75.5257 288.823C75.3752 288.673 75.2999 288.458 75.2999 288.18C75.2999 287.889 75.4014 287.675 75.6043 287.537C75.8088 287.398 76.1164 287.321 76.5271 287.307L77.0032 287.292V287.172C77.0032 286.893 76.8609 286.754 76.5762 286.754C76.3569 286.754 76.0992 286.821 75.8031 286.953L75.5552 286.448C75.871 286.282 76.2211 286.2 76.6056 286.2C76.9738 286.2 77.256 286.28 77.4524 286.44C77.6487 286.601 77.7469 286.844 77.7469 287.172V289H77.2241ZM77.0032 287.729L76.7136 287.738C76.496 287.745 76.334 287.784 76.2277 287.856C76.1213 287.928 76.0681 288.038 76.0681 288.185C76.0681 288.396 76.1892 288.502 76.4314 288.502C76.6048 288.502 76.7431 288.452 76.8462 288.352C76.9509 288.252 77.0032 288.12 77.0032 287.954V287.729ZM80.9767 289H80.2282V287.397C80.2282 287.199 80.1946 287.051 80.1276 286.953C80.0621 286.853 79.9582 286.803 79.8159 286.803C79.6244 286.803 79.4853 286.874 79.3986 287.014C79.3119 287.155 79.2686 287.387 79.2686 287.709V289H78.52V286.256H79.0918L79.1925 286.607H79.2342C79.3078 286.481 79.4142 286.383 79.5533 286.313C79.6923 286.241 79.8519 286.205 80.0318 286.205C80.4425 286.205 80.7207 286.339 80.8663 286.607H80.9326C81.0062 286.479 81.1142 286.38 81.2565 286.31C81.4005 286.24 81.5625 286.205 81.7425 286.205C82.0534 286.205 82.2882 286.285 82.4469 286.445C82.6072 286.604 82.6874 286.859 82.6874 287.211V289H81.9364V287.397C81.9364 287.199 81.9028 287.051 81.8358 286.953C81.7703 286.853 81.6664 286.803 81.5241 286.803C81.3408 286.803 81.2034 286.869 81.1117 287C81.0217 287.131 80.9767 287.338 80.9767 287.623V289ZM84.5944 286.737C84.4357 286.737 84.3113 286.788 84.2213 286.889C84.1313 286.989 84.0798 287.131 84.0667 287.316H85.1172C85.1139 287.131 85.0656 286.989 84.9724 286.889C84.8791 286.788 84.7531 286.737 84.5944 286.737ZM84.6999 289.049C84.2582 289.049 83.9129 288.927 83.6642 288.683C83.4155 288.44 83.2912 288.094 83.2912 287.648C83.2912 287.188 83.4057 286.833 83.6348 286.583C83.8655 286.331 84.1837 286.205 84.5895 286.205C84.9773 286.205 85.2791 286.315 85.4951 286.536C85.7111 286.757 85.8191 287.062 85.8191 287.451V287.815H84.0495C84.0577 288.027 84.1207 288.193 84.2385 288.313C84.3563 288.432 84.5216 288.492 84.7343 288.492C84.8995 288.492 85.0558 288.475 85.2031 288.44C85.3503 288.406 85.5041 288.351 85.6645 288.276V288.855C85.5336 288.921 85.3937 288.969 85.2448 289C85.0959 289.033 84.9143 289.049 84.6999 289.049Z" fill="black" fill-opacity="0.44"/>
<path d="M151.57 288.004C151.57 288.328 151.453 288.583 151.219 288.769C150.986 288.956 150.662 289.049 150.247 289.049C149.864 289.049 149.525 288.977 149.231 288.833V288.126C149.473 288.234 149.677 288.31 149.844 288.355C150.013 288.399 150.167 288.421 150.306 288.421C150.473 288.421 150.6 288.389 150.689 288.325C150.779 288.261 150.824 288.166 150.824 288.04C150.824 287.97 150.804 287.908 150.765 287.854C150.725 287.798 150.667 287.745 150.59 287.694C150.515 287.644 150.361 287.563 150.127 287.451C149.907 287.348 149.743 287.249 149.633 287.154C149.524 287.059 149.436 286.949 149.371 286.823C149.305 286.697 149.272 286.55 149.272 286.381C149.272 286.064 149.38 285.814 149.594 285.633C149.81 285.451 150.108 285.36 150.487 285.36C150.674 285.36 150.851 285.382 151.02 285.427C151.19 285.471 151.368 285.533 151.552 285.613L151.307 286.205C151.116 286.126 150.957 286.071 150.831 286.04C150.707 286.009 150.584 285.993 150.463 285.993C150.319 285.993 150.208 286.027 150.131 286.094C150.055 286.161 150.016 286.249 150.016 286.357C150.016 286.424 150.032 286.483 150.063 286.533C150.094 286.583 150.143 286.631 150.21 286.678C150.279 286.724 150.44 286.807 150.693 286.929C151.029 287.089 151.259 287.25 151.383 287.412C151.507 287.572 151.57 287.77 151.57 288.004ZM153.317 288.453C153.448 288.453 153.605 288.424 153.788 288.367V288.924C153.602 289.007 153.373 289.049 153.101 289.049C152.802 289.049 152.583 288.974 152.446 288.823C152.31 288.671 152.242 288.444 152.242 288.141V286.818H151.884V286.502L152.296 286.251L152.512 285.672H152.991V286.256H153.759V286.818H152.991V288.141C152.991 288.247 153.02 288.326 153.079 288.377C153.14 288.427 153.219 288.453 153.317 288.453ZM156.088 289L155.943 288.627H155.924C155.798 288.786 155.668 288.896 155.533 288.958C155.401 289.019 155.227 289.049 155.013 289.049C154.75 289.049 154.542 288.974 154.39 288.823C154.239 288.673 154.164 288.458 154.164 288.18C154.164 287.889 154.265 287.675 154.468 287.537C154.673 287.398 154.98 287.321 155.391 287.307L155.867 287.292V287.172C155.867 286.893 155.725 286.754 155.44 286.754C155.221 286.754 154.963 286.821 154.667 286.953L154.419 286.448C154.735 286.282 155.085 286.2 155.47 286.2C155.838 286.2 156.12 286.28 156.316 286.44C156.513 286.601 156.611 286.844 156.611 287.172V289H156.088ZM155.867 287.729L155.578 287.738C155.36 287.745 155.198 287.784 155.092 287.856C154.985 287.928 154.932 288.038 154.932 288.185C154.932 288.396 155.053 288.502 155.295 288.502C155.469 288.502 155.607 288.452 155.71 288.352C155.815 288.252 155.867 288.12 155.867 287.954V287.729ZM158.54 288.453C158.671 288.453 158.828 288.424 159.011 288.367V288.924C158.825 289.007 158.596 289.049 158.324 289.049C158.024 289.049 157.806 288.974 157.669 288.823C157.533 288.671 157.465 288.444 157.465 288.141V286.818H157.107V286.502L157.519 286.251L157.735 285.672H158.213V286.256H158.982V286.818H158.213V288.141C158.213 288.247 158.243 288.326 158.302 288.377C158.362 288.427 158.442 288.453 158.54 288.453ZM161.512 289L161.411 288.649H161.372C161.292 288.777 161.178 288.876 161.031 288.946C160.884 289.015 160.716 289.049 160.528 289.049C160.206 289.049 159.963 288.963 159.799 288.791C159.635 288.618 159.554 288.369 159.554 288.045V286.256H160.302V287.859C160.302 288.057 160.337 288.206 160.408 288.305C160.478 288.404 160.59 288.453 160.744 288.453C160.953 288.453 161.105 288.383 161.198 288.244C161.291 288.103 161.338 287.871 161.338 287.547V286.256H162.086V289H161.512ZM164.786 288.185C164.786 288.467 164.688 288.681 164.492 288.828C164.297 288.975 164.005 289.049 163.615 289.049C163.416 289.049 163.246 289.035 163.105 289.007C162.964 288.981 162.832 288.942 162.71 288.89V288.271C162.849 288.337 163.005 288.391 163.179 288.436C163.354 288.48 163.507 288.502 163.64 288.502C163.912 288.502 164.047 288.423 164.047 288.266C164.047 288.207 164.029 288.16 163.993 288.124C163.957 288.086 163.895 288.044 163.807 287.999C163.718 287.951 163.601 287.896 163.453 287.834C163.242 287.746 163.087 287.664 162.987 287.589C162.889 287.514 162.817 287.428 162.771 287.331C162.727 287.233 162.705 287.113 162.705 286.97C162.705 286.726 162.799 286.538 162.987 286.406C163.177 286.272 163.445 286.205 163.792 286.205C164.123 286.205 164.444 286.277 164.757 286.421L164.531 286.96C164.393 286.902 164.265 286.853 164.146 286.816C164.026 286.778 163.904 286.759 163.78 286.759C163.559 286.759 163.448 286.819 163.448 286.938C163.448 287.005 163.484 287.064 163.554 287.113C163.626 287.162 163.782 287.235 164.023 287.331C164.237 287.418 164.394 287.499 164.494 287.574C164.594 287.649 164.667 287.736 164.715 287.834C164.762 287.932 164.786 288.049 164.786 288.185Z" fill="black" fill-opacity="0.44"/>
<path d="M221.976 285.903C221.689 285.903 221.468 286.011 221.311 286.227C221.154 286.441 221.075 286.741 221.075 287.125C221.075 287.925 221.375 288.325 221.976 288.325C222.228 288.325 222.533 288.262 222.891 288.136V288.774C222.597 288.897 222.268 288.959 221.905 288.959C221.383 288.959 220.983 288.801 220.707 288.485C220.43 288.167 220.292 287.713 220.292 287.12C220.292 286.747 220.36 286.421 220.496 286.141C220.632 285.86 220.826 285.644 221.08 285.495C221.335 285.345 221.634 285.27 221.976 285.27C222.324 285.27 222.674 285.354 223.026 285.522L222.781 286.141C222.647 286.077 222.512 286.022 222.376 285.974C222.24 285.927 222.107 285.903 221.976 285.903ZM224.194 287.533C224.194 287.804 224.239 288.01 224.327 288.149C224.417 288.288 224.563 288.357 224.764 288.357C224.963 288.357 225.107 288.288 225.193 288.151C225.282 288.012 225.326 287.806 225.326 287.533C225.326 287.261 225.282 287.057 225.193 286.921C225.105 286.786 224.96 286.718 224.759 286.718C224.559 286.718 224.415 286.786 224.327 286.921C224.239 287.056 224.194 287.259 224.194 287.533ZM226.092 287.533C226.092 287.979 225.974 288.329 225.738 288.581C225.503 288.833 225.174 288.959 224.754 288.959C224.491 288.959 224.258 288.901 224.057 288.787C223.856 288.671 223.701 288.504 223.593 288.288C223.485 288.073 223.431 287.821 223.431 287.533C223.431 287.084 223.548 286.736 223.782 286.487C224.016 286.238 224.345 286.114 224.769 286.114C225.032 286.114 225.264 286.171 225.466 286.286C225.667 286.4 225.822 286.565 225.93 286.779C226.038 286.993 226.092 287.245 226.092 287.533ZM229.167 288.909H228.418V287.307C228.418 287.109 228.385 286.961 228.318 286.863C228.252 286.763 228.148 286.713 228.006 286.713C227.815 286.713 227.675 286.783 227.589 286.924C227.502 287.065 227.459 287.296 227.459 287.618V288.909H226.71V286.166H227.282L227.383 286.516H227.424C227.498 286.39 227.604 286.292 227.743 286.222C227.882 286.15 228.042 286.114 228.222 286.114C228.633 286.114 228.911 286.248 229.056 286.516H229.123C229.196 286.389 229.304 286.29 229.447 286.22C229.591 286.149 229.753 286.114 229.933 286.114C230.243 286.114 230.478 286.194 230.637 286.354C230.797 286.513 230.877 286.768 230.877 287.12V288.909H230.126V287.307C230.126 287.109 230.093 286.961 230.026 286.863C229.96 286.763 229.856 286.713 229.714 286.713C229.531 286.713 229.393 286.778 229.302 286.909C229.212 287.04 229.167 287.248 229.167 287.533V288.909ZM233.155 288.959C232.833 288.959 232.58 288.842 232.397 288.608H232.357C232.384 288.837 232.397 288.969 232.397 289.005V290.117H231.648V286.166H232.257L232.362 286.521H232.397C232.572 286.25 232.831 286.114 233.175 286.114C233.499 286.114 233.752 286.239 233.936 286.489C234.119 286.74 234.21 287.088 234.21 287.533C234.21 287.825 234.167 288.08 234.08 288.296C233.995 288.512 233.873 288.676 233.715 288.789C233.556 288.902 233.369 288.959 233.155 288.959ZM232.934 286.713C232.749 286.713 232.614 286.77 232.529 286.885C232.444 286.998 232.4 287.185 232.397 287.447V287.528C232.397 287.822 232.44 288.033 232.527 288.161C232.615 288.288 232.754 288.352 232.944 288.352C233.279 288.352 233.447 288.076 233.447 287.523C233.447 287.253 233.405 287.051 233.322 286.917C233.24 286.781 233.111 286.713 232.934 286.713ZM236.571 288.909L236.427 288.536H236.407C236.281 288.695 236.151 288.806 236.017 288.868C235.884 288.928 235.711 288.959 235.496 288.959C235.233 288.959 235.025 288.883 234.873 288.733C234.723 288.582 234.647 288.368 234.647 288.09C234.647 287.798 234.749 287.584 234.952 287.447C235.156 287.308 235.464 287.231 235.874 287.216L236.351 287.201V287.081C236.351 286.803 236.208 286.664 235.924 286.664C235.704 286.664 235.447 286.73 235.15 286.863L234.903 286.357C235.218 286.192 235.568 286.109 235.953 286.109C236.321 286.109 236.603 286.189 236.8 286.35C236.996 286.51 237.094 286.754 237.094 287.081V288.909H236.571ZM236.351 287.638L236.061 287.648C235.843 287.654 235.681 287.694 235.575 287.766C235.469 287.838 235.415 287.947 235.415 288.095C235.415 288.306 235.537 288.411 235.779 288.411C235.952 288.411 236.09 288.361 236.194 288.261C236.298 288.162 236.351 288.029 236.351 287.864V287.638ZM240.4 288.909H239.652V287.307C239.652 287.109 239.616 286.961 239.546 286.863C239.476 286.763 239.364 286.713 239.21 286.713C239 286.713 238.849 286.783 238.756 286.924C238.663 287.063 238.616 287.294 238.616 287.618V288.909H237.867V286.166H238.439L238.54 286.516H238.582C238.665 286.384 238.78 286.284 238.925 286.217C239.072 286.148 239.239 286.114 239.426 286.114C239.745 286.114 239.987 286.201 240.152 286.374C240.318 286.546 240.4 286.795 240.4 287.12V288.909ZM240.778 286.166H241.598L242.116 287.709C242.16 287.843 242.19 288.002 242.207 288.185H242.221C242.239 288.017 242.274 287.858 242.327 287.709L242.835 286.166H243.637L242.477 289.26C242.37 289.547 242.218 289.761 242.02 289.903C241.824 290.046 241.594 290.117 241.33 290.117C241.201 290.117 241.074 290.103 240.95 290.075V289.481C241.04 289.503 241.138 289.513 241.244 289.513C241.377 289.513 241.492 289.472 241.591 289.39C241.69 289.31 241.768 289.188 241.824 289.025L241.868 288.89L240.778 286.166Z" fill="black" fill-opacity="0.44"/>
<rect x="26.1434" y="297.872" width="6.70189" height="6.70189" rx="0.837736" fill="#EAEAEA"/>
<rect x="26.1434" y="310.438" width="6.70189" height="6.70189" rx="0.837736" fill="#EAEAEA"/>
<rect x="26.1434" y="323.004" width="6.70189" height="6.70189" rx="0.837736" fill="#EAEAEA"/>
<rect x="26.1434" y="335.57" width="6.70189" height="6.70189" rx="0.837736" fill="#EAEAEA"/>
<rect x="26.1434" y="348.136" width="6.70189" height="6.70189" rx="0.837736" fill="#EAEAEA"/>
<rect x="26.1434" y="360.702" width="6.70189" height="6.70189" rx="0.837736" fill="#EAEAEA"/>
<rect x="26.1434" y="373.268" width="6.70189" height="6.70189" rx="0.837736" fill="#EAEAEA"/>
<rect x="26.1434" y="385.834" width="6.70189" height="6.70189" rx="0.837736" fill="#EAEAEA"/>
<rect x="26.1434" y="398.4" width="6.70189" height="6.70189" rx="0.837736" fill="#EAEAEA"/>
<rect x="26.1434" y="410.966" width="6.70189" height="6.70189" rx="0.837736" fill="#EAEAEA"/>
<rect x="71" y="297.872" width="27.366" height="6.70189" rx="0.837736" fill="#EAEAEA"/>
<rect x="71" y="310.438" width="17.5925" height="6.70189" rx="0.837736" fill="#EAEAEA"/>
<rect x="71" y="323.004" width="36.5811" height="6.70189" rx="0.837736" fill="#EAEAEA"/>
<rect x="71" y="335.57" width="23.1774" height="6.70189" rx="0.837736" fill="#EAEAEA"/>
<rect x="71" y="348.136" width="29.6" height="6.70189" rx="0.837736" fill="#EAEAEA"/>
<rect x="71" y="360.702" width="17.034" height="6.70189" rx="0.837736" fill="#EAEAEA"/>
<rect x="71" y="373.268" width="35.7434" height="6.70189" rx="0.837736" fill="#EAEAEA"/>
<rect x="71" y="385.834" width="19.5472" height="6.70189" rx="0.837736" fill="#EAEAEA"/>
<rect x="71" y="398.4" width="31.5547" height="6.70189" rx="0.837736" fill="#EAEAEA"/>
<rect x="71" y="410.966" width="23.4566" height="6.70189" rx="0.837736" fill="#EAEAEA"/>
<rect x="149" y="297.872" width="27.366" height="6.70189" rx="0.837736" fill="#D8C0FF"/>
<rect x="149" y="310.438" width="18.4302" height="6.70189" rx="0.837736" fill="#FFDBA5"/>
<rect x="149" y="323.004" width="27.366" height="6.70189" rx="0.837736" fill="#D8C0FF"/>
<rect x="149" y="335.57" width="22.0604" height="6.70189" rx="0.837736" fill="#FFCFCF"/>
<rect x="149" y="348.136" width="27.366" height="6.70189" rx="0.837736" fill="#D8C0FF"/>
<rect x="149" y="360.702" width="18.4302" height="6.70189" rx="0.837736" fill="#FFDBA5"/>
<rect x="149" y="373.268" width="22.0604" height="6.70189" rx="0.837736" fill="#FFCFCF"/>
<rect x="149" y="385.834" width="18.4302" height="6.70189" rx="0.837736" fill="#FFDBA5"/>
<rect x="149" y="398.4" width="27.366" height="6.70189" rx="0.837736" fill="#D8C0FF"/>
<rect x="149" y="410.966" width="22.0604" height="6.70189" rx="0.837736" fill="#FFCFCF"/>
<rect x="220" y="297.872" width="30.717" height="6.70189" rx="0.837736" fill="#E7E7E7"/>
<rect x="220" y="310.438" width="35.7434" height="6.70189" rx="0.837736" fill="#E7E7E7"/>
<rect x="220" y="323.004" width="18.7094" height="6.70189" rx="0.837736" fill="#E7E7E7"/>
<rect x="220" y="335.57" width="30.717" height="6.70189" rx="0.837736" fill="#E7E7E7"/>
<rect x="220" y="348.136" width="34.0679" height="6.70189" rx="0.837736" fill="#E7E7E7"/>
<rect x="220" y="360.702" width="30.717" height="6.70189" rx="0.837736" fill="#E7E7E7"/>
<rect x="220" y="373.268" width="34.0679" height="6.70189" rx="0.837736" fill="#E7E7E7"/>
<rect x="220" y="385.834" width="23.7358" height="6.70189" rx="0.837736" fill="#E7E7E7"/>
<rect x="220" y="398.4" width="30.717" height="6.70189" rx="0.837736" fill="#E7E7E7"/>
<rect x="220" y="410.966" width="34.0679" height="6.70189" rx="0.837736" fill="#E7E7E7"/>
<path d="M349 333.145C367.769 333.145 387.946 352.733 398.269 363.783C408.592 374.833 420.792 412 432.054 412C443.315 412 455.515 391.407 464.431 375.837C473.346 360.267 497.089 301 507.6 301C520.738 301 536.223 369.308 542.323 375.837C548.423 382.367 580.331 370.312 593 370.312" stroke="#FFCFCF" stroke-width="2"/>
<line x1="329.5" y1="290.5" x2="329.5" y2="432.5" stroke="#B9B9B9" stroke-linecap="round"/>
<line x1="329.5" y1="290.5" x2="334.5" y2="290.5" stroke="#B9B9B9" stroke-linecap="round"/>
<line x1="329.5" y1="300.5" x2="334.5" y2="300.5" stroke="#B9B9B9" stroke-linecap="round"/>
<line x1="329.5" y1="310.5" x2="334.5" y2="310.5" stroke="#B9B9B9" stroke-linecap="round"/>
<line x1="329.5" y1="320.5" x2="334.5" y2="320.5" stroke="#B9B9B9" stroke-linecap="round"/>
<line x1="329.5" y1="330.5" x2="334.5" y2="330.5" stroke="#B9B9B9" stroke-linecap="round"/>
<line x1="329.5" y1="340.5" x2="334.5" y2="340.5" stroke="#B9B9B9" stroke-linecap="round"/>
<line x1="329.5" y1="350.5" x2="334.5" y2="350.5" stroke="#B9B9B9" stroke-linecap="round"/>
<line x1="329.5" y1="360.5" x2="334.5" y2="360.5" stroke="#B9B9B9" stroke-linecap="round"/>
<line x1="329.5" y1="370.5" x2="334.5" y2="370.5" stroke="#B9B9B9" stroke-linecap="round"/>
<line x1="329.5" y1="380.5" x2="334.5" y2="380.5" stroke="#B9B9B9" stroke-linecap="round"/>
<line x1="329.5" y1="390.5" x2="334.5" y2="390.5" stroke="#B9B9B9" stroke-linecap="round"/>
<line x1="329.5" y1="400.5" x2="334.5" y2="400.5" stroke="#B9B9B9" stroke-linecap="round"/>
<line x1="329.5" y1="410.5" x2="334.5" y2="410.5" stroke="#B9B9B9" stroke-linecap="round"/>
<line x1="329.5" y1="420.5" x2="334.5" y2="420.5" stroke="#B9B9B9" stroke-linecap="round"/>
</g>
<defs>
<clipPath id="clip0">
<rect width="620" height="421" rx="12" fill="white"/>
</clipPath>
</defs>
</svg>
