<svg xmlns="http://www.w3.org/2000/svg" viewBox="0 0 1190.29 286.98"><title>gridfox-icon-white</title><path d="M155.69,139.58l77.56,77.56,66.36-66.36a40,40,0,0,0,11.72-28.25v-42l.08-69a11.47,11.47,0,0,0-19.58-8.12l-77,77.12Z" style="fill:#abcdff"/><path d="M20.28,80.48V159.3l57.84,57.84H233.25l66.36-66.36a40,40,0,0,0,11.72-28.25v-42Z" style="fill:#caddff"/><path d="M233.25,217.14l-64.37,64.38a18.66,18.66,0,0,1-26.38,0L11.83,150.85A40,40,0,0,1,.11,122.59L0,32.46V11.58A11.47,11.47,0,0,1,19.58,3.46l10,10,67,67,59.09,59.1Z" style="fill:#fff"/><line x1="311.43" y1="31.81" x2="311.45" y2="10.93" style="fill:none"/><path d="M524.76,221.52H505a126.84,126.84,0,0,1-2-15.27c-6.76,13.13-20,17.19-36.45,17.19-34.42,0-52.55-28.64-52.55-66.95,0-37.77,21.37-68.28,60.15-68.28,31.33,0,47.56,17.5,50.79,39.49H498.66c-2.45-8.29-8.18-18-26-18-22.9,0-31.05,21.87-31.05,46.94s8.79,45.44,31,45.44c19.8,0,25.54-13.81,25.54-30.7v-.62h-27.5V148h54.11Z" style="fill:#fff"/><path d="M577.47,167.17v54.35H551.13V90h53.59c24.83,0,42.58,12.32,42.58,35.59,0,17.94-9.46,26.55-20.46,30.76,13,5.05,17.74,15.36,17.74,31.69v3.42a227.68,227.68,0,0,0,1.75,30.1H620.48C618.59,216,618,207.15,618,191v-3.5c0-15.06-5.48-20.35-22.67-20.35Zm0-21.29h20c12.75,0,23.25-3.42,23.25-18,0-12.17-8.8-16.65-19.55-16.65h-23.7Z" style="fill:#fff"/><path d="M697.18,90V221.52H670.36V90Z" style="fill:#fff"/><path d="M727,90h45.72c40,0,61.95,24.47,61.95,63,0,42.77-23.1,68.56-63,68.56H727ZM754,200.4h17.41c23.28,0,35.55-17.44,35.55-47,0-24.45-11-41.94-35.36-41.94H754Z" style="fill:#fff"/><path d="M858.13,90h84.31v22.17h-58v33.32h54.47v21.82H884.44v54.25H858.13Z" style="fill:#fff"/><path d="M1074.49,155.12c0,37.87-18.29,68.32-59.75,68.32-40.57,0-57.91-31.22-57.91-68.61,0-32.4,17.73-66.62,59.76-66.62C1056.37,88.21,1074.49,119.73,1074.49,155.12Zm-89.93-.19c0,26.25,10.47,47.17,31.29,47.17,22.88,0,31.12-19.44,31.12-47,0-24.22-8.14-45.59-31.58-45.59C993.65,109.55,984.56,129.63,984.56,154.93Z" style="fill:#fff"/><path d="M1159.74,221.52,1133.5,174.4h-.19l-26.39,47.12h-28.5l40.21-66.11L1079.47,90h30.72l24.66,44.4.19-.17L1160.32,90h28.31l-38.89,62.85,40.55,68.71Z" style="fill:#fff"/></svg>