<svg xmlns="http://www.w3.org/2000/svg" viewBox="0 0 311.45 286.93"><title>gridfox-icon-white</title><path d="M155.69,139.53l77.56,77.56,66.36-66.36a40,40,0,0,0,11.72-28.25v-42l.08-69a11.47,11.47,0,0,0-19.58-8.12l-77,77.12Z" style="fill:#abcdff"/><path d="M20.28,80.43v78.82l57.84,57.84H233.25l66.36-66.36a40,40,0,0,0,11.72-28.25v-42Z" style="fill:#caddff"/><path d="M233.25,217.09l-64.37,64.38a18.66,18.66,0,0,1-26.38,0L11.83,150.8A40,40,0,0,1,.11,122.54L0,32.41V11.53A11.47,11.47,0,0,1,19.58,3.41l10,10,67,67,59.09,59.1Z" style="fill:#fff"/><line x1="311.43" y1="31.76" x2="311.45" y2="10.88" style="fill:none"/></svg>