<?xml version="1.0" encoding="utf-8"?>
<!-- Generator: Adobe Illustrator 24.1.1, SVG Export Plug-In . SVG Version: 6.00 Build 0)  -->
<svg version="1.1" id="logo" xmlns="http://www.w3.org/2000/svg" xmlns:xlink="http://www.w3.org/1999/xlink" x="0px" y="0px"
	 viewBox="0 0 1370.8 471.1" style="enable-background:new 0 0 1370.8 471.1;" xml:space="preserve">
<style type="text/css">
	.st0{fill:#FFCC4E;}
	.st1{fill:#44C8F5;}
	.st2{fill:#A1D078;}
	.st3{fill:#F287B7;}
	.st4{fill:#F15B67;}
	.st5{fill:#679AD1;}
	.st6{fill:#4C515A;}
</style>
<g id="shape">
	<g>
		<path class="st0" d="M256.3,151.3c25.1-14.3,54.1-22.5,85-22.5c31,0,60.1,8.2,85.1,22.6c-10.1-85-82.4-151-170.1-151
			s-160.1,66-170.1,151c25.1-14.4,54.2-22.6,85.1-22.6C202.3,128.8,231.3,136.9,256.3,151.3z"/>
		<path class="st1" d="M426.5,151.4c0.8,6.7,1.2,13.4,1.2,20.3c0,63.6-34.7,119.2-86.2,148.7c-6.5,55.1-39.1,102.1-85.1,128.5
			c25.1,14.3,54.1,22.5,85,22.5c94.6,0,171.3-76.7,171.3-171.3C512.7,236.5,478,180.9,426.5,151.4z"/>
		<path class="st2" d="M256.3,151.3c51.6,29.5,86.4,85.1,86.4,148.8c0,6.9-0.4,13.7-1.2,20.3c51.5-29.6,86.2-85.1,86.2-148.7
			c0-6.9-0.4-13.7-1.2-20.3c-25.1-14.4-54.2-22.6-85.1-22.6C310.4,128.8,281.4,136.9,256.3,151.3z"/>
		<path class="st3" d="M171.2,320.4C119.7,290.9,85,235.3,85,171.7c0-6.9,0.4-13.7,1.2-20.3C34.7,180.9,0,236.5,0,300.1
			c0,94.6,76.7,171.3,171.3,171.3c30.9,0,59.9-8.2,85-22.5C210.3,422.6,177.7,375.5,171.2,320.4z"/>
		<path class="st4" d="M171.2,320.4c-0.8-6.7-1.2-13.4-1.2-20.3c0-63.7,34.8-119.3,86.3-148.8c-25.1-14.3-54.1-22.5-85-22.5
			c-31,0-60.1,8.2-85.1,22.6c-0.8,6.7-1.2,13.4-1.2,20.3C85,235.3,119.7,290.9,171.2,320.4z"/>
		<path class="st5" d="M341.5,320.4c-25.1,14.4-54.2,22.6-85.1,22.6s-60.1-8.2-85.1-22.6c6.5,55.1,39.1,102.1,85.1,128.5
			C302.4,422.6,335,375.5,341.5,320.4z"/>
		<path class="st6" d="M256.3,151.3c-51.6,29.5-86.3,85.1-86.3,148.8c0,6.9,0.4,13.7,1.2,20.3c25.1,14.4,54.2,22.6,85.1,22.6
			s60.1-8.2,85.1-22.6c0.8-6.7,1.2-13.4,1.2-20.3C342.7,236.4,307.9,180.8,256.3,151.3z"/>
	</g>
</g>
<g id="text">
	<g>
		<path d="M539.5,257.1h-81v63.4c0,12.4-10.1,22.5-22.5,22.5s-22.5-10.1-22.5-22.5V150.6c0-12.4,10.1-22.5,22.5-22.5
			s22.5,10.1,22.5,22.5v63.3h81v-63.4c0-12.4,10.1-22.5,22.5-22.5s22.5,10.1,22.5,22.5v169.8c0,12.4-10.1,22.5-22.5,22.5
			s-22.5-10.1-22.5-22.5V257.1z"/>
		<path d="M742.6,274.4h-50.3c-11.8,0-21.6-9.8-21.6-21.6c0-11.8,9.8-21.6,21.6-21.6h50.3v-18.6c0-25.5-17-42.1-40.5-42.1
			s-40.5,16.7-40.5,42.1v107.8c0,12.4-10.1,22.5-22.5,22.5s-22.5-10.1-22.5-22.5V212.6c0-49,37.6-85.2,85.6-85.2
			s85.6,36.3,85.6,85.2v107.8c0,12.4-10.1,22.5-22.5,22.5s-22.5-10.1-22.5-22.5v-46H742.6z"/>
		<path d="M915.1,339.4c-61.7,0-106.5-45.4-106.5-103.9s44.7-103.9,106.5-103.9H970c11.8,0,21.6,9.8,21.6,21.6s-9.8,21.6-21.6,21.6
			h-54.2c-35.9,0-62.1,26.5-62.1,60.8s26.1,60.8,62.1,60.8h30.3v-39.2h-33.3c-11.8,0-21.6-9.8-21.6-21.6S901,214,912.8,214h59.8
			c9.8,0,18,8.2,18,18v89.5c0,9.8-8.2,18-18,18L915.1,339.4L915.1,339.4z"/>
		<path d="M1146.5,150.6c0-12.4,10.1-22.5,22.5-22.5s22.5,10.1,22.5,22.5v107.8c0,50-37.6,85.2-85.6,85.2s-85.6-35.3-85.6-85.2
			V150.6c0-12.4,10.1-22.5,22.5-22.5s22.5,10.1,22.5,22.5v107.8c0,25.5,17,42.1,40.5,42.1s40.5-16.7,40.5-42.1V150.6H1146.5z"/>
		<path d="M1241.7,339.4c-9.8,0-18-8.2-18-18V149.6c0-9.8,8.2-18,18-18h107.5c11.8,0,21.6,9.8,21.6,21.6s-9.8,21.6-21.6,21.6h-80.3
			v39.1h71.5c11.8,0,21.6,9.8,21.6,21.6s-9.8,21.6-21.6,21.6h-71.5v39.2h80.3c11.8,0,21.6,9.8,21.6,21.6s-9.8,21.6-21.6,21.6h-107.5
			V339.4z"/>
	</g>
</g>
</svg>
