<svg height="211.288564" viewBox="0 0 56.279999 24.51" width="473.286383" xmlns="http://www.w3.org/2000/svg"><g transform="matrix(1.25 0 0 -1.25 -309.5006 48.486872)"><path d="m256.35267 25.547001c-.15192-.160324-.56545-.219365-.68162-.403209-.17712-.277447-.58417-.909381-.90194-1.210348-1.02554-.973942-3.22135-1.463314-4.30425-.533292-.07105-.0048-.03001-.046081.05544-.312247.07872-.503532.48457-1.685799.33456-1.987486.09769-.335768.19897-.212885.38353-.399369.12577-.125763.17713-.45481.32161-.543853.16488.011281.33001.023521.49489.034801.02928-.091922.06096-.183844.09-.277686.21097.01512.42385.030961.63578.046081.11904-.027361.47905-.212885.58489-.241926.23545.016801.47065.032881.70514.048722.53905-.143524 1.0097.081601 1.46427.389048.25321.169684.53065.142564.75578.334808.32617.280327.77066.826819.97874 1.205548.51001.926181.33649 3.146232-.12552 3.694884-.18097.197765-.39481.201365-.7913.155524m4.26562.608414c-.38257-.292567-.54289-.220325-.76682-.672255-.02352 0 .0336-.067442.01128-.067442.22777-.45553.75002-.638415 1.13427-.958102.11904-.101282.44353-.663855.59737-.704176.17328-.206165.28585-.777138.39937-.777138.11712-.160324-.01032-.538092.10488-.685216.00744-.677055-.08616-.723856-.20424-.854179 0-.046801.06456-.169684.06456-.215525.03192-.031921.30385-.227045.42193-.203525.36841-.01032 1.8778-1.188747 1.9978-1.415792 1.08291-.081362 1.00419.249605 1.75132.566413.20161.087122.36289.00456.4949.142563.13896.141363.15.42097.2832.566173.01776 2.663581-3.6056 5.186279-6.28982 5.278201m2.94103 5.627889c-1.34164-.201365-2.16197-.630015-2.66911-.980663-.35448-.247445-.45745-.412329-.53257-.516491-.07776-.103923-.12936-.333848-.09192-.576494.03936-.240005.138-.496091.34705-.639374 1.64716.121923 4.5085.225845 5.06531-1.158027.02904-.192964.07321-.309367.07681-.355208.54577.135123.1464.087122.95066-.038401.18384-.02904.63769.073202.93866.147124.1368.03192.21456.155763.21456.155763s-.02616.132003-.01872.204245c0 0 .28225-.021601.39745.067441.76226.122883.36193.480971.72098.885141-.21553 2.587499-2.87071 3.188473-5.39916 2.804944m-10.21608-4.717548c.29521.076082.79778.115442 1.06107.246485.42.210005 1.86196 1.218028 1.40259 2.039327-.14065 1.72972-2.22845.268086-3.11815.87458-.89906.116163-1.90973 1.816842-2.18069 2.546219-.10489.288006-.06193.189604-.20617.417369.00096.023281-.09192-.078722-.09096-.055441-.26257-.305527-.21745-.573613-.25873-1.32003-.11808.00768-.23544.01416-.35352.02256-.02257-.270966-.04969-.418089-.17617-.557773-.02544-.046081-.05256-.090002-.07872-.136803-.22417.074882-.1116-.03096-.20257.156484-.82777-.042241-.76705-.87482-1.14746-1.347151.0168-1.554516 3.09175-3.47072 5.34948-2.885826m5.99078 8.448913c.07104.587054-.01608 1.444834.44713 1.848763.13584.626414 1.12226.480011.96842.87938-.09552.249606-.55873.130323-.74618.084482-.14256-.033841-1.49451-.461291-2.01388-.519372-.22033.060961-.44065.121923-.66002.183844-.84938-.114482-1.33875-.789378-1.81036-1.32579-.39553-.44905-.93194-1.550676-.50521-2.209731-.02352-.143523-.048-.287766-.07128-.43225l.96362-1.408112c.33289-.239045.37705-.41617.73514-.651615.07392-.110642.14712-.221285.22128-.332648.29233-.192244 1.15683-.195124 1.30131-.069361 1.39035-.129603 1.23939 2.683981 1.68004 3.275595-.05544.265206-.28897.540972-.51001.676815" fill="#f1471c" fill-rule="evenodd"/><g fill="#13356d"><path d="m281.69654 25.088566c1.23099 0 2.23229.406809 2.23229 2.581019 0 1.849723-1.0013 2.464617-2.23229 2.464617h-.64585v-5.045636zm.65257 6.512069c2.22846 0 3.73689-1.409072 3.73689-3.93105 0-3.168792-2.07101-4.107214-4.2421-4.107214h-2.9055c.01032.176164 0 .644895 0 1.232668v5.573648c0 .586813.01032.961942 0 1.231948"/><path d="m289.24543 24.795109c0-.587773.02928-1.232908.02928-1.232908h-2.15549s.01416.645135.01416 1.232908v5.574608c0 .586813-.01416 1.230748-.01416 1.230748h5.09556v-1.555236s-1.13931.029041-1.52548.029041h-1.44387v-1.619077l1.44387-.01488c.27001 0 1.20003.01488 1.20003.01488v-1.481314s-.8249.02256-1.20003.02256l-1.44387-.0084"/><path d="m272.84273 28.563008c.03192.465131.19776 1.545155 1.37235 1.545155 1.20387 0 1.26963-1.014503 1.26963-1.551635v-.108003s-.8045-.02232-1.28451-.02232-1.36515.02232-1.36515.02232zm1.79332-3.375917c-1.0133 0-1.79332.682335-1.79332 1.74844v.090962s1.88332.045841 2.52198.045841c1.08554 0 1.53363.01032 2.38973.0216v.606494c0 2.738463-1.16162 4.071694-3.55424 4.071694-1.10258 0-3.66656-.41425-3.66656-4.249778 0-2.559419 1.29171-4.088494 3.5504-4.088494 1.77268 0 2.8611.452891 3.64976 1.028424-.08904.133203-.74906 1.32003-.83546 1.449393-.47353-.360968-1.25427-.724576-2.26229-.724576"/></g></g></svg>