<svg width="335" height="337" viewBox="0 0 335 337" fill="none" xmlns="http://www.w3.org/2000/svg">
<path d="M40.4478 41.2509L51.7809 52.5262L61.4775 42.8791C62.5726 41.7899 63.1886 40.3128 63.19 38.7722V32.6592L63.2017 22.6283C63.202 22.2984 63.1039 21.9758 62.9198 21.7014C62.7358 21.427 62.4741 21.2131 62.1678 21.0867C61.8615 20.9603 61.5244 20.9272 61.1992 20.9915C60.8739 21.0557 60.5752 21.2146 60.3407 21.4478L49.0835 32.6592L40.4478 41.2509Z" fill="#3B58A8"/>
<path d="M20.6614 32.6592V44.1177L29.113 52.5262H51.7808L61.4774 42.8791C62.5725 41.7899 63.1884 40.3128 63.1899 38.7722V32.6592H20.6614Z" fill="#487BED"/>
<path d="M51.7809 52.5272L42.3751 61.8864C41.8638 62.3948 41.1705 62.6803 40.4477 62.6803C39.7249 62.6803 39.0317 62.3948 38.5204 61.8864L19.4267 42.8902C18.3313 41.8006 17.7153 40.323 17.7142 38.7819L17.6981 25.6792V22.6437C17.6979 22.3138 17.796 21.9913 17.98 21.7169C18.1641 21.4425 18.4258 21.2285 18.7321 21.1022C19.0384 20.9758 19.3755 20.9427 19.7007 21.0069C20.0259 21.0712 20.3247 21.23 20.5592 21.4633L22.0204 22.917L31.8134 32.6601L40.4477 41.2518L51.7809 52.5272Z" fill="#64A8F2"/>
<line x1="0.632075" y1="1.36792" x2="301.5" y2="1.36792" stroke="#EAEAEA" stroke-width="1.26415" stroke-linecap="round"/>
<line x1="333.104" y1="1.36792" x2="334.368" y2="1.36792" stroke="#EAEAEA" stroke-width="1.26415" stroke-linecap="round"/>
<line x1="325.519" y1="1.36792" x2="329.311" y2="1.36792" stroke="#EAEAEA" stroke-width="1.26415" stroke-linecap="round"/>
<line x1="316.67" y1="1.36792" x2="321.726" y2="1.36793" stroke="#EAEAEA" stroke-width="1.26415" stroke-linecap="round"/>
<line x1="305.292" y1="1.36792" x2="312.877" y2="1.36792" stroke="#EAEAEA" stroke-width="1.26415" stroke-linecap="round"/>
<line x1="0.632075" y1="82.2736" x2="89.1226" y2="82.2736" stroke="#EAEAEA" stroke-width="1.26415" stroke-linecap="round"/>
<line x1="0.632075" y1="2.63208" x2="0.632063" y2="280.745" stroke="#EAEAEA" stroke-width="1.26415" stroke-linecap="round"/>
<line x1="0.632076" y1="333.84" x2="0.632076" y2="336.368" stroke="#EAEAEA" stroke-width="1.26415" stroke-linecap="round"/>
<line x1="0.632075" y1="285.802" x2="0.632075" y2="303.5" stroke="#EAEAEA" stroke-width="1.26415" stroke-linecap="round"/>
<line x1="0.632075" y1="308.557" x2="0.632075" y2="317.406" stroke="#EAEAEA" stroke-width="1.26415" stroke-linecap="round"/>
<line x1="0.632075" y1="322.462" x2="0.632075" y2="328.783" stroke="#EAEAEA" stroke-width="1.26415" stroke-linecap="round"/>
<g filter="url(#filter0_d)">
<rect x="89.7548" y="26.0189" width="185.83" height="30.3396" rx="5.0566" fill="white"/>
<rect x="90.3868" y="26.6509" width="184.566" height="29.0755" rx="4.42453" stroke="black" stroke-opacity="0.1" stroke-width="1.26415"/>
</g>
<path d="M106.834 44.3776C106.834 45.2512 106.517 45.9325 105.884 46.4214C105.25 46.9102 104.39 47.1547 103.304 47.1547C102.127 47.1547 101.221 47.003 100.588 46.6997V45.5862C100.995 45.7582 101.439 45.894 101.918 45.9936C102.398 46.0932 102.874 46.143 103.344 46.143C104.114 46.143 104.693 45.9981 105.083 45.7084C105.472 45.4142 105.666 45.0068 105.666 44.4862C105.666 44.1422 105.596 43.8616 105.456 43.6443C105.32 43.4225 105.089 43.2188 104.763 43.0332C104.442 42.8476 103.951 42.6371 103.29 42.4017C102.367 42.0713 101.706 41.6798 101.307 41.2271C100.914 40.7744 100.717 40.1837 100.717 39.4549C100.717 38.6899 101.004 38.0811 101.579 37.6285C102.154 37.1758 102.914 36.9495 103.86 36.9495C104.847 36.9495 105.755 37.1305 106.583 37.4927L106.223 38.4976C105.404 38.1535 104.607 37.9815 103.833 37.9815C103.222 37.9815 102.745 38.1128 102.401 38.3754C102.057 38.6379 101.885 39.0023 101.885 39.4685C101.885 39.8125 101.948 40.0955 102.075 40.3173C102.201 40.5345 102.414 40.736 102.713 40.9216C103.016 41.1026 103.478 41.304 104.098 41.5259C105.139 41.897 105.854 42.2954 106.244 42.7209C106.637 43.1464 106.834 43.6986 106.834 44.3776ZM113.271 47.0189L113.047 45.9596H112.993C112.622 46.4259 112.25 46.7427 111.879 46.9102C111.513 47.0732 111.053 47.1547 110.501 47.1547C109.763 47.1547 109.184 46.9645 108.763 46.5843C108.346 46.2041 108.138 45.6631 108.138 44.9615C108.138 43.4587 109.34 42.6711 111.743 42.5987L113.006 42.5579V42.0962C113.006 41.5123 112.88 41.0822 112.626 40.8061C112.377 40.5255 111.977 40.3852 111.424 40.3852C110.804 40.3852 110.103 40.5753 109.319 40.9555L108.973 40.0932C109.34 39.894 109.74 39.7379 110.175 39.6247C110.614 39.5115 111.053 39.4549 111.492 39.4549C112.379 39.4549 113.036 39.6518 113.461 40.0457C113.891 40.4395 114.106 41.0709 114.106 41.94V47.0189H113.271ZM110.725 46.2244C111.427 46.2244 111.977 46.0321 112.375 45.6473C112.778 45.2625 112.979 44.7239 112.979 44.0313V43.3591L111.852 43.4066C110.956 43.4383 110.308 43.5787 109.91 43.8276C109.516 44.0721 109.319 44.4546 109.319 44.9751C109.319 45.3825 109.442 45.6926 109.686 45.9053C109.935 46.1181 110.281 46.2244 110.725 46.2244ZM117.562 47.0189H116.435V36.4538H117.562V47.0189ZM123.096 47.1547C121.996 47.1547 121.127 46.8197 120.489 46.1498C119.855 45.4798 119.538 44.5496 119.538 43.3591C119.538 42.1596 119.832 41.2067 120.421 40.5006C121.014 39.7944 121.808 39.4414 122.804 39.4414C123.737 39.4414 124.474 39.7492 125.018 40.3648C125.561 40.9759 125.832 41.7839 125.832 42.7888V43.5017H120.706C120.729 44.3753 120.948 45.0385 121.365 45.4911C121.786 45.9438 122.376 46.1701 123.137 46.1701C123.938 46.1701 124.73 46.0026 125.513 45.6677V46.6726C125.115 46.8446 124.737 46.9668 124.379 47.0392C124.026 47.1162 123.599 47.1547 123.096 47.1547ZM122.791 40.3852C122.193 40.3852 121.715 40.5798 121.358 40.9691C121.005 41.3584 120.797 41.897 120.733 42.5851H124.624C124.624 41.8744 124.465 41.3312 124.149 40.9555C123.832 40.5753 123.379 40.3852 122.791 40.3852ZM132.561 44.9887C132.561 45.6813 132.303 46.2154 131.787 46.5911C131.271 46.9668 130.547 47.1547 129.614 47.1547C128.628 47.1547 127.858 46.9985 127.306 46.6862V45.6405C127.663 45.8216 128.046 45.9642 128.453 46.0683C128.865 46.1724 129.261 46.2244 129.642 46.2244C130.23 46.2244 130.683 46.1316 130.999 45.9461C131.316 45.7559 131.475 45.4685 131.475 45.0837C131.475 44.794 131.348 44.5473 131.095 44.3436C130.846 44.1354 130.357 43.891 129.628 43.6103C128.935 43.3523 128.442 43.1283 128.148 42.9381C127.858 42.7435 127.641 42.524 127.496 42.2795C127.356 42.0351 127.285 41.7431 127.285 41.4036C127.285 40.7971 127.532 40.3195 128.026 39.971C128.519 39.6179 129.196 39.4414 130.056 39.4414C130.857 39.4414 131.64 39.6043 132.405 39.9302L132.004 40.8469C131.258 40.5391 130.581 40.3852 129.974 40.3852C129.44 40.3852 129.037 40.4689 128.766 40.6364C128.494 40.8039 128.358 41.0347 128.358 41.3289C128.358 41.5281 128.408 41.6979 128.508 41.8382C128.612 41.9785 128.777 42.112 129.003 42.2388C129.23 42.3655 129.664 42.5489 130.307 42.7888C131.19 43.1102 131.785 43.4338 132.093 43.7597C132.405 44.0856 132.561 44.4953 132.561 44.9887ZM141.239 47.0189H140.084V38.1173H136.941V37.0921H144.382V38.1173H141.239V47.0189ZM149.108 39.4414C149.439 39.4414 149.735 39.4685 149.998 39.5228L149.841 40.5685C149.534 40.5006 149.262 40.4666 149.027 40.4666C148.425 40.4666 147.909 40.7111 147.479 41.1999C147.053 41.6888 146.84 42.2976 146.84 43.0264V47.0189H145.713V39.5772H146.643L146.772 40.9555H146.827C147.103 40.4712 147.436 40.0977 147.825 39.8352C148.214 39.5726 148.642 39.4414 149.108 39.4414ZM155.966 47.0189L155.742 45.9596H155.687C155.316 46.4259 154.945 46.7427 154.574 46.9102C154.207 47.0732 153.748 47.1547 153.196 47.1547C152.458 47.1547 151.878 46.9645 151.457 46.5843C151.041 46.2041 150.833 45.6631 150.833 44.9615C150.833 43.4587 152.035 42.6711 154.438 42.5987L155.701 42.5579V42.0962C155.701 41.5123 155.574 41.0822 155.321 40.8061C155.072 40.5255 154.671 40.3852 154.119 40.3852C153.499 40.3852 152.797 40.5753 152.014 40.9555L151.668 40.0932C152.035 39.894 152.435 39.7379 152.87 39.6247C153.309 39.5115 153.748 39.4549 154.187 39.4549C155.074 39.4549 155.73 39.6518 156.156 40.0457C156.586 40.4395 156.801 41.0709 156.801 41.94V47.0189H155.966ZM153.42 46.2244C154.121 46.2244 154.671 46.0321 155.07 45.6473C155.472 45.2625 155.674 44.7239 155.674 44.0313V43.3591L154.547 43.4066C153.651 43.4383 153.003 43.5787 152.605 43.8276C152.211 44.0721 152.014 44.4546 152.014 44.9751C152.014 45.3825 152.136 45.6926 152.381 45.9053C152.63 46.1181 152.976 46.2244 153.42 46.2244ZM162.104 47.1547C161.027 47.1547 160.191 46.8242 159.598 46.1633C159.01 45.4979 158.716 44.5587 158.716 43.3455C158.716 42.1007 159.015 41.1388 159.612 40.4598C160.214 39.7809 161.07 39.4414 162.179 39.4414C162.536 39.4414 162.894 39.4798 163.251 39.5568C163.609 39.6337 163.89 39.7243 164.093 39.8284L163.747 40.7858C163.498 40.6862 163.226 40.6047 162.932 40.5413C162.638 40.4734 162.378 40.4395 162.151 40.4395C160.64 40.4395 159.884 41.4036 159.884 43.332C159.884 44.2463 160.067 44.9479 160.434 45.4368C160.805 45.9257 161.352 46.1701 162.077 46.1701C162.697 46.1701 163.333 46.0366 163.985 45.7695V46.7676C163.487 47.0256 162.86 47.1547 162.104 47.1547ZM166.87 43.2097C167.065 42.9336 167.362 42.5715 167.76 42.1234L170.163 39.5772H171.501L168.486 42.748L171.712 47.0189H170.347L167.719 43.5017L166.87 44.235V47.0189H165.757V36.4538H166.87V42.0555C166.87 42.3044 166.852 42.6892 166.816 43.2097H166.87ZM176.206 47.1547C175.107 47.1547 174.237 46.8197 173.599 46.1498C172.965 45.4798 172.649 44.5496 172.649 43.3591C172.649 42.1596 172.943 41.2067 173.531 40.5006C174.124 39.7944 174.919 39.4414 175.915 39.4414C176.847 39.4414 177.585 39.7492 178.128 40.3648C178.671 40.9759 178.943 41.7839 178.943 42.7888V43.5017H173.816C173.839 44.3753 174.059 45.0385 174.475 45.4911C174.896 45.9438 175.487 46.1701 176.247 46.1701C177.048 46.1701 177.841 46.0026 178.624 45.6677V46.6726C178.225 46.8446 177.847 46.9668 177.49 47.0392C177.137 47.1162 176.709 47.1547 176.206 47.1547ZM175.901 40.3852C175.303 40.3852 174.826 40.5798 174.468 40.9691C174.115 41.3584 173.907 41.897 173.844 42.5851H177.734C177.734 41.8744 177.576 41.3312 177.259 40.9555C176.942 40.5753 176.489 40.3852 175.901 40.3852ZM184.266 39.4414C184.596 39.4414 184.893 39.4685 185.156 39.5228L184.999 40.5685C184.692 40.5006 184.42 40.4666 184.185 40.4666C183.583 40.4666 183.067 40.7111 182.636 41.1999C182.211 41.6888 181.998 42.2976 181.998 43.0264V47.0189H180.871V39.5772H181.801L181.93 40.9555H181.985C182.261 40.4712 182.593 40.0977 182.983 39.8352C183.372 39.5726 183.8 39.4414 184.266 39.4414Z" fill="black"/>
<rect x="89.7548" y="60.1509" width="217.434" height="225.019" rx="5.0566" fill="white"/>
<rect x="90.3868" y="60.783" width="216.17" height="223.755" rx="4.42453" stroke="black" stroke-opacity="0.1" stroke-width="1.26415"/>
<path d="M265.778 42.6062L262.65 39.4776L259.521 42.6062" stroke="black" stroke-width="1.26415"/>
<path d="M103.876 77.9643H104.443C104.973 77.9643 105.369 77.8606 105.632 77.6532C105.895 77.4421 106.026 77.1366 106.026 76.7366C106.026 76.3329 105.915 76.0348 105.693 75.8422C105.475 75.6496 105.13 75.5533 104.66 75.5533H103.876V77.9643ZM107.765 76.6755C107.765 77.5495 107.491 78.218 106.943 78.681C106.399 79.1439 105.623 79.3754 104.615 79.3754H103.876V82.2642H102.154V74.1422H104.749C105.734 74.1422 106.482 74.3552 106.993 74.7811C107.508 75.2033 107.765 75.8348 107.765 76.6755ZM112.632 75.9366C112.861 75.9366 113.052 75.9533 113.204 75.9866L113.076 77.5754C112.939 77.5384 112.772 77.5199 112.576 77.5199C112.035 77.5199 111.613 77.6588 111.309 77.9365C111.009 78.2143 110.859 78.6032 110.859 79.1032V82.2642H109.165V76.0533H110.448L110.698 77.0977H110.782C110.974 76.7495 111.234 76.4699 111.559 76.2588C111.889 76.044 112.246 75.9366 112.632 75.9366ZM115.682 79.1476C115.682 79.7624 115.782 80.2272 115.982 80.542C116.185 80.8568 116.515 81.0142 116.97 81.0142C117.422 81.0142 117.746 80.8587 117.943 80.5476C118.143 80.2328 118.243 79.7661 118.243 79.1476C118.243 78.5328 118.143 78.0717 117.943 77.7643C117.743 77.4569 117.415 77.3032 116.959 77.3032C116.507 77.3032 116.182 77.4569 115.982 77.7643C115.782 78.068 115.682 78.5291 115.682 79.1476ZM119.976 79.1476C119.976 80.1587 119.709 80.9494 119.176 81.5197C118.643 82.0901 117.9 82.3753 116.948 82.3753C116.352 82.3753 115.826 82.2456 115.37 81.9864C114.915 81.7234 114.565 81.3475 114.32 80.8587C114.076 80.3698 113.954 79.7994 113.954 79.1476C113.954 78.1328 114.219 77.344 114.748 76.781C115.278 76.2181 116.022 75.9366 116.981 75.9366C117.578 75.9366 118.104 76.0662 118.559 76.3255C119.015 76.5847 119.365 76.9569 119.609 77.4421C119.854 77.9273 119.976 78.4958 119.976 79.1476ZM120.876 84.9974C120.442 84.9974 120.07 84.9511 119.759 84.8585V83.5252C120.018 83.5956 120.283 83.6308 120.554 83.6308C120.839 83.6308 121.046 83.5511 121.176 83.3919C121.309 83.2326 121.376 82.9975 121.376 82.6864V76.0533H123.07V82.9364C123.07 83.5956 122.879 84.103 122.498 84.4585C122.116 84.8178 121.576 84.9974 120.876 84.9974ZM121.304 74.4478C121.304 73.896 121.611 73.62 122.226 73.62C122.841 73.62 123.148 73.896 123.148 74.4478C123.148 74.7107 123.07 74.9163 122.915 75.0644C122.763 75.2089 122.533 75.2811 122.226 75.2811C121.611 75.2811 121.304 75.0033 121.304 74.4478ZM127.426 77.1421C127.066 77.1421 126.785 77.2569 126.581 77.4866C126.377 77.7125 126.261 78.0347 126.231 78.4532H128.609C128.601 78.0347 128.492 77.7125 128.281 77.4866C128.07 77.2569 127.785 77.1421 127.426 77.1421ZM127.664 82.3753C126.664 82.3753 125.883 82.0994 125.32 81.5475C124.757 80.9957 124.476 80.2142 124.476 79.2032C124.476 78.1625 124.735 77.3588 125.253 76.7921C125.776 76.2218 126.496 75.9366 127.414 75.9366C128.292 75.9366 128.975 76.1866 129.464 76.6866C129.953 77.1866 130.198 77.8773 130.198 78.7587V79.5809H126.192C126.211 80.0624 126.353 80.4383 126.62 80.7087C126.887 80.979 127.261 81.1142 127.742 81.1142C128.116 81.1142 128.47 81.0753 128.803 80.9975C129.137 80.9198 129.485 80.7957 129.848 80.6253V81.9364C129.551 82.0845 129.235 82.1938 128.898 82.2642C128.561 82.3382 128.15 82.3753 127.664 82.3753ZM134.098 82.3753C132.164 82.3753 131.198 81.3142 131.198 79.1921C131.198 78.1365 131.461 77.331 131.986 76.7755C132.512 76.2162 133.266 75.9366 134.248 75.9366C134.966 75.9366 135.61 76.0774 136.181 76.3588L135.681 77.6699C135.414 77.5625 135.166 77.4754 134.936 77.4088C134.707 77.3384 134.477 77.3032 134.248 77.3032C133.366 77.3032 132.925 77.9291 132.925 79.1809C132.925 80.3957 133.366 81.0031 134.248 81.0031C134.573 81.0031 134.875 80.9605 135.153 80.8753C135.431 80.7864 135.709 80.6494 135.986 80.4642V81.9142C135.712 82.0882 135.435 82.2086 135.153 82.2753C134.875 82.3419 134.523 82.3753 134.098 82.3753ZM140.047 81.0253C140.344 81.0253 140.699 80.9605 141.114 80.8309V82.0919C140.692 82.2808 140.173 82.3753 139.558 82.3753C138.881 82.3753 138.386 82.2049 138.075 81.8642C137.768 81.5197 137.614 81.0049 137.614 80.3198V77.3255H136.803V76.6088L137.736 76.0422L138.225 74.7311H139.308V76.0533H141.047V77.3255H139.308V80.3198C139.308 80.5605 139.375 80.7383 139.508 80.8531C139.645 80.9679 139.825 81.0253 140.047 81.0253ZM146.708 80.4198C146.708 81.0568 146.486 81.542 146.042 81.8753C145.601 82.2086 144.94 82.3753 144.058 82.3753C143.606 82.3753 143.221 82.3438 142.903 82.2808C142.584 82.2216 142.286 82.1327 142.008 82.0142V80.6142C142.323 80.7624 142.677 80.8864 143.069 80.9864C143.466 81.0864 143.814 81.1364 144.114 81.1364C144.729 81.1364 145.036 80.9587 145.036 80.6031C145.036 80.4698 144.995 80.3624 144.914 80.2809C144.832 80.1957 144.692 80.1013 144.492 79.9976C144.292 79.8902 144.025 79.7661 143.692 79.6254C143.214 79.4254 142.862 79.2402 142.636 79.0698C142.414 78.8995 142.251 78.705 142.147 78.4865C142.047 78.2643 141.997 77.9921 141.997 77.6699C141.997 77.1181 142.21 76.6921 142.636 76.3922C143.066 76.0885 143.673 75.9366 144.458 75.9366C145.206 75.9366 145.934 76.0996 146.642 76.4255L146.13 77.6477C145.819 77.5143 145.529 77.4051 145.258 77.3199C144.988 77.2347 144.712 77.1921 144.43 77.1921C143.931 77.1921 143.681 77.3273 143.681 77.5977C143.681 77.7495 143.76 77.881 143.919 77.9921C144.082 78.1032 144.436 78.268 144.98 78.4865C145.466 78.6828 145.821 78.8661 146.047 79.0365C146.273 79.2069 146.44 79.4032 146.547 79.6254C146.654 79.8476 146.708 80.1124 146.708 80.4198Z" fill="black"/>
<rect x="91.0189" y="86.6981" width="214.906" height="31.6038" fill="white"/>
<rect x="91.0189" y="118.302" width="214.906" height="31.6038" fill="#F5F5F5"/>
<rect x="91.0189" y="149.906" width="214.906" height="31.6038" fill="white"/>
<rect x="91.0189" y="181.509" width="214.906" height="31.6038" fill="white"/>
<rect x="91.0189" y="213.113" width="214.906" height="31.6038" fill="white"/>
<rect x="91.0189" y="244.717" width="214.906" height="31.6038" fill="white"/>
<path d="M107.354 106.698L106.343 104.115H103.088L102.088 106.698H101.132L104.343 98.5429H105.137L108.332 106.698H107.354ZM106.049 103.265L105.104 100.748C104.982 100.43 104.856 100.039 104.726 99.5762C104.645 99.9317 104.528 100.322 104.376 100.748L103.421 103.265H106.049ZM112.143 106.809C111.747 106.809 111.384 106.737 111.054 106.593C110.728 106.444 110.454 106.219 110.232 105.915H110.165C110.21 106.27 110.232 106.607 110.232 106.926V109.431H109.31V100.609H110.06L110.187 101.443H110.232C110.469 101.109 110.745 100.869 111.059 100.721C111.374 100.572 111.735 100.498 112.143 100.498C112.95 100.498 113.572 100.774 114.009 101.326C114.45 101.878 114.67 102.652 114.67 103.648C114.67 104.648 114.446 105.426 113.998 105.981C113.554 106.533 112.935 106.809 112.143 106.809ZM112.009 101.282C111.387 101.282 110.937 101.454 110.66 101.798C110.382 102.143 110.239 102.691 110.232 103.443V103.648C110.232 104.504 110.374 105.117 110.66 105.487C110.945 105.854 111.402 106.037 112.032 106.037C112.558 106.037 112.969 105.824 113.265 105.398C113.565 104.972 113.715 104.385 113.715 103.637C113.715 102.878 113.565 102.296 113.265 101.893C112.969 101.485 112.55 101.282 112.009 101.282ZM119.12 106.809C118.724 106.809 118.361 106.737 118.031 106.593C117.706 106.444 117.431 106.219 117.209 105.915H117.143C117.187 106.27 117.209 106.607 117.209 106.926V109.431H116.287V100.609H117.037L117.165 101.443H117.209C117.446 101.109 117.722 100.869 118.037 100.721C118.352 100.572 118.713 100.498 119.12 100.498C119.928 100.498 120.55 100.774 120.987 101.326C121.428 101.878 121.648 102.652 121.648 103.648C121.648 104.648 121.424 105.426 120.976 105.981C120.531 106.533 119.913 106.809 119.12 106.809ZM118.987 101.282C118.365 101.282 117.915 101.454 117.637 101.798C117.359 102.143 117.217 102.691 117.209 103.443V103.648C117.209 104.504 117.352 105.117 117.637 105.487C117.922 105.854 118.38 106.037 119.009 106.037C119.535 106.037 119.946 105.824 120.242 105.398C120.542 104.972 120.692 104.385 120.692 103.637C120.692 102.878 120.542 102.296 120.242 101.893C119.946 101.485 119.528 101.282 118.987 101.282ZM124.187 106.698H123.265V98.054H124.187V106.698ZM127.064 106.698H126.142V100.609H127.064V106.698ZM126.064 98.9595C126.064 98.7484 126.116 98.5947 126.22 98.4984C126.324 98.3984 126.453 98.3484 126.609 98.3484C126.757 98.3484 126.885 98.3984 126.992 98.4984C127.1 98.5984 127.153 98.7521 127.153 98.9595C127.153 99.1669 127.1 99.3225 126.992 99.4262C126.885 99.5262 126.757 99.5762 126.609 99.5762C126.453 99.5762 126.324 99.5262 126.22 99.4262C126.116 99.3225 126.064 99.1669 126.064 98.9595ZM131.453 106.809C130.572 106.809 129.888 106.539 129.403 105.998C128.922 105.454 128.681 104.685 128.681 103.693C128.681 102.674 128.925 101.887 129.414 101.332C129.907 100.776 130.607 100.498 131.514 100.498C131.807 100.498 132.099 100.53 132.392 100.593C132.685 100.656 132.914 100.73 133.081 100.815L132.798 101.598C132.594 101.517 132.372 101.45 132.131 101.398C131.89 101.343 131.677 101.315 131.492 101.315C130.255 101.315 129.637 102.104 129.637 103.682C129.637 104.43 129.787 105.004 130.087 105.404C130.39 105.804 130.838 106.004 131.431 106.004C131.938 106.004 132.459 105.894 132.992 105.676V106.493C132.585 106.704 132.072 106.809 131.453 106.809ZM138.186 106.698L138.003 105.831H137.959C137.655 106.213 137.351 106.472 137.047 106.609C136.747 106.743 136.372 106.809 135.92 106.809C135.316 106.809 134.842 106.654 134.498 106.343C134.157 106.031 133.986 105.589 133.986 105.015C133.986 103.785 134.97 103.141 136.936 103.082L137.97 103.048V102.67C137.97 102.193 137.866 101.841 137.659 101.615C137.455 101.385 137.127 101.271 136.675 101.271C136.168 101.271 135.594 101.426 134.953 101.737L134.67 101.032C134.97 100.869 135.297 100.741 135.653 100.648C136.012 100.556 136.372 100.509 136.731 100.509C137.457 100.509 137.994 100.671 138.342 100.993C138.694 101.315 138.87 101.832 138.87 102.543V106.698H138.186ZM136.103 106.048C136.677 106.048 137.127 105.891 137.453 105.576C137.783 105.261 137.947 104.82 137.947 104.254V103.704L137.025 103.743C136.292 103.769 135.762 103.883 135.436 104.087C135.114 104.287 134.953 104.6 134.953 105.026C134.953 105.359 135.053 105.613 135.253 105.787C135.457 105.961 135.74 106.048 136.103 106.048ZM144.942 106.698V102.759C144.942 102.263 144.829 101.893 144.603 101.648C144.377 101.404 144.023 101.282 143.542 101.282C142.905 101.282 142.438 101.454 142.142 101.798C141.845 102.143 141.697 102.711 141.697 103.504V106.698H140.775V100.609H141.525L141.675 101.443H141.719C141.908 101.143 142.173 100.911 142.514 100.748C142.855 100.582 143.234 100.498 143.653 100.498C144.386 100.498 144.938 100.676 145.308 101.032C145.679 101.384 145.864 101.948 145.864 102.726V106.698H144.942ZM149.73 106.048C149.893 106.048 150.051 106.037 150.202 106.015C150.354 105.989 150.475 105.963 150.564 105.937V106.643C150.464 106.691 150.315 106.73 150.119 106.759C149.927 106.793 149.753 106.809 149.597 106.809C148.419 106.809 147.83 106.189 147.83 104.948V101.326H146.958V100.882L147.83 100.498L148.219 99.1984H148.753V100.609H150.519V101.326H148.753V104.909C148.753 105.276 148.84 105.557 149.014 105.754C149.188 105.95 149.427 106.048 149.73 106.048ZM157.38 106.698H156.436V99.4151H153.863V98.5762H159.952V99.4151H157.38V106.698ZM163.819 100.498C164.089 100.498 164.332 100.521 164.546 100.565L164.419 101.421C164.167 101.365 163.945 101.337 163.752 101.337C163.259 101.337 162.837 101.537 162.485 101.937C162.137 102.337 161.963 102.835 161.963 103.432V106.698H161.041V100.609H161.802L161.908 101.737H161.952C162.178 101.341 162.45 101.035 162.769 100.821C163.087 100.606 163.437 100.498 163.819 100.498ZM169.43 106.698L169.246 105.831H169.202C168.898 106.213 168.594 106.472 168.291 106.609C167.991 106.743 167.615 106.809 167.163 106.809C166.559 106.809 166.085 106.654 165.741 106.343C165.4 106.031 165.23 105.589 165.23 105.015C165.23 103.785 166.213 103.141 168.18 103.082L169.213 103.048V102.67C169.213 102.193 169.109 101.841 168.902 101.615C168.698 101.385 168.37 101.271 167.919 101.271C167.411 101.271 166.837 101.426 166.196 101.737L165.913 101.032C166.213 100.869 166.541 100.741 166.896 100.648C167.256 100.556 167.615 100.509 167.974 100.509C168.7 100.509 169.237 100.671 169.585 100.993C169.937 101.315 170.113 101.832 170.113 102.543V106.698H169.43ZM167.346 106.048C167.92 106.048 168.37 105.891 168.696 105.576C169.026 105.261 169.191 104.82 169.191 104.254V103.704L168.268 103.743C167.535 103.769 167.006 103.883 166.68 104.087C166.357 104.287 166.196 104.6 166.196 105.026C166.196 105.359 166.296 105.613 166.496 105.787C166.7 105.961 166.983 106.048 167.346 106.048ZM174.452 106.809C173.57 106.809 172.887 106.539 172.402 105.998C171.92 105.454 171.679 104.685 171.679 103.693C171.679 102.674 171.924 101.887 172.413 101.332C172.905 100.776 173.605 100.498 174.513 100.498C174.805 100.498 175.098 100.53 175.39 100.593C175.683 100.656 175.913 100.73 176.079 100.815L175.796 101.598C175.592 101.517 175.37 101.45 175.129 101.398C174.889 101.343 174.676 101.315 174.49 101.315C173.253 101.315 172.635 102.104 172.635 103.682C172.635 104.43 172.785 105.004 173.085 105.404C173.389 105.804 173.837 106.004 174.429 106.004C174.937 106.004 175.457 105.894 175.99 105.676V106.493C175.583 106.704 175.07 106.809 174.452 106.809ZM178.351 103.582C178.511 103.356 178.753 103.059 179.079 102.693L181.046 100.609H182.14L179.674 103.204L182.312 106.698H181.196L179.046 103.82L178.351 104.42V106.698H177.44V98.054H178.351V102.637C178.351 102.841 178.337 103.156 178.307 103.582H178.351ZM185.99 106.809C185.09 106.809 184.379 106.535 183.857 105.987C183.338 105.439 183.079 104.678 183.079 103.704C183.079 102.722 183.32 101.943 183.801 101.365C184.286 100.787 184.936 100.498 185.751 100.498C186.514 100.498 187.118 100.75 187.562 101.254C188.007 101.754 188.229 102.415 188.229 103.237V103.82H184.035C184.053 104.535 184.233 105.078 184.573 105.448C184.918 105.819 185.401 106.004 186.023 106.004C186.679 106.004 187.327 105.867 187.968 105.593V106.415C187.642 106.556 187.333 106.656 187.04 106.715C186.751 106.778 186.401 106.809 185.99 106.809ZM185.74 101.271C185.251 101.271 184.86 101.43 184.568 101.748C184.279 102.067 184.109 102.508 184.057 103.07H187.24C187.24 102.489 187.11 102.045 186.851 101.737C186.592 101.426 186.222 101.271 185.74 101.271ZM192.584 100.498C192.855 100.498 193.097 100.521 193.312 100.565L193.184 101.421C192.932 101.365 192.71 101.337 192.518 101.337C192.025 101.337 191.603 101.537 191.251 101.937C190.903 102.337 190.729 102.835 190.729 103.432V106.698H189.807V100.609H190.568L190.673 101.737H190.718C190.944 101.341 191.216 101.035 191.534 100.821C191.853 100.606 192.203 100.498 192.584 100.498Z" fill="black"/>
<path d="M105.726 130.908C104.834 130.908 104.128 131.206 103.61 131.802C103.095 132.395 102.838 133.208 102.838 134.241C102.838 135.304 103.086 136.126 103.582 136.707C104.082 137.285 104.793 137.574 105.715 137.574C106.282 137.574 106.928 137.472 107.654 137.269V138.096C107.091 138.307 106.397 138.413 105.571 138.413C104.375 138.413 103.451 138.05 102.799 137.324C102.151 136.598 101.826 135.567 101.826 134.23C101.826 133.393 101.982 132.659 102.293 132.03C102.608 131.4 103.06 130.915 103.649 130.574C104.241 130.234 104.937 130.063 105.737 130.063C106.589 130.063 107.334 130.219 107.971 130.53L107.571 131.341C106.956 131.052 106.341 130.908 105.726 130.908ZM113.032 138.302L112.848 137.435H112.804C112.5 137.817 112.196 138.076 111.893 138.213C111.593 138.346 111.217 138.413 110.765 138.413C110.161 138.413 109.687 138.257 109.343 137.946C109.002 137.635 108.832 137.193 108.832 136.619C108.832 135.389 109.815 134.745 111.782 134.685L112.815 134.652V134.274C112.815 133.796 112.711 133.445 112.504 133.219C112.3 132.989 111.972 132.874 111.521 132.874C111.013 132.874 110.439 133.03 109.798 133.341L109.515 132.635C109.815 132.472 110.143 132.345 110.498 132.252C110.858 132.16 111.217 132.113 111.576 132.113C112.302 132.113 112.839 132.274 113.187 132.597C113.539 132.919 113.715 133.435 113.715 134.146V138.302H113.032ZM110.948 137.652C111.522 137.652 111.972 137.495 112.298 137.18C112.628 136.865 112.793 136.424 112.793 135.858V135.308L111.871 135.346C111.137 135.372 110.608 135.487 110.282 135.691C109.96 135.891 109.798 136.204 109.798 136.63C109.798 136.963 109.898 137.217 110.098 137.391C110.302 137.565 110.585 137.652 110.948 137.652ZM123.381 138.302V134.341C123.381 133.856 123.278 133.493 123.07 133.252C122.863 133.008 122.541 132.885 122.104 132.885C121.529 132.885 121.105 133.05 120.831 133.38C120.557 133.709 120.42 134.217 120.42 134.902V138.302H119.498V134.341C119.498 133.856 119.394 133.493 119.187 133.252C118.98 133.008 118.656 132.885 118.215 132.885C117.637 132.885 117.213 133.059 116.943 133.408C116.676 133.752 116.543 134.319 116.543 135.108V138.302H115.62V132.213H116.37L116.52 133.047H116.565C116.739 132.75 116.983 132.519 117.298 132.352C117.617 132.185 117.972 132.102 118.365 132.102C119.317 132.102 119.939 132.447 120.231 133.135H120.276C120.457 132.817 120.72 132.565 121.065 132.38C121.409 132.195 121.802 132.102 122.242 132.102C122.931 132.102 123.446 132.28 123.787 132.635C124.131 132.987 124.303 133.552 124.303 134.33V138.302H123.381ZM129.042 138.413C128.646 138.413 128.283 138.341 127.953 138.196C127.627 138.048 127.353 137.822 127.131 137.519H127.064C127.109 137.874 127.131 138.211 127.131 138.53V141.035H126.209V132.213H126.959L127.087 133.047H127.131C127.368 132.713 127.644 132.472 127.959 132.324C128.274 132.176 128.635 132.102 129.042 132.102C129.85 132.102 130.472 132.378 130.909 132.93C131.349 133.482 131.57 134.256 131.57 135.252C131.57 136.252 131.346 137.03 130.898 137.585C130.453 138.137 129.835 138.413 129.042 138.413ZM128.909 132.885C128.287 132.885 127.837 133.058 127.559 133.402C127.281 133.746 127.139 134.295 127.131 135.046V135.252C127.131 136.108 127.274 136.72 127.559 137.091C127.844 137.457 128.301 137.641 128.931 137.641C129.457 137.641 129.868 137.428 130.164 137.002C130.464 136.576 130.614 135.989 130.614 135.241C130.614 134.482 130.464 133.9 130.164 133.497C129.868 133.089 129.45 132.885 128.909 132.885ZM136.931 138.302L136.747 137.435H136.703C136.399 137.817 136.096 138.076 135.792 138.213C135.492 138.346 135.116 138.413 134.664 138.413C134.06 138.413 133.586 138.257 133.242 137.946C132.901 137.635 132.731 137.193 132.731 136.619C132.731 135.389 133.714 134.745 135.681 134.685L136.714 134.652V134.274C136.714 133.796 136.61 133.445 136.403 133.219C136.199 132.989 135.872 132.874 135.42 132.874C134.912 132.874 134.338 133.03 133.698 133.341L133.414 132.635C133.714 132.472 134.042 132.345 134.398 132.252C134.757 132.16 135.116 132.113 135.475 132.113C136.201 132.113 136.738 132.274 137.086 132.597C137.438 132.919 137.614 133.435 137.614 134.146V138.302H136.931ZM134.848 137.652C135.422 137.652 135.872 137.495 136.197 137.18C136.527 136.865 136.692 136.424 136.692 135.858V135.308L135.77 135.346C135.036 135.372 134.507 135.487 134.181 135.691C133.859 135.891 133.698 136.204 133.698 136.63C133.698 136.963 133.798 137.217 133.998 137.391C134.201 137.565 134.485 137.652 134.848 137.652ZM140.442 138.302H139.52V132.213H140.442V138.302ZM139.442 130.563C139.442 130.352 139.494 130.198 139.597 130.102C139.701 130.002 139.831 129.952 139.986 129.952C140.134 129.952 140.262 130.002 140.37 130.102C140.477 130.202 140.531 130.356 140.531 130.563C140.531 130.771 140.477 130.926 140.37 131.03C140.262 131.13 140.134 131.18 139.986 131.18C139.831 131.18 139.701 131.13 139.597 131.03C139.494 130.926 139.442 130.771 139.442 130.563ZM147.38 132.213V132.797L146.253 132.93C146.356 133.059 146.449 133.23 146.53 133.441C146.612 133.648 146.653 133.884 146.653 134.146C146.653 134.743 146.449 135.219 146.042 135.574C145.634 135.93 145.075 136.108 144.364 136.108C144.182 136.108 144.012 136.093 143.853 136.063C143.46 136.27 143.264 136.532 143.264 136.846C143.264 137.013 143.332 137.137 143.469 137.219C143.606 137.296 143.842 137.335 144.175 137.335H145.253C145.912 137.335 146.417 137.474 146.769 137.752C147.125 138.03 147.303 138.433 147.303 138.963C147.303 139.637 147.032 140.15 146.492 140.502C145.951 140.857 145.162 141.035 144.125 141.035C143.329 141.035 142.714 140.887 142.281 140.591C141.851 140.294 141.636 139.876 141.636 139.335C141.636 138.965 141.755 138.644 141.992 138.374C142.229 138.104 142.562 137.92 142.992 137.824C142.836 137.754 142.705 137.644 142.597 137.496C142.494 137.348 142.442 137.176 142.442 136.98C142.442 136.757 142.501 136.563 142.619 136.396C142.738 136.23 142.925 136.069 143.181 135.913C142.866 135.783 142.608 135.563 142.408 135.252C142.212 134.941 142.114 134.585 142.114 134.185C142.114 133.519 142.314 133.006 142.714 132.647C143.114 132.284 143.681 132.102 144.414 132.102C144.732 132.102 145.019 132.139 145.275 132.213H147.38ZM142.525 139.324C142.525 139.654 142.664 139.904 142.942 140.074C143.219 140.244 143.618 140.33 144.136 140.33C144.91 140.33 145.482 140.213 145.853 139.98C146.227 139.75 146.414 139.437 146.414 139.041C146.414 138.711 146.312 138.482 146.108 138.352C145.905 138.226 145.521 138.163 144.958 138.163H143.853C143.434 138.163 143.108 138.263 142.875 138.463C142.642 138.663 142.525 138.95 142.525 139.324ZM143.025 134.163C143.025 134.589 143.145 134.911 143.386 135.13C143.627 135.348 143.962 135.458 144.392 135.458C145.292 135.458 145.742 135.021 145.742 134.146C145.742 133.232 145.286 132.774 144.375 132.774C143.942 132.774 143.608 132.891 143.375 133.124C143.142 133.358 143.025 133.704 143.025 134.163ZM152.797 138.302V134.363C152.797 133.867 152.684 133.497 152.458 133.252C152.232 133.008 151.878 132.885 151.397 132.885C150.76 132.885 150.293 133.058 149.997 133.402C149.701 133.746 149.553 134.315 149.553 135.108V138.302H148.63V132.213H149.38L149.53 133.047H149.575C149.764 132.747 150.028 132.515 150.369 132.352C150.71 132.185 151.089 132.102 151.508 132.102C152.241 132.102 152.793 132.28 153.163 132.635C153.534 132.987 153.719 133.552 153.719 134.33V138.302H152.797ZM162.308 138.302L159.552 131.102H159.508C159.56 131.672 159.585 132.35 159.585 133.135V138.302H158.713V130.18H160.135L162.708 136.88H162.752L165.346 130.18H166.757V138.302H165.813V133.069C165.813 132.469 165.839 131.817 165.891 131.113H165.846L163.069 138.302H162.308ZM172.596 138.302L172.413 137.435H172.368C172.065 137.817 171.761 138.076 171.457 138.213C171.157 138.346 170.781 138.413 170.33 138.413C169.726 138.413 169.252 138.257 168.907 137.946C168.567 137.635 168.396 137.193 168.396 136.619C168.396 135.389 169.38 134.745 171.346 134.685L172.379 134.652V134.274C172.379 133.796 172.276 133.445 172.068 133.219C171.865 132.989 171.537 132.874 171.085 132.874C170.578 132.874 170.004 133.03 169.363 133.341L169.08 132.635C169.38 132.472 169.707 132.345 170.063 132.252C170.422 132.16 170.781 132.113 171.141 132.113C171.867 132.113 172.404 132.274 172.752 132.597C173.103 132.919 173.279 133.435 173.279 134.146V138.302H172.596ZM170.513 137.652C171.087 137.652 171.537 137.495 171.863 137.18C172.192 136.865 172.357 136.424 172.357 135.858V135.308L171.435 135.346C170.702 135.372 170.172 135.487 169.846 135.691C169.524 135.891 169.363 136.204 169.363 136.63C169.363 136.963 169.463 137.217 169.663 137.391C169.867 137.565 170.15 137.652 170.513 137.652ZM179.351 138.302V134.363C179.351 133.867 179.238 133.497 179.013 133.252C178.787 133.008 178.433 132.885 177.951 132.885C177.314 132.885 176.848 133.058 176.552 133.402C176.255 133.746 176.107 134.315 176.107 135.108V138.302H175.185V132.213H175.935L176.085 133.047H176.129C176.318 132.747 176.583 132.515 176.924 132.352C177.264 132.185 177.644 132.102 178.063 132.102C178.796 132.102 179.348 132.28 179.718 132.635C180.088 132.987 180.274 133.552 180.274 134.33V138.302H179.351ZM185.918 138.302L185.735 137.435H185.69C185.386 137.817 185.083 138.076 184.779 138.213C184.479 138.346 184.103 138.413 183.651 138.413C183.048 138.413 182.574 138.257 182.229 137.946C181.888 137.635 181.718 137.193 181.718 136.619C181.718 135.389 182.701 134.745 184.668 134.685L185.701 134.652V134.274C185.701 133.796 185.597 133.445 185.39 133.219C185.186 132.989 184.859 132.874 184.407 132.874C183.899 132.874 183.325 133.03 182.685 133.341L182.401 132.635C182.701 132.472 183.029 132.345 183.385 132.252C183.744 132.16 184.103 132.113 184.462 132.113C185.188 132.113 185.725 132.274 186.073 132.597C186.425 132.919 186.601 133.435 186.601 134.146V138.302H185.918ZM183.835 137.652C184.409 137.652 184.859 137.495 185.185 137.18C185.514 136.865 185.679 136.424 185.679 135.858V135.308L184.757 135.346C184.023 135.372 183.494 135.487 183.168 135.691C182.846 135.891 182.685 136.204 182.685 136.63C182.685 136.963 182.785 137.217 182.985 137.391C183.188 137.565 183.472 137.652 183.835 137.652ZM193.49 132.213V132.797L192.362 132.93C192.466 133.059 192.558 133.23 192.64 133.441C192.721 133.648 192.762 133.884 192.762 134.146C192.762 134.743 192.558 135.219 192.151 135.574C191.744 135.93 191.184 136.108 190.473 136.108C190.292 136.108 190.121 136.093 189.962 136.063C189.57 136.27 189.373 136.532 189.373 136.846C189.373 137.013 189.442 137.137 189.579 137.219C189.716 137.296 189.951 137.335 190.284 137.335H191.362C192.021 137.335 192.527 137.474 192.879 137.752C193.234 138.03 193.412 138.433 193.412 138.963C193.412 139.637 193.142 140.15 192.601 140.502C192.06 140.857 191.271 141.035 190.234 141.035C189.438 141.035 188.823 140.887 188.39 140.591C187.96 140.294 187.746 139.876 187.746 139.335C187.746 138.965 187.864 138.644 188.101 138.374C188.338 138.104 188.671 137.92 189.101 137.824C188.946 137.754 188.814 137.644 188.707 137.496C188.603 137.348 188.551 137.176 188.551 136.98C188.551 136.757 188.61 136.563 188.729 136.396C188.847 136.23 189.034 136.069 189.29 135.913C188.975 135.783 188.718 135.563 188.518 135.252C188.321 134.941 188.223 134.585 188.223 134.185C188.223 133.519 188.423 133.006 188.823 132.647C189.223 132.284 189.79 132.102 190.523 132.102C190.842 132.102 191.129 132.139 191.384 132.213H193.49ZM188.634 139.324C188.634 139.654 188.773 139.904 189.051 140.074C189.329 140.244 189.727 140.33 190.245 140.33C191.02 140.33 191.592 140.213 191.962 139.98C192.336 139.75 192.523 139.437 192.523 139.041C192.523 138.711 192.421 138.482 192.218 138.352C192.014 138.226 191.631 138.163 191.068 138.163H189.962C189.544 138.163 189.218 138.263 188.984 138.463C188.751 138.663 188.634 138.95 188.634 139.324ZM189.134 134.163C189.134 134.589 189.255 134.911 189.495 135.13C189.736 135.348 190.071 135.458 190.501 135.458C191.401 135.458 191.851 135.021 191.851 134.146C191.851 133.232 191.395 132.774 190.484 132.774C190.051 132.774 189.718 132.891 189.484 133.124C189.251 133.358 189.134 133.704 189.134 134.163ZM197.312 138.413C196.412 138.413 195.701 138.139 195.179 137.591C194.66 137.043 194.401 136.282 194.401 135.308C194.401 134.326 194.642 133.546 195.123 132.969C195.608 132.391 196.258 132.102 197.073 132.102C197.836 132.102 198.44 132.354 198.884 132.858C199.328 133.358 199.551 134.019 199.551 134.841V135.424H195.356C195.375 136.139 195.555 136.682 195.895 137.052C196.24 137.422 196.723 137.607 197.345 137.607C198.001 137.607 198.649 137.47 199.29 137.196V138.019C198.964 138.159 198.654 138.259 198.362 138.319C198.073 138.382 197.723 138.413 197.312 138.413ZM197.062 132.874C196.573 132.874 196.182 133.034 195.89 133.352C195.601 133.671 195.43 134.111 195.379 134.674H198.562C198.562 134.093 198.432 133.648 198.173 133.341C197.914 133.03 197.543 132.874 197.062 132.874ZM203.906 132.102C204.176 132.102 204.419 132.124 204.634 132.169L204.506 133.024C204.254 132.969 204.032 132.941 203.839 132.941C203.347 132.941 202.925 133.141 202.573 133.541C202.225 133.941 202.051 134.439 202.051 135.035V138.302H201.128V132.213H201.889L201.995 133.341H202.039C202.265 132.945 202.538 132.639 202.856 132.424C203.175 132.21 203.525 132.102 203.906 132.102Z" fill="black"/>
<path d="M108.415 169.906H107.471V166.084H103.193V169.906H102.249V161.784H103.193V165.239H107.471V161.784H108.415V169.906ZM115.765 166.856C115.765 167.848 115.515 168.624 115.015 169.183C114.515 169.739 113.824 170.017 112.943 170.017C112.398 170.017 111.915 169.889 111.493 169.633C111.071 169.378 110.745 169.011 110.515 168.533C110.285 168.056 110.171 167.496 110.171 166.856C110.171 165.863 110.419 165.091 110.915 164.539C111.411 163.984 112.1 163.706 112.982 163.706C113.833 163.706 114.509 163.989 115.009 164.556C115.513 165.122 115.765 165.889 115.765 166.856ZM111.126 166.856C111.126 167.634 111.282 168.226 111.593 168.633C111.904 169.041 112.361 169.245 112.965 169.245C113.569 169.245 114.026 169.043 114.337 168.639C114.652 168.232 114.809 167.637 114.809 166.856C114.809 166.082 114.652 165.495 114.337 165.095C114.026 164.691 113.565 164.489 112.954 164.489C112.35 164.489 111.895 164.687 111.587 165.084C111.28 165.48 111.126 166.071 111.126 166.856ZM118.309 169.906H117.387V161.262H118.309V169.906ZM121.187 169.906H120.265V163.817H121.187V169.906ZM120.187 162.167C120.187 161.956 120.239 161.802 120.342 161.706C120.446 161.606 120.576 161.556 120.731 161.556C120.88 161.556 121.007 161.606 121.115 161.706C121.222 161.806 121.276 161.96 121.276 162.167C121.276 162.374 121.222 162.53 121.115 162.634C121.007 162.734 120.88 162.784 120.731 162.784C120.576 162.784 120.446 162.734 120.342 162.634C120.239 162.53 120.187 162.374 120.187 162.167ZM127.287 169.089H127.237C126.811 169.708 126.174 170.017 125.326 170.017C124.529 170.017 123.909 169.745 123.465 169.2C123.024 168.656 122.804 167.882 122.804 166.878C122.804 165.874 123.026 165.095 123.47 164.539C123.915 163.984 124.533 163.706 125.326 163.706C126.152 163.706 126.785 164.006 127.226 164.606H127.298L127.259 164.167L127.237 163.739V161.262H128.159V169.906H127.409L127.287 169.089ZM125.442 169.245C126.072 169.245 126.527 169.074 126.809 168.733C127.094 168.389 127.237 167.835 127.237 167.072V166.878C127.237 166.015 127.092 165.4 126.803 165.034C126.518 164.663 126.061 164.478 125.431 164.478C124.89 164.478 124.476 164.689 124.187 165.111C123.902 165.53 123.759 166.122 123.759 166.889C123.759 167.667 123.902 168.254 124.187 168.65C124.472 169.046 124.89 169.245 125.442 169.245ZM133.864 169.906L133.681 169.039H133.636C133.333 169.42 133.029 169.68 132.725 169.817C132.425 169.95 132.049 170.017 131.598 170.017C130.994 170.017 130.52 169.861 130.175 169.55C129.835 169.239 129.664 168.796 129.664 168.222C129.664 166.993 130.648 166.348 132.614 166.289L133.648 166.256V165.878C133.648 165.4 133.544 165.048 133.336 164.823C133.133 164.593 132.805 164.478 132.353 164.478C131.846 164.478 131.272 164.634 130.631 164.945L130.348 164.239C130.648 164.076 130.975 163.948 131.331 163.856C131.69 163.763 132.049 163.717 132.409 163.717C133.135 163.717 133.672 163.878 134.02 164.2C134.372 164.523 134.548 165.039 134.548 165.75V169.906H133.864ZM131.781 169.256C132.355 169.256 132.805 169.098 133.131 168.783C133.461 168.469 133.625 168.028 133.625 167.461V166.911L132.703 166.95C131.97 166.976 131.44 167.091 131.114 167.295C130.792 167.495 130.631 167.808 130.631 168.233C130.631 168.567 130.731 168.821 130.931 168.995C131.135 169.169 131.418 169.256 131.781 169.256ZM135.486 163.817H136.475L137.809 167.289C138.101 168.082 138.283 168.654 138.353 169.006H138.397C138.446 168.817 138.546 168.495 138.697 168.039C138.853 167.58 139.357 166.172 140.208 163.817H141.197L138.581 170.75C138.321 171.435 138.018 171.92 137.67 172.206C137.325 172.494 136.901 172.639 136.397 172.639C136.116 172.639 135.838 172.607 135.564 172.544V171.806C135.768 171.85 135.996 171.872 136.247 171.872C136.881 171.872 137.333 171.517 137.603 170.806L137.942 169.939L135.486 163.817ZM150.43 164.15C150.43 164.973 150.149 165.606 149.586 166.05C149.027 166.491 148.225 166.711 147.18 166.711H146.225V169.906H145.28V161.784H147.386C149.415 161.784 150.43 162.573 150.43 164.15ZM146.225 165.9H147.075C147.912 165.9 148.517 165.765 148.891 165.495C149.265 165.224 149.453 164.791 149.453 164.195C149.453 163.658 149.277 163.258 148.925 162.995C148.573 162.732 148.025 162.6 147.28 162.6H146.225V165.9ZM152.919 169.906H151.997V161.262H152.919V169.906ZM158.619 169.906L158.436 169.039H158.391C158.087 169.42 157.784 169.68 157.48 169.817C157.18 169.95 156.804 170.017 156.352 170.017C155.749 170.017 155.275 169.861 154.93 169.55C154.589 169.239 154.419 168.796 154.419 168.222C154.419 166.993 155.402 166.348 157.369 166.289L158.402 166.256V165.878C158.402 165.4 158.298 165.048 158.091 164.823C157.887 164.593 157.56 164.478 157.108 164.478C156.6 164.478 156.026 164.634 155.386 164.945L155.102 164.239C155.402 164.076 155.73 163.948 156.086 163.856C156.445 163.763 156.804 163.717 157.163 163.717C157.889 163.717 158.426 163.878 158.774 164.2C159.126 164.523 159.302 165.039 159.302 165.75V169.906H158.619ZM156.536 169.256C157.11 169.256 157.56 169.098 157.886 168.783C158.215 168.469 158.38 168.028 158.38 167.461V166.911L157.458 166.95C156.724 166.976 156.195 167.091 155.869 167.295C155.547 167.495 155.386 167.808 155.386 168.233C155.386 168.567 155.486 168.821 155.686 168.995C155.889 169.169 156.173 169.256 156.536 169.256ZM165.374 169.906V165.967C165.374 165.471 165.261 165.1 165.035 164.856C164.809 164.611 164.456 164.489 163.974 164.489C163.337 164.489 162.871 164.661 162.574 165.006C162.278 165.35 162.13 165.919 162.13 166.711V169.906H161.208V163.817H161.958L162.108 164.65H162.152C162.341 164.35 162.606 164.119 162.946 163.956C163.287 163.789 163.667 163.706 164.085 163.706C164.819 163.706 165.37 163.884 165.741 164.239C166.111 164.591 166.296 165.156 166.296 165.934V169.906H165.374ZM172.363 169.906V165.967C172.363 165.471 172.25 165.1 172.024 164.856C171.798 164.611 171.444 164.489 170.963 164.489C170.326 164.489 169.859 164.661 169.563 165.006C169.267 165.35 169.118 165.919 169.118 166.711V169.906H168.196V163.817H168.946L169.096 164.65H169.141C169.33 164.35 169.594 164.119 169.935 163.956C170.276 163.789 170.655 163.706 171.074 163.706C171.807 163.706 172.359 163.884 172.729 164.239C173.1 164.591 173.285 165.156 173.285 165.934V169.906H172.363ZM177.757 170.017C176.857 170.017 176.146 169.743 175.624 169.195C175.105 168.646 174.846 167.885 174.846 166.911C174.846 165.93 175.087 165.15 175.568 164.573C176.053 163.995 176.703 163.706 177.518 163.706C178.281 163.706 178.885 163.958 179.329 164.461C179.774 164.961 179.996 165.622 179.996 166.445V167.028H175.802C175.82 167.743 176 168.285 176.34 168.656C176.685 169.026 177.168 169.211 177.79 169.211C178.446 169.211 179.094 169.074 179.735 168.8V169.622C179.409 169.763 179.1 169.863 178.807 169.922C178.518 169.985 178.168 170.017 177.757 170.017ZM177.507 164.478C177.018 164.478 176.627 164.637 176.335 164.956C176.046 165.274 175.876 165.715 175.824 166.278H179.007C179.007 165.697 178.877 165.252 178.618 164.945C178.359 164.634 177.989 164.478 177.507 164.478ZM184.351 163.706C184.622 163.706 184.864 163.728 185.079 163.773L184.951 164.628C184.699 164.573 184.477 164.545 184.285 164.545C183.792 164.545 183.37 164.745 183.018 165.145C182.67 165.545 182.496 166.043 182.496 166.639V169.906H181.574V163.817H182.335L182.44 164.945H182.485C182.711 164.548 182.983 164.243 183.301 164.028C183.62 163.813 183.97 163.706 184.351 163.706Z" fill="black"/>
<path d="M107.399 195.754C107.399 196.576 107.117 197.21 106.554 197.654C105.995 198.095 105.193 198.315 104.149 198.315H103.193V201.509H102.249V193.388H104.354C106.384 193.388 107.399 194.176 107.399 195.754ZM103.193 197.504H104.043C104.88 197.504 105.486 197.369 105.86 197.098C106.234 196.828 106.421 196.395 106.421 195.799C106.421 195.262 106.245 194.862 105.893 194.599C105.541 194.336 104.993 194.204 104.249 194.204H103.193V197.504ZM111.743 195.31C112.013 195.31 112.256 195.332 112.471 195.376L112.343 196.232C112.091 196.176 111.869 196.149 111.676 196.149C111.184 196.149 110.761 196.349 110.41 196.748C110.061 197.148 109.887 197.647 109.887 198.243V201.509H108.965V195.421H109.726L109.832 196.549H109.876C110.102 196.152 110.374 195.847 110.693 195.632C111.011 195.417 111.361 195.31 111.743 195.31ZM118.865 198.46C118.865 199.452 118.615 200.228 118.115 200.787C117.615 201.343 116.924 201.621 116.043 201.621C115.498 201.621 115.015 201.493 114.593 201.237C114.17 200.982 113.845 200.615 113.615 200.137C113.385 199.659 113.271 199.1 113.271 198.46C113.271 197.467 113.519 196.695 114.015 196.143C114.511 195.587 115.2 195.31 116.082 195.31C116.933 195.31 117.609 195.593 118.109 196.16C118.613 196.726 118.865 197.493 118.865 198.46ZM114.226 198.46C114.226 199.237 114.382 199.83 114.693 200.237C115.004 200.645 115.461 200.848 116.065 200.848C116.669 200.848 117.126 200.646 117.437 200.243C117.752 199.835 117.909 199.241 117.909 198.46C117.909 197.685 117.752 197.098 117.437 196.698C117.126 196.295 116.665 196.093 116.054 196.093C115.45 196.093 114.995 196.291 114.687 196.687C114.38 197.084 114.226 197.674 114.226 198.46ZM119.748 204.243C119.396 204.243 119.111 204.196 118.893 204.104V203.354C119.148 203.428 119.4 203.465 119.648 203.465C119.937 203.465 120.148 203.385 120.281 203.226C120.418 203.07 120.487 202.832 120.487 202.509V195.421H121.409V202.443C121.409 203.643 120.855 204.243 119.748 204.243ZM120.409 193.771C120.409 193.56 120.461 193.406 120.565 193.31C120.668 193.21 120.798 193.16 120.954 193.16C121.102 193.16 121.229 193.21 121.337 193.31C121.444 193.41 121.498 193.563 121.498 193.771C121.498 193.978 121.444 194.134 121.337 194.237C121.229 194.337 121.102 194.387 120.954 194.387C120.798 194.387 120.668 194.337 120.565 194.237C120.461 194.134 120.409 193.978 120.409 193.771ZM125.937 201.621C125.037 201.621 124.326 201.346 123.803 200.798C123.285 200.25 123.026 199.489 123.026 198.515C123.026 197.534 123.266 196.754 123.748 196.176C124.233 195.599 124.883 195.31 125.698 195.31C126.461 195.31 127.064 195.562 127.509 196.065C127.953 196.565 128.176 197.226 128.176 198.048V198.632H123.981C124 199.347 124.179 199.889 124.52 200.259C124.865 200.63 125.348 200.815 125.97 200.815C126.626 200.815 127.274 200.678 127.914 200.404V201.226C127.589 201.367 127.279 201.467 126.987 201.526C126.698 201.589 126.348 201.621 125.937 201.621ZM125.687 196.082C125.198 196.082 124.807 196.241 124.515 196.56C124.226 196.878 124.055 197.319 124.003 197.882H127.187C127.187 197.3 127.057 196.856 126.798 196.549C126.539 196.237 126.168 196.082 125.687 196.082ZM132.186 201.621C131.305 201.621 130.622 201.35 130.137 200.809C129.655 200.265 129.414 199.497 129.414 198.504C129.414 197.486 129.659 196.698 130.148 196.143C130.64 195.587 131.34 195.31 132.248 195.31C132.54 195.31 132.833 195.341 133.125 195.404C133.418 195.467 133.648 195.541 133.814 195.626L133.531 196.41C133.327 196.328 133.105 196.261 132.864 196.21C132.624 196.154 132.411 196.126 132.225 196.126C130.988 196.126 130.37 196.915 130.37 198.493C130.37 199.241 130.52 199.815 130.82 200.215C131.124 200.615 131.572 200.815 132.164 200.815C132.672 200.815 133.192 200.706 133.725 200.487V201.304C133.318 201.515 132.805 201.621 132.186 201.621ZM137.142 200.859C137.305 200.859 137.462 200.848 137.614 200.826C137.766 200.8 137.886 200.774 137.975 200.748V201.454C137.875 201.502 137.727 201.541 137.531 201.571C137.338 201.604 137.164 201.621 137.009 201.621C135.831 201.621 135.242 201 135.242 199.759V196.137H134.37V195.693L135.242 195.31L135.631 194.01H136.164V195.421H137.931V196.137H136.164V199.721C136.164 200.087 136.251 200.369 136.425 200.565C136.599 200.761 136.838 200.859 137.142 200.859ZM147.441 195.754C147.441 196.576 147.16 197.21 146.597 197.654C146.038 198.095 145.236 198.315 144.192 198.315H143.236V201.509H142.292V193.388H144.397C146.427 193.388 147.441 194.176 147.441 195.754ZM143.236 197.504H144.086C144.923 197.504 145.529 197.369 145.903 197.098C146.277 196.828 146.464 196.395 146.464 195.799C146.464 195.262 146.288 194.862 145.936 194.599C145.584 194.336 145.036 194.204 144.292 194.204H143.236V197.504ZM149.93 201.509H149.008V192.865H149.93V201.509ZM155.63 201.509L155.447 200.643H155.402C155.099 201.024 154.795 201.284 154.491 201.421C154.191 201.554 153.815 201.621 153.363 201.621C152.76 201.621 152.286 201.465 151.941 201.154C151.601 200.843 151.43 200.4 151.43 199.826C151.43 198.597 152.414 197.952 154.38 197.893L155.413 197.86V197.482C155.413 197.004 155.31 196.652 155.102 196.426C154.899 196.197 154.571 196.082 154.119 196.082C153.612 196.082 153.038 196.237 152.397 196.549L152.114 195.843C152.414 195.68 152.741 195.552 153.097 195.46C153.456 195.367 153.815 195.321 154.175 195.321C154.9 195.321 155.437 195.482 155.786 195.804C156.137 196.126 156.313 196.643 156.313 197.354V201.509H155.63ZM153.547 200.859C154.121 200.859 154.571 200.702 154.897 200.387C155.226 200.072 155.391 199.632 155.391 199.065V198.515L154.469 198.554C153.736 198.58 153.206 198.695 152.88 198.898C152.558 199.098 152.397 199.411 152.397 199.837C152.397 200.171 152.497 200.424 152.697 200.598C152.901 200.772 153.184 200.859 153.547 200.859ZM162.385 201.509V197.571C162.385 197.074 162.272 196.704 162.047 196.46C161.821 196.215 161.467 196.093 160.985 196.093C160.348 196.093 159.882 196.265 159.585 196.61C159.289 196.954 159.141 197.523 159.141 198.315V201.509H158.219V195.421H158.969L159.119 196.254H159.163C159.352 195.954 159.617 195.723 159.958 195.56C160.298 195.393 160.678 195.31 161.097 195.31C161.83 195.31 162.382 195.487 162.752 195.843C163.122 196.195 163.308 196.76 163.308 197.537V201.509H162.385ZM169.374 201.509V197.571C169.374 197.074 169.261 196.704 169.035 196.46C168.809 196.215 168.456 196.093 167.974 196.093C167.337 196.093 166.87 196.265 166.574 196.61C166.278 196.954 166.13 197.523 166.13 198.315V201.509H165.207V195.421H165.957L166.107 196.254H166.152C166.341 195.954 166.606 195.723 166.946 195.56C167.287 195.393 167.667 195.31 168.085 195.31C168.818 195.31 169.37 195.487 169.741 195.843C170.111 196.195 170.296 196.76 170.296 197.537V201.509H169.374ZM174.768 201.621C173.868 201.621 173.157 201.346 172.635 200.798C172.116 200.25 171.857 199.489 171.857 198.515C171.857 197.534 172.098 196.754 172.579 196.176C173.065 195.599 173.715 195.31 174.529 195.31C175.292 195.31 175.896 195.562 176.34 196.065C176.785 196.565 177.007 197.226 177.007 198.048V198.632H172.813C172.831 199.347 173.011 199.889 173.352 200.259C173.696 200.63 174.179 200.815 174.802 200.815C175.457 200.815 176.105 200.678 176.746 200.404V201.226C176.42 201.367 176.111 201.467 175.818 201.526C175.529 201.589 175.179 201.621 174.768 201.621ZM174.518 196.082C174.029 196.082 173.639 196.241 173.346 196.56C173.057 196.878 172.887 197.319 172.835 197.882H176.018C176.018 197.3 175.889 196.856 175.629 196.549C175.37 196.237 175 196.082 174.518 196.082ZM181.362 195.31C181.633 195.31 181.875 195.332 182.09 195.376L181.962 196.232C181.711 196.176 181.488 196.149 181.296 196.149C180.803 196.149 180.381 196.349 180.029 196.748C179.681 197.148 179.507 197.647 179.507 198.243V201.509H178.585V195.421H179.346L179.451 196.549H179.496C179.722 196.152 179.994 195.847 180.312 195.632C180.631 195.417 180.981 195.31 181.362 195.31Z" fill="black"/>
<path d="M102.249 233.113V224.991H103.193V233.113H102.249ZM109.454 233.113V229.174C109.454 228.678 109.341 228.308 109.115 228.063C108.889 227.819 108.536 227.697 108.054 227.697C107.417 227.697 106.95 227.869 106.654 228.213C106.358 228.558 106.21 229.126 106.21 229.919V233.113H105.287V227.025H106.037L106.187 227.858H106.232C106.421 227.558 106.686 227.326 107.026 227.163C107.367 226.997 107.747 226.913 108.165 226.913C108.898 226.913 109.45 227.091 109.821 227.447C110.191 227.799 110.376 228.363 110.376 229.141V233.113H109.454ZM114.243 232.463C114.406 232.463 114.563 232.452 114.715 232.43C114.867 232.404 114.987 232.378 115.076 232.352V233.058C114.976 233.106 114.828 233.145 114.632 233.174C114.439 233.208 114.265 233.224 114.109 233.224C112.932 233.224 112.343 232.604 112.343 231.363V227.741H111.471V227.297L112.343 226.913L112.732 225.613H113.265V227.025H115.032V227.741H113.265V231.324C113.265 231.691 113.352 231.973 113.526 232.169C113.7 232.365 113.939 232.463 114.243 232.463ZM118.87 233.224C117.97 233.224 117.259 232.95 116.737 232.402C116.219 231.854 115.959 231.093 115.959 230.119C115.959 229.137 116.2 228.358 116.682 227.78C117.167 227.202 117.817 226.913 118.631 226.913C119.394 226.913 119.998 227.165 120.442 227.669C120.887 228.169 121.109 228.83 121.109 229.652V230.236H116.915C116.933 230.95 117.113 231.493 117.454 231.863C117.798 232.234 118.281 232.419 118.904 232.419C119.559 232.419 120.207 232.282 120.848 232.008V232.83C120.522 232.971 120.213 233.071 119.92 233.13C119.631 233.193 119.281 233.224 118.87 233.224ZM118.62 227.686C118.131 227.686 117.741 227.845 117.448 228.163C117.159 228.482 116.989 228.923 116.937 229.486H120.12C120.12 228.904 119.991 228.46 119.731 228.152C119.472 227.841 119.102 227.686 118.62 227.686ZM125.465 226.913C125.735 226.913 125.977 226.936 126.192 226.98L126.064 227.836C125.813 227.78 125.59 227.752 125.398 227.752C124.905 227.752 124.483 227.952 124.131 228.352C123.783 228.752 123.609 229.25 123.609 229.847V233.113H122.687V227.025H123.448L123.553 228.152H123.598C123.824 227.756 124.096 227.45 124.415 227.236C124.733 227.021 125.083 226.913 125.465 226.913ZM131.498 233.113V229.174C131.498 228.678 131.385 228.308 131.159 228.063C130.933 227.819 130.579 227.697 130.098 227.697C129.461 227.697 128.994 227.869 128.698 228.213C128.401 228.558 128.253 229.126 128.253 229.919V233.113H127.331V227.025H128.081L128.231 227.858H128.276C128.464 227.558 128.729 227.326 129.07 227.163C129.411 226.997 129.79 226.913 130.209 226.913C130.942 226.913 131.494 227.091 131.864 227.447C132.235 227.799 132.42 228.363 132.42 229.141V233.113H131.498ZM138.064 233.113L137.881 232.247H137.836C137.533 232.628 137.229 232.887 136.925 233.024C136.625 233.158 136.249 233.224 135.797 233.224C135.194 233.224 134.72 233.069 134.375 232.758C134.035 232.447 133.864 232.004 133.864 231.43C133.864 230.2 134.848 229.556 136.814 229.497L137.847 229.463V229.086C137.847 228.608 137.744 228.256 137.536 228.03C137.333 227.8 137.005 227.686 136.553 227.686C136.046 227.686 135.472 227.841 134.831 228.152L134.548 227.447C134.848 227.284 135.175 227.156 135.531 227.063C135.89 226.971 136.249 226.925 136.609 226.925C137.334 226.925 137.871 227.086 138.22 227.408C138.571 227.73 138.747 228.247 138.747 228.958V233.113H138.064ZM135.981 232.463C136.555 232.463 137.005 232.306 137.331 231.991C137.66 231.676 137.825 231.235 137.825 230.669V230.119L136.903 230.158C136.17 230.184 135.64 230.298 135.314 230.502C134.992 230.702 134.831 231.015 134.831 231.441C134.831 231.774 134.931 232.028 135.131 232.202C135.335 232.376 135.618 232.463 135.981 232.463ZM141.575 233.113H140.653V224.469H141.575V233.113ZM151.208 230.952C151.208 231.667 150.949 232.224 150.43 232.624C149.912 233.024 149.208 233.224 148.319 233.224C147.356 233.224 146.616 233.1 146.097 232.852V231.941C146.43 232.082 146.793 232.193 147.186 232.274C147.579 232.356 147.967 232.397 148.353 232.397C148.982 232.397 149.456 232.278 149.775 232.041C150.093 231.8 150.252 231.467 150.252 231.041C150.252 230.76 150.195 230.53 150.08 230.352C149.969 230.171 149.78 230.004 149.514 229.852C149.251 229.7 148.849 229.528 148.308 229.336C147.553 229.065 147.012 228.745 146.686 228.374C146.364 228.004 146.203 227.521 146.203 226.925C146.203 226.299 146.438 225.801 146.908 225.43C147.379 225.06 148.001 224.875 148.775 224.875C149.582 224.875 150.325 225.023 151.002 225.319L150.708 226.141C150.038 225.86 149.386 225.719 148.753 225.719C148.253 225.719 147.862 225.826 147.58 226.041C147.299 226.256 147.158 226.554 147.158 226.936C147.158 227.217 147.21 227.449 147.314 227.63C147.417 227.808 147.591 227.973 147.836 228.124C148.084 228.273 148.462 228.437 148.969 228.619C149.821 228.923 150.406 229.249 150.725 229.597C151.047 229.945 151.208 230.397 151.208 230.952ZM153.597 227.025V230.974C153.597 231.471 153.71 231.841 153.936 232.085C154.162 232.33 154.515 232.452 154.997 232.452C155.634 232.452 156.099 232.278 156.391 231.93C156.687 231.582 156.836 231.013 156.836 230.224V227.025H157.758V233.113H156.997L156.863 232.297H156.813C156.624 232.597 156.362 232.826 156.025 232.985C155.691 233.145 155.31 233.224 154.88 233.224C154.139 233.224 153.584 233.048 153.213 232.697C152.847 232.345 152.664 231.782 152.664 231.008V227.025H153.597ZM162.496 226.913C162.767 226.913 163.009 226.936 163.224 226.98L163.096 227.836C162.845 227.78 162.622 227.752 162.43 227.752C161.937 227.752 161.515 227.952 161.163 228.352C160.815 228.752 160.641 229.25 160.641 229.847V233.113H159.719V227.025H160.48L160.585 228.152H160.63C160.856 227.756 161.128 227.45 161.447 227.236C161.765 227.021 162.115 226.913 162.496 226.913ZM165.696 233.113L163.385 227.025H164.374L165.685 230.636C165.982 231.48 166.156 232.028 166.207 232.28H166.252C166.293 232.084 166.42 231.678 166.635 231.063C166.854 230.445 167.341 229.099 168.096 227.025H169.085L166.774 233.113H165.696ZM172.635 233.224C171.735 233.224 171.024 232.95 170.502 232.402C169.983 231.854 169.724 231.093 169.724 230.119C169.724 229.137 169.965 228.358 170.446 227.78C170.931 227.202 171.581 226.913 172.396 226.913C173.159 226.913 173.763 227.165 174.207 227.669C174.652 228.169 174.874 228.83 174.874 229.652V230.236H170.68C170.698 230.95 170.878 231.493 171.218 231.863C171.563 232.234 172.046 232.419 172.668 232.419C173.324 232.419 173.972 232.282 174.613 232.008V232.83C174.287 232.971 173.978 233.071 173.685 233.13C173.396 233.193 173.046 233.224 172.635 233.224ZM172.385 227.686C171.896 227.686 171.505 227.845 171.213 228.163C170.924 228.482 170.754 228.923 170.702 229.486H173.885C173.885 228.904 173.755 228.46 173.496 228.152C173.237 227.841 172.866 227.686 172.385 227.686ZM175.485 227.025H176.474L177.807 230.497C178.1 231.289 178.281 231.861 178.351 232.213H178.396C178.444 232.024 178.544 231.702 178.696 231.247C178.851 230.787 179.355 229.38 180.207 227.025H181.196L178.579 233.958C178.32 234.643 178.016 235.128 177.668 235.413C177.324 235.702 176.9 235.846 176.396 235.846C176.115 235.846 175.837 235.815 175.563 235.752V235.013C175.766 235.058 175.994 235.08 176.246 235.08C176.879 235.08 177.331 234.724 177.601 234.013L177.94 233.147L175.485 227.025Z" fill="black"/>
<path d="M106.776 264.717H102.249V256.595H106.776V257.434H103.193V260.05H106.56V260.884H103.193V263.873H106.776V264.717ZM116.204 264.717V260.756C116.204 260.271 116.1 259.908 115.893 259.667C115.685 259.423 115.363 259.301 114.926 259.301C114.352 259.301 113.928 259.465 113.654 259.795C113.38 260.125 113.243 260.632 113.243 261.317V264.717H112.321V260.756C112.321 260.271 112.217 259.908 112.009 259.667C111.802 259.423 111.478 259.301 111.037 259.301C110.46 259.301 110.035 259.475 109.765 259.823C109.498 260.167 109.365 260.734 109.365 261.523V264.717H108.443V258.628H109.193L109.343 259.462H109.387C109.561 259.165 109.806 258.934 110.121 258.767C110.439 258.601 110.795 258.517 111.187 258.517C112.139 258.517 112.761 258.862 113.054 259.551H113.098C113.28 259.232 113.543 258.98 113.887 258.795C114.232 258.61 114.624 258.517 115.065 258.517C115.754 258.517 116.269 258.695 116.609 259.051C116.954 259.402 117.126 259.967 117.126 260.745V264.717H116.204ZM121.865 264.828C121.468 264.828 121.105 264.756 120.776 264.611C120.45 264.463 120.176 264.237 119.954 263.934H119.887C119.931 264.289 119.954 264.626 119.954 264.945V267.45H119.031V258.628H119.781L119.909 259.462H119.954C120.191 259.128 120.467 258.888 120.781 258.739C121.096 258.591 121.457 258.517 121.865 258.517C122.672 258.517 123.294 258.793 123.731 259.345C124.172 259.897 124.392 260.671 124.392 261.667C124.392 262.667 124.168 263.445 123.72 264C123.276 264.552 122.657 264.828 121.865 264.828ZM121.731 259.301C121.109 259.301 120.659 259.473 120.381 259.817C120.104 260.162 119.961 260.71 119.954 261.462V261.667C119.954 262.523 120.096 263.136 120.381 263.506C120.667 263.873 121.124 264.056 121.754 264.056C122.279 264.056 122.691 263.843 122.987 263.417C123.287 262.991 123.437 262.404 123.437 261.656C123.437 260.897 123.287 260.315 122.987 259.912C122.691 259.504 122.272 259.301 121.731 259.301ZM126.931 264.717H126.009V256.073H126.931V264.717ZM134.142 261.667C134.142 262.66 133.892 263.436 133.392 263.995C132.892 264.55 132.201 264.828 131.32 264.828C130.775 264.828 130.292 264.7 129.87 264.445C129.448 264.189 129.122 263.823 128.892 263.345C128.663 262.867 128.548 262.308 128.548 261.667C128.548 260.675 128.796 259.902 129.292 259.351C129.788 258.795 130.477 258.517 131.359 258.517C132.211 258.517 132.886 258.801 133.386 259.367C133.89 259.934 134.142 260.7 134.142 261.667ZM129.503 261.667C129.503 262.445 129.659 263.037 129.97 263.445C130.281 263.852 130.738 264.056 131.342 264.056C131.946 264.056 132.403 263.854 132.714 263.45C133.029 263.043 133.186 262.449 133.186 261.667C133.186 260.893 133.029 260.306 132.714 259.906C132.403 259.502 131.942 259.301 131.331 259.301C130.727 259.301 130.272 259.499 129.964 259.895C129.657 260.291 129.503 260.882 129.503 261.667ZM134.798 258.628H135.786L137.12 262.1C137.412 262.893 137.594 263.465 137.664 263.817H137.709C137.757 263.628 137.857 263.306 138.008 262.85C138.164 262.391 138.668 260.984 139.52 258.628H140.508L137.892 265.561C137.633 266.247 137.329 266.732 136.981 267.017C136.636 267.306 136.212 267.45 135.709 267.45C135.427 267.45 135.149 267.419 134.875 267.356V266.617C135.079 266.661 135.307 266.684 135.559 266.684C136.192 266.684 136.644 266.328 136.914 265.617L137.253 264.75L134.798 258.628ZM144.069 264.828C143.169 264.828 142.458 264.554 141.936 264.006C141.418 263.458 141.158 262.697 141.158 261.723C141.158 260.741 141.399 259.962 141.881 259.384C142.366 258.806 143.016 258.517 143.831 258.517C144.593 258.517 145.197 258.769 145.642 259.273C146.086 259.773 146.308 260.434 146.308 261.256V261.839H142.114C142.132 262.554 142.312 263.097 142.653 263.467C142.997 263.837 143.481 264.023 144.103 264.023C144.758 264.023 145.406 263.886 146.047 263.611V264.434C145.721 264.574 145.412 264.674 145.119 264.734C144.83 264.797 144.48 264.828 144.069 264.828ZM143.819 259.289C143.331 259.289 142.94 259.449 142.647 259.767C142.358 260.086 142.188 260.526 142.136 261.089H145.319C145.319 260.508 145.19 260.063 144.93 259.756C144.671 259.445 144.301 259.289 143.819 259.289ZM150.458 264.828C149.558 264.828 148.847 264.554 148.325 264.006C147.806 263.458 147.547 262.697 147.547 261.723C147.547 260.741 147.788 259.962 148.269 259.384C148.754 258.806 149.404 258.517 150.219 258.517C150.982 258.517 151.586 258.769 152.03 259.273C152.475 259.773 152.697 260.434 152.697 261.256V261.839H148.503C148.521 262.554 148.701 263.097 149.041 263.467C149.386 263.837 149.869 264.023 150.491 264.023C151.147 264.023 151.795 263.886 152.436 263.611V264.434C152.11 264.574 151.801 264.674 151.508 264.734C151.219 264.797 150.869 264.828 150.458 264.828ZM150.208 259.289C149.719 259.289 149.328 259.449 149.036 259.767C148.747 260.086 148.577 260.526 148.525 261.089H151.708C151.708 260.508 151.578 260.063 151.319 259.756C151.06 259.445 150.69 259.289 150.208 259.289ZM164.419 260.645C164.419 261.945 164.089 262.967 163.43 263.711C162.774 264.456 161.861 264.828 160.691 264.828C159.495 264.828 158.571 264.463 157.919 263.734C157.271 263 156.947 261.967 156.947 260.634C156.947 259.312 157.273 258.288 157.924 257.562C158.576 256.832 159.502 256.467 160.702 256.467C161.869 256.467 162.78 256.838 163.435 257.578C164.091 258.319 164.419 259.341 164.419 260.645ZM157.947 260.645C157.947 261.745 158.18 262.58 158.647 263.15C159.117 263.717 159.798 264 160.691 264C161.591 264 162.271 263.717 162.73 263.15C163.189 262.584 163.419 261.749 163.419 260.645C163.419 259.552 163.189 258.725 162.73 258.162C162.274 257.595 161.598 257.312 160.702 257.312C159.802 257.312 159.117 257.597 158.647 258.167C158.18 258.734 157.947 259.56 157.947 260.645ZM170.263 264.717V260.778C170.263 260.282 170.15 259.912 169.924 259.667C169.698 259.423 169.344 259.301 168.863 259.301C168.226 259.301 167.759 259.473 167.463 259.817C167.167 260.162 167.019 260.73 167.019 261.523V264.717H166.096V258.628H166.846L166.996 259.462H167.041C167.23 259.162 167.494 258.93 167.835 258.767C168.176 258.601 168.556 258.517 168.974 258.517C169.707 258.517 170.259 258.695 170.63 259.051C171 259.402 171.185 259.967 171.185 260.745V264.717H170.263ZM175.918 258.528C176.718 258.528 177.339 258.802 177.779 259.351C178.224 259.895 178.446 260.667 178.446 261.667C178.446 262.667 178.222 263.445 177.774 264C177.329 264.552 176.711 264.828 175.918 264.828C175.522 264.828 175.159 264.756 174.829 264.611C174.503 264.463 174.229 264.237 174.007 263.934H173.941L173.746 264.717H173.085V256.073H174.007V258.173C174.007 258.643 173.992 259.065 173.963 259.439H174.007C174.437 258.832 175.074 258.528 175.918 258.528ZM175.785 259.301C175.155 259.301 174.702 259.482 174.424 259.845C174.146 260.204 174.007 260.812 174.007 261.667C174.007 262.523 174.15 263.136 174.435 263.506C174.72 263.873 175.177 264.056 175.807 264.056C176.374 264.056 176.796 263.85 177.074 263.439C177.351 263.024 177.49 262.43 177.49 261.656C177.49 260.863 177.351 260.273 177.074 259.884C176.796 259.495 176.366 259.301 175.785 259.301ZM185.318 261.667C185.318 262.66 185.068 263.436 184.568 263.995C184.068 264.55 183.377 264.828 182.496 264.828C181.951 264.828 181.468 264.7 181.046 264.445C180.624 264.189 180.298 263.823 180.068 263.345C179.838 262.867 179.724 262.308 179.724 261.667C179.724 260.675 179.972 259.902 180.468 259.351C180.964 258.795 181.653 258.517 182.535 258.517C183.386 258.517 184.062 258.801 184.562 259.367C185.066 259.934 185.318 260.7 185.318 261.667ZM180.679 261.667C180.679 262.445 180.835 263.037 181.146 263.445C181.457 263.852 181.914 264.056 182.518 264.056C183.122 264.056 183.579 263.854 183.89 263.45C184.205 263.043 184.362 262.449 184.362 261.667C184.362 260.893 184.205 260.306 183.89 259.906C183.579 259.502 183.118 259.301 182.507 259.301C181.903 259.301 181.448 259.499 181.14 259.895C180.833 260.291 180.679 260.882 180.679 261.667ZM190.684 264.717L190.501 263.85H190.457C190.153 264.232 189.849 264.491 189.545 264.628C189.246 264.761 188.87 264.828 188.418 264.828C187.814 264.828 187.34 264.673 186.996 264.361C186.655 264.05 186.484 263.608 186.484 263.034C186.484 261.804 187.468 261.16 189.434 261.1L190.468 261.067V260.689C190.468 260.212 190.364 259.86 190.157 259.634C189.953 259.404 189.625 259.289 189.173 259.289C188.666 259.289 188.092 259.445 187.451 259.756L187.168 259.051C187.468 258.888 187.796 258.76 188.151 258.667C188.51 258.575 188.87 258.528 189.229 258.528C189.955 258.528 190.492 258.689 190.84 259.012C191.192 259.334 191.368 259.85 191.368 260.562V264.717H190.684ZM188.601 264.067C189.175 264.067 189.625 263.91 189.951 263.595C190.281 263.28 190.445 262.839 190.445 262.273V261.723L189.523 261.762C188.79 261.787 188.26 261.902 187.934 262.106C187.612 262.306 187.451 262.619 187.451 263.045C187.451 263.378 187.551 263.632 187.751 263.806C187.955 263.98 188.238 264.067 188.601 264.067ZM196.051 258.517C196.321 258.517 196.564 258.539 196.779 258.584L196.651 259.439C196.399 259.384 196.177 259.356 195.984 259.356C195.492 259.356 195.069 259.556 194.718 259.956C194.369 260.356 194.195 260.854 194.195 261.45V264.717H193.273V258.628H194.034L194.14 259.756H194.184C194.41 259.36 194.682 259.054 195.001 258.839C195.319 258.625 195.669 258.517 196.051 258.517ZM202.062 263.9H202.012C201.586 264.519 200.949 264.828 200.101 264.828C199.304 264.828 198.684 264.556 198.24 264.011C197.799 263.467 197.579 262.693 197.579 261.689C197.579 260.686 197.801 259.906 198.245 259.351C198.69 258.795 199.308 258.517 200.101 258.517C200.927 258.517 201.56 258.817 202.001 259.417H202.073L202.034 258.978L202.012 258.551V256.073H202.934V264.717H202.184L202.062 263.9ZM200.217 264.056C200.847 264.056 201.302 263.886 201.584 263.545C201.869 263.2 202.012 262.647 202.012 261.884V261.689C202.012 260.826 201.867 260.212 201.578 259.845C201.293 259.475 200.836 259.289 200.206 259.289C199.665 259.289 199.251 259.501 198.962 259.923C198.677 260.341 198.534 260.934 198.534 261.7C198.534 262.478 198.677 263.065 198.962 263.461C199.247 263.858 199.665 264.056 200.217 264.056ZM205.817 264.717H204.895V258.628H205.817V264.717ZM204.817 256.978C204.817 256.767 204.869 256.614 204.973 256.517C205.076 256.417 205.206 256.367 205.362 256.367C205.51 256.367 205.637 256.417 205.745 256.517C205.852 256.617 205.906 256.771 205.906 256.978C205.906 257.186 205.852 257.341 205.745 257.445C205.637 257.545 205.51 257.595 205.362 257.595C205.206 257.595 205.076 257.545 204.973 257.445C204.869 257.341 204.817 257.186 204.817 256.978ZM211.939 264.717V260.778C211.939 260.282 211.826 259.912 211.6 259.667C211.374 259.423 211.021 259.301 210.539 259.301C209.902 259.301 209.435 259.473 209.139 259.817C208.843 260.162 208.695 260.73 208.695 261.523V264.717H207.773V258.628H208.523L208.673 259.462H208.717C208.906 259.162 209.171 258.93 209.511 258.767C209.852 258.601 210.232 258.517 210.65 258.517C211.384 258.517 211.935 258.695 212.306 259.051C212.676 259.402 212.861 259.967 212.861 260.745V264.717H211.939ZM219.744 258.628V259.212L218.617 259.345C218.72 259.475 218.813 259.645 218.894 259.856C218.976 260.063 219.017 260.299 219.017 260.562C219.017 261.158 218.813 261.634 218.406 261.989C217.998 262.345 217.439 262.523 216.728 262.523C216.546 262.523 216.376 262.508 216.217 262.478C215.824 262.686 215.628 262.947 215.628 263.261C215.628 263.428 215.696 263.552 215.833 263.634C215.97 263.711 216.206 263.75 216.539 263.75H217.617C218.276 263.75 218.781 263.889 219.133 264.167C219.489 264.445 219.667 264.848 219.667 265.378C219.667 266.052 219.396 266.565 218.856 266.917C218.315 267.272 217.526 267.45 216.489 267.45C215.693 267.45 215.078 267.302 214.645 267.006C214.215 266.709 214 266.291 214 265.75C214 265.38 214.119 265.06 214.356 264.789C214.593 264.519 214.926 264.336 215.356 264.239C215.2 264.169 215.069 264.06 214.961 263.911C214.858 263.763 214.806 263.591 214.806 263.395C214.806 263.173 214.865 262.978 214.983 262.811C215.102 262.645 215.289 262.484 215.545 262.328C215.23 262.199 214.972 261.978 214.772 261.667C214.576 261.356 214.478 261 214.478 260.6C214.478 259.934 214.678 259.421 215.078 259.062C215.478 258.699 216.045 258.517 216.778 258.517C217.096 258.517 217.383 258.554 217.639 258.628H219.744ZM214.889 265.739C214.889 266.069 215.028 266.319 215.306 266.489C215.583 266.66 215.982 266.745 216.5 266.745C217.274 266.745 217.846 266.628 218.217 266.395C218.591 266.165 218.778 265.852 218.778 265.456C218.778 265.126 218.676 264.897 218.472 264.767C218.269 264.641 217.885 264.578 217.322 264.578H216.217C215.798 264.578 215.472 264.678 215.239 264.878C215.006 265.078 214.889 265.365 214.889 265.739ZM215.389 260.578C215.389 261.004 215.509 261.326 215.75 261.545C215.991 261.763 216.326 261.873 216.756 261.873C217.656 261.873 218.106 261.436 218.106 260.562C218.106 259.647 217.65 259.189 216.739 259.189C216.306 259.189 215.972 259.306 215.739 259.539C215.506 259.773 215.389 260.119 215.389 260.578Z" fill="black"/>
<defs>
<filter id="filter0_d" x="87.2265" y="24.7547" width="190.887" height="35.3962" filterUnits="userSpaceOnUse" color-interpolation-filters="sRGB">
<feFlood flood-opacity="0" result="BackgroundImageFix"/>
<feColorMatrix in="SourceAlpha" type="matrix" values="0 0 0 0 0 0 0 0 0 0 0 0 0 0 0 0 0 0 127 0" result="hardAlpha"/>
<feOffset dy="1.26415"/>
<feGaussianBlur stdDeviation="1.26415"/>
<feComposite in2="hardAlpha" operator="out"/>
<feColorMatrix type="matrix" values="0 0 0 0 0 0 0 0 0 0 0 0 0 0 0 0 0 0 0.1 0"/>
<feBlend mode="normal" in2="BackgroundImageFix" result="effect1_dropShadow"/>
<feBlend mode="normal" in="SourceGraphic" in2="effect1_dropShadow" result="shape"/>
</filter>
</defs>
</svg>
