<svg xmlns="http://www.w3.org/2000/svg" viewBox="0 0 365.09 93.72"><title>thinksmart-logo</title><g id="Layer_2" data-name="Layer 2"><g id="Layer_1-2" data-name="Layer 1"><path d="M186.88,55.73c1.27,4.05,6.67,4.92,10.56,4.92,4.15,0,10.57-1.26,10.57-6.18,0-4.23-5.11-4.57-10.46-5-6.72-.53-13.93-1.16-13.93-8.42,0-6.43,7.4-9.3,13.34-9.3,5.12,0,11.49,1.22,13.54,6.77.73,2-2.58,2.83-3.31,1.17-1.46-3.7-6.66-4.33-10.17-4.33-3.26,0-9.59,1.32-9.59,5.75,0,4.24,4.88,4.68,10.52,5.12,6.67.58,13.83.92,13.83,8.23s-8.32,9.74-14.32,9.74c-5,0-12.56-1.7-14.16-7.55-.58-2.14,3.22-2.87,3.61-.87m61.25-22.54c1.12-1.75,3.36-1.17,3.36.88v28a1.78,1.78,0,0,1-3.55,0V40L238,55.48a1.86,1.86,0,0,1-3.36,0L224.75,40V62.11a1.78,1.78,0,0,1-3.56,0v-28a1.73,1.73,0,0,1,3.32-.88l11.88,18.5,11.79-18.5Zm19,22.06L263.25,63c-.88,1.8-4.09.53-3.21-1.41l14.71-29a1.82,1.82,0,0,1,3.17,0l14.65,28.82c1.26,2.09-2.34,3.3-3.27,1.41l-3.8-7.55Zm9.15-18.4-7.69,15.33H284Zm28,15.72v9.45c0,2.24-3.55,2.24-3.55,0v-28a1.67,1.67,0,0,1,1.81-1.7h11.54c8.43,0,12.71,4.77,12.71,10.46,0,4.92-2.68,8.48-8.66,9.5l7.89,8.52a1.69,1.69,0,1,1-2.43,2.34l-9.83-10.66h-9.44Zm0-3.07h9.84c6.38,0,9.15-3,9.06-6.62-.05-4-3.41-7.2-9.05-7.2h-9.84V49.54Zm59-17.09a1.68,1.68,0,1,1,0,3.36H352.44c0,8.77.05,17.68.05,26.44a1.8,1.8,0,0,1-1.85,1.81,1.72,1.72,0,0,1-1.75-1.8V35.77H338.07a1.68,1.68,0,1,1,0-3.35H363.3ZM11.06,63.28a7.84,7.84,0,0,1-2.5-.39C5.89,62,4.05,59.73,3.1,56.08.25,45.22,24.05,16.3,26.78,13a1.71,1.71,0,1,1,2.63,2.2c-10.24,12.27-24.81,33-23,40,.65,2.48,1.7,3.93,3.21,4.42,2.07.69,6.29.06,14.75-6.75A97,97,0,0,0,40.47,36a140.81,140.81,0,0,0,10.05-15.8C55.07,12.26,59.36,4.8,65.6.32a1.72,1.72,0,0,1,2,2.79C62,7.16,58.05,14,53.51,21.87A142.89,142.89,0,0,1,43.21,38,100.18,100.18,0,0,1,26.53,55.55C20.11,60.73,15,63.28,11.05,63.28" style="fill:#1e1e1e"/><path d="M35.09,64.27l-.28,0a2,2,0,0,1-1.66-1.47c-1-3.19,6.91-22,11.69-33a1.71,1.71,0,0,1,2.26-.9A1.73,1.73,0,0,1,48,31.19C44.61,39,41.19,47.32,39,53.4,44,44.91,49,37.88,54.2,38c8.49.34,8.49,12,8.5,18.31,0,1,0,1.89,0,2.58,0,.89.25,1.53.53,1.62,1.8.57,9.32-3.9,24.85-24.7a1.72,1.72,0,0,1,2.82,2c-3.87,6-9.42,17.15-7.84,21.37a2.19,2.19,0,0,0,1.58,1.44c4.69,1.43,27.17-18.41,31.56-26.56a1.72,1.72,0,0,1,3.11,1.47c-2.91,7.09-5.88,15.09-7.54,20.41L113,53.76c4.71-8.53,10.58-19.15,16.76-20.25a5.4,5.4,0,0,1,4.71,1.17c3.54,3.09,3.25,11,3,17.41a37.07,37.07,0,0,0,0,5.69c.18,1,.82,2.76,2.07,2.95,1.48.22,7.32-1,20.5-26.46,14.77-28.5,20.76-31.82,21.39-32.1a1.72,1.72,0,0,1,1.4,3.15c-.15.09-5.71,3.46-19.74,30.54C152.8,55.76,144.92,65,139.06,64.13c-3-.44-4.5-3.25-4.95-5.73A35.68,35.68,0,0,1,134,52c.17-4.74.47-12.68-1.83-14.68a2,2,0,0,0-1.85-.38c-4.57.81-10.69,11.9-14.36,18.53-3.78,6.85-5.2,9.42-7.43,8.71A2.1,2.1,0,0,1,107.3,63c-.93-2,1.51-9.8,4.69-18.31-8.88,9.35-22.85,20.84-28.33,19.23a5.64,5.64,0,0,1-3.84-3.53c-.95-2.55-.35-6.14.88-9.79C72.09,60.54,65.89,65,62.2,63.87c-1-.31-2.79-1.35-3-4.73,0-.73,0-1.67,0-2.75,0-7.09-.41-14.67-5.2-14.86C49.89,41.4,43.72,52,40.41,57.71c-2.87,4.94-3.84,6.62-5.38,6.62" style="fill:#1e1e1e"/><path d="M154.53,63.45a1.89,1.89,0,0,1-1.4-.61c-.74-.82-2-2.17,7.6-29.77A1.73,1.73,0,0,1,162.92,32,1.71,1.71,0,0,1,164,34.19c-3.14,9.06-6.31,19.05-7.49,24a72.36,72.36,0,0,0,5.62-8.48c4.81-8,10.8-17.9,19.21-21A1.72,1.72,0,1,1,182.5,32c-7.27,2.64-12.91,12-17.44,19.5-3.71,6.15-6.65,11-10.05,11.86a2.42,2.42,0,0,1-.47,0" style="fill:#1e1e1e"/><path d="M197,72.92a32.57,32.57,0,0,1-17.69-5.74c-11.14-7.37-12.72-22.6-12.78-23.24a1.72,1.72,0,1,1,3.43-.33c0,.14,1.51,14.24,11.26,20.7,8.08,5.36,20.52,9.28,33.88-2.4a1.73,1.73,0,0,1,2.43.16,1.71,1.71,0,0,1-.16,2.43c-7.19,6.29-14.18,8.42-20.36,8.42M99.25,28a2.69,2.69,0,1,1-2.69-2.69A2.69,2.69,0,0,1,99.25,28M1.72,30.58a1.72,1.72,0,0,1-.08-3.44L34.8,25.61A1.72,1.72,0,1,1,35,29.05L1.8,30.58H1.72M3.83,78.63A1.44,1.44,0,0,1,5.28,77.2h.31A1.54,1.54,0,0,1,6.93,78l5,7.66,5-7.68a1.48,1.48,0,0,1,1.32-.74h.31A1.43,1.43,0,0,1,20,78.63V92.14a1.41,1.41,0,0,1-1.45,1.4,1.45,1.45,0,0,1-1.43-1.41V82.45l-4,5.92a1.42,1.42,0,0,1-1.22.74,1.4,1.4,0,0,1-1.19-.74l-4-5.87v9.66a1.38,1.38,0,0,1-1.43,1.38,1.37,1.37,0,0,1-1.41-1.38V78.63Zm21.5,13,6.09-13.37a1.82,1.82,0,0,1,1.73-1.16h.14A1.81,1.81,0,0,1,35,78.22L41.1,91.59a1.18,1.18,0,0,1,.16.6,1.34,1.34,0,0,1-1.36,1.36,1.5,1.5,0,0,1-1.41-1l-1.33-3h-8l-1.38,3.11a1.39,1.39,0,0,1-1.34.9,1.31,1.31,0,0,1-1.34-1.31,1.41,1.41,0,0,1,.19-.65M36.05,87,33.17,80.5,30.28,87h5.77Zm10.4-8.3a1.42,1.42,0,0,1,1.45-1.43h5.85a6.64,6.64,0,0,1,4.73,1.62,4.84,4.84,0,0,1,1.35,3.48v0a4.78,4.78,0,0,1-3.73,4.81l3.14,3.9a1.65,1.65,0,0,1,.46,1.08,1.36,1.36,0,0,1-1.39,1.31,1.66,1.66,0,0,1-1.41-.74l-4-5H49.3v4.34a1.44,1.44,0,0,1-2.88,0V78.72Zm7.1,6.58c2.06,0,3.37-1.07,3.37-2.7v0c0-1.72-1.27-2.67-3.4-2.67H49.33v5.41h4.22Zm12.31-6.72a1.44,1.44,0,0,1,2.88,0v6.83l7.78-7.7a1.5,1.5,0,0,1,1.19-.53A1.31,1.31,0,0,1,79,78.49a1.4,1.4,0,0,1-.52,1.07l-5.11,4.83,5.52,6.76a1.55,1.55,0,0,1,.39,1,1.39,1.39,0,0,1-1.45,1.38,1.46,1.46,0,0,1-1.22-.67l-5.27-6.62L68.71,88.8v3.34a1.44,1.44,0,0,1-2.88,0V78.58ZM84.66,92V78.72a1.41,1.41,0,0,1,1.45-1.42h9.53a1.27,1.27,0,1,1,0,2.53h-8.1V84H94.6a1.27,1.27,0,1,1,0,2.54h-7V90.9h8.22a1.29,1.29,0,0,1,1.29,1.27,1.28,1.28,0,0,1-1.29,1.27H86.11A1.43,1.43,0,0,1,84.65,92M107,79.92h-4a1.32,1.32,0,1,1,0-2.63h10.89a1.32,1.32,0,0,1,0,2.63h-4V92.15a1.45,1.45,0,0,1-2.9,0V79.92Zm13.41-1.34a1.44,1.44,0,0,1,2.88,0V92.15a1.44,1.44,0,0,1-2.88,0Zm9.66,0a1.43,1.43,0,0,1,1.45-1.43h.3a1.79,1.79,0,0,1,1.49.84l8.2,10.44V78.56a1.42,1.42,0,0,1,2.84,0V92.12a1.39,1.39,0,0,1-1.41,1.4h-.12a1.84,1.84,0,0,1-1.5-.85l-8.43-10.75V92.16a1.4,1.4,0,0,1-1.41,1.38A1.42,1.42,0,0,1,130,92.15V78.63Zm20.13,6.78v0A8.29,8.29,0,0,1,158.61,77a9,9,0,0,1,5.59,1.63,1.46,1.46,0,0,1,.59,1.16,1.43,1.43,0,0,1-1.43,1.41,1.54,1.54,0,0,1-.89-.33,6.37,6.37,0,0,0-4-1.26,5.5,5.5,0,0,0-5.32,5.7v0a5.43,5.43,0,0,0,5.57,5.77,6.72,6.72,0,0,0,4-1.22v-3h-3.23a1.25,1.25,0,0,1-1.29-1.23,1.26,1.26,0,0,1,1.29-1.24H164a1.42,1.42,0,0,1,1.46,1.43v4.31a2,2,0,0,1-1,1.8,10.55,10.55,0,0,1-5.83,1.75,8.07,8.07,0,0,1-8.5-8.3" style="fill:#1e1e1e"/></g></g></svg>