<svg width="210" height="297" viewBox="0 0 210 297" fill="none" xmlns="http://www.w3.org/2000/svg">
<g clip-path="url(#clip0)">
<rect width="210" height="297" fill="#3B58A8"/>
<g clip-path="url(#clip1)">
<path d="M303 0H-225V297H303V0Z" fill="#1283D8"/>
<path d="M295.753 0C269.507 12.433 236.297 31.2778 204.821 58.0078C143.572 110.025 188.201 156.234 95.4334 192.973C13.0754 225.589 13.1373 278.499 -67.2958 269.93C-101.287 266.306 -119.477 279.984 -142.936 297H-225V265.196C-201.785 167.836 -158.13 12.375 -158.13 12.375L-143.056 5.80078L-32.0172 0H295.753Z" fill="#365E99"/>
<path d="M214.817 0C197.566 19.421 163.706 52.0755 115.146 74.25C57.5535 100.547 5.75844 183.691 -35.6003 197.613C-76.959 211.535 -146.534 222.363 -171.272 259.488C-184.917 279.984 -205.264 290.913 -223.102 297H-225V0H214.817Z" fill="#346ACE"/>
<rect x="-6" y="-6" width="217" height="303" fill="#3B58A8" fill-opacity="0.66"/>
</g>
<circle r="1.76978" transform="matrix(-0.999993 0.00374744 0.00374744 0.999993 34.1584 185.998)" fill="white" fill-opacity="0.03"/>
<circle r="1.76978" transform="matrix(-0.999993 0.00374744 0.00374744 0.999993 29.439 186.016)" fill="white" fill-opacity="0.03"/>
<circle r="1.76978" transform="matrix(-0.999993 0.00374744 0.00374744 0.999993 24.7196 186.033)" fill="white" fill-opacity="0.03"/>
<circle r="1.76978" transform="matrix(-0.999993 0.00374744 0.00374744 0.999993 20.0002 186.051)" fill="white" fill-opacity="0.03"/>
<circle r="1.76978" transform="matrix(-0.999993 0.00374744 0.00374744 0.999993 15.2809 186.069)" fill="white" fill-opacity="0.03"/>
<circle r="1.76978" transform="matrix(-0.999993 0.00374744 0.00374744 0.999993 10.5615 186.086)" fill="white" fill-opacity="0.03"/>
<circle r="1.76978" transform="matrix(-0.999993 0.00374744 0.00374744 0.999993 5.84208 186.104)" fill="white" fill-opacity="0.03"/>
<circle r="1.76978" transform="matrix(-0.999993 0.00374744 0.00374744 0.999993 1.12272 186.122)" fill="white" fill-opacity="0.03"/>
<circle r="1.76978" transform="matrix(-0.999993 0.00374744 0.00374744 0.999993 29.4567 190.736)" fill="white" fill-opacity="0.03"/>
<circle r="1.76978" transform="matrix(-0.999993 0.00374744 0.00374744 0.999993 24.7373 190.753)" fill="white" fill-opacity="0.03"/>
<circle r="1.76978" transform="matrix(-0.999993 0.00374744 0.00374744 0.999993 20.0179 190.77)" fill="white" fill-opacity="0.03"/>
<circle r="1.76978" transform="matrix(-0.999993 0.00374744 0.00374744 0.999993 15.2985 190.788)" fill="white" fill-opacity="0.03"/>
<circle r="1.76978" transform="matrix(-0.999993 0.00374744 0.00374744 0.999993 10.5791 190.806)" fill="white" fill-opacity="0.03"/>
<circle r="1.76978" transform="matrix(-0.999993 0.00374744 0.00374744 0.999993 5.85979 190.823)" fill="white" fill-opacity="0.03"/>
<circle r="1.76978" transform="matrix(-0.999993 0.00374744 0.00374744 0.999993 1.14036 190.841)" fill="white" fill-opacity="0.03"/>
<circle r="1.76978" transform="matrix(-0.999993 0.00374744 0.00374744 0.999993 24.755 195.472)" fill="white" fill-opacity="0.03"/>
<circle r="1.76978" transform="matrix(-0.999993 0.00374744 0.00374744 0.999993 20.0356 195.49)" fill="white" fill-opacity="0.03"/>
<circle r="1.76978" transform="matrix(-0.999993 0.00374744 0.00374744 0.999993 15.3162 195.507)" fill="white" fill-opacity="0.03"/>
<circle r="1.76978" transform="matrix(-0.999993 0.00374744 0.00374744 0.999993 10.5968 195.525)" fill="white" fill-opacity="0.03"/>
<circle r="1.76978" transform="matrix(-0.999993 0.00374744 0.00374744 0.999993 5.87742 195.543)" fill="white" fill-opacity="0.03"/>
<circle r="1.76978" transform="matrix(-0.999993 0.00374744 0.00374744 0.999993 1.15806 195.56)" fill="white" fill-opacity="0.03"/>
<circle r="1.76978" transform="matrix(-0.999993 0.00374744 0.00374744 0.999993 20.0533 200.209)" fill="white" fill-opacity="0.03"/>
<circle r="1.76978" transform="matrix(-0.999993 0.00374744 0.00374744 0.999993 15.3339 200.227)" fill="white" fill-opacity="0.03"/>
<circle r="1.76978" transform="matrix(-0.999993 0.00374744 0.00374744 0.999993 10.6145 200.244)" fill="white" fill-opacity="0.03"/>
<circle r="1.76978" transform="matrix(-0.999993 0.00374744 0.00374744 0.999993 5.89512 200.262)" fill="white" fill-opacity="0.03"/>
<circle r="1.76978" transform="matrix(-0.999993 0.00374744 0.00374744 0.999993 1.17576 200.28)" fill="white" fill-opacity="0.03"/>
<circle r="1.76978" transform="matrix(-0.999993 0.00374744 0.00374744 0.999993 15.3516 204.946)" fill="white" fill-opacity="0.03"/>
<circle r="1.76978" transform="matrix(-0.999993 0.00374744 0.00374744 0.999993 10.6322 204.964)" fill="white" fill-opacity="0.03"/>
<circle r="1.76978" transform="matrix(-0.999993 0.00374744 0.00374744 0.999993 5.91282 204.982)" fill="white" fill-opacity="0.03"/>
<circle r="1.76978" transform="matrix(-0.999993 0.00374744 0.00374744 0.999993 1.1934 204.999)" fill="white" fill-opacity="0.03"/>
<path d="M32.322 133.61C32.742 133.543 32.9987 133.477 33.092 133.41C33.1854 133.337 33.232 133.197 33.232 132.99V127.59C32.372 127.603 31.912 127.623 31.852 127.65C31.792 127.677 31.7454 127.707 31.712 127.74C31.632 127.847 31.5354 128.223 31.422 128.87L30.912 128.83C30.9054 128.73 30.902 128.537 30.902 128.25C30.902 127.957 30.932 127.563 30.992 127.07H36.442C36.502 127.563 36.532 127.957 36.532 128.25C36.532 128.537 36.5287 128.73 36.522 128.83L36.012 128.87C35.8987 128.223 35.7987 127.847 35.712 127.74C35.6854 127.707 35.642 127.677 35.582 127.65C35.522 127.623 35.062 127.603 34.202 127.59V133.23C34.202 133.383 34.2687 133.47 34.402 133.49L35.172 133.61L35.132 134H32.382L32.322 133.61ZM37.0035 134L36.9435 133.61C37.2702 133.543 37.4668 133.477 37.5335 133.41C37.6068 133.337 37.6435 133.213 37.6435 133.04V127.23C37.6435 127.09 37.5902 126.99 37.4835 126.93C37.3768 126.863 37.1768 126.8 36.8835 126.74L36.9435 126.42C37.6568 126.327 38.1535 126.28 38.4335 126.28L38.5435 126.38V129.19C38.5435 129.557 38.5202 129.817 38.4735 129.97L38.5535 130L38.6735 129.86C39.0868 129.367 39.6035 129.12 40.2235 129.12C40.6702 129.12 41.0168 129.25 41.2635 129.51C41.5168 129.77 41.6435 130.127 41.6435 130.58V133.28C41.6435 133.36 41.6602 133.413 41.6935 133.44C41.7335 133.46 41.7835 133.477 41.8435 133.49L42.3335 133.61L42.2935 134H40.1535L40.0935 133.61C40.3935 133.55 40.5768 133.483 40.6435 133.41C40.7102 133.337 40.7435 133.213 40.7435 133.04V130.88C40.7435 130.56 40.6835 130.307 40.5635 130.12C40.4502 129.933 40.2168 129.84 39.8635 129.84C39.5168 129.84 39.1535 129.97 38.7735 130.23C38.6868 130.29 38.6268 130.35 38.5935 130.41C38.5602 130.463 38.5435 130.563 38.5435 130.71V133.28C38.5435 133.36 38.5602 133.413 38.5935 133.44C38.6335 133.46 38.6835 133.477 38.7435 133.49L39.1835 133.61L39.1435 134H37.0035ZM45.0205 134.09C44.3472 134.09 43.8239 133.86 43.4505 133.4C43.0839 132.94 42.9005 132.36 42.9005 131.66C42.9005 130.953 43.1139 130.353 43.5405 129.86C43.9672 129.367 44.5305 129.12 45.2305 129.12C46.3639 129.12 46.9572 129.817 47.0105 131.21L46.7505 131.4L43.8505 131.56C43.8505 132.793 44.3772 133.41 45.4305 133.41C45.8905 133.41 46.3405 133.297 46.7805 133.07L46.9905 133.4C46.7705 133.58 46.4839 133.74 46.1305 133.88C45.7772 134.02 45.4072 134.09 45.0205 134.09ZM43.8805 131.1L45.9505 130.92C46.0172 130.913 46.0505 130.85 46.0505 130.73C46.0505 130.437 45.9705 130.183 45.8105 129.97C45.6572 129.757 45.3939 129.65 45.0205 129.65C44.6472 129.65 44.3739 129.777 44.2005 130.03C44.0339 130.277 43.9272 130.633 43.8805 131.1ZM51.1071 133.18C51.2204 133.26 51.4038 133.34 51.6571 133.42C51.9171 133.493 52.2071 133.53 52.5271 133.53C52.8471 133.53 53.1138 133.433 53.3271 133.24C53.5404 133.047 53.6471 132.787 53.6471 132.46C53.6471 131.953 53.3604 131.54 52.7871 131.22C52.6404 131.147 52.4138 131.047 52.1071 130.92C51.8004 130.787 51.5838 130.69 51.4571 130.63C51.3304 130.563 51.1804 130.473 51.0071 130.36C50.8404 130.24 50.7104 130.12 50.6171 130C50.3838 129.713 50.2671 129.363 50.2671 128.95C50.2671 128.343 50.4904 127.863 50.9371 127.51C51.3904 127.157 51.9771 126.98 52.6971 126.98C53.2438 126.98 53.7571 127.07 54.2371 127.25C54.2571 127.41 54.2671 127.623 54.2671 127.89C54.2671 128.15 54.2304 128.5 54.1571 128.94L53.5771 129.01C53.5038 128.257 53.4138 127.837 53.3071 127.75C53.1471 127.61 52.8538 127.54 52.4271 127.54C52.0071 127.54 51.6804 127.627 51.4471 127.8C51.2138 127.967 51.0971 128.213 51.0971 128.54C51.0971 128.727 51.1338 128.893 51.2071 129.04C51.2804 129.187 51.4138 129.323 51.6071 129.45C51.8004 129.577 51.9538 129.667 52.0671 129.72C52.2338 129.807 52.4671 129.913 52.7671 130.04C53.0671 130.167 53.3004 130.277 53.4671 130.37C53.6338 130.463 53.8138 130.587 54.0071 130.74C54.3804 131.053 54.5671 131.507 54.5671 132.1C54.5671 132.693 54.3538 133.173 53.9271 133.54C53.5071 133.907 52.9304 134.09 52.1971 134.09C51.8038 134.09 51.4104 134.043 51.0171 133.95C50.6304 133.85 50.3471 133.753 50.1671 133.66C50.1471 133.58 50.1371 133.39 50.1371 133.09C50.1371 132.79 50.1771 132.427 50.2571 132L50.8271 131.97C50.8804 132.45 50.9238 132.76 50.9571 132.9C50.9971 133.04 51.0471 133.133 51.1071 133.18ZM55.8715 132.63V129.88H55.2215L55.1815 129.45L55.6715 129.33C55.7982 129.297 55.8815 129.223 55.9215 129.11C55.9682 128.99 56.0482 128.617 56.1615 127.99L56.7715 127.93V129.27H58.1615L58.0815 129.74L56.7715 129.89V132.33C56.7715 133.023 56.9848 133.37 57.4115 133.37C57.6515 133.37 57.9048 133.27 58.1715 133.07L58.3815 133.36C58.0215 133.847 57.5815 134.09 57.0615 134.09C56.6882 134.09 56.3948 133.96 56.1815 133.7C55.9748 133.44 55.8715 133.083 55.8715 132.63ZM58.9376 132.77C58.9376 132.27 59.1509 131.897 59.5776 131.65C60.0042 131.403 60.6976 131.277 61.6576 131.27V130.95C61.6576 130.083 61.3442 129.65 60.7176 129.65C60.4176 129.65 60.2276 129.693 60.1476 129.78C60.0742 129.867 59.9942 130.15 59.9076 130.63L59.3676 130.57C59.3142 130.363 59.2876 130.15 59.2876 129.93C59.2876 129.703 59.2909 129.557 59.2976 129.49C59.6909 129.243 60.2076 129.12 60.8476 129.12C61.4876 129.12 61.9309 129.243 62.1776 129.49C62.4309 129.737 62.5576 130.143 62.5576 130.71V133.01C62.5576 133.183 62.5976 133.307 62.6776 133.38C62.7642 133.447 62.9776 133.513 63.3176 133.58L63.2576 133.9L62.0576 134.03C61.9909 134.03 61.9209 133.967 61.8476 133.84C61.7742 133.713 61.7376 133.597 61.7376 133.49C61.7376 133.377 61.7409 133.293 61.7476 133.24L61.6676 133.21L61.5476 133.39C61.2342 133.857 60.8042 134.09 60.2576 134.09C59.8842 134.09 59.5709 133.973 59.3176 133.74C59.0642 133.507 58.9376 133.183 58.9376 132.77ZM59.9076 132.68C59.9076 132.92 59.9709 133.103 60.0976 133.23C60.2242 133.35 60.4042 133.41 60.6376 133.41C60.8709 133.41 61.1342 133.297 61.4276 133.07C61.5809 132.95 61.6576 132.823 61.6576 132.69V131.71C61.0576 131.723 60.6142 131.803 60.3276 131.95C60.0476 132.097 59.9076 132.34 59.9076 132.68ZM64.4848 132.63V129.88H63.8348L63.7948 129.45L64.2848 129.33C64.4114 129.297 64.4948 129.223 64.5348 129.11C64.5814 128.99 64.6614 128.617 64.7748 127.99L65.3848 127.93V129.27H66.7748L66.6948 129.74L65.3848 129.89V132.33C65.3848 133.023 65.5981 133.37 66.0248 133.37C66.2648 133.37 66.5181 133.27 66.7848 133.07L66.9948 133.36C66.6348 133.847 66.1948 134.09 65.6748 134.09C65.3014 134.09 65.0081 133.96 64.7948 133.7C64.5881 133.44 64.4848 133.083 64.4848 132.63ZM69.5909 134.09C68.9175 134.09 68.3942 133.86 68.0209 133.4C67.6542 132.94 67.4709 132.36 67.4709 131.66C67.4709 130.953 67.6842 130.353 68.1109 129.86C68.5375 129.367 69.1009 129.12 69.8009 129.12C70.9342 129.12 71.5275 129.817 71.5809 131.21L71.3209 131.4L68.4209 131.56C68.4209 132.793 68.9475 133.41 70.0009 133.41C70.4609 133.41 70.9109 133.297 71.3509 133.07L71.5609 133.4C71.3409 133.58 71.0542 133.74 70.7009 133.88C70.3475 134.02 69.9775 134.09 69.5909 134.09ZM68.4509 131.1L70.5209 130.92C70.5875 130.913 70.6209 130.85 70.6209 130.73C70.6209 130.437 70.5409 130.183 70.3809 129.97C70.2275 129.757 69.9642 129.65 69.5909 129.65C69.2175 129.65 68.9442 129.777 68.7709 130.03C68.6042 130.277 68.4975 130.633 68.4509 131.1ZM76.9174 134.09C76.1974 134.09 75.6441 133.877 75.2574 133.45C74.8708 133.023 74.6774 132.427 74.6774 131.66C74.6774 130.893 74.8808 130.28 75.2874 129.82C75.7008 129.353 76.2674 129.12 76.9874 129.12C77.7141 129.12 78.2708 129.337 78.6574 129.77C79.0441 130.197 79.2374 130.793 79.2374 131.56C79.2374 132.327 79.0308 132.94 78.6174 133.4C78.2108 133.86 77.6441 134.09 76.9174 134.09ZM75.6474 131.53C75.6474 132.123 75.7674 132.61 76.0074 132.99C76.2474 133.37 76.5741 133.56 76.9874 133.56C77.4008 133.56 77.6941 133.46 77.8674 133.26C77.9874 133.127 78.0841 132.917 78.1574 132.63C78.2308 132.337 78.2674 132.02 78.2674 131.68C78.2674 131.087 78.1474 130.6 77.9074 130.22C77.6674 129.84 77.3408 129.65 76.9274 129.65C76.5141 129.65 76.2208 129.75 76.0474 129.95C75.9274 130.083 75.8308 130.297 75.7574 130.59C75.6841 130.877 75.6474 131.19 75.6474 131.53ZM80.0627 134L80.0027 133.61C80.3294 133.543 80.5261 133.477 80.5927 133.41C80.6661 133.337 80.7027 133.213 80.7027 133.04V129.95H80.0527L80.0127 129.52L80.5027 129.4C80.5894 129.38 80.6461 129.343 80.6727 129.29C80.6994 129.237 80.7161 129.147 80.7227 129.02C80.7294 128.893 80.7394 128.77 80.7527 128.65C80.7727 128.53 80.8027 128.347 80.8427 128.1C80.8827 127.853 80.9461 127.637 81.0327 127.45C81.1261 127.263 81.2394 127.073 81.3727 126.88C81.6527 126.48 82.0761 126.28 82.6427 126.28C83.0027 126.28 83.3827 126.357 83.7827 126.51C83.7827 127.017 83.7394 127.42 83.6527 127.72L83.1227 127.77C83.0161 127.23 82.9361 126.943 82.8827 126.91C82.7761 126.843 82.6361 126.81 82.4627 126.81C81.8894 126.81 81.6027 127.653 81.6027 129.34H82.7827L82.7027 129.81L81.6027 129.96V133.28C81.6027 133.347 81.6161 133.397 81.6427 133.43C81.6694 133.457 81.7294 133.477 81.8227 133.49L82.5727 133.61L82.5327 134H80.0627ZM86.99 133.61C87.41 133.543 87.6667 133.477 87.76 133.41C87.8533 133.337 87.9 133.197 87.9 132.99V127.59C87.04 127.603 86.58 127.623 86.52 127.65C86.46 127.677 86.4133 127.707 86.38 127.74C86.3 127.847 86.2033 128.223 86.09 128.87L85.58 128.83C85.5733 128.73 85.57 128.537 85.57 128.25C85.57 127.957 85.6 127.563 85.66 127.07H91.11C91.17 127.563 91.2 127.957 91.2 128.25C91.2 128.537 91.1967 128.73 91.19 128.83L90.68 128.87C90.5667 128.223 90.4667 127.847 90.38 127.74C90.3533 127.707 90.31 127.677 90.25 127.65C90.19 127.623 89.73 127.603 88.87 127.59V133.23C88.87 133.383 88.9367 133.47 89.07 133.49L89.84 133.61L89.8 134H87.05L86.99 133.61ZM93.7315 134.09C93.0582 134.09 92.5348 133.86 92.1615 133.4C91.7948 132.94 91.6115 132.36 91.6115 131.66C91.6115 130.953 91.8248 130.353 92.2515 129.86C92.6782 129.367 93.2415 129.12 93.9415 129.12C95.0748 129.12 95.6682 129.817 95.7215 131.21L95.4615 131.4L92.5615 131.56C92.5615 132.793 93.0882 133.41 94.1415 133.41C94.6015 133.41 95.0515 133.297 95.4915 133.07L95.7015 133.4C95.4815 133.58 95.1948 133.74 94.8415 133.88C94.4882 134.02 94.1182 134.09 93.7315 134.09ZM92.5915 131.1L94.6615 130.92C94.7282 130.913 94.7615 130.85 94.7615 130.73C94.7615 130.437 94.6815 130.183 94.5215 129.97C94.3682 129.757 94.1048 129.65 93.7315 129.65C93.3582 129.65 93.0848 129.777 92.9115 130.03C92.7448 130.277 92.6382 130.633 92.5915 131.1ZM96.8669 129.96C97.0335 129.7 97.2769 129.497 97.5969 129.35C97.9235 129.197 98.3235 129.12 98.7969 129.12C99.2769 129.12 99.7502 129.213 100.217 129.4C100.224 129.453 100.227 129.627 100.227 129.92C100.227 130.207 100.187 130.49 100.107 130.77L99.5469 130.83C99.4402 130.157 99.3402 129.8 99.2469 129.76C99.1069 129.7 98.8569 129.67 98.4969 129.67C98.1369 129.67 97.8735 129.793 97.7069 130.04C97.4735 130.393 97.3569 130.897 97.3569 131.55C97.3569 132.197 97.4969 132.67 97.7769 132.97C98.0635 133.263 98.4335 133.41 98.8869 133.41C99.3469 133.41 99.7902 133.263 100.217 132.97L100.497 133.3C99.9569 133.827 99.3202 134.09 98.5869 134.09C97.8602 134.09 97.3102 133.863 96.9369 133.41C96.5702 132.95 96.3869 132.383 96.3869 131.71C96.3869 131.03 96.5469 130.447 96.8669 129.96ZM101.125 134L101.065 133.61C101.391 133.543 101.588 133.477 101.655 133.41C101.728 133.337 101.765 133.213 101.765 133.04V127.23C101.765 127.09 101.711 126.99 101.605 126.93C101.498 126.863 101.298 126.8 101.005 126.74L101.065 126.42C101.778 126.327 102.275 126.28 102.555 126.28L102.665 126.38V129.19C102.665 129.557 102.641 129.817 102.595 129.97L102.675 130L102.795 129.86C103.208 129.367 103.725 129.12 104.345 129.12C104.791 129.12 105.138 129.25 105.385 129.51C105.638 129.77 105.765 130.127 105.765 130.58V133.28C105.765 133.36 105.781 133.413 105.815 133.44C105.855 133.46 105.905 133.477 105.965 133.49L106.455 133.61L106.415 134H104.275L104.215 133.61C104.515 133.55 104.698 133.483 104.765 133.41C104.831 133.337 104.865 133.213 104.865 133.04V130.88C104.865 130.56 104.805 130.307 104.685 130.12C104.571 129.933 104.338 129.84 103.985 129.84C103.638 129.84 103.275 129.97 102.895 130.23C102.808 130.29 102.748 130.35 102.715 130.41C102.681 130.463 102.665 130.563 102.665 130.71V133.28C102.665 133.36 102.681 133.413 102.715 133.44C102.755 133.46 102.805 133.477 102.865 133.49L103.305 133.61L103.265 134H101.125ZM107.152 134L107.092 133.61C107.418 133.543 107.615 133.477 107.682 133.41C107.755 133.337 107.792 133.213 107.792 133.04V130.16C107.792 129.987 107.748 129.867 107.662 129.8C107.582 129.727 107.372 129.657 107.032 129.59L107.092 129.27L108.382 129.14C108.428 129.14 108.475 129.233 108.522 129.42C108.575 129.607 108.602 129.77 108.602 129.91V129.97L108.682 130L108.802 129.86C109.222 129.367 109.735 129.12 110.342 129.12C110.768 129.12 111.105 129.25 111.352 129.51C111.598 129.763 111.722 130.12 111.722 130.58V133.28C111.722 133.36 111.738 133.413 111.772 133.44C111.812 133.46 111.862 133.477 111.922 133.49L112.412 133.61L112.372 134H110.232L110.172 133.61C110.472 133.55 110.655 133.483 110.722 133.41C110.788 133.337 110.822 133.213 110.822 133.04V130.88C110.822 130.567 110.765 130.317 110.652 130.13C110.538 129.937 110.315 129.84 109.982 129.84C109.655 129.84 109.298 129.97 108.912 130.23C108.852 130.27 108.808 130.3 108.782 130.32C108.722 130.387 108.692 130.51 108.692 130.69V133.27C108.692 133.343 108.702 133.393 108.722 133.42C108.748 133.447 108.805 133.47 108.892 133.49L109.332 133.61L109.292 134H107.152ZM115.199 134.09C114.479 134.09 113.925 133.877 113.539 133.45C113.152 133.023 112.959 132.427 112.959 131.66C112.959 130.893 113.162 130.28 113.569 129.82C113.982 129.353 114.549 129.12 115.269 129.12C115.995 129.12 116.552 129.337 116.939 129.77C117.325 130.197 117.519 130.793 117.519 131.56C117.519 132.327 117.312 132.94 116.899 133.4C116.492 133.86 115.925 134.09 115.199 134.09ZM113.929 131.53C113.929 132.123 114.049 132.61 114.289 132.99C114.529 133.37 114.855 133.56 115.269 133.56C115.682 133.56 115.975 133.46 116.149 133.26C116.269 133.127 116.365 132.917 116.439 132.63C116.512 132.337 116.549 132.02 116.549 131.68C116.549 131.087 116.429 130.6 116.189 130.22C115.949 129.84 115.622 129.65 115.209 129.65C114.795 129.65 114.502 129.75 114.329 129.95C114.209 130.083 114.112 130.297 114.039 130.59C113.965 130.877 113.929 131.19 113.929 131.53ZM118.234 134L118.174 133.61C118.501 133.543 118.697 133.477 118.764 133.41C118.837 133.337 118.874 133.213 118.874 133.04V127.23C118.874 127.09 118.821 126.99 118.714 126.93C118.607 126.863 118.407 126.8 118.114 126.74L118.174 126.42C118.887 126.327 119.384 126.28 119.664 126.28L119.774 126.38V133.28C119.774 133.36 119.791 133.413 119.824 133.44C119.864 133.46 119.914 133.477 119.974 133.49L120.464 133.61L120.424 134H118.234ZM123.421 134.09C122.701 134.09 122.148 133.877 121.761 133.45C121.375 133.023 121.181 132.427 121.181 131.66C121.181 130.893 121.385 130.28 121.791 129.82C122.205 129.353 122.771 129.12 123.491 129.12C124.218 129.12 124.775 129.337 125.161 129.77C125.548 130.197 125.741 130.793 125.741 131.56C125.741 132.327 125.535 132.94 125.121 133.4C124.715 133.86 124.148 134.09 123.421 134.09ZM122.151 131.53C122.151 132.123 122.271 132.61 122.511 132.99C122.751 133.37 123.078 133.56 123.491 133.56C123.905 133.56 124.198 133.46 124.371 133.26C124.491 133.127 124.588 132.917 124.661 132.63C124.735 132.337 124.771 132.02 124.771 131.68C124.771 131.087 124.651 130.6 124.411 130.22C124.171 129.84 123.845 129.65 123.431 129.65C123.018 129.65 122.725 129.75 122.551 129.95C122.431 130.083 122.335 130.297 122.261 130.59C122.188 130.877 122.151 131.19 122.151 131.53ZM127.657 134.24C127.47 134.447 127.377 134.67 127.377 134.91C127.377 135.15 127.477 135.34 127.677 135.48C127.877 135.62 128.217 135.69 128.697 135.69C129.183 135.69 129.56 135.59 129.827 135.39C130.093 135.19 130.227 134.99 130.227 134.79C130.227 134.59 130.117 134.467 129.897 134.42C129.677 134.38 129.327 134.357 128.847 134.35C128.373 134.343 127.977 134.307 127.657 134.24ZM126.797 133.39C126.797 133.123 126.897 132.867 127.097 132.62C127.237 132.447 127.397 132.29 127.577 132.15C127.477 132.103 127.383 132.047 127.297 131.98C126.963 131.713 126.797 131.313 126.797 130.78C126.797 130.24 126.98 129.83 127.347 129.55C127.713 129.263 128.17 129.12 128.717 129.12C129.203 129.12 129.607 129.223 129.927 129.43C130.36 129.223 130.78 129.113 131.187 129.1C131.253 129.213 131.287 129.35 131.287 129.51C131.287 129.663 131.277 129.77 131.257 129.83C131.03 129.777 130.793 129.75 130.547 129.75C130.447 129.75 130.357 129.75 130.277 129.75C130.463 130.003 130.557 130.33 130.557 130.73C130.557 131.263 130.373 131.673 130.007 131.96C129.64 132.24 129.183 132.38 128.637 132.38C128.33 132.38 128.06 132.34 127.827 132.26C127.627 132.5 127.527 132.73 127.527 132.95C127.527 133.15 127.64 133.27 127.867 133.31C128.067 133.343 128.29 133.36 128.537 133.36C128.79 133.36 128.983 133.363 129.117 133.37C129.257 133.37 129.433 133.38 129.647 133.4C129.86 133.42 130.027 133.453 130.147 133.5C130.273 133.547 130.403 133.607 130.537 133.68C130.783 133.82 130.907 134.067 130.907 134.42C130.907 134.9 130.667 135.313 130.187 135.66C129.707 136.013 129.06 136.19 128.247 136.19C127.153 136.19 126.607 135.877 126.607 135.25C126.607 135.023 126.67 134.827 126.797 134.66C126.93 134.5 127.12 134.33 127.367 134.15C126.987 134.03 126.797 133.777 126.797 133.39ZM128.707 131.89C129.327 131.89 129.637 131.51 129.637 130.75C129.637 129.99 129.307 129.61 128.647 129.61C128.027 129.61 127.717 129.99 127.717 130.75C127.717 131.51 128.047 131.89 128.707 131.89ZM131.884 135.17C132.044 135.19 132.264 135.2 132.544 135.2C132.83 135.2 133.057 135.163 133.224 135.09C133.39 135.023 133.59 134.66 133.824 134L132.164 130.02C132.11 129.893 132.06 129.813 132.014 129.78C131.974 129.747 131.847 129.707 131.634 129.66L131.694 129.27H133.754L133.794 129.66L133.184 129.81C133.137 129.817 133.114 129.843 133.114 129.89C133.114 129.897 133.127 129.94 133.154 130.02L134.174 132.69C134.207 132.783 134.224 132.887 134.224 133H134.304L135.364 130.25C135.404 130.143 135.424 130.057 135.424 129.99C135.424 129.917 135.374 129.857 135.274 129.81C135.18 129.763 135.01 129.713 134.764 129.66L134.824 129.27H136.604L136.644 129.66C136.35 129.727 136.194 129.783 136.174 129.83L134.594 133.75C134.46 134.083 134.354 134.337 134.274 134.51C134.194 134.69 134.084 134.89 133.944 135.11C133.804 135.33 133.657 135.5 133.504 135.62C133.124 135.907 132.664 136.097 132.124 136.19C131.95 136.017 131.864 135.743 131.864 135.37C131.864 135.33 131.87 135.263 131.884 135.17ZM139.515 134L139.455 133.61C139.782 133.543 139.978 133.477 140.045 133.41C140.118 133.337 140.155 133.213 140.155 133.04V130.17C140.155 130.03 140.102 129.93 139.995 129.87C139.888 129.803 139.688 129.74 139.395 129.68L139.455 129.36C140.168 129.267 140.665 129.22 140.945 129.22L141.055 129.32V133.28C141.055 133.36 141.072 133.413 141.105 133.44C141.145 133.46 141.195 133.477 141.255 133.49L141.745 133.61L141.705 134H139.515ZM141.065 127.44C141.065 127.607 141.012 127.747 140.905 127.86C140.805 127.973 140.668 128.03 140.495 128.03C140.328 128.03 140.188 127.98 140.075 127.88C139.968 127.78 139.915 127.643 139.915 127.47C139.915 127.29 139.965 127.147 140.065 127.04C140.172 126.933 140.315 126.88 140.495 126.88C140.875 126.88 141.065 127.067 141.065 127.44ZM142.611 134L142.551 133.61C142.877 133.543 143.074 133.477 143.141 133.41C143.214 133.337 143.251 133.213 143.251 133.04V130.16C143.251 129.987 143.207 129.867 143.121 129.8C143.041 129.727 142.831 129.657 142.491 129.59L142.551 129.27L143.841 129.14C143.887 129.14 143.934 129.233 143.981 129.42C144.034 129.607 144.061 129.77 144.061 129.91V129.97L144.141 130L144.261 129.86C144.681 129.367 145.194 129.12 145.801 129.12C146.227 129.12 146.564 129.25 146.811 129.51C147.057 129.763 147.181 130.12 147.181 130.58V133.28C147.181 133.36 147.197 133.413 147.231 133.44C147.271 133.46 147.321 133.477 147.381 133.49L147.871 133.61L147.831 134H145.691L145.631 133.61C145.931 133.55 146.114 133.483 146.181 133.41C146.247 133.337 146.281 133.213 146.281 133.04V130.88C146.281 130.567 146.224 130.317 146.111 130.13C145.997 129.937 145.774 129.84 145.441 129.84C145.114 129.84 144.757 129.97 144.371 130.23C144.311 130.27 144.267 130.3 144.241 130.32C144.181 130.387 144.151 130.51 144.151 130.69V133.27C144.151 133.343 144.161 133.393 144.181 133.42C144.207 133.447 144.264 133.47 144.351 133.49L144.791 133.61L144.751 134H142.611ZM151.869 133.18C151.982 133.26 152.165 133.34 152.419 133.42C152.679 133.493 152.969 133.53 153.289 133.53C153.609 133.53 153.875 133.433 154.089 133.24C154.302 133.047 154.409 132.787 154.409 132.46C154.409 131.953 154.122 131.54 153.549 131.22C153.402 131.147 153.175 131.047 152.869 130.92C152.562 130.787 152.345 130.69 152.219 130.63C152.092 130.563 151.942 130.473 151.769 130.36C151.602 130.24 151.472 130.12 151.379 130C151.145 129.713 151.029 129.363 151.029 128.95C151.029 128.343 151.252 127.863 151.699 127.51C152.152 127.157 152.739 126.98 153.459 126.98C154.005 126.98 154.519 127.07 154.999 127.25C155.019 127.41 155.029 127.623 155.029 127.89C155.029 128.15 154.992 128.5 154.919 128.94L154.339 129.01C154.265 128.257 154.175 127.837 154.069 127.75C153.909 127.61 153.615 127.54 153.189 127.54C152.769 127.54 152.442 127.627 152.209 127.8C151.975 127.967 151.859 128.213 151.859 128.54C151.859 128.727 151.895 128.893 151.969 129.04C152.042 129.187 152.175 129.323 152.369 129.45C152.562 129.577 152.715 129.667 152.829 129.72C152.995 129.807 153.229 129.913 153.529 130.04C153.829 130.167 154.062 130.277 154.229 130.37C154.395 130.463 154.575 130.587 154.769 130.74C155.142 131.053 155.329 131.507 155.329 132.1C155.329 132.693 155.115 133.173 154.689 133.54C154.269 133.907 153.692 134.09 152.959 134.09C152.565 134.09 152.172 134.043 151.779 133.95C151.392 133.85 151.109 133.753 150.929 133.66C150.909 133.58 150.899 133.39 150.899 133.09C150.899 132.79 150.939 132.427 151.019 132L151.589 131.97C151.642 132.45 151.685 132.76 151.719 132.9C151.759 133.04 151.809 133.133 151.869 133.18ZM156.213 134L156.153 133.61C156.513 133.543 156.74 133.473 156.833 133.4C156.933 133.327 156.983 133.19 156.983 132.99V128.08C156.983 127.873 156.943 127.733 156.863 127.66C156.79 127.587 156.577 127.52 156.223 127.46L156.283 127.07H158.383L160.303 132.33C160.337 132.437 160.36 132.52 160.373 132.58H160.473C160.48 132.507 160.497 132.44 160.523 132.38L162.473 127.07H164.283L164.323 127.46L163.903 127.58C163.777 127.62 163.713 127.697 163.713 127.81V133.23C163.713 133.377 163.78 133.463 163.913 133.49L164.533 133.61L164.493 134H162.023L161.963 133.61C162.29 133.55 162.5 133.487 162.593 133.42C162.693 133.347 162.743 133.23 162.743 133.07V128.5C162.743 128.347 162.753 128.22 162.773 128.12H162.693L160.583 133.8H159.863L157.733 128.1H157.653V133C157.653 133.16 157.683 133.28 157.743 133.36C157.81 133.44 157.927 133.493 158.093 133.52L158.583 133.61L158.543 134H156.213ZM165.414 134L165.354 133.61C165.707 133.55 165.921 133.483 165.994 133.41C166.074 133.337 166.114 133.197 166.114 132.99V128.08C166.114 127.873 166.074 127.733 165.994 127.66C165.921 127.587 165.707 127.52 165.354 127.46L165.414 127.07H170.074C170.114 127.317 170.134 127.563 170.134 127.81C170.134 128.05 170.127 128.323 170.114 128.63L169.544 128.7C169.451 128.24 169.384 127.953 169.344 127.84C169.304 127.72 169.257 127.657 169.204 127.65C169.044 127.63 168.841 127.617 168.594 127.61L167.084 127.58V130.27H168.584C168.671 130.27 168.777 130.033 168.904 129.56L169.214 129.59C169.214 130.077 169.221 130.417 169.234 130.61C169.254 130.803 169.264 130.92 169.264 130.96C169.271 131 169.284 131.097 169.304 131.25C169.331 131.403 169.347 131.51 169.354 131.57L168.994 131.63C168.887 131.25 168.814 131.017 168.774 130.93C168.741 130.843 168.701 130.8 168.654 130.8H167.084V133.49L167.974 133.48C168.727 133.48 169.187 133.44 169.354 133.36C169.374 133.347 169.387 133.34 169.394 133.34C169.507 133.307 169.654 132.913 169.834 132.16L170.384 132.21C170.391 132.323 170.394 132.527 170.394 132.82C170.394 133.107 170.357 133.5 170.284 134H165.414ZM173.072 129.65C172.485 129.65 172.192 129.85 172.192 130.25C172.192 130.41 172.232 130.53 172.312 130.61C172.392 130.683 172.449 130.74 172.482 130.78C172.522 130.813 172.595 130.857 172.702 130.91C172.809 130.963 172.882 131.003 172.922 131.03C172.969 131.05 173.059 131.087 173.192 131.14C173.752 131.373 174.145 131.593 174.372 131.8C174.599 132.007 174.712 132.3 174.712 132.68C174.712 133.06 174.542 133.39 174.202 133.67C173.869 133.95 173.409 134.09 172.822 134.09C172.562 134.09 172.292 134.063 172.012 134.01C171.732 133.957 171.529 133.903 171.402 133.85C171.389 133.763 171.382 133.587 171.382 133.32C171.382 133.053 171.412 132.763 171.472 132.45L171.992 132.41C172.039 132.837 172.072 133.1 172.092 133.2C172.119 133.293 172.155 133.353 172.202 133.38C172.415 133.5 172.695 133.56 173.042 133.56C173.582 133.56 173.852 133.343 173.852 132.91C173.852 132.703 173.772 132.533 173.612 132.4C173.432 132.253 173.225 132.13 172.992 132.03C172.379 131.777 171.959 131.547 171.732 131.34C171.512 131.127 171.402 130.833 171.402 130.46C171.402 130.087 171.572 129.77 171.912 129.51C172.252 129.25 172.662 129.12 173.142 129.12C173.622 129.12 174.062 129.203 174.462 129.37C174.469 129.423 174.472 129.573 174.472 129.82C174.472 130.067 174.429 130.327 174.342 130.6L173.882 130.65C173.835 130.13 173.759 129.833 173.652 129.76C173.552 129.687 173.359 129.65 173.072 129.65ZM177.067 129.72C177.067 129.893 177.011 130.04 176.897 130.16C176.784 130.28 176.637 130.34 176.457 130.34C176.277 130.34 176.131 130.29 176.017 130.19C175.904 130.083 175.847 129.94 175.847 129.76C175.847 129.573 175.901 129.42 176.007 129.3C176.121 129.18 176.267 129.12 176.447 129.12C176.861 129.12 177.067 129.32 177.067 129.72ZM177.067 133.47C177.067 133.643 177.011 133.79 176.897 133.91C176.784 134.03 176.637 134.09 176.457 134.09C176.277 134.09 176.131 134.04 176.017 133.94C175.904 133.833 175.847 133.69 175.847 133.51C175.847 133.323 175.901 133.17 176.007 133.05C176.121 132.93 176.267 132.87 176.447 132.87C176.861 132.87 177.067 133.07 177.067 133.47ZM36.1798 151L36.1018 150.493C36.5611 150.415 36.8385 150.328 36.9338 150.233C37.0378 150.138 37.0898 149.956 37.0898 149.687V143.304C37.0898 143.035 37.0378 142.853 36.9338 142.758C36.8385 142.663 36.5611 142.576 36.1018 142.498L36.1798 141.991H39.3648L39.4168 142.498L38.6108 142.654C38.4375 142.689 38.3508 142.801 38.3508 142.992V145.969H42.6798V143.304C42.6798 143.035 42.6278 142.853 42.5238 142.758C42.4285 142.663 42.1511 142.576 41.6918 142.498L41.7698 141.991H44.9548L45.0068 142.498L44.2008 142.654C44.0275 142.689 43.9408 142.801 43.9408 142.992V149.999C43.9408 150.19 44.0275 150.302 44.2008 150.337L45.0068 150.493L44.9548 151H41.7698L41.6918 150.493C42.1511 150.415 42.4285 150.328 42.5238 150.233C42.6278 150.138 42.6798 149.956 42.6798 149.687V146.749H38.3508V149.999C38.3508 150.19 38.4375 150.302 38.6108 150.337L39.4168 150.493L39.3648 151H36.1798ZM48.8236 151.117C47.8876 151.117 47.1683 150.84 46.6656 150.285C46.1629 149.73 45.9116 148.955 45.9116 147.958C45.9116 146.961 46.1759 146.164 46.7046 145.566C47.2419 144.959 47.9786 144.656 48.9146 144.656C49.8593 144.656 50.5829 144.938 51.0856 145.501C51.5883 146.056 51.8396 146.831 51.8396 147.828C51.8396 148.825 51.5709 149.622 51.0336 150.22C50.5049 150.818 49.7683 151.117 48.8236 151.117ZM47.1726 147.789C47.1726 148.56 47.3286 149.193 47.6406 149.687C47.9526 150.181 48.3773 150.428 48.9146 150.428C49.4519 150.428 49.8333 150.298 50.0586 150.038C50.2146 149.865 50.3403 149.592 50.4356 149.219C50.5309 148.838 50.5786 148.426 50.5786 147.984C50.5786 147.213 50.4226 146.58 50.1106 146.086C49.7986 145.592 49.3739 145.345 48.8366 145.345C48.2993 145.345 47.9179 145.475 47.6926 145.735C47.5366 145.908 47.4109 146.186 47.3156 146.567C47.2203 146.94 47.1726 147.347 47.1726 147.789ZM54.9405 151.117L53.0555 145.826C52.9948 145.661 52.9342 145.557 52.8735 145.514C52.8128 145.471 52.6395 145.419 52.3535 145.358L52.4315 144.851H54.8365L54.8885 145.358L54.3165 145.54C54.2558 145.549 54.2255 145.579 54.2255 145.631C54.2255 145.64 54.2428 145.696 54.2775 145.8L55.4735 149.544C55.5082 149.631 55.5255 149.735 55.5255 149.856V149.908H55.6295C55.6295 149.813 55.6642 149.683 55.7335 149.518L56.9165 146.567L56.6695 145.826C56.6175 145.67 56.5612 145.57 56.5005 145.527C56.4485 145.475 56.3142 145.419 56.0975 145.358L56.1755 144.851H58.3075L58.3595 145.358L57.7875 145.54C57.7268 145.549 57.6965 145.579 57.6965 145.631C57.6965 145.64 57.7138 145.696 57.7485 145.8L58.9315 149.544C58.9662 149.648 58.9835 149.752 58.9835 149.856V149.908H59.0875C59.0875 149.856 59.1222 149.726 59.1915 149.518L60.3745 146.125C60.4265 145.986 60.4525 145.895 60.4525 145.852C60.4525 145.8 60.4482 145.765 60.4395 145.748C60.4395 145.722 60.4308 145.7 60.4135 145.683C60.3962 145.657 60.3788 145.64 60.3615 145.631C60.3528 145.614 60.3312 145.596 60.2965 145.579C60.2705 145.562 60.2445 145.549 60.2185 145.54C60.2012 145.523 60.1708 145.505 60.1275 145.488C60.0842 145.471 60.0452 145.458 60.0105 145.449C59.9845 145.44 59.9455 145.427 59.8935 145.41C59.8415 145.384 59.7982 145.367 59.7635 145.358L59.8415 144.851H61.9735L62.0255 145.358C61.7482 145.427 61.5792 145.475 61.5185 145.501C61.4578 145.518 61.4232 145.544 61.4145 145.579L59.2565 151.117H58.4115L57.3455 147.841C57.3022 147.711 57.2805 147.594 57.2805 147.49H57.1765C57.1765 147.585 57.1505 147.698 57.0985 147.828L55.7855 151.117H54.9405ZM66.3418 149.219V145.644H65.4968L65.4448 145.085L66.0818 144.929C66.2465 144.886 66.3548 144.79 66.4068 144.643C66.4675 144.487 66.5715 144.002 66.7188 143.187L67.5118 143.109V144.851H69.3188L69.2148 145.462L67.5118 145.657V148.829C67.5118 149.73 67.7891 150.181 68.3438 150.181C68.6558 150.181 68.9851 150.051 69.3318 149.791L69.6048 150.168C69.1368 150.801 68.5648 151.117 67.8888 151.117C67.4035 151.117 67.0221 150.948 66.7448 150.61C66.4761 150.272 66.3418 149.808 66.3418 149.219ZM73.1097 151.117C72.1737 151.117 71.4544 150.84 70.9517 150.285C70.4491 149.73 70.1977 148.955 70.1977 147.958C70.1977 146.961 70.4621 146.164 70.9907 145.566C71.5281 144.959 72.2647 144.656 73.2007 144.656C74.1454 144.656 74.8691 144.938 75.3717 145.501C75.8744 146.056 76.1257 146.831 76.1257 147.828C76.1257 148.825 75.8571 149.622 75.3197 150.22C74.7911 150.818 74.0544 151.117 73.1097 151.117ZM71.4587 147.789C71.4587 148.56 71.6147 149.193 71.9267 149.687C72.2387 150.181 72.6634 150.428 73.2007 150.428C73.7381 150.428 74.1194 150.298 74.3447 150.038C74.5007 149.865 74.6264 149.592 74.7217 149.219C74.8171 148.838 74.8647 148.426 74.8647 147.984C74.8647 147.213 74.7087 146.58 74.3967 146.086C74.0847 145.592 73.6601 145.345 73.1227 145.345C72.5854 145.345 72.2041 145.475 71.9787 145.735C71.8227 145.908 71.6971 146.186 71.6017 146.567C71.5064 146.94 71.4587 147.347 71.4587 147.789ZM80.1772 146.697C80.1772 145.709 80.3808 144.829 80.7882 144.058C81.2648 143.148 81.9798 142.515 82.9332 142.16C83.4618 141.969 84.0122 141.874 84.5842 141.874C85.1562 141.874 85.7065 141.917 86.2352 142.004C86.7638 142.091 87.1105 142.169 87.2752 142.238C87.3272 142.559 87.3532 142.897 87.3532 143.252C87.3532 143.599 87.3445 143.989 87.3272 144.422L86.5862 144.526C86.3955 143.521 86.2265 142.966 86.0792 142.862C86.0012 142.801 85.7975 142.736 85.4682 142.667C85.1475 142.598 84.8268 142.563 84.5062 142.563C83.5528 142.563 82.8335 142.914 82.3482 143.616C81.8628 144.318 81.6202 145.241 81.6202 146.385C81.6202 147.737 81.9278 148.742 82.5432 149.401C83.1585 150.06 83.9212 150.389 84.8312 150.389C85.1605 150.389 85.4682 150.35 85.7542 150.272C86.0488 150.194 86.2395 150.12 86.3262 150.051C86.4215 149.982 86.5645 149.431 86.7552 148.4L87.4702 148.426C87.4702 149.085 87.4225 149.787 87.3272 150.532C87.0585 150.679 86.6512 150.814 86.1052 150.935C85.5678 151.056 85.0175 151.117 84.4542 151.117C83.0415 151.117 81.9755 150.701 81.2562 149.869C80.5368 149.037 80.1772 147.98 80.1772 146.697ZM91.1117 151.117C90.1757 151.117 89.4564 150.84 88.9537 150.285C88.451 149.73 88.1997 148.955 88.1997 147.958C88.1997 146.961 88.464 146.164 88.9927 145.566C89.53 144.959 90.2667 144.656 91.2027 144.656C92.1474 144.656 92.871 144.938 93.3737 145.501C93.8764 146.056 94.1277 146.831 94.1277 147.828C94.1277 148.825 93.859 149.622 93.3217 150.22C92.793 150.818 92.0564 151.117 91.1117 151.117ZM89.4607 147.789C89.4607 148.56 89.6167 149.193 89.9287 149.687C90.2407 150.181 90.6654 150.428 91.2027 150.428C91.74 150.428 92.1214 150.298 92.3467 150.038C92.5027 149.865 92.6284 149.592 92.7237 149.219C92.819 148.838 92.8667 148.426 92.8667 147.984C92.8667 147.213 92.7107 146.58 92.3987 146.086C92.0867 145.592 91.662 145.345 91.1247 145.345C90.5874 145.345 90.206 145.475 89.9807 145.735C89.8247 145.908 89.699 146.186 89.6037 146.567C89.5084 146.94 89.4607 147.347 89.4607 147.789ZM95.1486 151L95.0706 150.493C95.4953 150.406 95.7509 150.32 95.8376 150.233C95.9329 150.138 95.9806 149.977 95.9806 149.752V146.008C95.9806 145.783 95.9243 145.627 95.8116 145.54C95.7076 145.445 95.4346 145.354 94.9926 145.267L95.0706 144.851L96.7476 144.682C96.8083 144.682 96.8689 144.803 96.9296 145.046C96.9989 145.28 97.0336 145.492 97.0336 145.683V145.761L97.1246 145.8L97.2546 145.631C97.4713 145.354 97.7443 145.124 98.0736 144.942C98.4116 144.751 98.7669 144.656 99.1396 144.656C99.9716 144.656 100.5 145.029 100.726 145.774L100.817 145.787L100.96 145.605C101.454 144.972 102.073 144.656 102.819 144.656C103.347 144.656 103.759 144.825 104.054 145.163C104.357 145.501 104.509 145.965 104.509 146.554V150.064C104.509 150.168 104.53 150.237 104.574 150.272C104.626 150.298 104.691 150.32 104.769 150.337L105.406 150.493L105.354 151H102.572L102.494 150.493C102.884 150.415 103.122 150.328 103.209 150.233C103.295 150.138 103.339 149.977 103.339 149.752V146.801C103.339 145.995 103.014 145.592 102.364 145.592C102.026 145.592 101.601 145.761 101.09 146.099C100.986 146.16 100.916 146.229 100.882 146.307C100.847 146.376 100.83 146.506 100.83 146.697V150.064C100.83 150.168 100.851 150.237 100.895 150.272C100.947 150.298 101.012 150.32 101.09 150.337L101.662 150.493L101.61 151H98.8926L98.8146 150.493C99.2046 150.415 99.4429 150.328 99.5296 150.233C99.6163 150.138 99.6596 149.977 99.6596 149.752V146.801C99.6596 145.995 99.3346 145.592 98.6846 145.592C98.3466 145.592 97.9219 145.761 97.4106 146.099C97.3066 146.16 97.2373 146.229 97.2026 146.307C97.1679 146.376 97.1506 146.506 97.1506 146.697V150.064C97.1506 150.168 97.1723 150.237 97.2156 150.272C97.2676 150.298 97.3326 150.32 97.4106 150.337L97.9826 150.493L97.9306 151H95.1486ZM106.957 152.482V146.008C106.957 145.783 106.901 145.627 106.788 145.54C106.684 145.445 106.411 145.354 105.969 145.267L106.047 144.851C107.122 144.738 107.685 144.682 107.737 144.682C107.789 144.682 107.85 144.799 107.919 145.033C107.997 145.258 108.036 145.458 108.036 145.631V145.761L108.14 145.8L108.27 145.631C108.773 144.981 109.375 144.656 110.077 144.656C110.779 144.656 111.356 144.938 111.806 145.501C112.257 146.056 112.482 146.818 112.482 147.789C112.482 148.76 112.227 149.557 111.715 150.181C111.204 150.805 110.489 151.117 109.57 151.117C108.92 151.117 108.452 151.004 108.166 150.779L108.075 150.818C108.11 151.009 108.127 151.199 108.127 151.39V152.794C108.127 152.907 108.149 152.976 108.192 153.002C108.244 153.037 108.309 153.058 108.387 153.067L109.57 153.223L109.518 153.73H106.125L106.047 153.223C106.472 153.136 106.728 153.045 106.814 152.95C106.91 152.863 106.957 152.707 106.957 152.482ZM108.127 149.739C108.483 150.164 109.037 150.376 109.791 150.376C110.164 150.376 110.459 150.255 110.675 150.012C111.039 149.605 111.221 148.972 111.221 148.114C111.221 147.247 111.083 146.61 110.805 146.203C110.537 145.796 110.194 145.592 109.778 145.592C109.362 145.592 108.929 145.739 108.478 146.034C108.244 146.19 108.127 146.389 108.127 146.632V149.739ZM116.144 151.117C115.268 151.117 114.588 150.818 114.103 150.22C113.626 149.622 113.388 148.868 113.388 147.958C113.388 147.039 113.665 146.259 114.22 145.618C114.774 144.977 115.507 144.656 116.417 144.656C117.89 144.656 118.661 145.562 118.731 147.373L118.393 147.62L114.623 147.828C114.623 149.431 115.307 150.233 116.677 150.233C117.275 150.233 117.86 150.086 118.432 149.791L118.705 150.22C118.419 150.454 118.046 150.662 117.587 150.844C117.127 151.026 116.646 151.117 116.144 151.117ZM114.662 147.23L117.353 146.996C117.439 146.987 117.483 146.905 117.483 146.749C117.483 146.368 117.379 146.038 117.171 145.761C116.971 145.484 116.629 145.345 116.144 145.345C115.658 145.345 115.303 145.51 115.078 145.839C114.861 146.16 114.722 146.623 114.662 147.23ZM120.259 149.219V145.644H119.414L119.362 145.085L119.999 144.929C120.163 144.886 120.272 144.79 120.324 144.643C120.384 144.487 120.488 144.002 120.636 143.187L121.429 143.109V144.851H123.236L123.132 145.462L121.429 145.657V148.829C121.429 149.73 121.706 150.181 122.261 150.181C122.573 150.181 122.902 150.051 123.249 149.791L123.522 150.168C123.054 150.801 122.482 151.117 121.806 151.117C121.32 151.117 120.939 150.948 120.662 150.61C120.393 150.272 120.259 149.808 120.259 149.219ZM126.897 151.117C126.021 151.117 125.341 150.818 124.856 150.22C124.379 149.622 124.141 148.868 124.141 147.958C124.141 147.039 124.418 146.259 124.973 145.618C125.527 144.977 126.26 144.656 127.17 144.656C128.643 144.656 129.414 145.562 129.484 147.373L129.146 147.62L125.376 147.828C125.376 149.431 126.06 150.233 127.43 150.233C128.028 150.233 128.613 150.086 129.185 149.791L129.458 150.22C129.172 150.454 128.799 150.662 128.34 150.844C127.88 151.026 127.399 151.117 126.897 151.117ZM125.415 147.23L128.106 146.996C128.192 146.987 128.236 146.905 128.236 146.749C128.236 146.368 128.132 146.038 127.924 145.761C127.724 145.484 127.382 145.345 126.897 145.345C126.411 145.345 126.056 145.51 125.831 145.839C125.614 146.16 125.475 146.623 125.415 147.23ZM133.704 151L133.626 150.493C134.051 150.406 134.307 150.32 134.393 150.233C134.489 150.138 134.536 149.977 134.536 149.752V146.021C134.536 145.839 134.467 145.709 134.328 145.631C134.19 145.544 133.93 145.462 133.548 145.384L133.626 144.968C134.554 144.847 135.199 144.786 135.563 144.786L135.706 144.916V150.064C135.706 150.168 135.728 150.237 135.771 150.272C135.823 150.298 135.888 150.32 135.966 150.337L136.603 150.493L136.551 151H133.704ZM135.719 142.472C135.719 142.689 135.65 142.871 135.511 143.018C135.381 143.165 135.204 143.239 134.978 143.239C134.762 143.239 134.58 143.174 134.432 143.044C134.294 142.914 134.224 142.736 134.224 142.511C134.224 142.277 134.289 142.091 134.419 141.952C134.558 141.813 134.744 141.744 134.978 141.744C135.472 141.744 135.719 141.987 135.719 142.472ZM137.729 151L137.651 150.493C138.075 150.406 138.331 150.32 138.418 150.233C138.513 150.138 138.561 149.977 138.561 149.752V146.008C138.561 145.783 138.504 145.627 138.392 145.54C138.288 145.445 138.015 145.354 137.573 145.267L137.651 144.851L139.328 144.682C139.388 144.682 139.449 144.803 139.51 145.046C139.579 145.289 139.614 145.501 139.614 145.683V145.761L139.718 145.8L139.874 145.618C140.42 144.977 141.087 144.656 141.876 144.656C142.43 144.656 142.868 144.825 143.189 145.163C143.509 145.492 143.67 145.956 143.67 146.554V150.064C143.67 150.168 143.691 150.237 143.735 150.272C143.787 150.298 143.852 150.32 143.93 150.337L144.567 150.493L144.515 151H141.733L141.655 150.493C142.045 150.415 142.283 150.328 142.37 150.233C142.456 150.138 142.5 149.977 142.5 149.752V146.944C142.5 146.537 142.426 146.212 142.279 145.969C142.131 145.718 141.841 145.592 141.408 145.592C140.983 145.592 140.519 145.761 140.017 146.099C139.939 146.151 139.882 146.19 139.848 146.216C139.77 146.303 139.731 146.463 139.731 146.697V150.051C139.731 150.146 139.744 150.211 139.77 150.246C139.804 150.281 139.878 150.311 139.991 150.337L140.563 150.493L140.511 151H137.729ZM148.698 151L148.62 150.493C149.08 150.415 149.357 150.328 149.452 150.233C149.556 150.138 149.608 149.956 149.608 149.687V143.304C149.608 143.035 149.556 142.853 149.452 142.758C149.357 142.663 149.08 142.576 148.62 142.498L148.698 141.991H152.325C153.244 141.991 153.933 142.216 154.392 142.667C154.852 143.109 155.081 143.737 155.081 144.552C155.081 145.367 154.778 146.064 154.171 146.645C153.573 147.226 152.698 147.516 151.545 147.516H150.869V149.999C150.869 150.207 150.956 150.32 151.129 150.337L152.442 150.493L152.39 151H148.698ZM150.869 146.827H151.441C152.013 146.827 152.512 146.693 152.936 146.424C153.439 146.103 153.69 145.514 153.69 144.656C153.69 143.859 153.482 143.317 153.066 143.031C152.72 142.797 152.343 142.68 151.935 142.68H151.129C150.956 142.68 150.869 142.784 150.869 142.992V146.827ZM158.638 151.117C157.702 151.117 156.983 150.84 156.48 150.285C155.977 149.73 155.726 148.955 155.726 147.958C155.726 146.961 155.99 146.164 156.519 145.566C157.056 144.959 157.793 144.656 158.729 144.656C159.674 144.656 160.397 144.938 160.9 145.501C161.403 146.056 161.654 146.831 161.654 147.828C161.654 148.825 161.385 149.622 160.848 150.22C160.319 150.818 159.583 151.117 158.638 151.117ZM156.987 147.789C156.987 148.56 157.143 149.193 157.455 149.687C157.767 150.181 158.192 150.428 158.729 150.428C159.266 150.428 159.648 150.298 159.873 150.038C160.029 149.865 160.155 149.592 160.25 149.219C160.345 148.838 160.393 148.426 160.393 147.984C160.393 147.213 160.237 146.58 159.925 146.086C159.613 145.592 159.188 145.345 158.651 145.345C158.114 145.345 157.732 145.475 157.507 145.735C157.351 145.908 157.225 146.186 157.13 146.567C157.035 146.94 156.987 147.347 156.987 147.789ZM164.976 145.345C164.213 145.345 163.832 145.605 163.832 146.125C163.832 146.333 163.884 146.489 163.988 146.593C164.092 146.688 164.166 146.762 164.209 146.814C164.261 146.857 164.356 146.914 164.495 146.983C164.634 147.052 164.729 147.104 164.781 147.139C164.842 147.165 164.959 147.213 165.132 147.282C165.86 147.585 166.371 147.871 166.666 148.14C166.961 148.409 167.108 148.79 167.108 149.284C167.108 149.778 166.887 150.207 166.445 150.571C166.012 150.935 165.414 151.117 164.651 151.117C164.313 151.117 163.962 151.082 163.598 151.013C163.234 150.944 162.97 150.874 162.805 150.805C162.788 150.692 162.779 150.463 162.779 150.116C162.779 149.769 162.818 149.392 162.896 148.985L163.572 148.933C163.633 149.488 163.676 149.83 163.702 149.96C163.737 150.081 163.784 150.159 163.845 150.194C164.122 150.35 164.486 150.428 164.937 150.428C165.639 150.428 165.99 150.146 165.99 149.583C165.99 149.314 165.886 149.093 165.678 148.92C165.444 148.729 165.175 148.569 164.872 148.439C164.075 148.11 163.529 147.811 163.234 147.542C162.948 147.265 162.805 146.883 162.805 146.398C162.805 145.913 163.026 145.501 163.468 145.163C163.91 144.825 164.443 144.656 165.067 144.656C165.691 144.656 166.263 144.764 166.783 144.981C166.792 145.05 166.796 145.245 166.796 145.566C166.796 145.887 166.74 146.225 166.627 146.58L166.029 146.645C165.968 145.969 165.869 145.583 165.73 145.488C165.6 145.393 165.349 145.345 164.976 145.345ZM168.844 149.219V145.644H167.999L167.947 145.085L168.584 144.929C168.748 144.886 168.857 144.79 168.909 144.643C168.969 144.487 169.073 144.002 169.221 143.187L170.014 143.109V144.851H171.821L171.717 145.462L170.014 145.657V148.829C170.014 149.73 170.291 150.181 170.846 150.181C171.158 150.181 171.487 150.051 171.834 149.791L172.107 150.168C171.639 150.801 171.067 151.117 170.391 151.117C169.905 151.117 169.524 150.948 169.247 150.61C168.978 150.272 168.844 149.808 168.844 149.219ZM50.2716 168L50.1936 167.493C50.6529 167.415 50.9302 167.328 51.0256 167.233C51.1296 167.138 51.1816 166.956 51.1816 166.687V160.304C51.1816 160.035 51.1296 159.853 51.0256 159.758C50.9302 159.663 50.6529 159.576 50.1936 159.498L50.2716 158.991H53.8986C54.8172 158.991 55.5062 159.216 55.9656 159.667C56.4249 160.109 56.6546 160.737 56.6546 161.552C56.6546 162.367 56.3512 163.064 55.7446 163.645C55.1466 164.226 54.2712 164.516 53.1186 164.516H52.4426V166.999C52.4426 167.207 52.5292 167.32 52.7026 167.337L54.0156 167.493L53.9636 168H50.2716ZM52.4426 163.827H53.0146C53.5866 163.827 54.0849 163.693 54.5096 163.424C55.0122 163.103 55.2636 162.514 55.2636 161.656C55.2636 160.859 55.0556 160.317 54.6396 160.031C54.2929 159.797 53.9159 159.68 53.5086 159.68H52.7026C52.5292 159.68 52.4426 159.784 52.4426 159.992V163.827ZM57.4293 166.401C57.4293 165.751 57.7066 165.266 58.2613 164.945C58.816 164.624 59.7173 164.46 60.9653 164.451V164.035C60.9653 162.908 60.558 162.345 59.7433 162.345C59.3533 162.345 59.1063 162.401 59.0023 162.514C58.907 162.627 58.803 162.995 58.6903 163.619L57.9883 163.541C57.919 163.272 57.8843 162.995 57.8843 162.709C57.8843 162.414 57.8886 162.224 57.8973 162.137C58.4086 161.816 59.0803 161.656 59.9123 161.656C60.7443 161.656 61.3206 161.816 61.6413 162.137C61.9706 162.458 62.1353 162.986 62.1353 163.723V166.713C62.1353 166.938 62.1873 167.099 62.2913 167.194C62.404 167.281 62.6813 167.367 63.1233 167.454L63.0453 167.87L61.4853 168.039C61.3986 168.039 61.3076 167.957 61.2123 167.792C61.117 167.627 61.0693 167.476 61.0693 167.337C61.0693 167.19 61.0736 167.081 61.0823 167.012L60.9783 166.973L60.8223 167.207C60.415 167.814 59.856 168.117 59.1453 168.117C58.66 168.117 58.2526 167.965 57.9233 167.662C57.594 167.359 57.4293 166.938 57.4293 166.401ZM58.6903 166.284C58.6903 166.596 58.7726 166.834 58.9373 166.999C59.102 167.155 59.336 167.233 59.6393 167.233C59.9426 167.233 60.285 167.086 60.6663 166.791C60.8656 166.635 60.9653 166.47 60.9653 166.297V165.023C60.1853 165.04 59.609 165.144 59.2363 165.335C58.8723 165.526 58.6903 165.842 58.6903 166.284ZM64.1466 168L64.0686 167.493C64.4933 167.406 64.749 167.32 64.8356 167.233C64.931 167.138 64.9786 166.977 64.9786 166.752V163.008C64.9786 162.783 64.9223 162.627 64.8096 162.54C64.7056 162.445 64.4326 162.354 63.9906 162.267L64.0686 161.851L65.7456 161.682C65.8063 161.682 65.867 161.803 65.9276 162.046C65.997 162.289 66.0316 162.501 66.0316 162.683V162.761L66.1356 162.8L66.2916 162.618C66.8376 161.977 67.505 161.656 68.2936 161.656C68.8483 161.656 69.286 161.825 69.6066 162.163C69.9273 162.492 70.0876 162.956 70.0876 163.554V167.064C70.0876 167.168 70.1093 167.237 70.1526 167.272C70.2046 167.298 70.2696 167.32 70.3476 167.337L70.9846 167.493L70.9326 168H68.1506L68.0726 167.493C68.4626 167.415 68.701 167.328 68.7876 167.233C68.8743 167.138 68.9176 166.977 68.9176 166.752V163.944C68.9176 163.537 68.844 163.212 68.6966 162.969C68.5493 162.718 68.259 162.592 67.8256 162.592C67.401 162.592 66.9373 162.761 66.4346 163.099C66.3566 163.151 66.3003 163.19 66.2656 163.216C66.1876 163.303 66.1486 163.463 66.1486 163.697V167.051C66.1486 167.146 66.1616 167.211 66.1876 167.246C66.2223 167.281 66.296 167.311 66.4086 167.337L66.9806 167.493L66.9286 168H64.1466ZM75.9598 167.142C75.4571 167.792 74.8548 168.117 74.1528 168.117C73.4508 168.117 72.8745 167.84 72.4238 167.285C71.9731 166.722 71.7478 165.955 71.7478 164.984C71.7478 164.013 72.0035 163.216 72.5148 162.592C73.0261 161.968 73.7411 161.656 74.6598 161.656C75.2925 161.656 75.7605 161.769 76.0638 161.994L76.1548 161.955C76.1201 161.816 76.1028 161.626 76.1028 161.383V159.199C76.1028 159.017 76.0118 158.883 75.8298 158.796C75.6565 158.701 75.3401 158.623 74.8808 158.562L74.9588 158.146C75.8861 158.025 76.6098 157.964 77.1298 157.964L77.2728 158.094V166.726C77.2728 166.951 77.3248 167.112 77.4288 167.207C77.5415 167.294 77.8188 167.38 78.2608 167.467L78.1828 167.883L76.6228 168.052C76.5361 168.052 76.4408 167.965 76.3368 167.792C76.2328 167.619 76.1808 167.463 76.1808 167.324C76.1808 167.185 76.1851 167.081 76.1938 167.012L76.0898 166.973L75.9598 167.142ZM73.0088 164.672C73.0088 165.53 73.1431 166.163 73.4118 166.57C73.6891 166.977 74.0358 167.181 74.4518 167.181C74.8678 167.181 75.3011 167.034 75.7518 166.739C75.9858 166.583 76.1028 166.384 76.1028 166.141V163.034C75.7475 162.609 75.1928 162.397 74.4388 162.397C74.0661 162.397 73.7715 162.518 73.5548 162.761C73.1908 163.168 73.0088 163.805 73.0088 164.672ZM81.8792 168.117C81.0038 168.117 80.3235 167.818 79.8382 167.22C79.3615 166.622 79.1232 165.868 79.1232 164.958C79.1232 164.039 79.4005 163.259 79.9552 162.618C80.5098 161.977 81.2422 161.656 82.1522 161.656C83.6255 161.656 84.3968 162.562 84.4662 164.373L84.1282 164.62L80.3582 164.828C80.3582 166.431 81.0428 167.233 82.4122 167.233C83.0102 167.233 83.5952 167.086 84.1672 166.791L84.4402 167.22C84.1542 167.454 83.7815 167.662 83.3222 167.844C82.8628 168.026 82.3818 168.117 81.8792 168.117ZM80.3972 164.23L83.0882 163.996C83.1748 163.987 83.2182 163.905 83.2182 163.749C83.2182 163.368 83.1142 163.038 82.9062 162.761C82.7068 162.484 82.3645 162.345 81.8792 162.345C81.3938 162.345 81.0385 162.51 80.8132 162.839C80.5965 163.16 80.4578 163.623 80.3972 164.23ZM85.5002 168L85.4222 167.493C85.8468 167.406 86.1025 167.32 86.1892 167.233C86.2845 167.138 86.3322 166.977 86.3322 166.752V163.008C86.3322 162.783 86.2758 162.627 86.1632 162.54C86.0592 162.445 85.7862 162.354 85.3442 162.267L85.4222 161.851L87.0992 161.682C87.1598 161.682 87.2205 161.803 87.2812 162.046C87.3505 162.28 87.3852 162.492 87.3852 162.683V162.761L87.4762 162.8L87.6062 162.631C87.8228 162.354 88.0958 162.124 88.4252 161.942C88.7632 161.751 89.1185 161.656 89.4912 161.656C90.3232 161.656 90.8518 162.029 91.0772 162.774L91.1682 162.787L91.3112 162.605C91.8052 161.972 92.4248 161.656 93.1702 161.656C93.6988 161.656 94.1105 161.825 94.4052 162.163C94.7085 162.501 94.8602 162.965 94.8602 163.554V167.064C94.8602 167.168 94.8818 167.237 94.9252 167.272C94.9772 167.298 95.0422 167.32 95.1202 167.337L95.7572 167.493L95.7052 168H92.9232L92.8452 167.493C93.2352 167.415 93.4735 167.328 93.5602 167.233C93.6468 167.138 93.6902 166.977 93.6902 166.752V163.801C93.6902 162.995 93.3652 162.592 92.7152 162.592C92.3772 162.592 91.9525 162.761 91.4412 163.099C91.3372 163.16 91.2678 163.229 91.2332 163.307C91.1985 163.376 91.1812 163.506 91.1812 163.697V167.064C91.1812 167.168 91.2028 167.237 91.2462 167.272C91.2982 167.298 91.3632 167.32 91.4412 167.337L92.0132 167.493L91.9612 168H89.2442L89.1662 167.493C89.5562 167.415 89.7945 167.328 89.8812 167.233C89.9678 167.138 90.0112 166.977 90.0112 166.752V163.801C90.0112 162.995 89.6862 162.592 89.0362 162.592C88.6982 162.592 88.2735 162.761 87.7622 163.099C87.6582 163.16 87.5888 163.229 87.5542 163.307C87.5195 163.376 87.5022 163.506 87.5022 163.697V167.064C87.5022 167.168 87.5238 167.237 87.5672 167.272C87.6192 167.298 87.6842 167.32 87.7622 167.337L88.3342 167.493L88.2822 168H85.5002ZM96.672 168L96.594 167.493C97.0187 167.406 97.2744 167.32 97.361 167.233C97.4564 167.138 97.504 166.977 97.504 166.752V163.021C97.504 162.839 97.4347 162.709 97.296 162.631C97.1574 162.544 96.8974 162.462 96.516 162.384L96.594 161.968C97.5214 161.847 98.167 161.786 98.531 161.786L98.674 161.916V167.064C98.674 167.168 98.6957 167.237 98.739 167.272C98.791 167.298 98.856 167.32 98.934 167.337L99.571 167.493L99.519 168H96.672ZM98.687 159.472C98.687 159.689 98.6177 159.871 98.479 160.018C98.349 160.165 98.1714 160.239 97.946 160.239C97.7294 160.239 97.5474 160.174 97.4 160.044C97.2614 159.914 97.192 159.736 97.192 159.511C97.192 159.277 97.257 159.091 97.387 158.952C97.5257 158.813 97.712 158.744 97.946 158.744C98.44 158.744 98.687 158.987 98.687 159.472ZM101.151 162.748C101.368 162.41 101.684 162.146 102.1 161.955C102.525 161.756 103.045 161.656 103.66 161.656C104.284 161.656 104.9 161.777 105.506 162.02C105.515 162.089 105.519 162.315 105.519 162.696C105.519 163.069 105.467 163.437 105.363 163.801L104.635 163.879C104.497 163.004 104.367 162.54 104.245 162.488C104.063 162.41 103.738 162.371 103.27 162.371C102.802 162.371 102.46 162.531 102.243 162.852C101.94 163.311 101.788 163.966 101.788 164.815C101.788 165.656 101.97 166.271 102.334 166.661C102.707 167.042 103.188 167.233 103.777 167.233C104.375 167.233 104.952 167.042 105.506 166.661L105.87 167.09C105.168 167.775 104.341 168.117 103.387 168.117C102.443 168.117 101.728 167.822 101.242 167.233C100.766 166.635 100.527 165.898 100.527 165.023C100.527 164.139 100.735 163.381 101.151 162.748ZM110.003 168L109.925 167.493C110.384 167.415 110.662 167.328 110.757 167.233C110.861 167.138 110.913 166.956 110.913 166.687V160.304C110.913 160.035 110.861 159.853 110.757 159.758C110.662 159.663 110.384 159.576 109.925 159.498L110.003 158.991H113.617C114.544 158.991 115.233 159.182 115.684 159.563C116.135 159.944 116.36 160.46 116.36 161.11C116.36 161.76 116.182 162.328 115.827 162.813C115.472 163.29 114.973 163.636 114.332 163.853V163.918C114.419 163.944 114.514 164.039 114.618 164.204L116.451 166.96C116.581 167.151 116.707 167.281 116.828 167.35C116.958 167.419 117.188 167.467 117.517 167.493L117.439 168H115.593L113.019 164.048H112.174V166.999C112.174 167.19 112.261 167.302 112.434 167.337L113.149 167.493L113.097 168H110.003ZM112.174 163.385H112.889C113.574 163.385 114.089 163.238 114.436 162.943C114.791 162.64 114.969 162.089 114.969 161.292C114.969 160.217 114.384 159.68 113.214 159.68H112.434C112.261 159.68 112.174 159.784 112.174 159.992V163.385ZM120.765 168.117C119.89 168.117 119.209 167.818 118.724 167.22C118.247 166.622 118.009 165.868 118.009 164.958C118.009 164.039 118.286 163.259 118.841 162.618C119.396 161.977 120.128 161.656 121.038 161.656C122.511 161.656 123.283 162.562 123.352 164.373L123.014 164.62L119.244 164.828C119.244 166.431 119.929 167.233 121.298 167.233C121.896 167.233 122.481 167.086 123.053 166.791L123.326 167.22C123.04 167.454 122.667 167.662 122.208 167.844C121.749 168.026 121.268 168.117 120.765 168.117ZM119.283 164.23L121.974 163.996C122.061 163.987 122.104 163.905 122.104 163.749C122.104 163.368 122 163.038 121.792 162.761C121.593 162.484 121.25 162.345 120.765 162.345C120.28 162.345 119.924 162.51 119.699 162.839C119.482 163.16 119.344 163.623 119.283 164.23ZM124.841 162.748C125.058 162.41 125.374 162.146 125.79 161.955C126.215 161.756 126.735 161.656 127.35 161.656C127.974 161.656 128.589 161.777 129.196 162.02C129.205 162.089 129.209 162.315 129.209 162.696C129.209 163.069 129.157 163.437 129.053 163.801L128.325 163.879C128.186 163.004 128.056 162.54 127.935 162.488C127.753 162.41 127.428 162.371 126.96 162.371C126.492 162.371 126.15 162.531 125.933 162.852C125.63 163.311 125.478 163.966 125.478 164.815C125.478 165.656 125.66 166.271 126.024 166.661C126.397 167.042 126.878 167.233 127.467 167.233C128.065 167.233 128.641 167.042 129.196 166.661L129.56 167.09C128.858 167.775 128.03 168.117 127.077 168.117C126.132 168.117 125.417 167.822 124.932 167.233C124.455 166.635 124.217 165.898 124.217 165.023C124.217 164.139 124.425 163.381 124.841 162.748ZM133.184 168.117C132.248 168.117 131.529 167.84 131.026 167.285C130.523 166.73 130.272 165.955 130.272 164.958C130.272 163.961 130.536 163.164 131.065 162.566C131.602 161.959 132.339 161.656 133.275 161.656C134.22 161.656 134.943 161.938 135.446 162.501C135.949 163.056 136.2 163.831 136.2 164.828C136.2 165.825 135.931 166.622 135.394 167.22C134.865 167.818 134.129 168.117 133.184 168.117ZM131.533 164.789C131.533 165.56 131.689 166.193 132.001 166.687C132.313 167.181 132.738 167.428 133.275 167.428C133.812 167.428 134.194 167.298 134.419 167.038C134.575 166.865 134.701 166.592 134.796 166.219C134.891 165.838 134.939 165.426 134.939 164.984C134.939 164.213 134.783 163.58 134.471 163.086C134.159 162.592 133.734 162.345 133.197 162.345C132.66 162.345 132.278 162.475 132.053 162.735C131.897 162.908 131.771 163.186 131.676 163.567C131.581 163.94 131.533 164.347 131.533 164.789ZM139.353 168.117L137.299 162.826C137.238 162.661 137.178 162.557 137.117 162.514C137.056 162.471 136.887 162.419 136.61 162.358L136.688 161.851H139.366L139.418 162.358L138.625 162.553C138.564 162.562 138.534 162.596 138.534 162.657C138.534 162.666 138.551 162.722 138.586 162.826L139.756 166.102C139.86 166.405 139.912 166.644 139.912 166.817H140.016L141.459 163.125C141.511 162.986 141.537 162.874 141.537 162.787C141.537 162.692 141.472 162.614 141.342 162.553C141.221 162.492 141 162.427 140.679 162.358L140.757 161.851H143.071L143.123 162.358C142.846 162.427 142.677 162.475 142.616 162.501C142.555 162.518 142.521 162.544 142.512 162.579L140.198 168.117H139.353ZM146.257 168.117C145.382 168.117 144.701 167.818 144.216 167.22C143.739 166.622 143.501 165.868 143.501 164.958C143.501 164.039 143.778 163.259 144.333 162.618C144.888 161.977 145.62 161.656 146.53 161.656C148.003 161.656 148.775 162.562 148.844 164.373L148.506 164.62L144.736 164.828C144.736 166.431 145.421 167.233 146.79 167.233C147.388 167.233 147.973 167.086 148.545 166.791L148.818 167.22C148.532 167.454 148.159 167.662 147.7 167.844C147.241 168.026 146.76 168.117 146.257 168.117ZM144.775 164.23L147.466 163.996C147.553 163.987 147.596 163.905 147.596 163.749C147.596 163.368 147.492 163.038 147.284 162.761C147.085 162.484 146.742 162.345 146.257 162.345C145.772 162.345 145.416 162.51 145.191 162.839C144.974 163.16 144.836 163.623 144.775 164.23ZM149.787 168L149.709 167.493C150.168 167.415 150.45 167.328 150.554 167.233C150.658 167.138 150.71 166.977 150.71 166.752V163.008C150.71 162.783 150.649 162.622 150.528 162.527C150.415 162.423 150.116 162.336 149.631 162.267L149.709 161.851L151.477 161.682C151.538 161.682 151.603 161.769 151.672 161.942C151.741 162.115 151.776 162.297 151.776 162.488C151.776 162.67 151.759 162.882 151.724 163.125L151.828 163.164L151.997 162.787C152.153 162.44 152.387 162.167 152.699 161.968C153.02 161.76 153.34 161.656 153.661 161.656C153.99 161.656 154.294 161.725 154.571 161.864C154.571 162.575 154.506 163.285 154.376 163.996L153.739 164.061C153.67 163.333 153.6 162.921 153.531 162.826C153.462 162.722 153.345 162.67 153.18 162.67C153.024 162.67 152.838 162.744 152.621 162.891C152.404 163.03 152.227 163.181 152.088 163.346C151.949 163.502 151.88 163.762 151.88 164.126V167.064C151.88 167.177 151.902 167.25 151.945 167.285C151.997 167.311 152.062 167.328 152.14 167.337L153.323 167.493L153.271 168H149.787ZM155.255 169.521C155.463 169.547 155.749 169.56 156.113 169.56C156.486 169.56 156.781 169.512 156.997 169.417C157.214 169.33 157.474 168.858 157.777 168L155.619 162.826C155.55 162.661 155.485 162.557 155.424 162.514C155.372 162.471 155.208 162.419 154.93 162.358L155.008 161.851H157.686L157.738 162.358L156.945 162.553C156.885 162.562 156.854 162.596 156.854 162.657C156.854 162.666 156.872 162.722 156.906 162.826L158.232 166.297C158.276 166.418 158.297 166.553 158.297 166.7H158.401L159.779 163.125C159.831 162.986 159.857 162.874 159.857 162.787C159.857 162.692 159.792 162.614 159.662 162.553C159.541 162.492 159.32 162.427 158.999 162.358L159.077 161.851H161.391L161.443 162.358C161.062 162.445 160.858 162.518 160.832 162.579L158.778 167.675C158.605 168.108 158.466 168.438 158.362 168.663C158.258 168.897 158.115 169.157 157.933 169.443C157.751 169.729 157.561 169.95 157.361 170.106C156.867 170.479 156.269 170.726 155.567 170.847C155.342 170.622 155.229 170.266 155.229 169.781C155.229 169.729 155.238 169.642 155.255 169.521Z" fill="white"/>
<circle r="1.76978" transform="matrix(-0.00954434 -0.999954 -0.999954 0.00954434 43.249 48.1896)" fill="white" fill-opacity="0.1"/>
<circle r="1.76978" transform="matrix(-0.00954434 -0.999954 -0.999954 0.00954434 43.2039 43.4704)" fill="white" fill-opacity="0.1"/>
<circle r="1.76978" transform="matrix(-0.00954434 -0.999954 -0.999954 0.00954434 43.1589 38.7512)" fill="white" fill-opacity="0.1"/>
<circle r="1.76978" transform="matrix(-0.00954434 -0.999954 -0.999954 0.00954434 43.1139 34.0319)" fill="white" fill-opacity="0.1"/>
<circle r="1.76978" transform="matrix(-0.00954434 -0.999954 -0.999954 0.00954434 43.0688 29.3127)" fill="white" fill-opacity="0.1"/>
<circle r="1.76978" transform="matrix(-0.00954434 -0.999954 -0.999954 0.00954434 43.0238 24.5935)" fill="white" fill-opacity="0.1"/>
<circle r="1.76978" transform="matrix(-0.00954434 -0.999954 -0.999954 0.00954434 42.9787 19.8743)" fill="white" fill-opacity="0.1"/>
<circle r="1.76978" transform="matrix(-0.00954434 -0.999954 -0.999954 0.00954434 42.9337 15.1551)" fill="white" fill-opacity="0.1"/>
<circle r="1.76978" transform="matrix(-0.00954434 -0.999954 -0.999954 0.00954434 42.8886 10.4359)" fill="white" fill-opacity="0.1"/>
<circle r="1.76978" transform="matrix(-0.00954434 -0.999954 -0.999954 0.00954434 42.8436 5.71669)" fill="white" fill-opacity="0.1"/>
<circle r="1.76978" transform="matrix(-0.00954434 -0.999954 -0.999954 0.00954434 38.4841 43.5154)" fill="white" fill-opacity="0.1"/>
<circle r="1.76978" transform="matrix(-0.00954434 -0.999954 -0.999954 0.00954434 38.4397 38.7962)" fill="white" fill-opacity="0.1"/>
<circle r="1.76978" transform="matrix(-0.00954434 -0.999954 -0.999954 0.00954434 38.3946 34.077)" fill="white" fill-opacity="0.1"/>
<circle r="1.76978" transform="matrix(-0.00954434 -0.999954 -0.999954 0.00954434 38.3496 29.3578)" fill="white" fill-opacity="0.1"/>
<circle r="1.76978" transform="matrix(-0.00954434 -0.999954 -0.999954 0.00954434 38.3046 24.6386)" fill="white" fill-opacity="0.1"/>
<circle r="1.76978" transform="matrix(-0.00954434 -0.999954 -0.999954 0.00954434 38.2595 19.9194)" fill="white" fill-opacity="0.1"/>
<circle r="1.76978" transform="matrix(-0.00954434 -0.999954 -0.999954 0.00954434 38.2145 15.2001)" fill="white" fill-opacity="0.1"/>
<circle r="1.76978" transform="matrix(-0.00954434 -0.999954 -0.999954 0.00954434 38.1695 10.4809)" fill="white" fill-opacity="0.1"/>
<circle r="1.76978" transform="matrix(-0.00954434 -0.999954 -0.999954 0.00954434 38.1244 5.76173)" fill="white" fill-opacity="0.1"/>
<circle r="1.76978" transform="matrix(-0.00954434 -0.999954 -0.999954 0.00954434 38.0793 1.04252)" fill="white" fill-opacity="0.1"/>
<circle r="1.76978" transform="matrix(-0.00954434 -0.999954 -0.999954 0.00954434 33.7205 38.8412)" fill="white" fill-opacity="0.1"/>
<circle r="1.76978" transform="matrix(-0.00954434 -0.999954 -0.999954 0.00954434 33.6754 34.122)" fill="white" fill-opacity="0.1"/>
<circle r="1.76978" transform="matrix(-0.00954434 -0.999954 -0.999954 0.00954434 33.6304 29.4028)" fill="white" fill-opacity="0.1"/>
<circle r="1.76978" transform="matrix(-0.00954434 -0.999954 -0.999954 0.00954434 33.5854 24.6836)" fill="white" fill-opacity="0.1"/>
<circle r="1.76978" transform="matrix(-0.00954434 -0.999954 -0.999954 0.00954434 33.5403 19.9644)" fill="white" fill-opacity="0.1"/>
<circle r="1.76978" transform="matrix(-0.00954434 -0.999954 -0.999954 0.00954434 33.4953 15.2452)" fill="white" fill-opacity="0.1"/>
<circle r="1.76978" transform="matrix(-0.00954434 -0.999954 -0.999954 0.00954434 33.4502 10.526)" fill="white" fill-opacity="0.1"/>
<circle r="1.76978" transform="matrix(-0.00954434 -0.999954 -0.999954 0.00954434 33.4052 5.80677)" fill="white" fill-opacity="0.1"/>
<circle r="1.76978" transform="matrix(-0.00954434 -0.999954 -0.999954 0.00954434 33.3601 1.08756)" fill="white" fill-opacity="0.1"/>
<circle r="1.76978" transform="matrix(-0.00954434 -0.999954 -0.999954 0.00954434 28.9563 34.1671)" fill="white" fill-opacity="0.1"/>
<circle r="1.76978" transform="matrix(-0.00954434 -0.999954 -0.999954 0.00954434 28.9112 29.4479)" fill="white" fill-opacity="0.1"/>
<circle r="1.76978" transform="matrix(-0.00954434 -0.999954 -0.999954 0.00954434 28.8662 24.7287)" fill="white" fill-opacity="0.1"/>
<circle r="1.76978" transform="matrix(-0.00954434 -0.999954 -0.999954 0.00954434 28.8211 20.0095)" fill="white" fill-opacity="0.1"/>
<circle r="1.76978" transform="matrix(-0.00954434 -0.999954 -0.999954 0.00954434 28.7761 15.2902)" fill="white" fill-opacity="0.1"/>
<circle r="1.76978" transform="matrix(-0.00954434 -0.999954 -0.999954 0.00954434 28.731 10.5711)" fill="white" fill-opacity="0.1"/>
<circle r="1.76978" transform="matrix(-0.00954434 -0.999954 -0.999954 0.00954434 28.686 5.85184)" fill="white" fill-opacity="0.1"/>
<circle r="1.76978" transform="matrix(-0.00954434 -0.999954 -0.999954 0.00954434 28.641 1.13263)" fill="white" fill-opacity="0.1"/>
<circle r="1.76978" transform="matrix(-0.00954434 -0.999954 -0.999954 0.00954434 24.192 29.4929)" fill="white" fill-opacity="0.1"/>
<circle r="1.76978" transform="matrix(-0.00954434 -0.999954 -0.999954 0.00954434 24.1469 24.7737)" fill="white" fill-opacity="0.1"/>
<circle r="1.76978" transform="matrix(-0.00954434 -0.999954 -0.999954 0.00954434 24.1019 20.0545)" fill="white" fill-opacity="0.1"/>
<circle r="1.76978" transform="matrix(-0.00954434 -0.999954 -0.999954 0.00954434 24.0568 15.3353)" fill="white" fill-opacity="0.1"/>
<circle r="1.76978" transform="matrix(-0.00954434 -0.999954 -0.999954 0.00954434 24.0118 10.6161)" fill="white" fill-opacity="0.1"/>
<circle r="1.76978" transform="matrix(-0.00954434 -0.999954 -0.999954 0.00954434 23.9668 5.89687)" fill="white" fill-opacity="0.1"/>
<circle r="1.76978" transform="matrix(-0.00954434 -0.999954 -0.999954 0.00954434 23.9217 1.17766)" fill="white" fill-opacity="0.1"/>
<circle r="1.76978" transform="matrix(-0.00954434 -0.999954 -0.999954 0.00954434 186.249 270.136)" fill="white" fill-opacity="0.07"/>
<circle r="1.76978" transform="matrix(-0.00954434 -0.999954 -0.999954 0.00954434 186.204 265.417)" fill="white" fill-opacity="0.07"/>
<circle r="1.76978" transform="matrix(-0.00954434 -0.999954 -0.999954 0.00954434 186.159 260.698)" fill="white" fill-opacity="0.07"/>
<circle r="1.76978" transform="matrix(-0.00954434 -0.999954 -0.999954 0.00954434 186.114 255.979)" fill="white" fill-opacity="0.07"/>
<circle r="1.76978" transform="matrix(-0.00954434 -0.999954 -0.999954 0.00954434 186.069 251.259)" fill="white" fill-opacity="0.07"/>
<circle r="1.76978" transform="matrix(-0.00954434 -0.999954 -0.999954 0.00954434 186.024 246.54)" fill="white" fill-opacity="0.07"/>
<circle r="1.76978" transform="matrix(-0.00954434 -0.999954 -0.999954 0.00954434 185.979 241.821)" fill="white" fill-opacity="0.07"/>
<circle r="1.76978" transform="matrix(-0.00954434 -0.999954 -0.999954 0.00954434 185.934 237.102)" fill="white" fill-opacity="0.07"/>
<circle r="1.76978" transform="matrix(-0.00954434 -0.999954 -0.999954 0.00954434 185.889 232.383)" fill="white" fill-opacity="0.07"/>
<circle r="1.76978" transform="matrix(-0.00954434 -0.999954 -0.999954 0.00954434 185.844 227.663)" fill="white" fill-opacity="0.07"/>
<circle r="1.76978" transform="matrix(-0.00954434 -0.999954 -0.999954 0.00954434 181.484 265.462)" fill="white" fill-opacity="0.07"/>
<circle r="1.76978" transform="matrix(-0.00954434 -0.999954 -0.999954 0.00954434 181.44 260.743)" fill="white" fill-opacity="0.07"/>
<circle r="1.76978" transform="matrix(-0.00954434 -0.999954 -0.999954 0.00954434 181.395 256.024)" fill="white" fill-opacity="0.07"/>
<circle r="1.76978" transform="matrix(-0.00954434 -0.999954 -0.999954 0.00954434 181.35 251.304)" fill="white" fill-opacity="0.07"/>
<circle r="1.76978" transform="matrix(-0.00954434 -0.999954 -0.999954 0.00954434 181.305 246.585)" fill="white" fill-opacity="0.07"/>
<circle r="1.76978" transform="matrix(-0.00954434 -0.999954 -0.999954 0.00954434 181.259 241.866)" fill="white" fill-opacity="0.07"/>
<circle r="1.76978" transform="matrix(-0.00954434 -0.999954 -0.999954 0.00954434 181.214 237.147)" fill="white" fill-opacity="0.07"/>
<circle r="1.76978" transform="matrix(-0.00954434 -0.999954 -0.999954 0.00954434 181.169 232.428)" fill="white" fill-opacity="0.07"/>
<circle r="1.76978" transform="matrix(-0.00954434 -0.999954 -0.999954 0.00954434 181.124 227.708)" fill="white" fill-opacity="0.07"/>
<circle r="1.76978" transform="matrix(-0.00954434 -0.999954 -0.999954 0.00954434 181.079 222.989)" fill="white" fill-opacity="0.07"/>
<circle r="1.76978" transform="matrix(-0.00954434 -0.999954 -0.999954 0.00954434 176.72 260.788)" fill="white" fill-opacity="0.07"/>
<circle r="1.76978" transform="matrix(-0.00954434 -0.999954 -0.999954 0.00954434 176.675 256.069)" fill="white" fill-opacity="0.07"/>
<circle r="1.76978" transform="matrix(-0.00954434 -0.999954 -0.999954 0.00954434 176.63 251.35)" fill="white" fill-opacity="0.07"/>
<circle r="1.76978" transform="matrix(-0.00954434 -0.999954 -0.999954 0.00954434 176.585 246.63)" fill="white" fill-opacity="0.07"/>
<circle r="1.76978" transform="matrix(-0.00954434 -0.999954 -0.999954 0.00954434 176.54 241.911)" fill="white" fill-opacity="0.07"/>
<circle r="1.76978" transform="matrix(-0.00954434 -0.999954 -0.999954 0.00954434 176.495 237.192)" fill="white" fill-opacity="0.07"/>
<circle r="1.76978" transform="matrix(-0.00954434 -0.999954 -0.999954 0.00954434 176.45 232.473)" fill="white" fill-opacity="0.07"/>
<circle r="1.76978" transform="matrix(-0.00954434 -0.999954 -0.999954 0.00954434 176.405 227.754)" fill="white" fill-opacity="0.07"/>
<circle r="1.76978" transform="matrix(-0.00954434 -0.999954 -0.999954 0.00954434 176.36 223.034)" fill="white" fill-opacity="0.07"/>
<circle r="1.76978" transform="matrix(-0.00954434 -0.999954 -0.999954 0.00954434 176.315 218.315)" fill="white" fill-opacity="0.07"/>
<circle r="1.76978" transform="matrix(-0.00954434 -0.999954 -0.999954 0.00954434 171.956 256.114)" fill="white" fill-opacity="0.07"/>
<circle r="1.76978" transform="matrix(-0.00954434 -0.999954 -0.999954 0.00954434 171.911 251.395)" fill="white" fill-opacity="0.07"/>
<circle r="1.76978" transform="matrix(-0.00954434 -0.999954 -0.999954 0.00954434 171.866 246.675)" fill="white" fill-opacity="0.07"/>
<circle r="1.76978" transform="matrix(-0.00954434 -0.999954 -0.999954 0.00954434 171.821 241.956)" fill="white" fill-opacity="0.07"/>
<circle r="1.76978" transform="matrix(-0.00954434 -0.999954 -0.999954 0.00954434 171.776 237.237)" fill="white" fill-opacity="0.07"/>
<circle r="1.76978" transform="matrix(-0.00954434 -0.999954 -0.999954 0.00954434 171.731 232.518)" fill="white" fill-opacity="0.07"/>
<circle r="1.76978" transform="matrix(-0.00954434 -0.999954 -0.999954 0.00954434 171.686 227.799)" fill="white" fill-opacity="0.07"/>
<circle r="1.76978" transform="matrix(-0.00954434 -0.999954 -0.999954 0.00954434 171.641 223.079)" fill="white" fill-opacity="0.07"/>
<circle r="1.76978" transform="matrix(-0.00954434 -0.999954 -0.999954 0.00954434 171.596 218.36)" fill="white" fill-opacity="0.07"/>
<circle r="1.76978" transform="matrix(-0.00954434 -0.999954 -0.999954 0.00954434 171.551 213.641)" fill="white" fill-opacity="0.07"/>
<circle r="1.76978" transform="matrix(-0.00954434 -0.999954 -0.999954 0.00954434 167.192 251.44)" fill="white" fill-opacity="0.07"/>
<circle r="1.76978" transform="matrix(-0.00954434 -0.999954 -0.999954 0.00954434 167.147 246.72)" fill="white" fill-opacity="0.07"/>
<circle r="1.76978" transform="matrix(-0.00954434 -0.999954 -0.999954 0.00954434 167.102 242.001)" fill="white" fill-opacity="0.07"/>
<circle r="1.76978" transform="matrix(-0.00954434 -0.999954 -0.999954 0.00954434 167.057 237.282)" fill="white" fill-opacity="0.07"/>
<circle r="1.76978" transform="matrix(-0.00954434 -0.999954 -0.999954 0.00954434 167.012 232.563)" fill="white" fill-opacity="0.07"/>
<circle r="1.76978" transform="matrix(-0.00954434 -0.999954 -0.999954 0.00954434 166.967 227.844)" fill="white" fill-opacity="0.07"/>
<circle r="1.76978" transform="matrix(-0.00954434 -0.999954 -0.999954 0.00954434 166.922 223.124)" fill="white" fill-opacity="0.07"/>
<circle r="1.76978" transform="matrix(-0.00954434 -0.999954 -0.999954 0.00954434 166.877 218.405)" fill="white" fill-opacity="0.07"/>
<circle r="1.76978" transform="matrix(-0.00954434 -0.999954 -0.999954 0.00954434 166.832 213.686)" fill="white" fill-opacity="0.07"/>
<circle r="1.76978" transform="matrix(-0.00954434 -0.999954 -0.999954 0.00954434 166.787 208.967)" fill="white" fill-opacity="0.07"/>
<path fill-rule="evenodd" clip-rule="evenodd" d="M181.033 7.2328C180.415 6.42406 179.23 6.29779 178.52 7.04457C172.942 12.9169 172.25 22.0696 177.265 28.6345C182.281 35.1995 191.294 36.9377 198.426 33.0994C199.333 32.6113 199.523 31.4341 198.905 30.6254C198.333 29.8774 197.276 29.7218 196.424 30.1489C190.868 32.9364 183.98 31.5214 180.113 26.4592C176.245 21.3969 176.691 14.3793 180.841 9.75147C181.477 9.04231 181.605 7.98081 181.033 7.2328Z" fill="white" fill-opacity="0.07"/>
<path fill-rule="evenodd" clip-rule="evenodd" d="M64.9974 299.582C66.4553 300.45 68.3686 299.91 69.0031 298.314C73.9931 285.766 69.3865 271.172 57.5517 264.123C45.717 257.074 30.6905 259.975 22.0338 270.34C20.9329 271.658 21.3693 273.598 22.8272 274.466C24.1757 275.269 25.9093 274.854 26.9619 273.664C33.8312 265.904 45.3688 263.821 54.4946 269.256C63.6204 274.691 67.2844 285.828 63.7327 295.564C63.1885 297.056 63.649 298.779 64.9974 299.582Z" fill="white" fill-opacity="0.05"/>
</g>
<defs>
<clipPath id="clip0">
<rect width="210" height="297" fill="white"/>
</clipPath>
<clipPath id="clip1">
<rect width="528" height="297" fill="white" transform="translate(-225)"/>
</clipPath>
</defs>
</svg>
