<svg xmlns="http://www.w3.org/2000/svg" viewBox="0 0 1366 768"><defs><style>.cls-1{fill:#1283d8;}.cls-2{fill:#365e99;}.cls-3{fill:#346ace;}</style></defs><g id="Layer_2" data-name="Layer 2"><g id="Layer_1-2" data-name="Layer 1"><rect class="cls-1" width="1366" height="768"/><path class="cls-2" d="M1347.25,0c-67.9,32.15-153.82,80.88-235.25,150-158.46,134.51-43,254-283,349C615.93,583.34,616.09,720.16,408,698c-87.94-9.37-135,26-195.69,70H0V685.76C60.06,434,173,32,173,32l39-17L499.27,0Z"/><path class="cls-3" d="M1137.86,0C1093.23,50.22,1005.63,134.66,880,192,731,260,597,475,490,511S203,575,139,671c-35.3,53-87.94,81.26-134.09,97H0V0Z"/></g></g></svg>