<svg width="1500" height="1000" viewBox="0 0 1500 1000" fill="none" xmlns="http://www.w3.org/2000/svg">
<g clip-path="url(#clip0)">
<rect width="1500" height="1000" fill="#E4E9FF"/>
<g style="mix-blend-mode:color-burn">
<circle cx="65" cy="75" r="251" fill="#718BFF" fill-opacity="0.2"/>
</g>
<g style="mix-blend-mode:color-burn">
<circle cx="180" cy="696" r="251" fill="#718BFF" fill-opacity="0.2"/>
</g>
<g style="mix-blend-mode:color-burn">
<circle cx="1062" cy="595" r="251" fill="#718BFF" fill-opacity="0.2"/>
</g>
<g style="mix-blend-mode:color-burn">
<circle cx="994" cy="-75" r="251" fill="#718BFF" fill-opacity="0.2"/>
</g>
<g style="mix-blend-mode:color-burn">
<circle cx="65" cy="376" r="251" fill="#718BFF" fill-opacity="0.2"/>
</g>
<g style="mix-blend-mode:color-burn">
<circle cx="180" cy="997" r="251" fill="#718BFF" fill-opacity="0.2"/>
</g>
<g style="mix-blend-mode:color-burn">
<circle cx="1062" cy="896" r="251" fill="#718BFF" fill-opacity="0.2"/>
</g>
<g style="mix-blend-mode:color-burn">
<circle cx="994" cy="226" r="251" fill="#718BFF" fill-opacity="0.2"/>
</g>
<g style="mix-blend-mode:color-burn">
<circle cx="334.5" cy="85.5" r="214.5" fill="#718BFF" fill-opacity="0.2"/>
</g>
<g style="mix-blend-mode:color-burn">
<circle cx="449.5" cy="706.5" r="214.5" fill="#718BFF" fill-opacity="0.2"/>
</g>
<g style="mix-blend-mode:color-burn">
<circle cx="1331.5" cy="605.5" r="214.5" fill="#718BFF" fill-opacity="0.2"/>
</g>
<g style="mix-blend-mode:color-burn">
<circle cx="1263.5" cy="-64.5" r="214.5" fill="#718BFF" fill-opacity="0.2"/>
</g>
<g style="mix-blend-mode:color-burn">
<circle cx="410" cy="433" r="187" fill="#718BFF" fill-opacity="0.2"/>
</g>
<g style="mix-blend-mode:color-burn">
<circle cx="525" cy="1054" r="187" fill="#718BFF" fill-opacity="0.2"/>
</g>
<g style="mix-blend-mode:color-burn">
<circle cx="1407" cy="953" r="187" fill="#718BFF" fill-opacity="0.2"/>
</g>
<g style="mix-blend-mode:color-burn">
<circle cx="1339" cy="283" r="187" fill="#718BFF" fill-opacity="0.2"/>
</g>
<g style="mix-blend-mode:color-burn">
<circle cx="599.5" cy="358.5" r="233.5" fill="#718BFF" fill-opacity="0.2"/>
</g>
<g style="mix-blend-mode:color-burn">
<circle cx="714.5" cy="979.5" r="233.5" fill="#718BFF" fill-opacity="0.2"/>
</g>
<g style="mix-blend-mode:color-burn">
<circle cx="1596.5" cy="878.5" r="233.5" fill="#718BFF" fill-opacity="0.2"/>
</g>
<g style="mix-blend-mode:color-burn">
<circle cx="1528.5" cy="208.5" r="233.5" fill="#718BFF" fill-opacity="0.2"/>
</g>
<g style="mix-blend-mode:color-burn">
<circle cx="628.5" cy="85.5" r="164.5" fill="#718BFF" fill-opacity="0.2"/>
</g>
<g style="mix-blend-mode:color-burn">
<circle cx="743.5" cy="706.5" r="164.5" fill="#718BFF" fill-opacity="0.2"/>
</g>
<g style="mix-blend-mode:color-burn">
<circle cx="1625.5" cy="605.5" r="164.5" fill="#718BFF" fill-opacity="0.2"/>
</g>
<g style="mix-blend-mode:color-burn">
<circle cx="1557.5" cy="-64.5" r="164.5" fill="#718BFF" fill-opacity="0.2"/>
</g>
</g>
<defs>
<clipPath id="clip0">
<rect width="1500" height="1000" fill="white"/>
</clipPath>
</defs>
</svg>
