<svg xmlns="http://www.w3.org/2000/svg" viewBox="0 0 14.81 14.81"><defs><style>.cls-1{fill:#fff;}.cls-2{fill:none;}</style></defs><g id="Layer_2" data-name="Layer 2"><g id="Layer_1-2" data-name="Layer 1"><path class="cls-1" d="M8,6.48c.09,0,.11-.06.14-.1a3,3,0,0,1,3.88-.49A2.56,2.56,0,0,1,13,7.61a5.77,5.77,0,0,1,.09,1.1c0,1.4,0,2.8,0,4.2,0,.23,0,.31-.29.31-.61,0-1.23,0-1.84,0-.22,0-.29-.06-.28-.28V9.36a4.15,4.15,0,0,0-.06-.86,1,1,0,0,0-1.06-1,1.21,1.21,0,0,0-1.36.93,4.51,4.51,0,0,0-.1,1.1c0,1.12,0,2.25,0,3.37,0,.23-.07.29-.29.29-.6,0-1.21,0-1.81,0-.24,0-.3-.08-.3-.31,0-1.9,0-3.8,0-5.71,0-.44,0-.89,0-1.33,0-.21.07-.28.27-.27.6,0,1.2,0,1.79,0,.18,0,.26.05.25.24S8,6.27,8,6.48Z"/><path class="cls-1" d="M4.3,9.42c0,1.17,0,2.34,0,3.52,0,.2-.06.28-.28.27q-.93,0-1.86,0c-.21,0-.27-.07-.27-.28V5.87c0-.21.07-.28.28-.27q.93,0,1.86,0c.21,0,.27.07.27.27C4.3,7.05,4.3,8.24,4.3,9.42Z"/><path class="cls-1" d="M3.09,4.61a1.38,1.38,0,0,1,0-2.76,1.38,1.38,0,1,1,0,2.76Z"/><rect class="cls-2" width="14.81" height="14.81"/></g></g></svg>