<svg width="1880" height="753" viewBox="0 0 1880 753" fill="none" xmlns="http://www.w3.org/2000/svg">
<path fill-rule="evenodd" clip-rule="evenodd" d="M-81.7288 985H2219.76C2231.01 942.791 2237 898.44 2237 852.689C2237 569.588 2007.5 340.09 1724.4 340.09C1540.05 340.09 1378.43 437.405 1288.11 583.467C1275.4 604.026 1244.45 606.081 1229.14 587.376C1135.14 472.532 992.27 399.236 832.281 399.236C773.248 399.236 716.545 409.215 663.768 427.579C644.293 434.355 622.687 422.258 618.262 402.119C567.74 172.122 362.77 0 117.599 0C-165.501 0 -395 229.499 -395 512.599C-395 725.001 -265.814 907.23 -81.7288 985Z" fill="#64A8F2" fill-opacity="0.2"/>
<rect x="436" y="230" width="1008" height="611" rx="23" fill="white"/>
<rect x="430" y="224" width="1020" height="623" rx="29" stroke="#487BED" stroke-opacity="0.2" stroke-width="12"/>
<rect x="468" y="280" width="167" height="69" rx="4" fill="#DDEFFF"/>
<rect x="468" y="369" width="167" height="69" rx="4" fill="#FFD7F1"/>
<rect x="857" y="369" width="167" height="69" rx="4" fill="#C7D6FF"/>
<rect x="1246" y="369" width="167" height="69" rx="4" fill="#DCFFCC"/>
<rect x="662" y="369" width="167" height="69" rx="4" fill="#FFC7C7"/>
<rect x="468" y="458" width="167" height="69" rx="4" fill="#DCFFCC"/>
<rect x="857" y="458" width="167" height="69" rx="4" fill="#FFD7F1"/>
<rect x="662" y="458" width="167" height="69" rx="4" fill="white"/>
<rect x="468" y="547" width="167" height="69" rx="4" fill="#DDEFFF"/>
<rect x="857" y="547" width="167" height="69" rx="4" fill="#DDEFFF"/>
<rect x="468" y="636" width="167" height="69" rx="4" fill="#FFC7C7"/>
<rect x="857" y="280" width="167" height="69" rx="4" fill="#FFC7C7"/>
<rect x="662" y="280" width="168" height="69" rx="4" fill="#C7D6FF"/>
<rect x="1051" y="280" width="168" height="69" rx="4" fill="#DCFFCC"/>
<rect x="1246" y="280" width="167" height="69" rx="4" fill="#FFD7F1"/>
<path d="M470.955 262.236H471.541C472.115 262.236 472.539 262.141 472.812 261.949C473.086 261.758 473.223 261.457 473.223 261.047C473.223 260.641 473.082 260.352 472.801 260.18C472.523 260.008 472.092 259.922 471.506 259.922H470.955V262.236ZM470.955 263.713V267H469.139V258.434H471.635C472.799 258.434 473.66 258.646 474.219 259.072C474.777 259.494 475.057 260.137 475.057 261C475.057 261.504 474.918 261.953 474.641 262.348C474.363 262.738 473.971 263.045 473.463 263.268C474.752 265.193 475.592 266.438 475.982 267H473.967L471.922 263.713H470.955ZM479.633 261.598C479.254 261.598 478.957 261.719 478.742 261.961C478.527 262.199 478.404 262.539 478.373 262.98H480.881C480.873 262.539 480.758 262.199 480.535 261.961C480.312 261.719 480.012 261.598 479.633 261.598ZM479.885 267.117C478.83 267.117 478.006 266.826 477.412 266.244C476.818 265.662 476.521 264.838 476.521 263.771C476.521 262.674 476.795 261.826 477.342 261.229C477.893 260.627 478.652 260.326 479.621 260.326C480.547 260.326 481.268 260.59 481.783 261.117C482.299 261.645 482.557 262.373 482.557 263.303V264.17H478.332C478.352 264.678 478.502 265.074 478.783 265.359C479.064 265.645 479.459 265.787 479.967 265.787C480.361 265.787 480.734 265.746 481.086 265.664C481.438 265.582 481.805 265.451 482.188 265.271V266.654C481.875 266.811 481.541 266.926 481.186 267C480.83 267.078 480.396 267.117 479.885 267.117ZM485.568 267L483.072 260.449H484.941L486.207 264.182C486.348 264.654 486.436 265.102 486.471 265.523H486.506C486.525 265.148 486.613 264.701 486.77 264.182L488.029 260.449H489.898L487.402 267H485.568ZM490.766 258.756C490.766 258.174 491.09 257.883 491.738 257.883C492.387 257.883 492.711 258.174 492.711 258.756C492.711 259.033 492.629 259.25 492.465 259.406C492.305 259.559 492.062 259.635 491.738 259.635C491.09 259.635 490.766 259.342 490.766 258.756ZM492.629 267H490.842V260.449H492.629V267ZM497.223 261.598C496.844 261.598 496.547 261.719 496.332 261.961C496.117 262.199 495.994 262.539 495.963 262.98H498.471C498.463 262.539 498.348 262.199 498.125 261.961C497.902 261.719 497.602 261.598 497.223 261.598ZM497.475 267.117C496.42 267.117 495.596 266.826 495.002 266.244C494.408 265.662 494.111 264.838 494.111 263.771C494.111 262.674 494.385 261.826 494.932 261.229C495.482 260.627 496.242 260.326 497.211 260.326C498.137 260.326 498.857 260.59 499.373 261.117C499.889 261.645 500.146 262.373 500.146 263.303V264.17H495.922C495.941 264.678 496.092 265.074 496.373 265.359C496.654 265.645 497.049 265.787 497.557 265.787C497.951 265.787 498.324 265.746 498.676 265.664C499.027 265.582 499.395 265.451 499.777 265.271V266.654C499.465 266.811 499.131 266.926 498.775 267C498.42 267.078 497.986 267.117 497.475 267.117ZM506.984 267L506.48 264.709L505.801 261.814H505.76L504.564 267H502.643L500.779 260.449H502.561L503.316 263.35C503.438 263.869 503.561 264.586 503.686 265.5H503.721C503.736 265.203 503.805 264.732 503.926 264.088L504.02 263.59L504.828 260.449H506.797L507.564 263.59C507.58 263.676 507.604 263.803 507.635 263.971C507.67 264.139 507.703 264.318 507.734 264.51C507.766 264.697 507.793 264.883 507.816 265.066C507.844 265.246 507.859 265.391 507.863 265.5H507.898C507.934 265.219 507.996 264.834 508.086 264.346C508.176 263.854 508.24 263.521 508.279 263.35L509.064 260.449H510.816L508.93 267H506.984Z" fill="black"/>
<path d="M664.953 267H663.166V258.434H668.076V259.922H664.953V262.131H667.859V263.613H664.953V267ZM672.324 261.598C671.945 261.598 671.648 261.719 671.434 261.961C671.219 262.199 671.096 262.539 671.064 262.98H673.572C673.564 262.539 673.449 262.199 673.227 261.961C673.004 261.719 672.703 261.598 672.324 261.598ZM672.576 267.117C671.521 267.117 670.697 266.826 670.104 266.244C669.51 265.662 669.213 264.838 669.213 263.771C669.213 262.674 669.486 261.826 670.033 261.229C670.584 260.627 671.344 260.326 672.312 260.326C673.238 260.326 673.959 260.59 674.475 261.117C674.99 261.645 675.248 262.373 675.248 263.303V264.17H671.023C671.043 264.678 671.193 265.074 671.475 265.359C671.756 265.645 672.15 265.787 672.658 265.787C673.053 265.787 673.426 265.746 673.777 265.664C674.129 265.582 674.496 265.451 674.879 265.271V266.654C674.566 266.811 674.232 266.926 673.877 267C673.521 267.078 673.088 267.117 672.576 267.117ZM679.414 261.598C679.035 261.598 678.738 261.719 678.523 261.961C678.309 262.199 678.186 262.539 678.154 262.98H680.662C680.654 262.539 680.539 262.199 680.316 261.961C680.094 261.719 679.793 261.598 679.414 261.598ZM679.666 267.117C678.611 267.117 677.787 266.826 677.193 266.244C676.6 265.662 676.303 264.838 676.303 263.771C676.303 262.674 676.576 261.826 677.123 261.229C677.674 260.627 678.434 260.326 679.402 260.326C680.328 260.326 681.049 260.59 681.564 261.117C682.08 261.645 682.338 262.373 682.338 263.303V264.17H678.113C678.133 264.678 678.283 265.074 678.564 265.359C678.846 265.645 679.24 265.787 679.748 265.787C680.143 265.787 680.516 265.746 680.867 265.664C681.219 265.582 681.586 265.451 681.969 265.271V266.654C681.656 266.811 681.322 266.926 680.967 267C680.611 267.078 680.178 267.117 679.666 267.117ZM685.865 267.117C685.096 267.117 684.49 266.818 684.049 266.221C683.611 265.623 683.393 264.795 683.393 263.736C683.393 262.662 683.615 261.826 684.061 261.229C684.51 260.627 685.127 260.326 685.912 260.326C686.736 260.326 687.365 260.646 687.799 261.287H687.857C687.768 260.799 687.723 260.363 687.723 259.98V257.883H689.516V267H688.145L687.799 266.15H687.723C687.316 266.795 686.697 267.117 685.865 267.117ZM686.492 265.693C686.949 265.693 687.283 265.561 687.494 265.295C687.709 265.029 687.826 264.578 687.846 263.941V263.748C687.846 263.045 687.736 262.541 687.518 262.236C687.303 261.932 686.951 261.779 686.463 261.779C686.064 261.779 685.754 261.949 685.531 262.289C685.312 262.625 685.203 263.115 685.203 263.76C685.203 264.404 685.314 264.889 685.537 265.213C685.76 265.533 686.078 265.693 686.492 265.693ZM695.029 260.326C695.803 260.326 696.408 260.629 696.846 261.234C697.283 261.836 697.502 262.662 697.502 263.713C697.502 264.795 697.275 265.633 696.822 266.227C696.373 266.82 695.76 267.117 694.982 267.117C694.213 267.117 693.609 266.838 693.172 266.279H693.049L692.75 267H691.385V257.883H693.172V260.004C693.172 260.273 693.148 260.705 693.102 261.299H693.172C693.59 260.65 694.209 260.326 695.029 260.326ZM694.455 261.756C694.014 261.756 693.691 261.893 693.488 262.166C693.285 262.436 693.18 262.883 693.172 263.508V263.701C693.172 264.404 693.275 264.908 693.482 265.213C693.693 265.518 694.025 265.67 694.479 265.67C694.846 265.67 695.137 265.502 695.352 265.166C695.57 264.826 695.68 264.334 695.68 263.689C695.68 263.045 695.57 262.562 695.352 262.242C695.133 261.918 694.834 261.756 694.455 261.756ZM703.139 267L702.793 266.109H702.746C702.445 266.488 702.135 266.752 701.814 266.9C701.498 267.045 701.084 267.117 700.572 267.117C699.943 267.117 699.447 266.938 699.084 266.578C698.725 266.219 698.545 265.707 698.545 265.043C698.545 264.348 698.787 263.836 699.271 263.508C699.76 263.176 700.494 262.992 701.475 262.957L702.611 262.922V262.635C702.611 261.971 702.271 261.639 701.592 261.639C701.068 261.639 700.453 261.797 699.746 262.113L699.154 260.906C699.908 260.512 700.744 260.314 701.662 260.314C702.541 260.314 703.215 260.506 703.684 260.889C704.152 261.271 704.387 261.854 704.387 262.635V267H703.139ZM702.611 263.965L701.92 263.988C701.4 264.004 701.014 264.098 700.76 264.27C700.506 264.441 700.379 264.703 700.379 265.055C700.379 265.559 700.668 265.811 701.246 265.811C701.66 265.811 701.99 265.691 702.236 265.453C702.486 265.215 702.611 264.898 702.611 264.504V263.965ZM708.893 267.117C706.854 267.117 705.834 265.998 705.834 263.76C705.834 262.646 706.111 261.797 706.666 261.211C707.221 260.621 708.016 260.326 709.051 260.326C709.809 260.326 710.488 260.475 711.09 260.771L710.562 262.154C710.281 262.041 710.02 261.949 709.777 261.879C709.535 261.805 709.293 261.768 709.051 261.768C708.121 261.768 707.656 262.428 707.656 263.748C707.656 265.029 708.121 265.67 709.051 265.67C709.395 265.67 709.713 265.625 710.006 265.535C710.299 265.441 710.592 265.297 710.885 265.102V266.631C710.596 266.814 710.303 266.941 710.006 267.012C709.713 267.082 709.342 267.117 708.893 267.117ZM714.125 263.438L714.904 262.441L716.738 260.449H718.754L716.152 263.291L718.912 267H716.85L714.963 264.346L714.195 264.961V267H712.408V257.883H714.195V261.949L714.102 263.438H714.125Z" fill="black"/>
<path d="M863.338 264.621C863.338 265.395 863.059 266.004 862.5 266.449C861.945 266.895 861.172 267.117 860.18 267.117C859.266 267.117 858.457 266.945 857.754 266.602V264.914C858.332 265.172 858.82 265.354 859.219 265.459C859.621 265.564 859.988 265.617 860.32 265.617C860.719 265.617 861.023 265.541 861.234 265.389C861.449 265.236 861.557 265.01 861.557 264.709C861.557 264.541 861.51 264.393 861.416 264.264C861.322 264.131 861.184 264.004 861 263.883C860.82 263.762 860.451 263.568 859.893 263.303C859.369 263.057 858.977 262.82 858.715 262.594C858.453 262.367 858.244 262.104 858.088 261.803C857.932 261.502 857.854 261.15 857.854 260.748C857.854 259.99 858.109 259.395 858.621 258.961C859.137 258.527 859.848 258.311 860.754 258.311C861.199 258.311 861.623 258.363 862.025 258.469C862.432 258.574 862.855 258.723 863.297 258.914L862.711 260.326C862.254 260.139 861.875 260.008 861.574 259.934C861.277 259.859 860.984 259.822 860.695 259.822C860.352 259.822 860.088 259.902 859.904 260.062C859.721 260.223 859.629 260.432 859.629 260.689C859.629 260.85 859.666 260.99 859.74 261.111C859.814 261.229 859.932 261.344 860.092 261.457C860.256 261.566 860.641 261.766 861.246 262.055C862.047 262.438 862.596 262.822 862.893 263.209C863.189 263.592 863.338 264.062 863.338 264.621ZM867.41 267.117C865.371 267.117 864.352 265.998 864.352 263.76C864.352 262.646 864.629 261.797 865.184 261.211C865.738 260.621 866.533 260.326 867.568 260.326C868.326 260.326 869.006 260.475 869.607 260.771L869.08 262.154C868.799 262.041 868.537 261.949 868.295 261.879C868.053 261.805 867.811 261.768 867.568 261.768C866.639 261.768 866.174 262.428 866.174 263.748C866.174 265.029 866.639 265.67 867.568 265.67C867.912 265.67 868.23 265.625 868.523 265.535C868.816 265.441 869.109 265.297 869.402 265.102V266.631C869.113 266.814 868.82 266.941 868.523 267.012C868.23 267.082 867.859 267.117 867.41 267.117ZM876.973 267H875.186V263.174C875.186 262.229 874.834 261.756 874.131 261.756C873.631 261.756 873.27 261.926 873.047 262.266C872.824 262.605 872.713 263.156 872.713 263.918V267H870.926V257.883H872.713V259.74C872.713 259.885 872.699 260.225 872.672 260.76L872.631 261.287H872.725C873.123 260.646 873.756 260.326 874.623 260.326C875.393 260.326 875.977 260.533 876.375 260.947C876.773 261.361 876.973 261.955 876.973 262.729V267ZM881.525 261.598C881.146 261.598 880.85 261.719 880.635 261.961C880.42 262.199 880.297 262.539 880.266 262.98H882.773C882.766 262.539 882.65 262.199 882.428 261.961C882.205 261.719 881.904 261.598 881.525 261.598ZM881.777 267.117C880.723 267.117 879.898 266.826 879.305 266.244C878.711 265.662 878.414 264.838 878.414 263.771C878.414 262.674 878.688 261.826 879.234 261.229C879.785 260.627 880.545 260.326 881.514 260.326C882.439 260.326 883.16 260.59 883.676 261.117C884.191 261.645 884.449 262.373 884.449 263.303V264.17H880.225C880.244 264.678 880.395 265.074 880.676 265.359C880.957 265.645 881.352 265.787 881.859 265.787C882.254 265.787 882.627 265.746 882.979 265.664C883.33 265.582 883.697 265.451 884.08 265.271V266.654C883.768 266.811 883.434 266.926 883.078 267C882.723 267.078 882.289 267.117 881.777 267.117ZM887.977 267.117C887.207 267.117 886.602 266.818 886.16 266.221C885.723 265.623 885.504 264.795 885.504 263.736C885.504 262.662 885.727 261.826 886.172 261.229C886.621 260.627 887.238 260.326 888.023 260.326C888.848 260.326 889.477 260.646 889.91 261.287H889.969C889.879 260.799 889.834 260.363 889.834 259.98V257.883H891.627V267H890.256L889.91 266.15H889.834C889.428 266.795 888.809 267.117 887.977 267.117ZM888.604 265.693C889.061 265.693 889.395 265.561 889.605 265.295C889.82 265.029 889.938 264.578 889.957 263.941V263.748C889.957 263.045 889.848 262.541 889.629 262.236C889.414 261.932 889.062 261.779 888.574 261.779C888.176 261.779 887.865 261.949 887.643 262.289C887.424 262.625 887.314 263.115 887.314 263.76C887.314 264.404 887.426 264.889 887.648 265.213C887.871 265.533 888.189 265.693 888.604 265.693ZM898.137 267L897.896 266.162H897.803C897.611 266.467 897.34 266.703 896.988 266.871C896.637 267.035 896.236 267.117 895.787 267.117C895.018 267.117 894.438 266.912 894.047 266.502C893.656 266.088 893.461 265.494 893.461 264.721V260.449H895.248V264.275C895.248 264.748 895.332 265.104 895.5 265.342C895.668 265.576 895.936 265.693 896.303 265.693C896.803 265.693 897.164 265.527 897.387 265.195C897.609 264.859 897.721 264.305 897.721 263.531V260.449H899.508V267H898.137ZM903.17 267H901.383V257.883H903.17V267ZM907.764 261.598C907.385 261.598 907.088 261.719 906.873 261.961C906.658 262.199 906.535 262.539 906.504 262.98H909.012C909.004 262.539 908.889 262.199 908.666 261.961C908.443 261.719 908.143 261.598 907.764 261.598ZM908.016 267.117C906.961 267.117 906.137 266.826 905.543 266.244C904.949 265.662 904.652 264.838 904.652 263.771C904.652 262.674 904.926 261.826 905.473 261.229C906.023 260.627 906.783 260.326 907.752 260.326C908.678 260.326 909.398 260.59 909.914 261.117C910.43 261.645 910.688 262.373 910.688 263.303V264.17H906.463C906.482 264.678 906.633 265.074 906.914 265.359C907.195 265.645 907.59 265.787 908.098 265.787C908.492 265.787 908.865 265.746 909.217 265.664C909.568 265.582 909.936 265.451 910.318 265.271V266.654C910.006 266.811 909.672 266.926 909.316 267C908.961 267.078 908.527 267.117 908.016 267.117ZM914.215 267.117C913.445 267.117 912.84 266.818 912.398 266.221C911.961 265.623 911.742 264.795 911.742 263.736C911.742 262.662 911.965 261.826 912.41 261.229C912.859 260.627 913.477 260.326 914.262 260.326C915.086 260.326 915.715 260.646 916.148 261.287H916.207C916.117 260.799 916.072 260.363 916.072 259.98V257.883H917.865V267H916.494L916.148 266.15H916.072C915.666 266.795 915.047 267.117 914.215 267.117ZM914.842 265.693C915.299 265.693 915.633 265.561 915.844 265.295C916.059 265.029 916.176 264.578 916.195 263.941V263.748C916.195 263.045 916.086 262.541 915.867 262.236C915.652 261.932 915.301 261.779 914.812 261.779C914.414 261.779 914.104 261.949 913.881 262.289C913.662 262.625 913.553 263.115 913.553 263.76C913.553 264.404 913.664 264.889 913.887 265.213C914.109 265.533 914.428 265.693 914.842 265.693Z" fill="black"/>
<path d="M1057.23 264.621C1057.23 265.395 1056.96 266.004 1056.4 266.449C1055.84 266.895 1055.07 267.117 1054.08 267.117C1053.16 267.117 1052.35 266.945 1051.65 266.602V264.914C1052.23 265.172 1052.72 265.354 1053.12 265.459C1053.52 265.564 1053.88 265.617 1054.22 265.617C1054.62 265.617 1054.92 265.541 1055.13 265.389C1055.35 265.236 1055.45 265.01 1055.45 264.709C1055.45 264.541 1055.41 264.393 1055.31 264.264C1055.22 264.131 1055.08 264.004 1054.9 263.883C1054.72 263.762 1054.35 263.568 1053.79 263.303C1053.27 263.057 1052.87 262.82 1052.61 262.594C1052.35 262.367 1052.14 262.104 1051.98 261.803C1051.83 261.502 1051.75 261.15 1051.75 260.748C1051.75 259.99 1052.01 259.395 1052.52 258.961C1053.03 258.527 1053.74 258.311 1054.65 258.311C1055.1 258.311 1055.52 258.363 1055.92 258.469C1056.33 258.574 1056.75 258.723 1057.19 258.914L1056.61 260.326C1056.15 260.139 1055.77 260.008 1055.47 259.934C1055.17 259.859 1054.88 259.822 1054.59 259.822C1054.25 259.822 1053.98 259.902 1053.8 260.062C1053.62 260.223 1053.53 260.432 1053.53 260.689C1053.53 260.85 1053.56 260.99 1053.64 261.111C1053.71 261.229 1053.83 261.344 1053.99 261.457C1054.15 261.566 1054.54 261.766 1055.14 262.055C1055.94 262.438 1056.49 262.822 1056.79 263.209C1057.09 263.592 1057.23 264.062 1057.23 264.621ZM1061.36 261.598C1060.98 261.598 1060.68 261.719 1060.47 261.961C1060.25 262.199 1060.13 262.539 1060.1 262.98H1062.61C1062.6 262.539 1062.48 262.199 1062.26 261.961C1062.04 261.719 1061.74 261.598 1061.36 261.598ZM1061.61 267.117C1060.56 267.117 1059.73 266.826 1059.14 266.244C1058.54 265.662 1058.25 264.838 1058.25 263.771C1058.25 262.674 1058.52 261.826 1059.07 261.229C1059.62 260.627 1060.38 260.326 1061.35 260.326C1062.27 260.326 1062.99 260.59 1063.51 261.117C1064.03 261.645 1064.28 262.373 1064.28 263.303V264.17H1060.06C1060.08 264.678 1060.23 265.074 1060.51 265.359C1060.79 265.645 1061.19 265.787 1061.69 265.787C1062.09 265.787 1062.46 265.746 1062.81 265.664C1063.16 265.582 1063.53 265.451 1063.91 265.271V266.654C1063.6 266.811 1063.27 266.926 1062.91 267C1062.56 267.078 1062.12 267.117 1061.61 267.117ZM1071.78 267H1070V263.174C1070 262.701 1069.91 262.348 1069.74 262.113C1069.58 261.875 1069.31 261.756 1068.94 261.756C1068.44 261.756 1068.08 261.924 1067.86 262.26C1067.63 262.592 1067.52 263.145 1067.52 263.918V267H1065.74V260.449H1067.1L1067.34 261.287H1067.44C1067.64 260.971 1067.91 260.732 1068.26 260.572C1068.61 260.408 1069.01 260.326 1069.46 260.326C1070.22 260.326 1070.8 260.533 1071.19 260.947C1071.59 261.357 1071.78 261.951 1071.78 262.729V267ZM1076.38 265.693C1076.7 265.693 1077.07 265.625 1077.51 265.488V266.818C1077.06 267.018 1076.52 267.117 1075.87 267.117C1075.15 267.117 1074.63 266.938 1074.3 266.578C1073.98 266.215 1073.82 265.672 1073.82 264.949V261.791H1072.96V261.035L1073.95 260.438L1074.46 259.055H1075.6V260.449H1077.44V261.791H1075.6V264.949C1075.6 265.203 1075.67 265.391 1075.81 265.512C1075.96 265.633 1076.15 265.693 1076.38 265.693Z" fill="black"/>
<path d="M1247.35 258.434H1250.01C1251.23 258.434 1252.11 258.607 1252.66 258.955C1253.21 259.299 1253.48 259.848 1253.48 260.602C1253.48 261.113 1253.36 261.533 1253.12 261.861C1252.88 262.189 1252.56 262.387 1252.16 262.453V262.512C1252.71 262.633 1253.1 262.859 1253.34 263.191C1253.58 263.523 1253.7 263.965 1253.7 264.516C1253.7 265.297 1253.42 265.906 1252.85 266.344C1252.29 266.781 1251.52 267 1250.55 267H1247.35V258.434ZM1249.16 261.826H1250.22C1250.71 261.826 1251.07 261.75 1251.29 261.598C1251.51 261.445 1251.62 261.193 1251.62 260.842C1251.62 260.514 1251.5 260.279 1251.26 260.139C1251.02 259.994 1250.64 259.922 1250.12 259.922H1249.16V261.826ZM1249.16 263.268V265.5H1250.35C1250.85 265.5 1251.22 265.404 1251.46 265.213C1251.69 265.021 1251.81 264.729 1251.81 264.334C1251.81 263.623 1251.3 263.268 1250.29 263.268H1249.16ZM1257.06 267H1255.27V257.883H1257.06V267ZM1260.36 263.713C1260.36 264.361 1260.47 264.852 1260.68 265.184C1260.89 265.516 1261.24 265.682 1261.72 265.682C1262.2 265.682 1262.54 265.518 1262.75 265.189C1262.96 264.857 1263.06 264.365 1263.06 263.713C1263.06 263.064 1262.96 262.578 1262.75 262.254C1262.54 261.93 1262.19 261.768 1261.71 261.768C1261.23 261.768 1260.89 261.93 1260.68 262.254C1260.47 262.574 1260.36 263.061 1260.36 263.713ZM1264.89 263.713C1264.89 264.779 1264.61 265.613 1264.05 266.215C1263.48 266.816 1262.7 267.117 1261.7 267.117C1261.07 267.117 1260.51 266.98 1260.03 266.707C1259.55 266.43 1259.18 266.033 1258.93 265.518C1258.67 265.002 1258.54 264.4 1258.54 263.713C1258.54 262.643 1258.82 261.811 1259.38 261.217C1259.94 260.623 1260.72 260.326 1261.73 260.326C1262.36 260.326 1262.92 260.463 1263.4 260.736C1263.88 261.01 1264.25 261.402 1264.5 261.914C1264.76 262.426 1264.89 263.025 1264.89 263.713ZM1269.03 267.117C1266.99 267.117 1265.97 265.998 1265.97 263.76C1265.97 262.646 1266.25 261.797 1266.8 261.211C1267.36 260.621 1268.15 260.326 1269.19 260.326C1269.94 260.326 1270.62 260.475 1271.22 260.771L1270.7 262.154C1270.42 262.041 1270.15 261.949 1269.91 261.879C1269.67 261.805 1269.43 261.768 1269.19 261.768C1268.26 261.768 1267.79 262.428 1267.79 263.748C1267.79 265.029 1268.26 265.67 1269.19 265.67C1269.53 265.67 1269.85 265.625 1270.14 265.535C1270.43 265.441 1270.73 265.297 1271.02 265.102V266.631C1270.73 266.814 1270.44 266.941 1270.14 267.012C1269.85 267.082 1269.48 267.117 1269.03 267.117ZM1274.26 263.438L1275.04 262.441L1276.87 260.449H1278.89L1276.29 263.291L1279.05 267H1276.98L1275.1 264.346L1274.33 264.961V267H1272.54V257.883H1274.33V261.949L1274.24 263.438H1274.26ZM1282.7 261.598C1282.32 261.598 1282.02 261.719 1281.81 261.961C1281.59 262.199 1281.47 262.539 1281.44 262.98H1283.95C1283.94 262.539 1283.82 262.199 1283.6 261.961C1283.38 261.719 1283.08 261.598 1282.7 261.598ZM1282.95 267.117C1281.89 267.117 1281.07 266.826 1280.48 266.244C1279.88 265.662 1279.59 264.838 1279.59 263.771C1279.59 262.674 1279.86 261.826 1280.41 261.229C1280.96 260.627 1281.72 260.326 1282.69 260.326C1283.61 260.326 1284.33 260.59 1284.85 261.117C1285.36 261.645 1285.62 262.373 1285.62 263.303V264.17H1281.4C1281.42 264.678 1281.57 265.074 1281.85 265.359C1282.13 265.645 1282.52 265.787 1283.03 265.787C1283.43 265.787 1283.8 265.746 1284.15 265.664C1284.5 265.582 1284.87 265.451 1285.25 265.271V266.654C1284.94 266.811 1284.61 266.926 1284.25 267C1283.89 267.078 1283.46 267.117 1282.95 267.117ZM1289.15 267.117C1288.38 267.117 1287.77 266.818 1287.33 266.221C1286.89 265.623 1286.68 264.795 1286.68 263.736C1286.68 262.662 1286.9 261.826 1287.34 261.229C1287.79 260.627 1288.41 260.326 1289.2 260.326C1290.02 260.326 1290.65 260.646 1291.08 261.287H1291.14C1291.05 260.799 1291.01 260.363 1291.01 259.98V257.883H1292.8V267H1291.43L1291.08 266.15H1291.01C1290.6 266.795 1289.98 267.117 1289.15 267.117ZM1289.78 265.693C1290.23 265.693 1290.57 265.561 1290.78 265.295C1290.99 265.029 1291.11 264.578 1291.13 263.941V263.748C1291.13 263.045 1291.02 262.541 1290.8 262.236C1290.59 261.932 1290.23 261.779 1289.75 261.779C1289.35 261.779 1289.04 261.949 1288.81 262.289C1288.6 262.625 1288.49 263.115 1288.49 263.76C1288.49 264.404 1288.6 264.889 1288.82 265.213C1289.04 265.533 1289.36 265.693 1289.78 265.693Z" fill="black"/>
</svg>
