<svg width="1880" height="1007" viewBox="0 0 1880 1007" fill="none" xmlns="http://www.w3.org/2000/svg">
<mask id="mask0" mask-type="alpha" maskUnits="userSpaceOnUse" x="0" y="0" width="1880" height="1007">
<rect width="1880" height="1007" fill="#C4C4C4"/>
</mask>
<g mask="url(#mask0)">
<path fill-rule="evenodd" clip-rule="evenodd" d="M-81.7288 1239H2219.76C2231.01 1196.79 2237 1152.44 2237 1106.69C2237 823.588 2007.5 594.09 1724.4 594.09C1540.05 594.09 1378.43 691.405 1288.11 837.467C1275.4 858.026 1244.45 860.081 1229.14 841.376C1135.14 726.532 992.27 653.236 832.281 653.236C773.248 653.236 716.545 663.215 663.768 681.579C644.293 688.355 622.687 676.258 618.262 656.119C567.74 426.122 362.77 254 117.599 254C-165.501 254 -395 483.499 -395 766.599C-395 979.001 -265.814 1161.23 -81.7288 1239Z" fill="#64A8F2" fill-opacity="0.2"/>
</g>
</svg>
