<svg viewBox="0 0 981 70" fill="none" xmlns="http://www.w3.org/2000/svg">
<path d="M10.6995 52.27C13.6395 51.8033 15.4362 51.3367 16.0895 50.87C16.7429 50.3567 17.0695 49.3767 17.0695 47.93V10.13C11.0495 10.2233 7.82953 10.3633 7.40953 10.55C6.98953 10.7367 6.66286 10.9467 6.42953 11.18C5.86953 11.9267 5.19286 14.5633 4.39953 19.09L0.829531 18.81C0.782865 18.11 0.759531 16.7567 0.759531 14.75C0.759531 12.6967 0.969531 9.94333 1.38953 6.49H39.5395C39.9595 9.94333 40.1695 12.6967 40.1695 14.75C40.1695 16.7567 40.1462 18.11 40.0995 18.81L36.5295 19.09C35.7362 14.5633 35.0362 11.9267 34.4295 11.18C34.2429 10.9467 33.9395 10.7367 33.5195 10.55C33.0995 10.3633 29.8795 10.2233 23.8595 10.13V49.61C23.8595 50.6833 24.3262 51.29 25.2595 51.43L30.6495 52.27L30.3695 55H11.1195L10.6995 52.27ZM43.4699 55L43.0499 52.27C45.3366 51.8033 46.7133 51.3367 47.1799 50.87C47.6933 50.3567 47.9499 49.4933 47.9499 48.28V7.61C47.9499 6.63 47.5766 5.93 46.8299 5.51C46.0833 5.04333 44.6833 4.6 42.6299 4.18L43.0499 1.94C48.0433 1.28667 51.5199 0.959999 53.4799 0.959999L54.2499 1.66V21.33C54.2499 23.8967 54.0866 25.7167 53.7599 26.79L54.3199 27L55.1599 26.02C58.0533 22.5667 61.6699 20.84 66.0099 20.84C69.1366 20.84 71.5633 21.75 73.2899 23.57C75.0633 25.39 75.9499 27.8867 75.9499 31.06V49.96C75.9499 50.52 76.0666 50.8933 76.2999 51.08C76.5799 51.22 76.9299 51.3367 77.3499 51.43L80.7799 52.27L80.4999 55H65.5199L65.0999 52.27C67.1999 51.85 68.4833 51.3833 68.9499 50.87C69.4166 50.3567 69.6499 49.4933 69.6499 48.28V33.16C69.6499 30.92 69.2299 29.1467 68.3899 27.84C67.5966 26.5333 65.9633 25.88 63.4899 25.88C61.0633 25.88 58.5199 26.79 55.8599 28.61C55.2533 29.03 54.8333 29.45 54.5999 29.87C54.3666 30.2433 54.2499 30.9433 54.2499 31.97V49.96C54.2499 50.52 54.3666 50.8933 54.5999 51.08C54.8799 51.22 55.2299 51.3367 55.6499 51.43L58.7299 52.27L58.4499 55H43.4699ZM99.5891 55.63C94.8758 55.63 91.2125 54.02 88.5991 50.8C86.0325 47.58 84.7491 43.52 84.7491 38.62C84.7491 33.6733 86.2425 29.4733 89.2291 26.02C92.2158 22.5667 96.1591 20.84 101.059 20.84C108.992 20.84 113.146 25.7167 113.519 35.47L111.699 36.8L91.3991 37.92C91.3991 46.5533 95.0858 50.87 102.459 50.87C105.679 50.87 108.829 50.0767 111.909 48.49L113.379 50.8C111.839 52.06 109.832 53.18 107.359 54.16C104.886 55.14 102.296 55.63 99.5891 55.63ZM91.6091 34.7L106.099 33.44C106.566 33.3933 106.799 32.95 106.799 32.11C106.799 30.0567 106.239 28.2833 105.119 26.79C104.046 25.2967 102.202 24.55 99.5891 24.55C96.9758 24.55 95.0625 25.4367 93.8491 27.21C92.6825 28.9367 91.9358 31.4333 91.6091 34.7ZM139.675 62.98V28.12C139.675 26.9067 139.372 26.0667 138.765 25.6C138.205 25.0867 136.735 24.5967 134.355 24.13L134.775 21.89C140.562 21.2833 143.595 20.98 143.875 20.98C144.155 20.98 144.482 21.61 144.855 22.87C145.275 24.0833 145.485 25.1567 145.485 26.09V26.79L146.045 27L146.745 26.09C149.452 22.59 152.695 20.84 156.475 20.84C160.255 20.84 163.358 22.3567 165.785 25.39C168.212 28.3767 169.425 32.4833 169.425 37.71C169.425 42.9367 168.048 47.23 165.295 50.59C162.542 53.95 158.692 55.63 153.745 55.63C150.245 55.63 147.725 55.0233 146.185 53.81L145.695 54.02C145.882 55.0467 145.975 56.0733 145.975 57.1V64.66C145.975 65.2667 146.092 65.64 146.325 65.78C146.605 65.9667 146.955 66.0833 147.375 66.13L153.745 66.97L153.465 69.7H135.195L134.775 66.97C137.062 66.5033 138.438 66.0133 138.905 65.5C139.418 65.0333 139.675 64.1933 139.675 62.98ZM145.975 48.21C147.888 50.4967 150.875 51.64 154.935 51.64C156.942 51.64 158.528 50.9867 159.695 49.68C161.655 47.4867 162.635 44.08 162.635 39.46C162.635 34.7933 161.888 31.3633 160.395 29.17C158.948 26.9767 157.105 25.88 154.865 25.88C152.625 25.88 150.292 26.6733 147.865 28.26C146.605 29.1 145.975 30.1733 145.975 31.48V48.21ZM189.14 55.63C184.427 55.63 180.763 54.02 178.15 50.8C175.583 47.58 174.3 43.52 174.3 38.62C174.3 33.6733 175.793 29.4733 178.78 26.02C181.767 22.5667 185.71 20.84 190.61 20.84C198.543 20.84 202.697 25.7167 203.07 35.47L201.25 36.8L180.95 37.92C180.95 46.5533 184.637 50.87 192.01 50.87C195.23 50.87 198.38 50.0767 201.46 48.49L202.93 50.8C201.39 52.06 199.383 53.18 196.91 54.16C194.437 55.14 191.847 55.63 189.14 55.63ZM181.16 34.7L195.65 33.44C196.117 33.3933 196.35 32.95 196.35 32.11C196.35 30.0567 195.79 28.2833 194.67 26.79C193.597 25.2967 191.753 24.55 189.14 24.55C186.527 24.55 184.613 25.4367 183.4 27.21C182.233 28.9367 181.487 31.4333 181.16 34.7ZM208.148 55L207.728 52.27C210.201 51.85 211.718 51.3833 212.278 50.87C212.838 50.3567 213.118 49.4933 213.118 48.28V28.12C213.118 26.9067 212.791 26.0433 212.138 25.53C211.531 24.97 209.921 24.5033 207.308 24.13L207.728 21.89L217.248 20.98C217.574 20.98 217.924 21.4467 218.298 22.38C218.671 23.3133 218.858 24.2933 218.858 25.32C218.858 26.3 218.764 27.4433 218.578 28.75L219.138 28.96L220.048 26.93C220.888 25.0633 222.148 23.5933 223.828 22.52C225.554 21.4 227.281 20.84 229.008 20.84C230.781 20.84 232.414 21.2133 233.908 21.96C233.908 25.7867 233.558 29.6133 232.858 33.44L229.428 33.79C229.054 29.87 228.681 27.6533 228.308 27.14C227.934 26.58 227.304 26.3 226.418 26.3C225.578 26.3 224.574 26.6967 223.408 27.49C222.241 28.2367 221.284 29.0533 220.538 29.94C219.791 30.78 219.418 32.18 219.418 34.14V49.96C219.418 50.5667 219.534 50.9633 219.768 51.15C220.048 51.29 220.398 51.3833 220.818 51.43L227.188 52.27L226.908 55H208.148ZM239.133 55L238.713 52.27C240.999 51.8033 242.376 51.3367 242.843 50.87C243.356 50.3567 243.613 49.4933 243.613 48.28V26.65H239.063L238.783 23.64L242.213 22.8C242.819 22.66 243.216 22.4033 243.403 22.03C243.589 21.6567 243.706 21.0267 243.753 20.14C243.799 19.2533 243.869 18.39 243.963 17.55C244.103 16.71 244.313 15.4267 244.593 13.7C244.873 11.9733 245.316 10.4567 245.923 9.15C246.576 7.84333 247.369 6.51333 248.303 5.16C250.263 2.36 253.226 0.959999 257.193 0.959999C259.713 0.959999 262.373 1.49667 265.173 2.57C265.173 6.11666 264.869 8.94 264.263 11.04L260.553 11.39C259.806 7.61 259.246 5.60333 258.873 5.37C258.126 4.90333 257.146 4.67 255.933 4.67C251.919 4.67 249.913 10.5733 249.913 22.38H258.173L257.613 25.67L249.913 26.72V49.96C249.913 50.4267 250.006 50.7767 250.193 51.01C250.379 51.1967 250.799 51.3367 251.453 51.43L256.703 52.27L256.423 55H239.133ZM277.255 55.63C272.542 55.63 268.878 54.02 266.265 50.8C263.698 47.58 262.415 43.52 262.415 38.62C262.415 33.6733 263.908 29.4733 266.895 26.02C269.882 22.5667 273.825 20.84 278.725 20.84C286.658 20.84 290.812 25.7167 291.185 35.47L289.365 36.8L269.065 37.92C269.065 46.5533 272.752 50.87 280.125 50.87C283.345 50.87 286.495 50.0767 289.575 48.49L291.045 50.8C289.505 52.06 287.498 53.18 285.025 54.16C282.552 55.14 279.962 55.63 277.255 55.63ZM269.275 34.7L283.765 33.44C284.232 33.3933 284.465 32.95 284.465 32.11C284.465 30.0567 283.905 28.2833 282.785 26.79C281.712 25.2967 279.868 24.55 277.255 24.55C274.642 24.55 272.728 25.4367 271.515 27.21C270.348 28.9367 269.602 31.4333 269.275 34.7ZM299.203 26.72C300.37 24.9 302.073 23.4767 304.313 22.45C306.6 21.3767 309.4 20.84 312.713 20.84C316.073 20.84 319.386 21.4933 322.653 22.8C322.7 23.1733 322.723 24.3867 322.723 26.44C322.723 28.4467 322.443 30.43 321.883 32.39L317.963 32.81C317.216 28.0967 316.516 25.6 315.863 25.32C314.883 24.9 313.133 24.69 310.613 24.69C308.093 24.69 306.25 25.5533 305.083 27.28C303.45 29.7533 302.633 33.2767 302.633 37.85C302.633 42.3767 303.613 45.69 305.573 47.79C307.58 49.8433 310.17 50.87 313.343 50.87C316.563 50.87 319.666 49.8433 322.653 47.79L324.613 50.1C320.833 53.7867 316.376 55.63 311.243 55.63C306.156 55.63 302.306 54.0433 299.693 50.87C297.126 47.65 295.843 43.6833 295.843 38.97C295.843 34.21 296.963 30.1267 299.203 26.72ZM332.157 45.41V26.16H327.607L327.327 23.15L330.757 22.31C331.644 22.0767 332.227 21.5633 332.507 20.77C332.834 19.93 333.394 17.3167 334.187 12.93L338.457 12.51V21.89H348.187L347.627 25.18L338.457 26.23V43.31C338.457 48.1633 339.95 50.59 342.937 50.59C344.617 50.59 346.39 49.89 348.257 48.49L349.727 50.52C347.207 53.9267 344.127 55.63 340.487 55.63C337.874 55.63 335.82 54.72 334.327 52.9C332.88 51.08 332.157 48.5833 332.157 45.41ZM370.778 46.39C370.778 42.89 372.271 40.2767 375.258 38.55C378.245 36.8233 383.098 35.9367 389.818 35.89V33.65C389.818 27.5833 387.625 24.55 383.238 24.55C381.138 24.55 379.808 24.8533 379.248 25.46C378.735 26.0667 378.175 28.05 377.568 31.41L373.788 30.99C373.415 29.5433 373.228 28.05 373.228 26.51C373.228 24.9233 373.251 23.8967 373.298 23.43C376.051 21.7033 379.668 20.84 384.148 20.84C388.628 20.84 391.731 21.7033 393.458 23.43C395.231 25.1567 396.118 28.0033 396.118 31.97V48.07C396.118 49.2833 396.398 50.1467 396.958 50.66C397.565 51.1267 399.058 51.5933 401.438 52.06L401.018 54.3L392.618 55.21C392.151 55.21 391.661 54.7667 391.148 53.88C390.635 52.9933 390.378 52.1767 390.378 51.43C390.378 50.6367 390.401 50.0533 390.448 49.68L389.888 49.47L389.048 50.73C386.855 53.9967 383.845 55.63 380.018 55.63C377.405 55.63 375.211 54.8133 373.438 53.18C371.665 51.5467 370.778 49.2833 370.778 46.39ZM377.568 45.76C377.568 47.44 378.011 48.7233 378.898 49.61C379.785 50.45 381.045 50.87 382.678 50.87C384.311 50.87 386.155 50.0767 388.208 48.49C389.281 47.65 389.818 46.7633 389.818 45.83V38.97C385.618 39.0633 382.515 39.6233 380.508 40.65C378.548 41.6767 377.568 43.38 377.568 45.76ZM406.458 55L406.038 52.27C408.325 51.8033 409.702 51.3367 410.168 50.87C410.682 50.3567 410.938 49.4933 410.938 48.28V7.61C410.938 6.63 410.565 5.93 409.818 5.51C409.072 5.04333 407.672 4.6 405.618 4.18L406.038 1.94C411.032 1.28667 414.508 0.959999 416.468 0.959999L417.238 1.66V49.96C417.238 50.52 417.355 50.8933 417.588 51.08C417.868 51.22 418.218 51.3367 418.638 51.43L422.068 52.27L421.788 55H406.458ZM430.8 45.41V26.16H426.25L425.97 23.15L429.4 22.31C430.286 22.0767 430.87 21.5633 431.15 20.77C431.476 19.93 432.036 17.3167 432.83 12.93L437.1 12.51V21.89H446.83L446.27 25.18L437.1 26.23V43.31C437.1 48.1633 438.593 50.59 441.58 50.59C443.26 50.59 445.033 49.89 446.9 48.49L448.37 50.52C445.85 53.9267 442.77 55.63 439.13 55.63C436.516 55.63 434.463 54.72 432.97 52.9C431.523 51.08 430.8 48.5833 430.8 45.41ZM466.542 55.63C461.829 55.63 458.166 54.02 455.552 50.8C452.986 47.58 451.702 43.52 451.702 38.62C451.702 33.6733 453.196 29.4733 456.182 26.02C459.169 22.5667 463.112 20.84 468.012 20.84C475.946 20.84 480.099 25.7167 480.472 35.47L478.652 36.8L458.352 37.92C458.352 46.5533 462.039 50.87 469.412 50.87C472.632 50.87 475.782 50.0767 478.862 48.49L480.332 50.8C478.792 52.06 476.786 53.18 474.312 54.16C471.839 55.14 469.249 55.63 466.542 55.63ZM458.562 34.7L473.052 33.44C473.519 33.3933 473.752 32.95 473.752 32.11C473.752 30.0567 473.192 28.2833 472.072 26.79C470.999 25.2967 469.156 24.55 466.542 24.55C463.929 24.55 462.016 25.4367 460.802 27.21C459.636 28.9367 458.889 31.4333 458.562 34.7ZM485.55 55L485.13 52.27C487.603 51.85 489.12 51.3833 489.68 50.87C490.24 50.3567 490.52 49.4933 490.52 48.28V28.12C490.52 26.9067 490.193 26.0433 489.54 25.53C488.933 24.97 487.323 24.5033 484.71 24.13L485.13 21.89L494.65 20.98C494.977 20.98 495.327 21.4467 495.7 22.38C496.073 23.3133 496.26 24.2933 496.26 25.32C496.26 26.3 496.167 27.4433 495.98 28.75L496.54 28.96L497.45 26.93C498.29 25.0633 499.55 23.5933 501.23 22.52C502.957 21.4 504.683 20.84 506.41 20.84C508.183 20.84 509.817 21.2133 511.31 21.96C511.31 25.7867 510.96 29.6133 510.26 33.44L506.83 33.79C506.457 29.87 506.083 27.6533 505.71 27.14C505.337 26.58 504.707 26.3 503.82 26.3C502.98 26.3 501.977 26.6967 500.81 27.49C499.643 28.2367 498.687 29.0533 497.94 29.94C497.193 30.78 496.82 32.18 496.82 34.14V49.96C496.82 50.5667 496.937 50.9633 497.17 51.15C497.45 51.29 497.8 51.3833 498.22 51.43L504.59 52.27L504.31 55H485.55ZM516.255 55L515.835 52.27C518.122 51.8033 519.498 51.3367 519.965 50.87C520.478 50.3567 520.735 49.4933 520.735 48.28V28.12C520.735 26.9067 520.432 26.0667 519.825 25.6C519.265 25.0867 517.795 24.5967 515.415 24.13L515.835 21.89L524.865 20.98C525.192 20.98 525.518 21.6333 525.845 22.94C526.218 24.2467 526.405 25.39 526.405 26.37V26.79L526.965 27L527.805 26.02C530.745 22.5667 534.338 20.84 538.585 20.84C541.572 20.84 543.928 21.75 545.655 23.57C547.382 25.3433 548.245 27.84 548.245 31.06V49.96C548.245 50.52 548.362 50.8933 548.595 51.08C548.875 51.22 549.225 51.3367 549.645 51.43L553.075 52.27L552.795 55H537.815L537.395 52.27C539.495 51.85 540.778 51.3833 541.245 50.87C541.712 50.3567 541.945 49.4933 541.945 48.28V33.16C541.945 30.9667 541.548 29.2167 540.755 27.91C539.962 26.5567 538.398 25.88 536.065 25.88C533.778 25.88 531.282 26.79 528.575 28.61C528.155 28.89 527.852 29.1 527.665 29.24C527.245 29.7067 527.035 30.57 527.035 31.83V49.89C527.035 50.4033 527.105 50.7533 527.245 50.94C527.432 51.1267 527.828 51.29 528.435 51.43L531.515 52.27L531.235 55H516.255ZM557.604 46.39C557.604 42.89 559.097 40.2767 562.084 38.55C565.071 36.8233 569.924 35.9367 576.644 35.89V33.65C576.644 27.5833 574.451 24.55 570.064 24.55C567.964 24.55 566.634 24.8533 566.074 25.46C565.561 26.0667 565.001 28.05 564.394 31.41L560.614 30.99C560.241 29.5433 560.054 28.05 560.054 26.51C560.054 24.9233 560.077 23.8967 560.124 23.43C562.877 21.7033 566.494 20.84 570.974 20.84C575.454 20.84 578.557 21.7033 580.284 23.43C582.057 25.1567 582.944 28.0033 582.944 31.97V48.07C582.944 49.2833 583.224 50.1467 583.784 50.66C584.391 51.1267 585.884 51.5933 588.264 52.06L587.844 54.3L579.444 55.21C578.977 55.21 578.487 54.7667 577.974 53.88C577.461 52.9933 577.204 52.1767 577.204 51.43C577.204 50.6367 577.227 50.0533 577.274 49.68L576.714 49.47L575.874 50.73C573.681 53.9967 570.671 55.63 566.844 55.63C564.231 55.63 562.037 54.8133 560.264 53.18C558.491 51.5467 557.604 49.2833 557.604 46.39ZM564.394 45.76C564.394 47.44 564.837 48.7233 565.724 49.61C566.611 50.45 567.871 50.87 569.504 50.87C571.137 50.87 572.981 50.0767 575.034 48.49C576.107 47.65 576.644 46.7633 576.644 45.83V38.97C572.444 39.0633 569.341 39.6233 567.334 40.65C565.374 41.6767 564.394 43.38 564.394 45.76ZM596.434 45.41V26.16H591.884L591.604 23.15L595.034 22.31C595.921 22.0767 596.504 21.5633 596.784 20.77C597.111 19.93 597.671 17.3167 598.464 12.93L602.734 12.51V21.89H612.464L611.904 25.18L602.734 26.23V43.31C602.734 48.1633 604.228 50.59 607.214 50.59C608.894 50.59 610.668 49.89 612.534 48.49L614.004 50.52C611.484 53.9267 608.404 55.63 604.764 55.63C602.151 55.63 600.098 54.72 598.604 52.9C597.158 51.08 596.434 48.5833 596.434 45.41ZM618.247 55L617.827 52.27C620.114 51.8033 621.49 51.3367 621.957 50.87C622.47 50.3567 622.727 49.4933 622.727 48.28V28.19C622.727 27.21 622.354 26.51 621.607 26.09C620.86 25.6233 619.46 25.18 617.407 24.76L617.827 22.52C622.82 21.8667 626.297 21.54 628.257 21.54L629.027 22.24V49.96C629.027 50.52 629.144 50.8933 629.377 51.08C629.657 51.22 630.007 51.3367 630.427 51.43L633.857 52.27L633.577 55H618.247ZM629.097 9.08C629.097 10.2467 628.724 11.2267 627.977 12.02C627.277 12.8133 626.32 13.21 625.107 13.21C623.94 13.21 622.96 12.86 622.167 12.16C621.42 11.46 621.047 10.5033 621.047 9.29C621.047 8.03 621.397 7.02667 622.097 6.28C622.844 5.53333 623.847 5.16 625.107 5.16C627.767 5.16 629.097 6.46667 629.097 9.08ZM651.397 55.63L640.337 27.14C640.01 26.2533 639.684 25.6933 639.357 25.46C639.03 25.2267 638.12 24.9467 636.627 24.62L637.047 21.89H651.467L651.747 24.62L647.477 25.67C647.15 25.7167 646.987 25.9033 646.987 26.23C646.987 26.2767 647.08 26.58 647.267 27.14L653.567 44.78C654.127 46.4133 654.407 47.6967 654.407 48.63H654.967L662.737 28.75C663.017 28.0033 663.157 27.3967 663.157 26.93C663.157 26.4167 662.807 25.9967 662.107 25.67C661.454 25.3433 660.264 24.9933 658.537 24.62L658.957 21.89H671.417L671.697 24.62C670.204 24.9933 669.294 25.25 668.967 25.39C668.64 25.4833 668.454 25.6233 668.407 25.81L655.947 55.63H651.397ZM688.574 55.63C683.86 55.63 680.197 54.02 677.584 50.8C675.017 47.58 673.734 43.52 673.734 38.62C673.734 33.6733 675.227 29.4733 678.214 26.02C681.2 22.5667 685.144 20.84 690.044 20.84C697.977 20.84 702.13 25.7167 702.504 35.47L700.684 36.8L680.384 37.92C680.384 46.5533 684.07 50.87 691.444 50.87C694.664 50.87 697.814 50.0767 700.894 48.49L702.364 50.8C700.824 52.06 698.817 53.18 696.344 54.16C693.87 55.14 691.28 55.63 688.574 55.63ZM680.594 34.7L695.084 33.44C695.55 33.3933 695.784 32.95 695.784 32.11C695.784 30.0567 695.224 28.2833 694.104 26.79C693.03 25.2967 691.187 24.55 688.574 24.55C685.96 24.55 684.047 25.4367 682.834 27.21C681.667 28.9367 680.92 31.4333 680.594 34.7ZM727.889 45.41V26.16H723.339L723.059 23.15L726.489 22.31C727.376 22.0767 727.959 21.5633 728.239 20.77C728.566 19.93 729.126 17.3167 729.919 12.93L734.189 12.51V21.89H743.919L743.359 25.18L734.189 26.23V43.31C734.189 48.1633 735.683 50.59 738.669 50.59C740.349 50.59 742.123 49.89 743.989 48.49L745.459 50.52C742.939 53.9267 739.859 55.63 736.219 55.63C733.606 55.63 731.553 54.72 730.059 52.9C728.613 51.08 727.889 48.5833 727.889 45.41ZM764.332 55.63C759.292 55.63 755.419 54.1367 752.712 51.15C750.005 48.1633 748.652 43.9867 748.652 38.62C748.652 33.2533 750.075 28.96 752.922 25.74C755.815 22.4733 759.782 20.84 764.822 20.84C769.909 20.84 773.805 22.3567 776.512 25.39C779.219 28.3767 780.572 32.5533 780.572 37.92C780.572 43.2867 779.125 47.58 776.232 50.8C773.385 54.02 769.419 55.63 764.332 55.63ZM755.442 37.71C755.442 41.8633 756.282 45.27 757.962 47.93C759.642 50.59 761.929 51.92 764.822 51.92C767.715 51.92 769.769 51.22 770.982 49.82C771.822 48.8867 772.499 47.4167 773.012 45.41C773.525 43.3567 773.782 41.14 773.782 38.76C773.782 34.6067 772.942 31.2 771.262 28.54C769.582 25.88 767.295 24.55 764.402 24.55C761.509 24.55 759.455 25.25 758.242 26.65C757.402 27.5833 756.725 29.0767 756.212 31.13C755.699 33.1367 755.442 35.33 755.442 37.71ZM810.368 52.27C813.308 51.8033 815.104 51.3367 815.758 50.87C816.411 50.3567 816.738 49.3767 816.738 47.93V10.13C810.718 10.2233 807.498 10.3633 807.078 10.55C806.658 10.7367 806.331 10.9467 806.098 11.18C805.538 11.9267 804.861 14.5633 804.068 19.09L800.498 18.81C800.451 18.11 800.428 16.7567 800.428 14.75C800.428 12.6967 800.638 9.94333 801.058 6.49H839.208C839.628 9.94333 839.838 12.6967 839.838 14.75C839.838 16.7567 839.814 18.11 839.768 18.81L836.198 19.09C835.404 14.5633 834.704 11.9267 834.098 11.18C833.911 10.9467 833.608 10.7367 833.188 10.55C832.768 10.3633 829.548 10.2233 823.528 10.13V49.61C823.528 50.6833 823.994 51.29 824.928 51.43L830.318 52.27L830.038 55H810.788L810.368 52.27ZM843.138 55L842.718 52.27C845.191 51.85 846.708 51.3833 847.268 50.87C847.828 50.3567 848.108 49.4933 848.108 48.28V28.12C848.108 26.9067 847.781 26.0433 847.128 25.53C846.521 24.97 844.911 24.5033 842.298 24.13L842.718 21.89L852.238 20.98C852.565 20.98 852.915 21.4467 853.288 22.38C853.661 23.3133 853.848 24.2933 853.848 25.32C853.848 26.3 853.755 27.4433 853.568 28.75L854.128 28.96L855.038 26.93C855.878 25.0633 857.138 23.5933 858.818 22.52C860.545 21.4 862.271 20.84 863.998 20.84C865.771 20.84 867.405 21.2133 868.898 21.96C868.898 25.7867 868.548 29.6133 867.848 33.44L864.418 33.79C864.045 29.87 863.671 27.6533 863.298 27.14C862.925 26.58 862.295 26.3 861.408 26.3C860.568 26.3 859.565 26.6967 858.398 27.49C857.231 28.2367 856.275 29.0533 855.528 29.94C854.781 30.78 854.408 32.18 854.408 34.14V49.96C854.408 50.5667 854.525 50.9633 854.758 51.15C855.038 51.29 855.388 51.3833 855.808 51.43L862.178 52.27L861.898 55H843.138ZM887.773 55.63C883.059 55.63 879.396 54.02 876.783 50.8C874.216 47.58 872.933 43.52 872.933 38.62C872.933 33.6733 874.426 29.4733 877.413 26.02C880.399 22.5667 884.343 20.84 889.243 20.84C897.176 20.84 901.329 25.7167 901.703 35.47L899.883 36.8L879.583 37.92C879.583 46.5533 883.269 50.87 890.643 50.87C893.863 50.87 897.013 50.0767 900.093 48.49L901.563 50.8C900.023 52.06 898.016 53.18 895.543 54.16C893.069 55.14 890.479 55.63 887.773 55.63ZM879.793 34.7L894.283 33.44C894.749 33.3933 894.983 32.95 894.983 32.11C894.983 30.0567 894.423 28.2833 893.303 26.79C892.229 25.2967 890.386 24.55 887.773 24.55C885.159 24.55 883.246 25.4367 882.033 27.21C880.866 28.9367 880.119 31.4333 879.793 34.7ZM906.78 55L906.36 52.27C908.647 51.8033 910.024 51.3367 910.49 50.87C911.004 50.3567 911.26 49.4933 911.26 48.28V7.61C911.26 6.63 910.887 5.93 910.14 5.51C909.394 5.04333 907.994 4.6 905.94 4.18L906.36 1.94C911.354 1.28667 914.83 0.959999 916.79 0.959999L917.56 1.66V49.96C917.56 50.52 917.677 50.8933 917.91 51.08C918.19 51.22 918.54 51.3367 918.96 51.43L922.39 52.27L922.11 55H906.78ZM927.972 55L927.552 52.27C929.839 51.8033 931.215 51.3367 931.682 50.87C932.195 50.3567 932.452 49.4933 932.452 48.28V7.61C932.452 6.63 932.079 5.93 931.332 5.51C930.585 5.04333 929.185 4.6 927.132 4.18L927.552 1.94C932.545 1.28667 936.022 0.959999 937.982 0.959999L938.752 1.66V49.96C938.752 50.52 938.869 50.8933 939.102 51.08C939.382 51.22 939.732 51.3367 940.152 51.43L943.582 52.27L943.302 55H927.972ZM964.283 55.63C959.243 55.63 955.37 54.1367 952.663 51.15C949.957 48.1633 948.603 43.9867 948.603 38.62C948.603 33.2533 950.027 28.96 952.873 25.74C955.767 22.4733 959.733 20.84 964.773 20.84C969.86 20.84 973.757 22.3567 976.463 25.39C979.17 28.3767 980.523 32.5533 980.523 37.92C980.523 43.2867 979.077 47.58 976.183 50.8C973.337 54.02 969.37 55.63 964.283 55.63ZM955.393 37.71C955.393 41.8633 956.233 45.27 957.913 47.93C959.593 50.59 961.88 51.92 964.773 51.92C967.667 51.92 969.72 51.22 970.933 49.82C971.773 48.8867 972.45 47.4167 972.963 45.41C973.477 43.3567 973.733 41.14 973.733 38.76C973.733 34.6067 972.893 31.2 971.213 28.54C969.533 25.88 967.247 24.55 964.353 24.55C961.46 24.55 959.407 25.25 958.193 26.65C957.353 27.5833 956.677 29.0767 956.163 31.13C955.65 33.1367 955.393 35.33 955.393 37.71Z" fill="black"/>
</svg>
